<?xml version="1.0" encoding="UTF-8"?>
<svg id="Layer_2" data-name="Layer 2" xmlns="http://www.w3.org/2000/svg" xmlns:xlink="http://www.w3.org/1999/xlink" viewBox="0 0 1280 266.67">
  <defs>
    <style>
      .cls-1 {
        clip-path: url(#clippath);
      }

      .cls-2, .cls-3, .cls-4 {
        fill: none;
      }

      .cls-2, .cls-5 {
        stroke-width: 0px;
      }

      .cls-3 {
        stroke-width: 3.1px;
        stroke: #FF3600;

      }

      .cls-3, .cls-4 {
        stroke: #FF3600;
        stroke-miterlimit: 10;
      }

      .cls-6 {
        clip-path: url(#clippath-1);
      }

      .cls-7 {
        clip-path: url(#clippath-4);
      }

      .cls-8 {
        clip-path: url(#clippath-3);
      }

      .cls-9 {
        clip-path: url(#clippath-2);
      }

      .cls-10 {
        clip-path: url(#clippath-7);
      }

      .cls-11 {
        clip-path: url(#clippath-8);
      }

      .cls-12 {
        clip-path: url(#clippath-6);
      }

      .cls-13 {
        clip-path: url(#clippath-5);
      }

      .cls-14 {
        clip-path: url(#clippath-9);
      }

      .cls-15 {
        clip-path: url(#clippath-20);
      }

      .cls-16 {
        clip-path: url(#clippath-21);
      }

      .cls-17 {
        clip-path: url(#clippath-24);
      }

      .cls-18 {
        clip-path: url(#clippath-23);
      }

      .cls-19 {
        clip-path: url(#clippath-22);
      }

      .cls-20 {
        clip-path: url(#clippath-25);
      }

      .cls-21 {
        clip-path: url(#clippath-44);
      }

      .cls-22 {
        clip-path: url(#clippath-45);
      }

      .cls-23 {
        clip-path: url(#clippath-40);
      }

      .cls-24 {
        clip-path: url(#clippath-42);
      }

      .cls-25 {
        clip-path: url(#clippath-41);
      }

      .cls-26 {
        clip-path: url(#clippath-47);
      }

      .cls-27 {
        clip-path: url(#clippath-43);
      }

      .cls-28 {
        clip-path: url(#clippath-46);
      }

      .cls-29 {
        clip-path: url(#clippath-48);
      }

      .cls-30 {
        clip-path: url(#clippath-27);
      }

      .cls-31 {
        clip-path: url(#clippath-28);
      }

      .cls-32 {
        clip-path: url(#clippath-26);
      }

      .cls-33 {
        clip-path: url(#clippath-29);
      }

      .cls-34 {
        clip-path: url(#clippath-34);
      }

      .cls-35 {
        clip-path: url(#clippath-35);
      }

      .cls-36 {
        clip-path: url(#clippath-36);
      }

      .cls-37 {
        clip-path: url(#clippath-37);
      }

      .cls-38 {
        clip-path: url(#clippath-39);
      }

      .cls-39 {
        clip-path: url(#clippath-33);
      }

      .cls-40 {
        clip-path: url(#clippath-32);
      }

      .cls-41 {
        clip-path: url(#clippath-30);
      }

      .cls-42 {
        clip-path: url(#clippath-38);
      }

      .cls-43 {
        clip-path: url(#clippath-31);
      }

      .cls-44 {
        clip-path: url(#clippath-14);
      }

      .cls-45 {
        clip-path: url(#clippath-13);
      }

      .cls-46 {
        clip-path: url(#clippath-12);
      }

      .cls-47 {
        clip-path: url(#clippath-10);
      }

      .cls-48 {
        clip-path: url(#clippath-15);
      }

      .cls-49 {
        clip-path: url(#clippath-17);
      }

      .cls-50 {
        clip-path: url(#clippath-16);
      }

      .cls-51 {
        clip-path: url(#clippath-19);
      }

      .cls-52 {
        clip-path: url(#clippath-11);
      }

      .cls-53 {
        clip-path: url(#clippath-18);
      }

      .cls-4 {
        stroke-width: 1.55px;
      }

      .cls-5 {
        fill: #FF3600;
;
      }
    </style>
    <clipPath id="clippath">
      <rect class="cls-2" width="1280" height="266.67"/>
    </clipPath>
    <clipPath id="clippath-1">
      <rect class="cls-2" width="1280" height="266.67"/>
    </clipPath>
    <clipPath id="clippath-2">
      <rect class="cls-2" width="1280" height="266.67"/>
    </clipPath>
    <clipPath id="clippath-3">
      <rect class="cls-2" width="1280" height="266.67"/>
    </clipPath>
    <clipPath id="clippath-4">
      <rect class="cls-2" width="1280" height="266.67"/>
    </clipPath>
    <clipPath id="clippath-5">
      <rect class="cls-2" width="1280" height="266.67"/>
    </clipPath>
    <clipPath id="clippath-6">
      <rect class="cls-2" width="1280" height="266.67"/>
    </clipPath>
    <clipPath id="clippath-7">
      <rect class="cls-2" width="1280" height="266.67"/>
    </clipPath>
    <clipPath id="clippath-8">
      <rect class="cls-2" width="1280" height="266.67"/>
    </clipPath>
    <clipPath id="clippath-9">
      <rect class="cls-2" width="1280" height="266.67"/>
    </clipPath>
    <clipPath id="clippath-10">
      <rect class="cls-2" width="1280" height="266.67"/>
    </clipPath>
    <clipPath id="clippath-11">
      <rect class="cls-2" width="1280" height="266.67"/>
    </clipPath>
    <clipPath id="clippath-12">
      <rect class="cls-2" width="1280" height="266.67"/>
    </clipPath>
    <clipPath id="clippath-13">
      <rect class="cls-2" width="1280" height="266.67"/>
    </clipPath>
    <clipPath id="clippath-14">
      <rect class="cls-2" width="1280" height="266.67"/>
    </clipPath>
    <clipPath id="clippath-15">
      <rect class="cls-2" width="1280" height="266.67"/>
    </clipPath>
    <clipPath id="clippath-16">
      <rect class="cls-2" width="1280" height="266.67"/>
    </clipPath>
    <clipPath id="clippath-17">
      <rect class="cls-2" width="1280" height="266.67"/>
    </clipPath>
    <clipPath id="clippath-18">
      <rect class="cls-2" width="1280" height="266.67"/>
    </clipPath>
    <clipPath id="clippath-19">
      <rect class="cls-2" width="1280" height="266.67"/>
    </clipPath>
    <clipPath id="clippath-20">
      <rect class="cls-2" width="1280" height="266.67"/>
    </clipPath>
    <clipPath id="clippath-21">
      <rect class="cls-2" width="1280" height="266.67"/>
    </clipPath>
    <clipPath id="clippath-22">
      <rect class="cls-2" width="1280" height="266.67"/>
    </clipPath>
    <clipPath id="clippath-23">
      <rect class="cls-2" width="1280" height="266.67"/>
    </clipPath>
    <clipPath id="clippath-24">
      <rect class="cls-2" width="1280" height="266.67"/>
    </clipPath>
    <clipPath id="clippath-25">
      <rect class="cls-2" width="1280" height="266.67"/>
    </clipPath>
    <clipPath id="clippath-26">
      <rect class="cls-2" width="1280" height="266.67"/>
    </clipPath>
    <clipPath id="clippath-27">
      <rect class="cls-2" width="1280" height="266.67"/>
    </clipPath>
    <clipPath id="clippath-28">
      <rect class="cls-2" width="1280" height="266.67"/>
    </clipPath>
    <clipPath id="clippath-29">
      <rect class="cls-2" width="1280" height="266.67"/>
    </clipPath>
    <clipPath id="clippath-30">
      <rect class="cls-2" width="1280" height="266.67"/>
    </clipPath>
    <clipPath id="clippath-31">
      <rect class="cls-2" width="1280" height="266.67"/>
    </clipPath>
    <clipPath id="clippath-32">
      <rect class="cls-2" width="1280" height="266.67"/>
    </clipPath>
    <clipPath id="clippath-33">
      <rect class="cls-2" width="1280" height="266.67"/>
    </clipPath>
    <clipPath id="clippath-34">
      <rect class="cls-2" width="1280" height="266.67"/>
    </clipPath>
    <clipPath id="clippath-35">
      <rect class="cls-2" width="1280" height="266.67"/>
    </clipPath>
    <clipPath id="clippath-36">
      <rect class="cls-2" width="1280" height="266.67"/>
    </clipPath>
    <clipPath id="clippath-37">
      <rect class="cls-2" width="1280" height="266.67"/>
    </clipPath>
    <clipPath id="clippath-38">
      <rect class="cls-2" width="1280" height="266.67"/>
    </clipPath>
    <clipPath id="clippath-39">
      <rect class="cls-2" width="1280" height="266.67"/>
    </clipPath>
    <clipPath id="clippath-40">
      <rect class="cls-2" width="1280" height="266.67"/>
    </clipPath>
    <clipPath id="clippath-41">
      <rect class="cls-2" width="1280" height="266.67"/>
    </clipPath>
    <clipPath id="clippath-42">
      <rect class="cls-2" width="1280" height="266.67"/>
    </clipPath>
    <clipPath id="clippath-43">
      <rect class="cls-2" width="1280" height="266.67"/>
    </clipPath>
    <clipPath id="clippath-44">
      <rect class="cls-2" width="1280" height="266.67"/>
    </clipPath>
    <clipPath id="clippath-45">
      <rect class="cls-2" width="1280" height="266.67"/>
    </clipPath>
    <clipPath id="clippath-46">
      <rect class="cls-2" width="1280" height="266.67"/>
    </clipPath>
    <clipPath id="clippath-47">
      <rect class="cls-2" width="1280" height="266.67"/>
    </clipPath>
    <clipPath id="clippath-48">
      <rect class="cls-2" width="1280" height="266.67"/>
    </clipPath>
  </defs>
  <g id="Layer_1-2" data-name="Layer 1">
    <g>
      <g class="cls-1">
        <path class="cls-5" d="m198.85,222.54c3.72-2.06,5.73-7.75,4.81-16.57-.47-4.52-.62-9.39-.46-14.04"/>
        <path class="cls-3" d="m198.85,222.54c3.72-2.06,5.73-7.75,4.81-16.57-.47-4.52-.62-9.39-.46-14.04"/>
      </g>
      <polygon class="cls-5" points="206.88 192.71 195.84 174.32 201.16 202.2 206.88 192.71"/>
      <polygon class="cls-4" points="206.88 192.71 195.84 174.32 201.16 202.2 206.88 192.71"/>
      <g class="cls-6">
        <path class="cls-5" d="m163.09,339.04c-2.49-5.16-4.92-10.71-6.81-16.9-5.28-17.21-4.57-37.31,1.39-53.5,5.74-15.61,13.27-25.88,21.68-32.92,2.93-2.45,5.91-4.68,8.91-6.72"/>
        <path class="cls-3" d="m163.09,339.04c-2.49-5.16-4.92-10.71-6.81-16.9-5.28-17.21-4.57-37.31,1.39-53.5,5.74-15.61,13.27-25.88,21.68-32.92,2.93-2.45,5.91-4.68,8.91-6.72"/>
      </g>
      <polygon class="cls-5" points="186.93 238.15 198.85 222.54 184.92 223.16 186.93 238.15"/>
      <polygon class="cls-4" points="186.93 238.15 198.85 222.54 184.92 223.16 186.93 238.15"/>
      <g class="cls-9">
        <path class="cls-5" d="m1026.14,187.17c1.3,22.9-3.82,38.98-11.59,52.07-9.02,15.21-19.43,23.72-30.33,29.6"/>
        <path class="cls-3" d="m1026.14,187.17c1.3,22.9-3.82,38.98-11.59,52.07-9.02,15.21-19.43,23.72-30.33,29.6"/>
      </g>
      <polygon class="cls-5" points="981.6 266.67 986.52 266.67 984.62 259.87 981.6 266.67"/>
      <g class="cls-8">
        <polygon class="cls-4" points="984.62 259.87 974.97 281.62 988.35 273.23 984.62 259.87"/>
        <path class="cls-5" d="m1065.73,173.4c-10.08,2.31-20.16,2.81-30.25,1.3"/>
        <path class="cls-3" d="m1065.73,173.4c-10.08,2.31-20.16,2.81-30.25,1.3"/>
      </g>
      <polygon class="cls-5" points="1036.29 166.53 1026.14 187.17 1039.7 180.29 1036.29 166.53"/>
      <polygon class="cls-4" points="1036.29 166.53 1026.14 187.17 1039.7 180.29 1036.29 166.53"/>
      <g class="cls-7">
        <path class="cls-5" d="m1118.97,172.76c-14.09,3.72-28.16,3.54-42.25.26"/>
        <path class="cls-3" d="m1118.97,172.76c-14.09,3.72-28.16,3.54-42.25.26"/>
      </g>
      <polygon class="cls-5" points="1079.15 165.28 1065.73 173.4 1079.23 180.9 1079.15 165.28"/>
      <polygon class="cls-4" points="1079.15 165.28 1065.73 173.4 1079.23 180.9 1079.15 165.28"/>
      <g class="cls-13">
        <path class="cls-5" d="m1169.61,172.67c-13.23,3.59-26.44,3.74-39.66.93"/>
        <path class="cls-3" d="m1169.61,172.67c-13.23,3.59-26.44,3.74-39.66.93"/>
      </g>
      <polygon class="cls-5" points="1132.54 165.95 1118.97 172.75 1132.3 181.56 1132.54 165.95"/>
      <polygon class="cls-4" points="1132.54 165.95 1118.97 172.75 1132.3 181.56 1132.54 165.95"/>
      <g class="cls-12">
        <path class="cls-5" d="m1201.89,175.49c-7.12.41-14.22-.31-21.29-1.86"/>
        <path class="cls-3" d="m1201.89,175.49c-7.12.41-14.22-.31-21.29-1.86"/>
      </g>
      <polygon class="cls-5" points="1183.19 165.89 1169.61 172.67 1182.94 181.5 1183.19 165.89"/>
      <polygon class="cls-4" points="1183.19 165.89 1169.61 172.67 1182.94 181.5 1183.19 165.89"/>
      <g class="cls-10">
        <path class="cls-5" d="m1246.32,25.61c9.89,7.37,19.02,17.6,26.16,34.89,7.91,19.14,7.84,45.58-.12,64.61-7.1,16.99-16.14,26.9-25.86,34.51-10.93,8.56-22.2,12.76-33.63,14.67"/>
        <path class="cls-3" d="m1246.32,25.61c9.89,7.37,19.02,17.6,26.16,34.89,7.91,19.14,7.84,45.58-.12,64.61-7.1,16.99-16.14,26.9-25.86,34.51-10.93,8.56-22.2,12.76-33.63,14.67"/>
      </g>
      <polygon class="cls-5" points="1215.13 166.09 1201.89 175.48 1215.52 181.68 1215.13 166.09"/>
      <polygon class="cls-4" points="1215.13 166.09 1201.89 175.48 1215.52 181.68 1215.13 166.09"/>
      <g class="cls-11">
        <path class="cls-5" d="m1177.18,12.5c19.8-4.63,39.4-4.06,58.59,6.33"/>
        <path class="cls-3" d="m1177.18,12.5c19.8-4.63,39.4-4.06,58.59,6.33"/>
      </g>
      <polygon class="cls-5" points="1232.39 25.11 1246.32 25.61 1234.37 10.1 1232.39 25.11"/>
      <polygon class="cls-4" points="1232.39 25.11 1246.32 25.61 1234.37 10.1 1232.39 25.11"/>
      <g class="cls-14">
        <path class="cls-5" d="m1126.36,12.65c13.29-3.61,26.56-3.76,39.84-.93"/>
        <path class="cls-3" d="m1126.36,12.65c13.29-3.61,26.56-3.76,39.84-.93"/>
      </g>
      <polygon class="cls-5" points="1163.62 19.37 1177.18 12.51 1163.85 3.77 1163.62 19.37"/>
      <polygon class="cls-4" points="1163.62 19.37 1177.18 12.51 1163.85 3.77 1163.62 19.37"/>
      <g class="cls-47">
        <path class="cls-5" d="m1076.08,12.58c13.11-3.48,26.2-3.69,39.29-.93"/>
        <path class="cls-3" d="m1076.08,12.58c13.11-3.48,26.2-3.69,39.29-.93"/>
      </g>
      <polygon class="cls-5" points="1112.76 19.27 1126.36 12.66 1113.06 3.67 1112.76 19.27"/>
      <polygon class="cls-4" points="1112.76 19.27 1126.36 12.66 1113.06 3.67 1112.76 19.27"/>
      <g class="cls-52">
        <path class="cls-5" d="m1025.44,12.67c13.23-3.63,26.44-3.79,39.66-.98"/>
        <path class="cls-3" d="m1025.44,12.67c13.23-3.63,26.44-3.79,39.66-.98"/>
      </g>
      <polygon class="cls-5" points="1062.5 19.33 1076.08 12.58 1062.76 3.72 1062.5 19.33"/>
      <polygon class="cls-4" points="1062.5 19.33 1076.08 12.58 1062.76 3.72 1062.5 19.33"/>
      <g class="cls-46">
        <path class="cls-5" d="m917.66,104.95c-.21-2.09-.32-4.23-.47-6.34-1.01-14.16,1.28-26.16,5.32-36.85,6.33-16.78,14.88-26.41,23.96-34.16,11.19-9.53,22.88-14.07,34.8-16.36,11.09-2.13,22.15-1.98,33.19.39"/>
        <path class="cls-3" d="m917.66,104.95c-.21-2.09-.32-4.23-.47-6.34-1.01-14.16,1.28-26.16,5.32-36.85,6.33-16.78,14.88-26.41,23.96-34.16,11.19-9.53,22.88-14.07,34.8-16.36,11.09-2.13,22.15-1.98,33.19.39"/>
      </g>
      <polygon class="cls-5" points="1011.83 19.16 1025.44 12.68 1012.16 3.56 1011.83 19.16"/>
      <polygon class="cls-4" points="1011.83 19.16 1025.44 12.68 1012.16 3.56 1011.83 19.16"/>
      <g class="cls-45">
        <path class="cls-5" d="m870.93,167.36c5.59-15.73,13.09-25.61,21.29-33.46,5.66-5.41,11.52-9.41,17.5-12.62"/>
        <path class="cls-3" d="m870.93,167.36c5.59-15.73,13.09-25.61,21.29-33.46,5.66-5.41,11.52-9.41,17.5-12.62"/>
      </g>
      <polygon class="cls-5" points="909.89 129.98 917.67 104.95 905.15 118.22 909.89 129.98"/>
      <polygon class="cls-4" points="909.89 129.98 917.67 104.95 905.15 118.22 909.89 129.98"/>
      <g class="cls-44">
        <path class="cls-5" d="m856.33,134.73c-2.92,6.33-2.74,13.47.3,19.56,1.24,2.48,2.43,5.1,3.59,7.79"/>
        <path class="cls-3" d="m856.33,134.73c-2.92,6.33-2.74,13.47.3,19.56,1.24,2.48,2.43,5.1,3.59,7.79"/>
      </g>
      <polygon class="cls-5" points="857 166.69 870.93 167.37 859.02 151.7 857 166.69"/>
      <polygon class="cls-4" points="857 166.69 870.93 167.37 859.02 151.7 857 166.69"/>
      <g class="cls-48">
        <path class="cls-5" d="m703.82,119.38c2.99-1.59,4.68-7.57,3.95-14.13-1.95-17.5.2-32.52,5.69-45.73,6.99-16.82,16.01-26.36,25.6-33.9,13.33-10.48,27.2-14.44,41.27-15.55,16.58-1.32,33,1.49,49,11.64,9.4,5.96,18.39,13.98,26.12,27.41,3.49,6.07,6.55,13.03,8.79,21.64,4.04,15.53,3.34,32.2-.61,46.14"/>
        <path class="cls-3" d="m703.82,119.38c2.99-1.59,4.68-7.57,3.95-14.13-1.95-17.5.2-32.52,5.69-45.73,6.99-16.82,16.01-26.36,25.6-33.9,13.33-10.48,27.2-14.44,41.27-15.55,16.58-1.32,33,1.49,49,11.64,9.4,5.96,18.39,13.98,26.12,27.41,3.49,6.07,6.55,13.03,8.79,21.64,4.04,15.53,3.34,32.2-.61,46.14"/>
      </g>
      <polygon class="cls-5" points="862.26 107.44 856.33 134.73 867.77 117.52 862.26 107.44"/>
      <polygon class="cls-4" points="862.26 107.44 856.33 134.73 867.77 117.52 862.26 107.44"/>
      <g class="cls-50">
        <path class="cls-5" d="m666.58,154.95c7.82-14.64,16.96-23.26,26.59-29.56"/>
        <path class="cls-3" d="m666.58,154.95c7.82-14.64,16.96-23.26,26.59-29.56"/>
      </g>
      <polygon class="cls-5" points="691.74 134.43 703.82 119.38 689.89 119.34 691.74 134.43"/>
      <polygon class="cls-4" points="691.74 134.43 703.82 119.38 689.89 119.34 691.74 134.43"/>
      <g class="cls-49">
        <path class="cls-5" d="m657.34,207.95c-1.5-13.41-.54-24.85,2.1-34.88"/>
        <path class="cls-3" d="m657.34,207.95c-1.5-13.41-.54-24.85,2.1-34.88"/>
      </g>
      <polygon class="cls-5" points="660.91 182.49 666.59 154.95 655.3 172.65 660.91 182.49"/>
      <polygon class="cls-4" points="660.91 182.49 666.59 154.95 655.3 172.65 660.91 182.49"/>
      <g class="cls-53">
        <path class="cls-5" d="m638.49,230.91c3.6-2.32,7.22-4.54,10.84-6.69"/>
        <path class="cls-3" d="m638.49,230.91c3.6-2.32,7.22-4.54,10.84-6.69"/>
      </g>
      <polygon class="cls-5" points="649.48 232.84 657.34 207.95 644.78 220.99 649.48 232.84"/>
      <polygon class="cls-4" points="649.48 232.84 657.34 207.95 644.78 220.99 649.48 232.84"/>
      <g class="cls-51">
        <path class="cls-5" d="m614.3,206.71c-.91,8.28.66,13.32,4.42,15.45,2.98,1.68,5.95,3.45,8.91,5.29"/>
        <path class="cls-3" d="m614.3,206.71c-.91,8.28.66,13.32,4.42,15.45,2.98,1.68,5.95,3.45,8.91,5.29"/>
      </g>
      <polygon class="cls-5" points="624.64 234.18 638.49 230.91 625.74 218.75 624.64 234.18"/>
      <polygon class="cls-4" points="624.64 234.18 638.49 230.91 625.74 218.75 624.64 234.18"/>
      <g class="cls-15">
        <path class="cls-5" d="m567.92,119.42c8.09,3.85,15.97,9.01,23.46,16.72,7.07,7.27,13.57,16.23,18.46,29.82,1.94,5.37,3.36,11,4.2,16.93"/>
        <path class="cls-3" d="m567.92,119.42c8.09,3.85,15.97,9.01,23.46,16.72,7.07,7.27,13.57,16.23,18.46,29.82,1.94,5.37,3.36,11,4.2,16.93"/>
      </g>
      <polygon class="cls-5" points="609.99 178.02 614.29 206.71 617.2 177.21 609.99 178.02"/>
      <polygon class="cls-4" points="609.99 178.02 614.29 206.71 617.2 177.21 609.99 178.02"/>
      <g class="cls-16">
        <path class="cls-5" d="m553.11,49.23c3.44,5.98,6.45,12.88,8.68,21.34,2.23,8.46,2.97,17.23,2.62,26.3"/>
        <path class="cls-3" d="m553.11,49.23c3.44,5.98,6.45,12.88,8.68,21.34,2.23,8.46,2.97,17.23,2.62,26.3"/>
      </g>
      <polygon class="cls-5" points="560.61 93.75 567.91 119.42 567.52 89.28 560.61 93.75"/>
      <polygon class="cls-4" points="560.61 93.75 567.91 119.42 567.52 89.28 560.61 93.75"/>
      <g class="cls-19">
        <path class="cls-5" d="m527,21.72c5.85,3.81,11.55,8.35,16.89,14.47"/>
        <path class="cls-3" d="m527,21.72c5.85,3.81,11.55,8.35,16.89,14.47"/>
      </g>
      <polygon class="cls-5" points="539.8 40.3 553.11 49.24 543.65 27.09 539.8 40.3"/>
      <polygon class="cls-4" points="539.8 40.3 553.11 49.24 543.65 27.09 539.8 40.3"/>
      <g class="cls-18">
        <path class="cls-5" d="m491.96,10.13c8.2.65,16.35,2.38,24.37,5.84"/>
        <path class="cls-3" d="m491.96,10.13c8.2.65,16.35,2.38,24.37,5.84"/>
      </g>
      <polygon class="cls-5" points="513.08 22.59 527 21.73 514.74 7.4 513.08 22.59"/>
      <polygon class="cls-4" points="513.08 22.59 527 21.73 514.74 7.4 513.08 22.59"/>
      <g class="cls-17">
        <path class="cls-5" d="m437.25,25.15c14.24-10.59,28.87-14.81,43.71-15.3"/>
        <path class="cls-3" d="m437.25,25.15c14.24-10.59,28.87-14.81,43.71-15.3"/>
      </g>
      <polygon class="cls-5" points="478.49 17.81 491.96 10.14 478.52 2.2 478.49 17.81"/>
      <polygon class="cls-4" points="478.49 17.81 491.96 10.14 478.52 2.2 478.49 17.81"/>
      <g class="cls-20">
        <path class="cls-5" d="m357.13,13.09c1.74.48,3.57-.13,5.34-.55,21.62-5.14,43-3.84,63.89,9.41"/>
        <path class="cls-3" d="m357.13,13.09c1.74.48,3.57-.13,5.34-.55,21.62-5.14,43-3.84,63.89,9.41"/>
      </g>
      <polygon class="cls-5" points="423.42 28.72 437.25 25.16 424.45 13.27 423.42 28.72"/>
      <polygon class="cls-4" points="423.42 28.72 437.25 25.16 424.45 13.27 423.42 28.72"/>
      <g class="cls-32">
        <path class="cls-5" d="m306.67,13.1c1.68.47,3.45-.05,5.16-.51,11.46-3.05,22.91-3.59,34.36-1.85"/>
        <path class="cls-3" d="m306.67,13.1c1.68.47,3.45-.05,5.16-.51,11.46-3.05,22.91-3.59,34.36-1.85"/>
      </g>
      <polygon class="cls-5" points="343.4 18.12 357.13 13.1 344.07 2.58 343.4 18.12"/>
      <polygon class="cls-4" points="343.4 18.12 357.13 13.1 344.07 2.58 343.4 18.12"/>
      <g class="cls-30">
        <path class="cls-5" d="m256.4,13.11c1.56.43,3.21-.01,4.79-.45,11.52-3.15,23.03-3.68,34.54-1.92"/>
        <path class="cls-3" d="m256.4,13.11c1.56.43,3.21-.01,4.79-.45,11.52-3.15,23.03-3.68,34.54-1.92"/>
      </g>
      <polygon class="cls-5" points="292.94 18.12 306.67 13.1 293.62 2.58 292.94 18.12"/>
      <polygon class="cls-4" points="292.94 18.12 306.67 13.1 293.62 2.58 292.94 18.12"/>
      <g class="cls-31">
        <path class="cls-5" d="m206.67,13.41c1.4.23,2.84-.34,4.25-.73,11.52-3.17,23.03-3.71,34.54-1.94"/>
        <path class="cls-3" d="m206.67,13.41c1.4.23,2.84-.34,4.25-.73,11.52-3.17,23.03-3.71,34.54-1.94"/>
      </g>
      <polygon class="cls-5" points="242.66 18.12 256.4 13.11 243.34 2.58 242.66 18.12"/>
      <polygon class="cls-4" points="242.66 18.12 256.4 13.11 243.34 2.58 242.66 18.12"/>
      <g class="cls-33">
        <path class="cls-5" d="m195.84,174.33c-22,3.27-43.67.26-64.5-17.03-8.65-7.18-16.58-16.82-22.93-31.96-8.1-19.33-8.12-45.9-.05-65.23,7.6-18.19,17.35-28.36,27.8-35.89,17.37-12.53,35.31-15.58,53.47-14.03,2.03.17,4.07.51,6.1.92"/>
        <path class="cls-3" d="m195.84,174.33c-22,3.27-43.67.26-64.5-17.03-8.65-7.18-16.58-16.82-22.93-31.96-8.1-19.33-8.12-45.9-.05-65.23,7.6-18.19,17.35-28.36,27.8-35.89,17.37-12.53,35.31-15.58,53.47-14.03,2.03.17,4.07.51,6.1.92"/>
      </g>
      <polygon class="cls-5" points="192.94 18.54 206.67 13.41 193.6 2.99 192.94 18.54"/>
      <polygon class="cls-4" points="192.94 18.54 206.67 13.41 193.6 2.99 192.94 18.54"/>
      <g class="cls-41">
        <path class="cls-5" d="m404.8,189.3c.27-10.86-2.22-15.9-7.2-14.96-9.04,1.7-18.08,1.72-27.12.09"/>
        <path class="cls-3" d="m404.8,189.3c.27-10.86-2.22-15.9-7.2-14.96-9.04,1.7-18.08,1.72-27.12.09"/>
      </g>
      <polygon class="cls-5" points="370.87 166.71 362.58 190.94 375.36 178.92 370.87 166.71"/>
      <polygon class="cls-4" points="370.87 166.71 362.58 190.94 375.36 178.92 370.87 166.71"/>
      <g class="cls-43">
        <path class="cls-5" d="m401.01,324.28c3.43-1.63,4.95-7.23,4.24-14.65-1.11-11.65-.78-22.88,2.05-33.49,1.98-7.42,4.51-13.72,7.49-19.32,3.36-6.3,3.3-13.83.06-20.36-1.67-3.37-3.36-6.79-4.8-10.62-1.54-4.1-2.85-8.42-3.79-12.95"/>
        <path class="cls-3" d="m401.01,324.28c3.43-1.63,4.95-7.23,4.24-14.65-1.11-11.65-.78-22.88,2.05-33.49,1.98-7.42,4.51-13.72,7.49-19.32,3.36-6.3,3.3-13.83.06-20.36-1.67-3.37-3.36-6.79-4.8-10.62-1.54-4.1-2.85-8.42-3.79-12.95"/>
      </g>
      <polygon class="cls-5" points="410.55 216.77 404.81 189.3 403.43 219.31 410.55 216.77"/>
      <polygon class="cls-4" points="410.55 216.77 404.81 189.3 403.43 219.31 410.55 216.77"/>
      <g class="cls-40">
        <path class="cls-5" d="m362.58,190.95c.24,5.72-.01,11.92-.8,17.4-2.19,15.33-7.25,26.05-13.19,34.84-6.5,9.62-13.54,16.51-20.91,21.51"/>
        <path class="cls-3" d="m362.58,190.95c.24,5.72-.01,11.92-.8,17.4-2.19,15.33-7.25,26.05-13.19,34.84-6.5,9.62-13.54,16.51-20.91,21.51"/>
      </g>
      <polygon class="cls-5" points="320.17 266.67 330.48 266.67 329.07 255.46 320.17 266.67"/>
      <g class="cls-39">
        <polygon class="cls-4" points="329.07 255.46 317.03 270.62 330.96 270.53 329.07 255.46"/>
        <path class="cls-5" d="m859.86,228.65c-2.86,8.88-5.82,17.6-8.71,26.45-2.31,7.09-4.69,14.11-6.83,21.45-1.74,5.97-3.2,12.34-4.7,18.61-1.79,7.46-4.11,14.65-5.11,22.6-1.79,14.27-4.98,27.57-5.62,42.72-.48,11.36-2.14,22.48-3.28,33.7-.56,5.47-1.31,10.89-1.62,16.43-.44,7.88-.32,15.94-.89,23.76-.64,8.89-.29,17.7-.28,26.55,0,9.4.19,18.82-.05,28.19-.29,11.53.77,22.59,2.05,33.57.2,1.75.42,3.49.65,5.23"/>
        <path class="cls-3" d="m859.86,228.65c-2.86,8.88-5.82,17.6-8.71,26.45-2.31,7.09-4.69,14.11-6.83,21.45-1.74,5.97-3.2,12.34-4.7,18.61-1.79,7.46-4.11,14.65-5.11,22.6-1.79,14.27-4.98,27.57-5.62,42.72-.48,11.36-2.14,22.48-3.28,33.7-.56,5.47-1.31,10.89-1.62,16.43-.44,7.88-.32,15.94-.89,23.76-.64,8.89-.29,17.7-.28,26.55,0,9.4.19,18.82-.05,28.19-.29,11.53.77,22.59,2.05,33.57.2,1.75.42,3.49.65,5.23"/>
        <path class="cls-5" d="m890.51,276.88c5.8-8.37,8.64-19.88,9.23-36.4-.45-3.78-.76-9.68-1.85-14.8-4.13-19.3-13.46-28.51-22.89-21.32-2.45,1.87-4.57,5.75-6.92,8.33l-.03.03"/>
        <path class="cls-3" d="m890.51,276.88c5.8-8.37,8.64-19.88,9.23-36.4-.45-3.78-.76-9.68-1.85-14.8-4.13-19.3-13.46-28.51-22.89-21.32-2.45,1.87-4.57,5.75-6.92,8.33l-.03.03"/>
      </g>
      <polygon class="cls-5" points="867.66 203.66 859.86 228.65 872.39 215.45 867.66 203.66"/>
      <polygon class="cls-4" points="867.66 203.66 859.86 228.65 872.39 215.45 867.66 203.66"/>
      <g class="cls-34">
        <path class="cls-5" d="m443.11,158.99c.24-.21.48-.41.72-.62.44,1.29.85,2.67,1.34,3.86,5.84,14.09,16.35,16.07,23.77,5.29,1.24-1.8,2.72-3.09,4.18-3.89,3.87-2.13,7.27-6.88,9.74-13.16"/>
        <path class="cls-3" d="m443.11,158.99c.24-.21.48-.41.72-.62.44,1.29.85,2.67,1.34,3.86,5.84,14.09,16.35,16.07,23.77,5.29,1.24-1.8,2.72-3.09,4.18-3.89,3.87-2.13,7.27-6.88,9.74-13.16"/>
      </g>
      <polygon class="cls-5" points="484.74 158.21 487.07 128.48 478.18 151.71 484.74 158.21"/>
      <polygon class="cls-4" points="484.74 158.21 487.07 128.48 478.18 151.71 484.74 158.21"/>
      <g class="cls-35">
        <path class="cls-5" d="m425.77,72.11c-1.24,3-2.86,5.6-4.53,7.36-3.15,3.32-5.98,7.48-7.74,13.95-2.7,9.95-5.28,19.85-6.61,31.53-1.28,11.3-1.38,22.37-1.12,33.55.5,21.73,9.58,39.16,20.4,36.58,4.97-1.19,9.39-6.42,12.43-14.37"/>
        <path class="cls-3" d="m425.77,72.11c-1.24,3-2.86,5.6-4.53,7.36-3.15,3.32-5.98,7.48-7.74,13.95-2.7,9.95-5.28,19.85-6.61,31.53-1.28,11.3-1.38,22.37-1.12,33.55.5,21.73,9.58,39.16,20.4,36.58,4.97-1.19,9.39-6.42,12.43-14.37"/>
      </g>
      <polygon class="cls-5" points="440.44 188.59 443.11 158.99 433.96 181.74 440.44 188.59"/>
      <polygon class="cls-4" points="440.44 188.59 443.11 158.99 433.96 181.74 440.44 188.59"/>
      <g class="cls-36">
        <path class="cls-5" d="m495.06,45.34c-2.91-1.73-6.09-1.52-9.15-1.87-3.19-.37-6.38-.49-9.57-.48-3.26.01-6.51.25-9.76.51-2.08.16-4.15.49-6.22.82-.98.16-1.98.35-2.94.8-2.4,1.11-4.85,2.02-7.18,3.64-4.7,3.26-9.28,7.4-14.03,10.28-.35.21-.7.43-1.04.67"/>
        <path class="cls-3" d="m495.06,45.34c-2.91-1.73-6.09-1.52-9.15-1.87-3.19-.37-6.38-.49-9.57-.48-3.26.01-6.51.25-9.76.51-2.08.16-4.15.49-6.22.82-.98.16-1.98.35-2.94.8-2.4,1.11-4.85,2.02-7.18,3.64-4.7,3.26-9.28,7.4-14.03,10.28-.35.21-.7.43-1.04.67"/>
      </g>
      <polygon class="cls-5" points="435.63 50.78 425.77 72.1 439.23 64.3 435.63 50.78"/>
      <polygon class="cls-4" points="435.63 50.78 425.77 72.1 439.23 64.3 435.63 50.78"/>
      <g class="cls-37">
        <path class="cls-5" d="m487.06,128.48c.14-5.08.49-5.58,2.73-3.8,4.06,3.21,8.12,6.38,12.16,9.71,5.88,4.86,11.74,9.87,17.62,14.78,3.94,3.29,7.94,4.71,12.14,2.28,8.33-4.83,13.11-17.19,14.13-34.83.99-17.12-3.45-33.77-10.66-40.55-4.64-4.36-9.44-7.93-14.18-11.79-2.71-2.21-5.43-4.45-8.17-6.45-2.43-1.77-4.85-3.6-7.28-5.38"/>
        <path class="cls-3" d="m487.06,128.48c.14-5.08.49-5.58,2.73-3.8,4.06,3.21,8.12,6.38,12.16,9.71,5.88,4.86,11.74,9.87,17.62,14.78,3.94,3.29,7.94,4.71,12.14,2.28,8.33-4.83,13.11-17.19,14.13-34.83.99-17.12-3.45-33.77-10.66-40.55-4.64-4.36-9.44-7.93-14.18-11.79-2.71-2.21-5.43-4.45-8.17-6.45-2.43-1.77-4.85-3.6-7.28-5.38"/>
      </g>
      <polygon class="cls-5" points="508.98 46.68 495.06 45.34 506.8 61.56 508.98 46.68"/>
      <polygon class="cls-4" points="508.98 46.68 495.06 45.34 506.8 61.56 508.98 46.68"/>
      <g class="cls-42">
        <path class="cls-5" d="m985.28,124.61c1.78,0,3.58-.25,5.34.12,4.46.94,8.9,2.16,12.94,3.16,2.12-.7,3.87-.63,5.39-1.9,2.92-2.46,5.73-5.58,8.55-8.61,8.39-9.03,12.53-31.51,8.59-49.96-3.1-14.5-6.96-28.33-14.74-33.63-.23-.16-.45-.45-.65-.75-1.89-2.85-3.84-4.83-5.84-6.02"/>
        <path class="cls-3" d="m985.28,124.61c1.78,0,3.58-.25,5.34.12,4.46.94,8.9,2.16,12.94,3.16,2.12-.7,3.87-.63,5.39-1.9,2.92-2.46,5.73-5.58,8.55-8.61,8.39-9.03,12.53-31.51,8.59-49.96-3.1-14.5-6.96-28.33-14.74-33.63-.23-.16-.45-.45-.65-.75-1.89-2.85-3.84-4.83-5.84-6.02"/>
      </g>
      <polygon class="cls-5" points="1007.34 20.07 993.85 27.58 1007.27 35.68 1007.34 20.07"/>
      <polygon class="cls-4" points="1007.34 20.07 993.85 27.58 1007.27 35.68 1007.34 20.07"/>
      <g class="cls-38">
        <path class="cls-5" d="m965.95,144.95c3.86-.2,7.29-2.49,10.21-7.02"/>
        <path class="cls-3" d="m965.95,144.95c3.86-.2,7.29-2.49,10.21-7.02"/>
      </g>
      <polygon class="cls-5" points="976.13 147.35 985.28 124.61 972.1 134.4 976.13 147.35"/>
      <polygon class="cls-4" points="976.13 147.35 985.28 124.61 972.1 134.4 976.13 147.35"/>
      <g class="cls-23">
        <path class="cls-5" d="m932.26,100.94c-3.19,8.8-4.45,19.01-3.63,30.12,1.54,20.84,8.77,34.2,18.36,34.66,3.81.18,7.3-1.93,10.27-6.19"/>
        <path class="cls-3" d="m932.26,100.94c-3.19,8.8-4.45,19.01-3.63,30.12,1.54,20.84,8.77,34.2,18.36,34.66,3.81.18,7.3-1.93,10.27-6.19"/>
      </g>
      <polygon class="cls-5" points="957.39 168.73 965.96 144.95 953.04 156.27 957.39 168.73"/>
      <polygon class="cls-4" points="957.39 168.73 965.96 144.95 953.04 156.27 957.39 168.73"/>
      <g class="cls-25">
        <path class="cls-5" d="m957.59,49.3c-.53.85-1.48,1.1-2.16.8-5.87-2.59-11.24-.33-15.93,7.83-3.1,5.39-5.08,11.88-6.1,19.33"/>
        <path class="cls-3" d="m957.59,49.3c-.53.85-1.48,1.1-2.16.8-5.87-2.59-11.24-.33-15.93,7.83-3.1,5.39-5.08,11.88-6.1,19.33"/>
      </g>
      <polygon class="cls-5" points="930.39 71.06 932.26 100.94 937.55 73.05 930.39 71.06"/>
      <polygon class="cls-4" points="930.39 71.06 932.26 100.94 937.55 73.05 930.39 71.06"/>
      <g class="cls-24">
        <path class="cls-5" d="m974.82,40.56c-.38.85-1.2,1.4-1.74,1.19-1.77-.69-3.49-.94-5.17-.73"/>
        <path class="cls-3" d="m974.82,40.56c-.38.85-1.2,1.4-1.74,1.19-1.77-.69-3.49-.94-5.17-.73"/>
      </g>
      <polygon class="cls-5" points="969.21 32.64 957.59 49.29 971.5 47.45 969.21 32.64"/>
      <polygon class="cls-4" points="969.21 32.64 957.59 49.29 971.5 47.45 969.21 32.64"/>
      <g class="cls-27">
        <path class="cls-5" d="m993.85,27.58c-.46.28-.99.43-1.46.28-2.88-.92-5.58-.77-8.11.53"/>
        <path class="cls-3" d="m993.85,27.58c-.46.28-.99.43-1.46.28-2.88-.92-5.58-.77-8.11.53"/>
      </g>
      <polygon class="cls-5" points="984.87 19.69 974.82 40.56 988.35 33.37 984.87 19.69"/>
      <polygon class="cls-4" points="984.87 19.69 974.82 40.56 988.35 33.37 984.87 19.69"/>
      <g class="cls-21">
        <path class="cls-5" d="m314.22,250.79c3.26-2.77,6.53-5.78,9.55-9.57,2.2-2.76,4.05-6.9,6.02-10.51.7-1.28,1.37-2.7,1.93-4.27,1.68-4.74,3.79-9.13,4.86-14.48,2.92-14.7,4.19-30.03,3.09-46.29-.63-9.42-2.31-17.51-4.93-23.65"/>
        <path class="cls-3" d="m314.22,250.79c3.26-2.77,6.53-5.78,9.55-9.57,2.2-2.76,4.05-6.9,6.02-10.51.7-1.28,1.37-2.7,1.93-4.27,1.68-4.74,3.79-9.13,4.86-14.48,2.92-14.7,4.19-30.03,3.09-46.29-.63-9.42-2.31-17.51-4.93-23.65"/>
      </g>
      <polygon class="cls-5" points="338.49 138.86 325.11 130.48 334.77 152.23 338.49 138.86"/>
      <polygon class="cls-4" points="338.49 138.86 325.11 130.48 334.77 152.23 338.49 138.86"/>
      <g class="cls-22">
        <path class="cls-5" d="m292.66,188.88c.21,1.9-.06,4.15-.29,6.14-.51,4.4-1.45,8.67-1.67,13.12-.96,19.4,4.48,36.41,12.51,42.37"/>
        <path class="cls-3" d="m292.66,188.88c.21,1.9-.06,4.15-.29,6.14-.51,4.4-1.45,8.67-1.67,13.12-.96,19.4,4.48,36.41,12.51,42.37"/>
      </g>
      <polygon class="cls-5" points="300.61 257.22 314.22 250.8 300.95 241.63 300.61 257.22"/>
      <polygon class="cls-4" points="300.61 257.22 314.22 250.8 300.95 241.63 300.61 257.22"/>
      <g class="cls-28">
        <path class="cls-5" d="m325.11,130.49c-2.3-1.08-4.77-.36-7.13-1.04-6.97-2.01-12.85,2.16-17.57,13.59-.7,1.69-1.31,3.58-2.08,5.1-2.58,5.14-4.36,10.77-5.36,16.92"/>
        <path class="cls-3" d="m325.11,130.49c-2.3-1.08-4.77-.36-7.13-1.04-6.97-2.01-12.85,2.16-17.57,13.59-.7,1.69-1.31,3.58-2.08,5.1-2.58,5.14-4.36,10.77-5.36,16.92"/>
      </g>
      <polygon class="cls-5" points="289.92 159.31 292.66 188.88 297.12 160.31 289.92 159.31"/>
      <polygon class="cls-4" points="289.92 159.31 292.66 188.88 297.12 160.31 289.92 159.31"/>
      <g class="cls-26">
        <path class="cls-5" d="m581.6,144.43c-2.32-4.32-4.81-7.76-7.83-8.7-3.66-1.14-7.36-1.7-12.01-2.73-2.01,1.3-5.16,2.15-7.75,5.2-10.99,12.93-13.11,43.81-4.6,63.51.56,1.29.98,3.05,1.22,4.76,1.03,7.42,2.62,13.57,4.79,18.34"/>
        <path class="cls-3" d="m581.6,144.43c-2.32-4.32-4.81-7.76-7.83-8.7-3.66-1.14-7.36-1.7-12.01-2.73-2.01,1.3-5.16,2.15-7.75,5.2-10.99,12.93-13.11,43.81-4.6,63.51.56,1.29.98,3.05,1.22,4.76,1.03,7.42,2.62,13.57,4.79,18.34"/>
      </g>
      <polygon class="cls-5" points="551.71 228.28 565.22 235.66 555.23 214.64 551.71 228.28"/>
      <polygon class="cls-4" points="551.71 228.28 565.22 235.66 555.23 214.64 551.71 228.28"/>
      <g class="cls-29">
        <path class="cls-5" d="m565.22,235.65c1.93.8,3.42,2.43,4.95,4.77,2.92,4.48,6.35,6.71,9.8,6.69,6.03-.04,11.27-4.88,15.07-15.55,2.98-8.39,4.5-17.92,3.72-28.47-.43-5.88-1.64-11.47-2.26-17.31-1.06-10.08-3.67-18.2-6.54-25.89"/>
        <path class="cls-3" d="m565.22,235.65c1.93.8,3.42,2.43,4.95,4.77,2.92,4.48,6.35,6.71,9.8,6.69,6.03-.04,11.27-4.88,15.07-15.55,2.98-8.39,4.5-17.92,3.72-28.47-.43-5.88-1.64-11.47-2.26-17.31-1.06-10.08-3.67-18.2-6.54-25.89"/>
      </g>
      <polygon class="cls-5" points="594.06 157.9 581.6 144.43 589.28 169.59 594.06 157.9"/>
      <polygon class="cls-4" points="594.06 157.9 581.6 144.43 589.28 169.59 594.06 157.9"/>
    </g>
  </g>
</svg>