<?xml version="1.0" encoding="UTF-8"?>
<svg id="Layer_2" data-name="Layer 2" xmlns="http://www.w3.org/2000/svg" xmlns:xlink="http://www.w3.org/1999/xlink" viewBox="0 0 1280 266.67">
  <defs>
    <style>
      .cls-1 {
        clip-path: url(#clippath);
      }

      .cls-2, .cls-3 {
        fill: none;
      }

      .cls-2, .cls-4 {
        stroke-width: 0px;
      }

      .cls-5 {
        clip-path: url(#clippath-1); 
      }

      .cls-6 {
        clip-path: url(#clippath-4);
      }

      .cls-7 {
        clip-path: url(#clippath-3);
      }

      .cls-8 {
        clip-path: url(#clippath-2);
      }

      .cls-9 {
        clip-path: url(#clippath-7);
      }

      .cls-10 {
        clip-path: url(#clippath-8);
      }

      .cls-11 {
        clip-path: url(#clippath-6);
      }

      .cls-12 {
        clip-path: url(#clippath-5);
      }

      .cls-13 {
        clip-path: url(#clippath-9);
      }

      .cls-14 {
        clip-path: url(#clippath-20);
      }

      .cls-15 {
        clip-path: url(#clippath-21);
      }

      .cls-16 {
        clip-path: url(#clippath-24);
      }

      .cls-17 {
        clip-path: url(#clippath-23);
      }

      .cls-18 {
        clip-path: url(#clippath-22);
      }

      .cls-19 {
        clip-path: url(#clippath-25);
      }

      .cls-20 {
        clip-path: url(#clippath-44);
      }

      .cls-21 {
        clip-path: url(#clippath-45);
      }

      .cls-22 {
        clip-path: url(#clippath-40);
      }

      .cls-23 {
        clip-path: url(#clippath-42);
      }

      .cls-24 {
        clip-path: url(#clippath-41);
      }

      .cls-25 {
        clip-path: url(#clippath-47);
      }

      .cls-26 {
        clip-path: url(#clippath-43);
      }

      .cls-27 {
        clip-path: url(#clippath-46);
      }

      .cls-28 {
        clip-path: url(#clippath-48);
      }

      .cls-29 {
        clip-path: url(#clippath-27);
      }

      .cls-30 {
        clip-path: url(#clippath-28);
      }

      .cls-31 {
        clip-path: url(#clippath-26);
      }

      .cls-32 {
        clip-path: url(#clippath-29);
      }

      .cls-33 {
        clip-path: url(#clippath-34);
      }

      .cls-34 {
        clip-path: url(#clippath-35);
      }

      .cls-35 {
        clip-path: url(#clippath-36);
      }

      .cls-36 {
        clip-path: url(#clippath-37);
      }

      .cls-37 {
        clip-path: url(#clippath-39);
      }

      .cls-38 {
        clip-path: url(#clippath-33);
      }

      .cls-39 {
        clip-path: url(#clippath-32);
      }

      .cls-40 {
        clip-path: url(#clippath-30);
      }

      .cls-41 {
        clip-path: url(#clippath-38);
      }

      .cls-42 {
        clip-path: url(#clippath-31);
      }

      .cls-43 {
        clip-path: url(#clippath-14);
      }

      .cls-44 {
        clip-path: url(#clippath-13);
      }

      .cls-45 {
        clip-path: url(#clippath-12);
      }

      .cls-46 {
        clip-path: url(#clippath-10);
      }

      .cls-47 {
        clip-path: url(#clippath-15);
      }

      .cls-48 {
        clip-path: url(#clippath-17);
      }

      .cls-49 {
        clip-path: url(#clippath-16);
      }

      .cls-50 {
        clip-path: url(#clippath-19);
      }

      .cls-51 {
        clip-path: url(#clippath-11);
      }

      .cls-52 {
        clip-path: url(#clippath-18);
      }

      .cls-3 {
        stroke-miterlimit: 10;
        stroke-width: 2px;
        stroke: #FF3600;
      }
    </style>
    <clipPath id="clippath">
      <rect class="cls-2" y="0" width="1280" height="266.67"/>
    </clipPath>
    <clipPath id="clippath-1">
      <rect class="cls-2" y="0" width="1280" height="266.67"/>
    </clipPath>
    <clipPath id="clippath-2">
      <rect class="cls-2" y="0" width="1280" height="266.67"/>
    </clipPath>
    <clipPath id="clippath-3">
      <rect class="cls-2" y="0" width="1280" height="266.67"/>
    </clipPath>
    <clipPath id="clippath-4">
      <rect class="cls-2" y="0" width="1280" height="266.67"/>
    </clipPath>
    <clipPath id="clippath-5">
      <rect class="cls-2" y="0" width="1280" height="266.67"/>
    </clipPath>
    <clipPath id="clippath-6">
      <rect class="cls-2" y="0" width="1280" height="266.67"/>
    </clipPath>
    <clipPath id="clippath-7">
      <rect class="cls-2" y="0" width="1280" height="266.67"/>
    </clipPath>
    <clipPath id="clippath-8">
      <rect class="cls-2" y="0" width="1280" height="266.67"/>
    </clipPath>
    <clipPath id="clippath-9">
      <rect class="cls-2" y="0" width="1280" height="266.67"/>
    </clipPath>
    <clipPath id="clippath-10">
      <rect class="cls-2" y="0" width="1280" height="266.67"/>
    </clipPath>
    <clipPath id="clippath-11">
      <rect class="cls-2" y="0" width="1280" height="266.67"/>
    </clipPath>
    <clipPath id="clippath-12">
      <rect class="cls-2" y="0" width="1280" height="266.67"/>
    </clipPath>
    <clipPath id="clippath-13">
      <rect class="cls-2" y="0" width="1280" height="266.67"/>
    </clipPath>
    <clipPath id="clippath-14">
      <rect class="cls-2" y="0" width="1280" height="266.67"/>
    </clipPath>
    <clipPath id="clippath-15">
      <rect class="cls-2" y="0" width="1280" height="266.67"/>
    </clipPath>
    <clipPath id="clippath-16">
      <rect class="cls-2" y="0" width="1280" height="266.67"/>
    </clipPath>
    <clipPath id="clippath-17">
      <rect class="cls-2" y="0" width="1280" height="266.67"/>
    </clipPath>
    <clipPath id="clippath-18">
      <rect class="cls-2" y="0" width="1280" height="266.67"/>
    </clipPath>
    <clipPath id="clippath-19">
      <rect class="cls-2" y="0" width="1280" height="266.67"/>
    </clipPath>
    <clipPath id="clippath-20">
      <rect class="cls-2" y="0" width="1280" height="266.67"/>
    </clipPath>
    <clipPath id="clippath-21">
      <rect class="cls-2" y="0" width="1280" height="266.67"/>
    </clipPath>
    <clipPath id="clippath-22">
      <rect class="cls-2" y="0" width="1280" height="266.67"/>
    </clipPath>
    <clipPath id="clippath-23">
      <rect class="cls-2" y="0" width="1280" height="266.67"/>
    </clipPath>
    <clipPath id="clippath-24">
      <rect class="cls-2" y="0" width="1280" height="266.67"/>
    </clipPath>
    <clipPath id="clippath-25">
      <rect class="cls-2" y="0" width="1280" height="266.67"/>
    </clipPath>
    <clipPath id="clippath-26">
      <rect class="cls-2" y="0" width="1280" height="266.67"/>
    </clipPath>
    <clipPath id="clippath-27">
      <rect class="cls-2" y="0" width="1280" height="266.67"/>
    </clipPath>
    <clipPath id="clippath-28">
      <rect class="cls-2" y="0" width="1280" height="266.67"/>
    </clipPath>
    <clipPath id="clippath-29">
      <rect class="cls-2" y="0" width="1280" height="266.67"/>
    </clipPath>
    <clipPath id="clippath-30">
      <rect class="cls-2" y="0" width="1280" height="266.67"/>
    </clipPath>
    <clipPath id="clippath-31">
      <rect class="cls-2" y="0" width="1280" height="266.67"/>
    </clipPath>
    <clipPath id="clippath-32">
      <rect class="cls-2" y="0" width="1280" height="266.67"/>
    </clipPath>
    <clipPath id="clippath-33">
      <rect class="cls-2" y="0" width="1280" height="266.67"/>
    </clipPath>
    <clipPath id="clippath-34">
      <rect class="cls-2" y="0" width="1280" height="266.67"/>
    </clipPath>
    <clipPath id="clippath-35">
      <rect class="cls-2" y="0" width="1280" height="266.67"/>
    </clipPath>
    <clipPath id="clippath-36">
      <rect class="cls-2" y="0" width="1280" height="266.67"/>
    </clipPath>
    <clipPath id="clippath-37">
      <rect class="cls-2" y="0" width="1280" height="266.67"/>
    </clipPath>
    <clipPath id="clippath-38">
      <rect class="cls-2" y="0" width="1280" height="266.67"/>
    </clipPath>
    <clipPath id="clippath-39">
      <rect class="cls-2" y="0" width="1280" height="266.67"/>
    </clipPath>
    <clipPath id="clippath-40">
      <rect class="cls-2" y="0" width="1280" height="266.67"/>
    </clipPath>
    <clipPath id="clippath-41">
      <rect class="cls-2" y="0" width="1280" height="266.67"/>
    </clipPath>
    <clipPath id="clippath-42">
      <rect class="cls-2" y="0" width="1280" height="266.67"/>
    </clipPath>
    <clipPath id="clippath-43">
      <rect class="cls-2" y="0" width="1280" height="266.67"/>
    </clipPath>
    <clipPath id="clippath-44">
      <rect class="cls-2" y="0" width="1280" height="266.67"/>
    </clipPath>
    <clipPath id="clippath-45">
      <rect class="cls-2" y="0" width="1280" height="266.67"/>
    </clipPath>
    <clipPath id="clippath-46">
      <rect class="cls-2" y="0" width="1280" height="266.67"/>
    </clipPath>
    <clipPath id="clippath-47">
      <rect class="cls-2" y="0" width="1280" height="266.67"/>
    </clipPath>
    <clipPath id="clippath-48">
      <rect class="cls-2" y="0" width="1280" height="266.67"/>
    </clipPath>
  </defs>
  <g id="Layer_1-2" data-name="Layer 1">
    <g>
      <g class="cls-1">
        <path class="cls-3" d="m198.95,224c4.05-2.24,6.24-8.46,5.24-18.08-.51-4.93-.68-10.24-.5-15.32"/>
      </g>
      <polygon class="cls-4" points="206.88 191.6 195.84 173.11 201.16 201.15 206.88 191.6"/>
      <g class="cls-5">
        <path class="cls-3" d="m162.67,340.78c-2.52-5.4-4.98-11.2-6.9-17.67-5.34-17.99-4.63-39.02,1.4-55.96,5.82-16.33,13.44-27.06,21.95-34.43,2.96-2.57,5.98-4.89,9.02-7.03"/>
      </g>
      <polygon class="cls-4" points="186.93 237.3 198.85 221.6 184.92 222.22 186.93 237.3"/>
      <g class="cls-8">
        <path class="cls-3" d="m1026.69,185.67c1.32,23.81-3.86,40.52-11.71,54.13-9.12,15.81-19.63,24.66-30.65,30.77"/>
      </g>
      <polygon class="cls-4" points="981.3 266.67 986.71 266.67 984.62 259.15 981.3 266.67"/>
      <g class="cls-7">
        <path class="cls-3" d="m1065.28,169.61c-9.81,7.61-19.63,9.25-29.46,4.29"/>
      </g>
      <polygon class="cls-4" points="1036.29 165.27 1026.14 186.03 1039.7 179.11 1036.29 165.27"/>
      <g class="cls-6">
        <path class="cls-3" d="m1118.56,168.98c-13.83,10.41-27.63,9.9-41.45.72"/>
      </g>
      <polygon class="cls-4" points="1079.15 164.02 1065.73 172.18 1079.23 179.72 1079.15 164.02"/>
      <g class="cls-12">
        <path class="cls-3" d="m1169.2,168.89c-12.97,9.76-25.93,10.15-38.89,2.52"/>
      </g>
      <polygon class="cls-4" points="1132.54 164.69 1118.97 171.53 1132.3 180.38 1132.54 164.69"/>
      <g class="cls-11">
        <path class="cls-3" d="m1201.73,176.38c-6.91,1.43-13.8-1.08-20.67-6.55"/>
      </g>
      <polygon class="cls-4" points="1183.19 164.63 1169.61 171.44 1182.94 180.32 1183.19 164.63"/>
      <g class="cls-9">
        <path class="cls-3" d="m1246.63,21.14c9.96,7.65,19.16,18.27,26.36,36.22,7.97,19.87,7.9,47.3-.12,67.06-7.16,17.63-16.27,27.92-26.05,35.82-11.01,8.89-22.37,13.24-33.89,15.22"/>
      </g>
      <polygon class="cls-4" points="1215.13 164.83 1201.89 174.28 1215.52 180.51 1215.13 164.83"/>
      <g class="cls-10">
        <path class="cls-3" d="m1177.36,9.48c19.65-7.14,39.11-6.27,58.15,9.77"/>
      </g>
      <polygon class="cls-4" points="1232.39 23.05 1246.32 23.55 1234.37 7.95 1232.39 23.05"/>
      <g class="cls-13">
        <path class="cls-3" d="m1126.76,13.07c13.04-9.78,26.06-10.18,39.08-2.52"/>
      </g>
      <polygon class="cls-4" points="1163.62 17.28 1177.18 10.37 1163.85 1.58 1163.62 17.28"/>
      <g class="cls-46">
        <path class="cls-3" d="m1076.49,12.99c12.85-9.57,25.69-10.14,38.53-2.57"/>
      </g>
      <polygon class="cls-4" points="1112.76 17.17 1126.36 10.52 1113.06 1.48 1112.76 17.17"/>
      <g class="cls-51">
        <path class="cls-3" d="m1025.85,13.09c12.97-9.77,25.94-10.2,38.9-2.65"/>
      </g>
      <polygon class="cls-4" points="1062.5 17.23 1076.08 10.44 1062.76 1.54 1062.5 17.23"/>
      <g class="cls-45">
        <path class="cls-3" d="m917.12,103.96c-.21-2.17-.32-4.38-.47-6.58-1.01-14.69,1.29-27.13,5.34-38.22,6.36-17.4,14.95-27.39,24.08-35.43,11.24-9.89,23-14.59,34.97-16.97,11.14-2.21,22.26-2.05,33.35.4"/>
      </g>
      <polygon class="cls-4" points="1011.83 17.06 1025.44 10.54 1012.16 1.37 1011.83 17.06"/>
      <g class="cls-44">
        <path class="cls-3" d="m870.65,167.86c5.61-17.24,13.14-28.07,21.38-36.67,5.68-5.93,11.56-10.32,17.57-13.83"/>
      </g>
      <polygon class="cls-4" points="909.89 128.52 917.67 103.34 905.15 116.68 909.89 128.52"/>
      <g class="cls-43">
        <path class="cls-3" d="m856.05,131.32c-3.3,7.27-3.09,15.46.34,22.45,1.4,2.85,2.74,5.85,4.05,8.94"/>
      </g>
      <polygon class="cls-4" points="857 165.43 870.93 166.11 859.02 150.36 857 165.43"/>
      <g class="cls-47">
        <path class="cls-3" d="m703.93,120.26c3-1.67,4.69-7.94,3.96-14.83-1.96-18.36.2-34.12,5.7-47.99,7.01-17.65,16.05-27.66,25.67-35.57,13.36-10.99,27.28-15.15,41.38-16.32,16.62-1.38,33.08,1.56,49.13,12.21,9.43,6.26,18.44,14.67,26.19,28.77,3.5,6.37,6.57,13.67,8.81,22.7,4.05,16.3,3.35,33.79-.61,48.41"/>
      </g>
      <polygon class="cls-4" points="862.26 105.85 856.33 133.29 867.77 115.98 862.26 105.85"/>
      <g class="cls-49">
        <path class="cls-3" d="m666.48,155.76c7.8-16.99,16.93-26.99,26.54-34.3"/>
      </g>
      <polygon class="cls-4" points="691.74 132.98 703.82 117.85 689.89 117.81 691.74 132.98"/>
      <g class="cls-48">
        <path class="cls-3" d="m657.03,207.58c-2.01-14.26-.72-26.43,2.81-37.09"/>
      </g>
      <polygon class="cls-4" points="660.91 181.32 666.59 153.62 655.3 171.43 660.91 181.32"/>
      <g class="cls-52">
        <path class="cls-3" d="m638.83,232.62c3.38-4.14,6.77-8.09,10.17-11.93"/>
      </g>
      <polygon class="cls-4" points="649.48 231.96 657.34 206.93 644.78 220.04 649.48 231.96"/>
      <g class="cls-50">
        <path class="cls-3" d="m613.75,204.99c-.94,9.57.67,15.4,4.55,17.85,3.07,1.95,6.13,3.99,9.17,6.11"/>
      </g>
      <polygon class="cls-4" points="624.64 233.3 638.49 230.02 625.74 217.79 624.64 233.3"/>
      <g class="cls-14">
        <path class="cls-3" d="m568.03,115.49c8.15,4.07,16.1,9.52,23.65,17.67,7.13,7.69,13.68,17.16,18.62,31.52,1.95,5.68,3.39,11.63,4.24,17.9"/>
      </g>
      <polygon class="cls-4" points="609.99 176.83 614.29 205.68 617.2 176.01 609.99 176.83"/>
      <g class="cls-15">
        <path class="cls-3" d="m553,45.17c3.64,6.32,6.82,13.59,9.18,22.52,2.36,8.94,3.14,18.19,2.77,27.77"/>
      </g>
      <polygon class="cls-4" points="560.61 92.07 567.91 117.89 567.52 87.58 560.61 92.07"/>
      <g class="cls-18">
        <path class="cls-3" d="m527.22,17.15c5.73,5.14,11.32,11.24,16.55,19.5"/>
      </g>
      <polygon class="cls-4" points="539.8 38.32 553.11 47.31 543.65 25.04 539.8 38.32"/>
      <g class="cls-17">
        <path class="cls-3" d="m492.05,5.6c8.06,1.21,16.07,4.4,23.95,10.8"/>
      </g>
      <polygon class="cls-4" points="513.08 20.51 527 19.64 514.74 5.23 513.08 20.51"/>
      <g class="cls-16">
        <path class="cls-3" d="m437.45,25.57c14.17-14.02,28.73-19.6,43.49-20.25"/>
      </g>
      <polygon class="cls-4" points="478.49 15.7 491.96 7.99 478.52 0 478.49 15.7"/>
      <g class="cls-19">
        <path class="cls-3" d="m357.3,9.91c1.73.68,3.55-.18,5.31-.77,21.5-7.23,42.75-5.39,63.52,13.23"/>
      </g>
      <polygon class="cls-4" points="423.42 26.68 437.25 23.09 424.45 11.13 423.42 26.68"/>
      <g class="cls-31">
        <path class="cls-3" d="m307.03,13.1c1.66,1.09,3.4-.13,5.08-1.2,11.29-7.19,22.57-8.45,33.85-4.35"/>
      </g>
      <polygon class="cls-4" points="343.4 16.02 357.13 10.96 344.07 .38 343.4 16.02"/>
      <g class="cls-29">
        <path class="cls-3" d="m256.75,13.11c1.54,1.02,3.16-.03,4.72-1.05,11.35-7.39,22.69-8.64,34.02-4.51"/>
      </g>
      <polygon class="cls-4" points="292.94 16.02 306.67 10.97 293.62 .39 292.94 16.02"/>
      <g class="cls-30">
        <path class="cls-3" d="m206.91,13.59c1.38.54,2.8-.78,4.19-1.66,11.38-7.24,22.75-8.47,34.12-4.43"/>
      </g>
      <polygon class="cls-4" points="242.66 16.01 256.4 10.98 243.34 .38 242.66 16.01"/>
      <g class="cls-32">
        <path class="cls-3" d="m195.79,175.46c-22.12,3.38-43.91.27-64.85-17.61-8.69-7.42-16.67-17.4-23.06-33.06-8.15-19.99-8.17-47.48-.05-67.47,7.64-18.81,17.44-29.33,27.95-37.13,17.46-12.96,35.51-16.12,53.76-14.51,2.04.18,4.09.53,6.13.95"/>
      </g>
      <polygon class="cls-4" points="192.94 16.43 206.67 11.28 193.6 .8 192.94 16.43"/>
      <g class="cls-40">
        <path class="cls-3" d="m405.36,188.33c.27-12.74-2.25-18.66-7.3-17.56-9.16,1.99-18.33,2.01-27.49.11"/>
      </g>
      <polygon class="cls-4" points="370.87 165.45 362.58 189.82 375.36 177.74 370.87 165.45"/>
      <g class="cls-42">
        <path class="cls-3" d="m401.11,326.32c3.52-1.69,5.08-7.51,4.36-15.21-1.14-12.09-.8-23.75,2.11-34.76,2.04-7.7,4.63-14.24,7.7-20.05,3.45-6.54,3.4-14.36.06-21.13-1.72-3.5-3.46-7.05-4.93-11.02-1.58-4.26-2.92-8.73-3.9-13.44"/>
      </g>
      <polygon class="cls-4" points="410.55 215.8 404.81 188.17 403.43 218.35 410.55 215.8"/>
      <g class="cls-39">
        <path class="cls-3" d="m316.91,267.56c-3.77,1.8-6.27,7.48-5.08,18.34,1.16,10.62.63,21.08-1.49,31.12-1.62,7.69-3.83,14.23-6.41,20.06"/>
        <path class="cls-3" d="m363.13,189.56c.24,5.96-.01,12.42-.8,18.12-2.21,15.97-7.34,27.14-13.36,36.3-6.58,10.02-13.71,17.2-21.18,22.42"/>
      </g>
      <polygon class="cls-4" points="319.63 266.67 330.56 266.67 329.07 254.71 319.63 266.67"/>
      <g class="cls-38">
        <path class="cls-3" d="m860.19,226.12c-2.93,9-5.96,17.85-8.91,26.81-2.37,7.19-4.8,14.3-6.99,21.75-1.78,6.06-3.27,12.51-4.82,18.87-1.83,7.56-4.21,14.85-5.23,22.91-1.83,14.47-5.09,27.95-5.75,43.31-.49,11.51-2.2,22.79-3.36,34.17-.57,5.55-1.34,11.04-1.66,16.65-.45,7.99-.33,16.16-.91,24.09-.66,9.01-.29,17.95-.29,26.92,0,9.53.2,19.08-.05,28.58-.3,11.69.79,22.91,2.1,34.03.21,1.77.43,3.54.67,5.3"/>
        <path class="cls-3" d="m890.92,278.51c5.9-8.93,8.78-21.22,9.38-38.86-.46-4.03-.77-10.34-1.88-15.8-4.19-20.6-13.68-30.44-23.26-22.76-2.49,2-4.64,6.14-7.04,8.89-.01.01-.02.02-.03.03"/>
      </g>
      <polygon class="cls-4" points="867.66 202.61 859.86 227.74 872.39 214.47 867.66 202.61"/>
      <g class="cls-33">
        <path class="cls-3" d="m443.25,157.33c.24-.24.48-.49.72-.73.45,1.53.85,3.16,1.34,4.57,5.85,16.67,16.38,19.01,23.83,6.25,1.24-2.13,2.73-3.65,4.19-4.6,3.88-2.52,7.28-8.14,9.76-15.58"/>
      </g>
      <polygon class="cls-4" points="484.74 156.91 487.07 127 478.18 150.37 484.74 156.91"/>
      <g class="cls-34">
        <path class="cls-3" d="m425.72,68.43c-1.27,3.12-2.93,5.82-4.64,7.66-3.22,3.45-6.13,7.78-7.93,14.51-2.77,10.35-5.41,20.65-6.77,32.8-1.31,11.76-1.42,23.27-1.15,34.9.51,22.6,9.82,40.74,20.9,38.05,5.1-1.23,9.62-6.67,12.73-14.95"/>
      </g>
      <polygon class="cls-4" points="440.44 187.46 443.11 157.69 433.96 180.56 440.44 187.46"/>
      <g class="cls-35">
        <path class="cls-3" d="m494.86,41.7c-2.89-2.24-6.05-1.97-9.09-2.43-3.16-.48-6.34-.63-9.51-.62-3.23.01-6.47.33-9.7.66-2.06.21-4.12.63-6.18,1.07-.98.2-1.96.46-2.92,1.03-2.39,1.44-4.81,2.62-7.13,4.72-4.67,4.22-9.22,9.6-13.93,13.33-.35.28-.69.56-1.03.86"/>
      </g>
      <polygon class="cls-4" points="435.63 48.86 425.77 70.3 439.23 62.46 435.63 48.86"/>
      <g class="cls-36">
        <path class="cls-3" d="m486.52,128.22c.14-5.35.49-5.88,2.79-4,4.13,3.39,8.27,6.72,12.38,10.23,5.99,5.12,11.96,10.4,17.95,15.57,4.01,3.47,8.08,4.96,12.37,2.4,8.48-5.08,13.36-18.11,14.4-36.68,1.01-18.04-3.51-35.57-10.86-42.72-4.73-4.59-9.62-8.35-14.45-12.42-2.76-2.33-5.53-4.68-8.33-6.79-2.48-1.87-4.94-3.79-7.42-5.67"/>
      </g>
      <polygon class="cls-4" points="508.98 44.73 495.06 43.39 506.8 59.71 508.98 44.73"/>
      <g class="cls-41">
        <path class="cls-3" d="m985.28,125.32c1.8,0,3.62-.27,5.41.12,4.51.98,9.02,2.27,13.11,3.33,2.15-.73,3.92-.66,5.45-2,2.96-2.59,5.81-5.87,8.66-9.06,8.5-9.51,12.69-33.18,8.7-52.6-3.14-15.26-7.05-29.83-14.94-35.41-.23-.17-.46-.47-.66-.79-1.91-3-3.89-5.09-5.92-6.34"/>
      </g>
      <polygon class="cls-4" points="1007.34 17.97 993.85 25.53 1007.27 33.67 1007.34 17.97"/>
      <g class="cls-37">
        <path class="cls-3" d="m966,145.95c3.83-.34,7.24-4.2,10.13-11.83"/>
      </g>
      <polygon class="cls-4" points="976.13 145.98 985.28 123.11 972.1 132.95 976.13 145.98"/>
      <g class="cls-22">
        <path class="cls-3" d="m931.78,97.55c-3.25,9.42-4.54,20.33-3.71,32.21,1.57,22.29,8.94,36.58,18.73,37.07,3.89.2,7.44-2.07,10.48-6.62"/>
      </g>
      <polygon class="cls-4" points="957.39 167.48 965.96 143.57 953.04 154.95 957.39 167.48"/>
      <g class="cls-24">
        <path class="cls-3" d="m957.64,45.02c-.54.95-1.51,1.23-2.21.9-6-2.9-11.49-.37-16.29,8.77-3.17,6.04-5.2,13.3-6.23,21.64"/>
      </g>
      <polygon class="cls-4" points="930.39 69.25 932.25 99.31 937.55 71.25 930.39 69.25"/>
      <g class="cls-23">
        <path class="cls-3" d="m974.94,35.68c-.36,4.5-1.14,7.41-1.65,6.29-1.68-3.65-3.32-4.97-4.9-3.86"/>
      </g>
      <polygon class="cls-4" points="969.21 30.62 957.59 47.36 971.5 45.51 969.21 30.62"/>
      <g class="cls-26">
        <path class="cls-3" d="m993.3,24.62c-.41,1.63-.87,2.51-1.28,1.64-2.53-5.36-4.91-4.47-7.14,3.09"/>
      </g>
      <polygon class="cls-4" points="984.87 17.59 974.82 38.58 988.35 31.35 984.87 17.59"/>
      <g class="cls-20">
        <path class="cls-3" d="m314.31,252.4c3.32-2.9,6.64-6.04,9.72-10,2.24-2.89,4.12-7.21,6.12-10.98.71-1.34,1.4-2.82,1.96-4.46,1.71-4.96,3.86-9.55,4.94-15.13,2.97-15.37,4.26-31.39,3.15-48.38-.65-9.84-2.35-18.3-5.02-24.72"/>
      </g>
      <polygon class="cls-4" points="338.49 137.45 325.11 129.02 334.77 150.89 338.49 137.45"/>
      <g class="cls-21">
        <path class="cls-3" d="m292.18,187.07c.22,2-.06,4.38-.3,6.48-.53,4.65-1.5,9.15-1.73,13.85-1,20.48,4.64,38.44,12.96,44.73"/>
      </g>
      <polygon class="cls-4" points="300.61 256.48 314.22 250.02 300.95 240.8 300.61 256.48"/>
      <g class="cls-27">
        <path class="cls-3" d="m324.98,126.79c-2.33-1.18-4.82-.39-7.2-1.14-7.04-2.2-12.99,2.38-17.76,14.93-.71,1.86-1.33,3.93-2.1,5.61-2.6,5.65-4.41,11.84-5.42,18.59"/>
      </g>
      <polygon class="cls-4" points="289.92 158.01 292.66 187.75 297.12 159.01 289.92 158.01"/>
      <g class="cls-25">
        <path class="cls-3" d="m581.72,141.23c-2.36-4.55-4.9-8.16-7.97-9.16-3.73-1.2-7.5-1.79-12.23-2.87-2.05,1.37-5.25,2.27-7.89,5.48-11.19,13.61-13.35,46.13-4.68,66.86.57,1.36,1,3.21,1.24,5.01,1.05,7.82,2.67,14.29,4.88,19.31"/>
      </g>
      <polygon class="cls-4" points="551.71 227.37 565.22 234.8 555.23 213.66 551.71 227.37"/>
      <g class="cls-28">
        <path class="cls-3" d="m565.33,236.62c1.96.85,3.47,2.56,5.01,5.02,2.96,4.72,6.43,7.07,9.93,7.05,6.11-.04,11.42-5.14,15.26-16.38,3.02-8.83,4.56-18.88,3.77-29.99-.44-6.19-1.67-12.08-2.29-18.23-1.08-10.61-3.72-19.18-6.62-27.27"/>
      </g>
      <polygon class="cls-4" points="594.06 156.6 581.6 143.04 589.28 168.35 594.06 156.6"/>
    </g>
  </g>
</svg>