<?xml version="1.0" encoding="UTF-8"?>
<svg id="Layer_2" data-name="Layer 2" xmlns="http://www.w3.org/2000/svg" xmlns:xlink="http://www.w3.org/1999/xlink" viewBox="0 0 1280 266.67">
  <defs>
    <style>
      .cls-1 {
        clip-path: url(#clippath);
      }

      .cls-2, .cls-3, .cls-4 {
        fill: none;
      }

      .cls-2, .cls-5 {
        stroke-width: 0px;
      }

      .cls-3 {
        stroke-width: 3.1px;
      }

      .cls-3, .cls-4 {
        stroke: #FF3600;
        stroke-miterlimit: 10;
      }

      .cls-6 {
        clip-path: url(#clippath-1);
      }

      .cls-7 {
        clip-path: url(#clippath-4);
      }

      .cls-8 {
        clip-path: url(#clippath-3);
      }

      .cls-9 {
        clip-path: url(#clippath-2);
      }

      .cls-10 {
        clip-path: url(#clippath-7);
      }

      .cls-11 {
        clip-path: url(#clippath-8);
      }

      .cls-12 {
        clip-path: url(#clippath-6);
      }

      .cls-13 {
        clip-path: url(#clippath-5);
      }

      .cls-14 {
        clip-path: url(#clippath-9);
      }

      .cls-15 {
        clip-path: url(#clippath-20);
      }

      .cls-16 {
        clip-path: url(#clippath-21);
      }

      .cls-17 {
        clip-path: url(#clippath-24);
      }

      .cls-18 {
        clip-path: url(#clippath-23);
      }

      .cls-19 {
        clip-path: url(#clippath-22);
      }

      .cls-20 {
        clip-path: url(#clippath-25);
      }

      .cls-21 {
        clip-path: url(#clippath-27);
      }

      .cls-22 {
        clip-path: url(#clippath-28);
      }

      .cls-23 {
        clip-path: url(#clippath-26);
      }

      .cls-24 {
        clip-path: url(#clippath-29);
      }

      .cls-25 {
        clip-path: url(#clippath-34);
      }

      .cls-26 {
        clip-path: url(#clippath-35);
      }

      .cls-27 {
        clip-path: url(#clippath-36);
      }

      .cls-28 {
        clip-path: url(#clippath-33);
      }

      .cls-29 {
        clip-path: url(#clippath-32);
      }

      .cls-30 {
        clip-path: url(#clippath-30);
      }

      .cls-31 {
        clip-path: url(#clippath-31);
      }

      .cls-32 {
        clip-path: url(#clippath-14);
      }

      .cls-33 {
        clip-path: url(#clippath-13);
      }

      .cls-34 {
        clip-path: url(#clippath-12);
      }

      .cls-35 {
        clip-path: url(#clippath-10);
      }

      .cls-36 {
        clip-path: url(#clippath-15);
      }

      .cls-37 {
        clip-path: url(#clippath-17);
      }

      .cls-38 {
        clip-path: url(#clippath-16);
      }

      .cls-39 {
        clip-path: url(#clippath-19);
      }

      .cls-40 {
        clip-path: url(#clippath-11);
      }

      .cls-41 {
        clip-path: url(#clippath-18);
      }

      .cls-4 {
        stroke-width: 1.55px;
      }

      .cls-5 {
        fill: #FF3600;
      }
    </style>
    <clipPath id="clippath">
      <rect class="cls-2" y="0" width="1280" height="266.67"/>
    </clipPath>
    <clipPath id="clippath-1">
      <rect class="cls-2" y="0" width="1280" height="266.67"/>
    </clipPath>
    <clipPath id="clippath-2">
      <rect class="cls-2" y="0" width="1280" height="266.67"/>
    </clipPath>
    <clipPath id="clippath-3">
      <rect class="cls-2" y="0" width="1280" height="266.67"/>
    </clipPath>
    <clipPath id="clippath-4">
      <rect class="cls-2" y="0" width="1280" height="266.67"/>
    </clipPath>
    <clipPath id="clippath-5">
      <rect class="cls-2" y="0" width="1280" height="266.67"/>
    </clipPath>
    <clipPath id="clippath-6">
      <rect class="cls-2" y="0" width="1280" height="266.67"/>
    </clipPath>
    <clipPath id="clippath-7">
      <rect class="cls-2" y="0" width="1280" height="266.67"/>
    </clipPath>
    <clipPath id="clippath-8">
      <rect class="cls-2" y="0" width="1280" height="266.67"/>
    </clipPath>
    <clipPath id="clippath-9">
      <rect class="cls-2" y="0" width="1280" height="266.67"/>
    </clipPath>
    <clipPath id="clippath-10">
      <rect class="cls-2" y="0" width="1280" height="266.67"/>
    </clipPath>
    <clipPath id="clippath-11">
      <rect class="cls-2" y="0" width="1280" height="266.67"/>
    </clipPath>
    <clipPath id="clippath-12">
      <rect class="cls-2" y="0" width="1280" height="266.67"/>
    </clipPath>
    <clipPath id="clippath-13">
      <rect class="cls-2" y="0" width="1280" height="266.67"/>
    </clipPath>
    <clipPath id="clippath-14">
      <rect class="cls-2" y="0" width="1280" height="266.67"/>
    </clipPath>
    <clipPath id="clippath-15">
      <rect class="cls-2" y="0" width="1280" height="266.67"/>
    </clipPath>
    <clipPath id="clippath-16">
      <rect class="cls-2" y="0" width="1280" height="266.67"/>
    </clipPath>
    <clipPath id="clippath-17">
      <rect class="cls-2" y="0" width="1280" height="266.67"/>
    </clipPath>
    <clipPath id="clippath-18">
      <rect class="cls-2" y="0" width="1280" height="266.67"/>
    </clipPath>
    <clipPath id="clippath-19">
      <rect class="cls-2" y="0" width="1280" height="266.67"/>
    </clipPath>
    <clipPath id="clippath-20">
      <rect class="cls-2" y="0" width="1280" height="266.67"/>
    </clipPath>
    <clipPath id="clippath-21">
      <rect class="cls-2" y="0" width="1280" height="266.67"/>
    </clipPath>
    <clipPath id="clippath-22">
      <rect class="cls-2" y="0" width="1280" height="266.67"/>
    </clipPath>
    <clipPath id="clippath-23">
      <rect class="cls-2" y="0" width="1280" height="266.67"/>
    </clipPath>
    <clipPath id="clippath-24">
      <rect class="cls-2" y="0" width="1280" height="266.67"/>
    </clipPath>
    <clipPath id="clippath-25">
      <rect class="cls-2" y="0" width="1280" height="266.67"/>
    </clipPath>
    <clipPath id="clippath-26">
      <rect class="cls-2" y="0" width="1280" height="266.67"/>
    </clipPath>
    <clipPath id="clippath-27">
      <rect class="cls-2" y="0" width="1280" height="266.67"/>
    </clipPath>
    <clipPath id="clippath-28">
      <rect class="cls-2" y="0" width="1280" height="266.67"/>
    </clipPath>
    <clipPath id="clippath-29">
      <rect class="cls-2" y="0" width="1280" height="266.67"/>
    </clipPath>
    <clipPath id="clippath-30">
      <rect class="cls-2" y="0" width="1280" height="266.67"/>
    </clipPath>
    <clipPath id="clippath-31">
      <rect class="cls-2" y="0" width="1280" height="266.67"/>
    </clipPath>
    <clipPath id="clippath-32">
      <rect class="cls-2" y="0" width="1280" height="266.67"/>
    </clipPath>
    <clipPath id="clippath-33">
      <rect class="cls-2" y="0" width="1280" height="266.67"/>
    </clipPath>
    <clipPath id="clippath-34">
      <rect class="cls-2" y="0" width="1280" height="266.67"/>
    </clipPath>
    <clipPath id="clippath-35">
      <rect class="cls-2" y="0" width="1280" height="266.67"/>
    </clipPath>
    <clipPath id="clippath-36">
      <rect class="cls-2" y="0" width="1280" height="266.67"/>
    </clipPath>
  </defs>
  <g id="Layer_1-2" data-name="Layer 1">
    <g>
      <g class="cls-1">
        <path class="cls-5" d="m95.83,92.86c4.06.33,7-4.75,6.54-13.35-1.18-22.06,3.73-37.71,11.11-50.63,9.28-16.24,20.23-24.69,31.59-30.95"/>
        <path class="cls-3" d="m95.83,92.86c4.06.33,7-4.75,6.54-13.35-1.18-22.06,3.73-37.71,11.11-50.63,9.28-16.24,20.23-24.69,31.59-30.95"/>
      </g>
      <polygon class="cls-5" points="142.69 0 145 6.7 147.44 0 142.69 0"/>
      <g class="cls-6">
        <polygon class="cls-4" points="145 6.7 153.63 -16.97 140.68 -5.81 145 6.7"/>
        <path class="cls-5" d="m102.56,254.55c-23.71,5.51-47.1,3.53-69.83-13.82-8.07-6.16-15.67-14.37-22.01-27.1-4.53-9.1-8.07-19.57-8.96-33.39-.92-14.19,1.32-26.17,5.37-36.83,6.74-17.75,15.87-27.57,25.55-35.39,13.28-10.74,27.14-15.08,41.22-16.05,3.64-.25,7.29-.18,10.95.03"/>
        <path class="cls-3" d="m102.56,254.55c-23.71,5.51-47.1,3.53-69.83-13.82-8.07-6.16-15.67-14.37-22.01-27.1-4.53-9.1-8.07-19.57-8.96-33.39-.92-14.19,1.32-26.17,5.37-36.83,6.74-17.75,15.87-27.57,25.55-35.39,13.28-10.74,27.14-15.08,41.22-16.05,3.64-.25,7.29-.18,10.95.03"/>
      </g>
      <polygon class="cls-5" points="82.26 99.71 95.83 92.87 82.5 84.11 82.26 99.71"/>
      <polygon class="cls-4" points="82.26 99.71 95.83 92.87 82.5 84.11 82.26 99.71"/>
      <g class="cls-9">
        <path class="cls-5" d="m153.39,254.37c-13.29,3.63-26.56,3.75-39.84.94"/>
        <path class="cls-3" d="m153.39,254.37c-13.29,3.63-26.56,3.75-39.84.94"/>
      </g>
      <polygon class="cls-5" points="116.12 247.65 102.56 254.54 115.9 263.26 116.12 247.65"/>
      <polygon class="cls-4" points="116.12 247.65 102.56 254.54 115.9 263.26 116.12 247.65"/>
      <g class="cls-8">
        <path class="cls-5" d="m203.48,254.51c-13.05,3.41-26.08,3.61-39.11.87"/>
        <path class="cls-3" d="m203.48,254.51c-13.05,3.41-26.08,3.61-39.11.87"/>
      </g>
      <polygon class="cls-5" points="166.98 247.75 153.39 254.36 166.69 263.35 166.98 247.75"/>
      <polygon class="cls-4" points="166.98 247.75 153.39 254.36 166.69 263.35 166.98 247.75"/>
      <g class="cls-7">
        <path class="cls-5" d="m258.55,253.68c-1.4-.23-2.84.29-4.24.68-13.29,3.65-26.56,3.77-39.84.95"/>
        <path class="cls-3" d="m258.55,253.68c-1.4-.23-2.84.29-4.24.68-13.29,3.65-26.56,3.77-39.84.95"/>
      </g>
      <polygon class="cls-5" points="217.05 247.65 203.48 254.5 216.81 263.26 217.05 247.65"/>
      <polygon class="cls-4" points="217.05 247.65 203.48 254.5 216.81 263.26 217.05 247.65"/>
      <g class="cls-13">
        <path class="cls-5" d="m336.29,241.66c-1.96-1.47-3.84-1.46-5.81,0-19.85,14.6-40.27,17.6-60.98,14.41"/>
        <path class="cls-3" d="m336.29,241.66c-1.96-1.47-3.84-1.46-5.81,0-19.85,14.6-40.27,17.6-60.98,14.41"/>
      </g>
      <polygon class="cls-5" points="272.29 248.68 258.55 253.67 271.6 264.22 272.29 248.68"/>
      <g class="cls-12">
        <polygon class="cls-4" points="272.29 248.68 258.55 253.67 271.6 264.22 272.29 248.68"/>
        <path class="cls-5" d="m467.51,147.76c-2.96,1.54-5.39,6.97-4.44,15.22,1.85,16.13-.25,30.19-5.06,42.68-6.76,17.53-15.82,27.29-25.43,35.07-13.22,10.7-27.02,14.91-41.03,16.12-15.13,1.31-30.09-.62-44.7-8.43"/>
        <path class="cls-3" d="m467.51,147.76c-2.96,1.54-5.39,6.97-4.44,15.22,1.85,16.13-.25,30.19-5.06,42.68-6.76,17.53-15.82,27.29-25.43,35.07-13.22,10.7-27.02,14.91-41.03,16.12-15.13,1.31-30.09-.62-44.7-8.43"/>
      </g>
      <polygon class="cls-5" points="350.22 242.19 336.29 241.66 348.23 257.2 350.22 242.19"/>
      <polygon class="cls-4" points="350.22 242.19 336.29 241.66 348.23 257.2 350.22 242.19"/>
      <g class="cls-10">
        <path class="cls-5" d="m503.9,10.01c-3.4,6.49-3.46,13.71-.27,20.65,2.56,5.57,5.19,11.29,7.11,17.88,5.17,17.81,4.05,38.32-2.28,54.42-6.88,17.5-15.86,27.72-25.59,35.26-1.56,1.21-3.14,2.33-4.73,3.38"/>
        <path class="cls-3" d="m503.9,10.01c-3.4,6.49-3.46,13.71-.27,20.65,2.56,5.57,5.19,11.29,7.11,17.88,5.17,17.81,4.05,38.32-2.28,54.42-6.88,17.5-15.86,27.72-25.59,35.26-1.56,1.21-3.14,2.33-4.73,3.38"/>
      </g>
      <polygon class="cls-5" points="479.51 132.45 467.5 147.75 481.44 147.49 479.51 132.45"/>
      <polygon class="cls-4" points="479.51 132.45 467.5 147.75 481.44 147.49 479.51 132.45"/>
      <polygon class="cls-5" points="505.96 0 503.9 10.01 510.28 0 505.96 0"/>
      <g class="cls-11">
        <polygon class="cls-4" points="509.58 -17.52 503.9 10.01 515.18 -7.68 509.58 -17.52"/>
        <path class="cls-5" d="m666.56,133.83c3.52-7.02,3.5-14.73-.17-21.55-3.34-6.2-6.11-13.41-7.89-22.13-3.69-18.06-1.84-34.39,3.74-49.11,6.73-17.75,15.84-27.76,25.57-35.27,4.05-3.12,8.21-5.54,12.38-7.92"/>
        <path class="cls-3" d="m666.56,133.83c3.52-7.02,3.5-14.73-.17-21.55-3.34-6.2-6.11-13.41-7.89-22.13-3.69-18.06-1.84-34.39,3.74-49.11,6.73-17.75,15.84-27.76,25.57-35.27,4.05-3.12,8.21-5.54,12.38-7.92"/>
      </g>
      <polygon class="cls-5" points="697.68 0 700.49 6.21 702.19 0 697.68 0"/>
      <g class="cls-14">
        <polygon class="cls-4" points="700.49 6.21 707.59 -19.73 695.45 -4.95 700.49 6.21"/>
        <path class="cls-5" d="m806.41,133.03c2.94,6.02,5.72,12.21,7.68,20.04,4.59,18.3,2.74,37.9-3.27,53.02-7.04,17.71-16.33,27.65-26.24,35.33-15.27,11.83-31.14,15.65-47.23,15.78-16.66.13-33.08-3.69-48.89-15.98-8.4-6.54-16.39-14.81-22.96-28.29-4.44-9.12-7.87-19.54-8.69-33.26-.61-10.29.46-19.37,2.64-27.65"/>
        <path class="cls-3" d="m806.41,133.03c2.94,6.02,5.72,12.21,7.68,20.04,4.59,18.3,2.74,37.9-3.27,53.02-7.04,17.71-16.33,27.65-26.24,35.33-15.27,11.83-31.14,15.65-47.23,15.78-16.66.13-33.08-3.69-48.89-15.98-8.4-6.54-16.39-14.81-22.96-28.29-4.44-9.12-7.87-19.54-8.69-33.26-.61-10.29.46-19.37,2.64-27.65"/>
      </g>
      <polygon class="cls-5" points="660.91 161.39 666.56 133.83 655.3 151.58 660.91 161.39"/>
      <polygon class="cls-4" points="660.91 161.39 666.56 133.83 655.3 151.58 660.91 161.39"/>
      <g class="cls-35">
        <path class="cls-5" d="m812.09,100.25c-1.32,3.14-2.64,6.26-4,9.31"/>
        <path class="cls-3" d="m812.09,100.25c-1.32,3.14-2.64,6.26-4,9.31"/>
      </g>
      <polygon class="cls-5" points="805.73 102.91 806.41 133.03 812.78 106.2 805.73 102.91"/>
      <polygon class="cls-4" points="805.73 102.91 806.41 133.03 812.78 106.2 805.73 102.91"/>
      <g class="cls-40">
        <path class="cls-5" d="m862.71,148.04c-8.7-4.13-17.14-9.89-25.1-18.63-5.57-6.11-10.66-13.55-14.85-23.49"/>
        <path class="cls-3" d="m862.71,148.04c-8.7-4.13-17.14-9.89-25.1-18.63-5.57-6.11-10.66-13.55-14.85-23.49"/>
      </g>
      <polygon class="cls-5" points="826.01 101.32 812.09 100.25 823.9 116.25 826.01 101.32"/>
      <polygon class="cls-4" points="826.01 101.32 812.09 100.25 823.9 116.25 826.01 101.32"/>
      <g class="cls-34">
        <path class="cls-5" d="m972.58,253.74c-1.61-.47-3.32.38-4.98.77-23.45,5.5-46.6,3.6-69.14-13.11-7.43-5.51-14.53-12.66-20.6-23.64-2.69-4.86-5.17-10.52-7.29-16.55-3.27-9.31-4.48-19.75-4.08-30.84"/>
        <path class="cls-3" d="m972.58,253.74c-1.61-.47-3.32.38-4.98.77-23.45,5.5-46.6,3.6-69.14-13.11-7.43-5.51-14.53-12.66-20.6-23.64-2.69-4.86-5.17-10.52-7.29-16.55-3.27-9.31-4.48-19.75-4.08-30.84"/>
      </g>
      <polygon class="cls-5" points="870.28 173.36 862.72 148.03 863.42 178.15 870.28 173.36"/>
      <polygon class="cls-4" points="870.28 173.36 862.72 148.03 863.42 178.15 870.28 173.36"/>
      <g class="cls-33">
        <path class="cls-5" d="m1076.04,162.63c2.36,21.17-1.61,37.59-8.65,51.18-10.92,21.1-24.32,30.78-38.31,36.84-15.11,6.54-30.31,8.12-45.56,5.59"/>
        <path class="cls-3" d="m1076.04,162.63c2.36,21.17-1.61,37.59-8.65,51.18-10.92,21.1-24.32,30.78-38.31,36.84-15.11,6.54-30.31,8.12-45.56,5.59"/>
      </g>
      <polygon class="cls-5" points="986.33 248.79 972.58 253.74 985.63 264.33 986.33 248.79"/>
      <g class="cls-32">
        <polygon class="cls-4" points="986.33 248.79 972.58 253.74 985.63 264.33 986.33 248.79"/>
        <path class="cls-5" d="m1126.27,59.37c2.44,21.44-1.43,38.13-8.56,52.03-9.66,18.83-21.47,27.96-33.75,34.76"/>
        <path class="cls-3" d="m1126.27,59.37c2.44,21.44-1.43,38.13-8.56,52.03-9.66,18.83-21.47,27.96-33.75,34.76"/>
      </g>
      <polygon class="cls-5" points="1083.79 137.57 1076.04 162.62 1088.54 149.31 1083.79 137.57"/>
      <polygon class="cls-4" points="1083.79 137.57 1076.04 162.62 1088.54 149.31 1083.79 137.57"/>
      <g class="cls-36">
        <path class="cls-5" d="m1177.34-39.13c1.31,23.06-3.85,39.12-11.69,52.35-9.09,15.34-19.7,23.52-30.69,29.75-.2.11-.39.22-.59.32"/>
        <path class="cls-3" d="m1177.34-39.13c1.31,23.06-3.85,39.12-11.69,52.35-9.09,15.34-19.7,23.52-30.69,29.75-.2.11-.39.22-.59.32"/>
      </g>
      <polygon class="cls-5" points="1134.3 34.73 1126.27 59.37 1138.92 46.72 1134.3 34.73"/>
      <polygon class="cls-4" points="1134.3 34.73 1126.27 59.37 1138.92 46.72 1134.3 34.73"/>
      <g class="cls-38">
        <path class="cls-5" d="m364.86,10.98c-2.05-4.07-4.05-8.33-5.8-12.99-5.93-15.8-6.54-35.69-1.4-52.79,1.5-4.98,3.35-9.55,5.32-13.81"/>
        <path class="cls-3" d="m364.86,10.98c-2.05-4.07-4.05-8.33-5.8-12.99-5.93-15.8-6.54-35.69-1.4-52.79,1.5-4.98,3.35-9.55,5.32-13.81"/>
        <path class="cls-5" d="m354.79,82.75c-1.22-11.92-.67-23.45,2.51-33.6,1.65-5.26,3.59-10.15,5.63-14.79"/>
        <path class="cls-3" d="m354.79,82.75c-1.22-11.92-.67-23.45,2.51-33.6,1.65-5.26,3.59-10.15,5.63-14.79"/>
      </g>
      <polygon class="cls-5" points="365.27 41.12 364.86 10.98 358.25 37.53 365.27 41.12"/>
      <polygon class="cls-4" points="365.27 41.12 364.86 10.98 358.25 37.53 365.27 41.12"/>
      <g class="cls-37">
        <path class="cls-5" d="m330.22,106.93c2.16,1.61,4.18,1.43,6.35-.02,3.57-2.39,7.17-4.6,10.79-6.68"/>
        <path class="cls-3" d="m330.22,106.93c2.16,1.61,4.18,1.43,6.35-.02,3.57-2.39,7.17-4.6,10.79-6.68"/>
      </g>
      <polygon class="cls-5" points="347.69 108.7 354.79 82.75 342.65 97.54 347.69 108.7"/>
      <polygon class="cls-4" points="347.69 108.7 354.79 82.75 342.65 97.54 347.69 108.7"/>
      <g class="cls-41">
        <path class="cls-5" d="m274.41,91.95c15.32-1.34,30.46.46,45.25,8.29"/>
        <path class="cls-3" d="m274.41,91.95c15.32-1.34,30.46.46,45.25,8.29"/>
      </g>
      <polygon class="cls-5" points="316.29 106.48 330.22 106.93 318.26 91.46 316.29 106.48"/>
      <polygon class="cls-4" points="316.29 106.48 330.22 106.93 318.26 91.46 316.29 106.48"/>
      <g class="cls-39">
        <path class="cls-5" d="m261.19,57.9c.31,7.43.54,14.9.66,22.36.06,3.81.59,7.03,1.61,9.2"/>
        <path class="cls-3" d="m261.19,57.9c.31,7.43.54,14.9.66,22.36.06,3.81.59,7.03,1.61,9.2"/>
      </g>
      <polygon class="cls-5" points="260.5 93.74 274.41 91.96 261.95 78.45 260.5 93.74"/>
      <polygon class="cls-4" points="260.5 93.74 274.41 91.96 261.95 78.45 260.5 93.74"/>
      <g class="cls-15">
        <path class="cls-5" d="m302.09-72.25c1.26,2.37,2.47,4.9,3.62,7.52,8.58,19.49,9.08,43.6,1.36,64.4-4.53,12.19-10.38,20.62-16.77,27.46-6.57,7.03-13.45,12.11-20.52,15.95"/>
        <path class="cls-3" d="m302.09-72.25c1.26,2.37,2.47,4.9,3.62,7.52,8.58,19.49,9.08,43.6,1.36,64.4-4.53,12.19-10.38,20.62-16.77,27.46-6.57,7.03-13.45,12.11-20.52,15.95"/>
      </g>
      <polygon class="cls-5" points="269.91 34.37 261.19 57.89 274.17 46.96 269.91 34.37"/>
      <polygon class="cls-4" points="269.91 34.37 261.19 57.89 274.17 46.96 269.91 34.37"/>
      <g class="cls-16">
        <path class="cls-5" d="m828.68,17.35c2.79,22.6,14.27,35.55,24.77,26.26,6.27-5.55,10.26-16.45,11.37-29.19"/>
        <path class="cls-3" d="m828.68,17.35c2.79,22.6,14.27,35.55,24.77,26.26,6.27-5.55,10.26-16.45,11.37-29.19"/>
      </g>
      <polygon class="cls-5" points="862.87 0 861.04 20.33 868.24 19.23 865.17 0 862.87 0"/>
      <g class="cls-19">
        <polygon class="cls-4" points="868.24 19.23 863.7 -9.28 861.04 20.33 868.24 19.23"/>
      </g>
      <polygon class="cls-5" points="823.75 0 828.68 17.35 828.46 0 823.75 0"/>
      <g class="cls-18">
        <polygon class="cls-4" points="821.38 -8.34 828.68 17.35 828.3 -12.8 821.38 -8.34"/>
        <path class="cls-5" d="m130.01,228.87c4.17-.52,8.33-1.79,12.47-3.08,11.59-3.6,18.89-28.1,15.15-52.88-2.56-16.89-10.52-27.77-18.73-27.05"/>
        <path class="cls-3" d="m130.01,228.87c4.17-.52,8.33-1.79,12.47-3.08,11.59-3.6,18.89-28.1,15.15-52.88-2.56-16.89-10.52-27.77-18.73-27.05"/>
      </g>
      <polygon class="cls-5" points="140.97 137.8 127.97 148.65 141.74 153.32 140.97 137.8"/>
      <polygon class="cls-4" points="140.97 137.8 127.97 148.65 141.74 153.32 140.97 137.8"/>
      <g class="cls-17">
        <path class="cls-5" d="m57.28,218.96c2.83-.35,5.72,1.41,8.59,2.12,5.51,1.37,11.02,2.75,16.53,3.96,5.53,1.21,11.05,2.68,16.59,3.18,6.11.55,12.25.13,18.37.13v.63c.55,0,1.09,0,1.64.02"/>
        <path class="cls-3" d="m57.28,218.96c2.83-.35,5.72,1.41,8.59,2.12,5.51,1.37,11.02,2.75,16.53,3.96,5.53,1.21,11.05,2.68,16.59,3.18,6.11.55,12.25.13,18.37.13v.63c.55,0,1.09,0,1.64.02"/>
      </g>
      <polygon class="cls-5" points="116.57 236.82 130.01 228.87 116.53 221.2 116.57 236.82"/>
      <polygon class="cls-4" points="116.57 236.82 130.01 228.87 116.53 221.2 116.57 236.82"/>
      <g class="cls-20">
        <path class="cls-5" d="m55.1,133.53c-2.99-5.29-6.75-7.29-10.45-7.17-5.35.18-10.02,4.55-13.84,13.4-6.33,14.69-6.24,39.58.04,53.76,4.39,9.91,9.8,16.21,15.63,20.86"/>
        <path class="cls-3" d="m55.1,133.53c-2.99-5.29-6.75-7.29-10.45-7.17-5.35.18-10.02,4.55-13.84,13.4-6.33,14.69-6.24,39.58.04,53.76,4.39,9.91,9.8,16.21,15.63,20.86"/>
      </g>
      <polygon class="cls-5" points="43.37 220.43 57.29 218.96 44.89 205.17 43.37 220.43"/>
      <polygon class="cls-4" points="43.37 220.43 57.29 218.96 44.89 205.17 43.37 220.43"/>
      <g class="cls-23">
        <path class="cls-5" d="m127.97,148.65c-1.72.26-3.45.45-5.17.65-2.93.33-5.88-.46-8.83-.57-3.61-.14-7.22-.06-10.83-.16-.86-.02-1.71-.47-2.57-.55-2.99-.27-5.99-.19-8.96-.74-3.44-.64-6.85-1.84-10.28-2.72-3.16-.81-6.33-1.43-9.49-2.29-2.06-.57-4.12-1.79-6.17-2.2"/>
        <path class="cls-3" d="m127.97,148.65c-1.72.26-3.45.45-5.17.65-2.93.33-5.88-.46-8.83-.57-3.61-.14-7.22-.06-10.83-.16-.86-.02-1.71-.47-2.57-.55-2.99-.27-5.99-.19-8.96-.74-3.44-.64-6.85-1.84-10.28-2.72-3.16-.81-6.33-1.43-9.49-2.29-2.06-.57-4.12-1.79-6.17-2.2"/>
      </g>
      <polygon class="cls-5" points="69.04 133.64 55.1 133.52 67.14 148.71 69.04 133.64"/>
      <polygon class="cls-4" points="69.04 133.64 55.1 133.52 67.14 148.71 69.04 133.64"/>
      <g class="cls-21">
        <path class="cls-5" d="m747.65,136.62c-1.38,1.17-2.67,2.92-4.08,3.77-7.98,4.78-13.49,20.31-13.6,38.37.13,2.52.25,5.04.4,7.55.42,7,2.48,12.43,3.74,18.62,4.22,20.74,14.46,28.48,24.09,22.07.22-.15.44-.3.66-.45"/>
        <path class="cls-3" d="m747.65,136.62c-1.38,1.17-2.67,2.92-4.08,3.77-7.98,4.78-13.49,20.31-13.6,38.37.13,2.52.25,5.04.4,7.55.42,7,2.48,12.43,3.74,18.62,4.22,20.74,14.46,28.48,24.09,22.07.22-.15.44-.3.66-.45"/>
      </g>
      <polygon class="cls-5" points="757.29 235.49 769.6 221.36 755.67 220.28 757.29 235.49"/>
      <polygon class="cls-4" points="757.29 235.49 769.6 221.36 755.67 220.28 757.29 235.49"/>
      <g class="cls-22">
        <path class="cls-5" d="m774.14,133.26c-.56.49-1.19.68-1.79.81-4.61,1.05-9.21-1.72-13.81-.86"/>
        <path class="cls-3" d="m774.14,133.26c-.56.49-1.19.68-1.79.81-4.61,1.05-9.21-1.72-13.81-.86"/>
      </g>
      <polygon class="cls-5" points="760.51 125 747.65 136.61 761.47 140.47 760.51 125"/>
      <polygon class="cls-4" points="760.51 125 747.65 136.61 761.47 140.47 760.51 125"/>
      <g class="cls-24">
        <path class="cls-5" d="m769.6,221.35c4.28.34,8.7-2.32,12.89-4.96,2.03-1.28,4.02-2.19,6.06-2.44,9.77-1.17,18.29-20.46,16.91-44.95-.94-16.59-6.31-29.47-13.81-33.62-1.26-.7-2.5-1.49-3.73-2.38-.94-.68-1.87-1.23-2.81-1.66"/>
        <path class="cls-3" d="m769.6,221.35c4.28.34,8.7-2.32,12.89-4.96,2.03-1.28,4.02-2.19,6.06-2.44,9.77-1.17,18.29-20.46,16.91-44.95-.94-16.59-6.31-29.47-13.81-33.62-1.26-.7-2.5-1.49-3.73-2.38-.94-.68-1.87-1.23-2.81-1.66"/>
      </g>
      <polygon class="cls-5" points="787.42 124.14 774.14 133.26 787.75 139.74 787.42 124.14"/>
      <polygon class="cls-4" points="787.42 124.14 774.14 133.26 787.75 139.74 787.42 124.14"/>
      <polygon class="cls-5" points="967.67 0 965.37 10.71 972.43 0 967.67 0"/>
      <g class="cls-30">
        <polygon class="cls-4" points="971.26 -16.62 965.36 10.71 976.78 -6.58 971.26 -16.62"/>
        <path class="cls-5" d="m975.71,34.13c3.03-5.28,6.07-10.71,9.39-15.03,5.74-7.48,11.86-12.93,18.18-17.15"/>
        <path class="cls-3" d="m975.71,34.13c3.03-5.28,6.07-10.71,9.39-15.03,5.74-7.48,11.86-12.93,18.18-17.15"/>
      </g>
      <polygon class="cls-5" points="1000.5 0 1001.89 11.11 1010.73 0 1000.5 0"/>
      <g class="cls-31">
        <polygon class="cls-4" points="1001.89 11.11 1013.94 -4.04 1000 -3.95 1001.89 11.11"/>
        <path class="cls-5" d="m965.37,10.71c-1.86,3.41-3.04,7.87-2,12.7.41,1.89.98,3.66,1.63,5.33"/>
        <path class="cls-3" d="m965.37,10.71c-1.86,3.41-3.04,7.87-2,12.7.41,1.89.98,3.66,1.63,5.33"/>
      </g>
      <polygon class="cls-5" points="961.79 32.93 975.71 34.13 963.94 18.02 961.79 32.93"/>
      <polygon class="cls-4" points="961.79 32.93 975.71 34.13 963.94 18.02 961.79 32.93"/>
      <g class="cls-29">
        <path class="cls-5" d="m433.93,74.05c-5.38,1.33-9.8,7.87-13.93,14.3-3.46,5.39-6.01,13.66-8.72,21.08-1.11,3.03-1.7,7.08-2.26,10.86-.67,4.57-.99,9.38-1.58,14.02-.84,6.64-.9,13.22.04,19.8.58,4.09,1.38,8.05,1.84,12.19,1.06,9.62,3.52,16.98,7.17,22.73,1.09,1.71,2.15,3.66,2.99,5.9,3.74,9.88,8.57,14.62,14.41,14.78.81,0,1.62.21,2.42-.03,6.46-1.93,12.11-11.25,14.73-23.9"/>
        <path class="cls-3" d="m433.93,74.05c-5.38,1.33-9.8,7.87-13.93,14.3-3.46,5.39-6.01,13.66-8.72,21.08-1.11,3.03-1.7,7.08-2.26,10.86-.67,4.57-.99,9.38-1.58,14.02-.84,6.64-.9,13.22.04,19.8.58,4.09,1.38,8.05,1.84,12.19,1.06,9.62,3.52,16.98,7.17,22.73,1.09,1.71,2.15,3.66,2.99,5.9,3.74,9.88,8.57,14.62,14.41,14.78.81,0,1.62.21,2.42-.03,6.46-1.93,12.11-11.25,14.73-23.9"/>
      </g>
      <polygon class="cls-5" points="453.89 192.01 452.19 162.08 446.75 189.84 453.89 192.01"/>
      <polygon class="cls-4" points="453.89 192.01 452.19 162.08 446.75 189.84 453.89 192.01"/>
      <g class="cls-28">
        <path class="cls-5" d="m452.19,162.08c-.59-6-.3-11.56,2.33-16.43,4.98-9.2,7.53-21.04,6.9-35.84-.57-13.5-5.62-28.07-11.54-33-1.63-1.36-3.29-1.96-4.95-2.24"/>
        <path class="cls-3" d="m452.19,162.08c-.59-6-.3-11.56,2.33-16.43,4.98-9.2,7.53-21.04,6.9-35.84-.57-13.5-5.62-28.07-11.54-33-1.63-1.36-3.29-1.96-4.95-2.24"/>
      </g>
      <polygon class="cls-5" points="447.49 67.16 433.93 74.04 447.27 82.77 447.49 67.16"/>
      <polygon class="cls-4" points="447.49 67.16 433.93 74.04 447.27 82.77 447.49 67.16"/>
      <g class="cls-25">
        <path class="cls-5" d="m176.75,221.17c2.72,2.77,5.12,6.18,7.54,9.85,1.9,2.89,4.19,4.55,6.21,7.12,3.11,3.96,6.37,6.54,10.05,6.79,1.64-.59,3.32-.86,4.91-1.82,7.96-4.82,12.51-16.78,13.65-33.94.41-6.22.21-12.13-.59-17.53"/>
        <path class="cls-3" d="m176.75,221.17c2.72,2.77,5.12,6.18,7.54,9.85,1.9,2.89,4.19,4.55,6.21,7.12,3.11,3.96,6.37,6.54,10.05,6.79,1.64-.59,3.32-.86,4.91-1.82,7.96-4.82,12.51-16.78,13.65-33.94.41-6.22.21-12.13-.59-17.53"/>
      </g>
      <polygon class="cls-5" points="222.54 192.02 211.86 172.65 216.63 200.98 222.54 192.02"/>
      <polygon class="cls-4" points="222.54 192.02 211.86 172.65 216.63 200.98 222.54 192.02"/>
      <g class="cls-26">
        <path class="cls-5" d="m197.61,156.05c-5.69-11.2-14.12-13.97-20.77-6.68-6.17,6.76-11.21,21.16-10.18,40.65.29,5.5.98,10.5,2.05,14.92"/>
        <path class="cls-3" d="m197.61,156.05c-5.69-11.2-14.12-13.97-20.77-6.68-6.17,6.76-11.21,21.16-10.18,40.65.29,5.5.98,10.5,2.05,14.92"/>
      </g>
      <polygon class="cls-5" points="164.71 206 176.75 221.17 169.83 195 164.71 206"/>
      <polygon class="cls-4" points="164.71 206 176.75 221.17 169.83 195 164.71 206"/>
      <g class="cls-27">
        <path class="cls-5" d="m211.86,172.65c-1.41-2.14-2.92-3.97-4.48-5.66"/>
        <path class="cls-3" d="m211.86,172.65c-1.41-2.14-2.92-3.97-4.48-5.66"/>
      </g>
      <polygon class="cls-5" points="211.21 162.54 197.61 156.05 207.89 176.4 211.21 162.54"/>
      <polygon class="cls-4" points="211.21 162.54 197.61 156.05 207.89 176.4 211.21 162.54"/>
    </g>
  </g>
</svg>