<?xml version="1.0" encoding="UTF-8"?>
<svg id="Layer_2" data-name="Layer 2" xmlns="http://www.w3.org/2000/svg" viewBox="0 0 182.89 81.35">
  <defs>
    <style>
      .cls-1 {
        fill: none;
        stroke: #d3d3d3;
        stroke-miterlimit: 10;
        stroke-width: 2px;
      }

      .cls-2 {
        fill: #d3d3d3;
        stroke-width: 0px;
      }
    </style>
  </defs>
  <g id="Layer_1-2" data-name="Layer 1">
    <polygon class="cls-2" points="50.73 79.58 63.73 68.67 49.97 63.97 50.73 79.58"/>
    <polygon class="cls-2" points="75.14 0 61.7 7.99 75.18 15.7 75.14 0"/>
    <polygon class="cls-2" points="162.34 24.48 148.42 25.95 160.81 39.82 162.34 24.48"/>
    <path class="cls-1" d="m57.64,8S16.89,3.95,5.27,24.48s4.19,39.49,4.19,39.49c0,0,4.51,8.81,43.19,7.03"/>
    <path class="cls-1" d="m66.64,69s41.61,2.88,81.78,10.59c28.22,5.41,33.22-19.59,33.22-19.59,0,0,4-25-20.07-27.85"/>
    <path class="cls-1" d="m71.5,7.85s47.89,4.63,75.14,17.15"/>
  </g>
</svg>