<?xml version="1.0" encoding="UTF-8"?>
<svg id="Layer_2" data-name="Layer 2" xmlns="http://www.w3.org/2000/svg" viewBox="0 0 1295 264">
  <defs>
    <style>
      .cls-1 {
        fill: none;
      }

      .cls-1, .cls-2 {
        stroke-width: 0px;
      }

      .cls-2 {
        fill: #f0f;
      }
    </style>
  </defs>
  <g id="Layer_1-2" data-name="Layer 1">
    <g>
      <rect class="cls-1" y="0" width="1" height="264"/>
      <path class="cls-1" d="m1025.6,235.1c7.85-13.41,13.02-29.88,11.71-53.34-.47-8.42,2.57-14.01,6.58-13.26,11.15,2.11,22.29,1.74,33.42-.85,2.79-.65,5.65-1.8,8.38-1.08,15.14,4.01,30.25,4.47,45.39.42,1.85-.49,3.76-1.01,5.58-.5,15.19,4.21,30.37,4.6,45.57.41,1.49-.41,3.02-1.17,4.47-.74,9.34,2.75,18.71,4.17,28.13,3.63,15.35-.89,30.51-4.68,45.07-16.25,9.81-7.8,18.94-17.95,26.12-35.35,8.04-19.5,8.11-46.58.12-66.19-7.22-17.72-16.44-28.2-26.43-35.74-22.75-17.19-46.15-19.04-69.84-13.42-1.79.42-3.64,1.1-5.4.61-15.31-4.28-30.62-4.69-45.95-.46-1.66.46-3.38.94-5.02.47-15.25-4.32-30.49-4.66-45.76-.55-1.72.46-3.51,1.03-5.21.55-15.31-4.31-30.62-4.72-45.94-.45-1.36.38-2.77,1.15-4.1.75-13.47-4.07-26.97-4.85-40.52-2.21-12.04,2.35-23.85,7-35.15,16.76-9.18,7.93-17.81,17.8-24.21,34.99-4.08,10.95-6.39,23.24-5.37,37.75.15,2.17.26,4.36.48,6.5.72,7.3-.87,13.15-4.22,14.79-7.36,3.59-14.57,8.17-21.47,14.87-8.28,8.04-15.87,18.16-21.51,34.27-2.1,5.99-6.45,5.47-8.74-.32-1.8-4.55-3.69-8.98-5.7-13.07-3.07-6.24-3.26-13.55-.3-20.04,1.59-3.5,3.29-6.8,4.77-10.53,6.15-15.55,8.06-36.1,3.21-55.01-2.26-8.82-5.35-15.94-8.88-22.16-7.81-13.76-16.89-21.97-26.39-28.08-16.17-10.4-32.75-13.27-49.5-11.92-14.21,1.14-28.23,5.2-41.69,15.93-9.68,7.72-18.8,17.49-25.86,34.72-5.54,13.53-7.71,28.92-5.74,46.84.74,6.73-.97,12.85-3.99,14.48-1.03.56-2.08.99-3.11,1.56-12.49,6.88-24.56,16-34.5,34.87-7.52,14.28-11.85,31.52-9.33,54.29.76,6.87-.91,12.4-4.03,14.24-5.02,2.96-10.03,6.02-15.01,9.27-1.95,1.27-3.76,1.13-5.69-.15-4.74-3.12-9.5-6.08-14.29-8.82-3.8-2.18-5.39-7.34-4.46-15.82,1.7-15.61-.09-29.35-4.5-41.75-4.95-13.91-11.51-23.09-18.65-30.54-7.57-7.89-15.53-13.18-23.7-17.12-3.21-1.55-4.9-7.63-4.17-14.56,1.29-12.37.91-24.19-2.02-35.49-2.25-8.66-5.29-15.72-8.76-21.85-7.8-13.76-16.89-21.91-26.37-28.18-11.54-7.63-23.41-10.9-35.4-11.87-18.79-1.52-37.33,1.87-55.26,15.38-2.11,1.59-4.11,1.57-6.23.01C413.59-.81,390.39-2.79,366.9,2.88c-1.79.43-3.64,1.05-5.4.56-15.25-4.28-30.5-4.64-45.76-.51-1.72.47-3.51,1-5.21.52-15.31-4.29-30.62-4.69-45.95-.44-1.6.44-3.26.9-4.84.46-15.31-4.31-30.62-4.71-45.94-.44-1.42.4-2.88.99-4.29.74-5.75-.98-11.47-2.8-17.22-3.3-18.34-1.59-36.47,1.54-54.02,14.37-10.56,7.72-20.41,18.14-28.08,36.77-8.15,19.79-8.13,47.01.05,66.81,6.42,15.52,14.43,25.39,23.16,32.74,21.04,17.71,42.94,20.79,65.16,17.44,5.5-.83,8.04,4.87,7.48,16.92-.23,5.1-.1,10.5.42,15.49.93,9.03-1.1,14.87-4.86,16.97-6.66,3.73-13.29,8.07-19.7,13.51-8.28,7.03-15.7,17.21-21.44,32.51h166.82c9.07-5.27,17.72-13.07,25.59-24.87,6-9,11.12-19.98,13.32-35.68.79-5.61,1.05-11.96.8-17.82-.5-12.11,1.93-18.08,7.39-17.04,9.32,1.78,18.66,1.8,27.98.02,5.03-.96,7.54,4.2,7.27,15.33-.04,1.65-.07,3.3-.12,5.85-.38,11.68,1.94,22.17,5.42,31.58,1.45,3.92,3.16,7.43,4.85,10.88,3.27,6.69,3.33,14.4-.06,20.86-1.76,3.35-3.36,6.96-4.79,10.89h441.52c1.34-4.25,2.71-8.44,4.07-12.66,2.91-9.06,5.9-18,8.8-27.09,2.19-6.89,4.83-12.52,8.28-16.35,2.38-2.64,4.52-6.62,7-8.53,9.53-7.36,18.96,2.07,23.12,21.84,1.1,5.24,1.41,11.29,1.87,15.16-.4,11.32-1.82,20.34-4.47,27.64h92.29c10.11-5.97,19.73-14.5,28.15-28.9Zm-684.86-27.94c-1.07,5.48-3.2,9.97-4.9,14.83-.56,1.61-1.24,3.06-1.95,4.37-1.99,3.7-3.85,7.93-6.08,10.76-3.06,3.88-6.35,6.96-9.65,9.8-1.59,1.37-3.41,1.39-5.13,2.02-11.22-.5-19.82-21.26-18.63-45.71.22-4.56,1.17-8.93,1.68-13.44.23-2.04.5-4.35.29-6.29-1.8-16.42.07-30.28,5.73-41.73.77-1.57,1.39-3.49,2.1-5.23,4.77-11.7,10.71-15.98,17.75-13.92,2.38.7,4.87-.04,7.2,1.06,8.35,3.95,13.47,17.49,14.71,36.05,1.11,16.65-.17,32.36-3.12,47.42Zm197.12-61.99c-4.25,2.5-8.28,1.04-12.26-2.33-5.94-5.03-11.85-10.16-17.8-15.14-4.08-3.41-8.18-6.66-12.28-9.95-2.27-1.83-2.63-1.31-2.76,3.89-.45,16.79-6.33,31.69-14.08,36.01-1.47.82-2.97,2.14-4.22,3.98-7.5,11.04-18.12,9.01-24.01-5.41-.5-1.22-.9-2.63-1.35-3.96-.24.21-.49.42-.73.64-.31,2.19-.66,4.35-.92,6.57-1.98,16.72-8.42,28.52-16.19,30.4-10.93,2.64-20.1-15.21-20.6-37.47-.26-11.46-.16-22.79,1.14-34.37,1.34-11.97,3.94-22.1,6.67-32.3,1.77-6.62,4.64-10.89,7.82-14.29,1.69-1.81,3.32-4.47,4.58-7.54,2.89-7.06,6.44-10.86,10.54-13.39,4.79-2.95,9.42-7.2,14.17-10.53,2.36-1.66,4.82-2.59,7.25-3.73.97-.45,1.97-.65,2.97-.82,2.09-.34,4.19-.68,6.28-.84,3.29-.26,6.57-.51,9.86-.52,3.22-.01,6.45.11,9.67.49,3.09.36,6.3.15,9.24,1.92,6.06,3.65,11.99,8.38,17.96,12.79,2.77,2.05,5.51,4.34,8.25,6.61,4.79,3.96,9.64,7.61,14.32,12.08,7.29,6.94,11.77,24,10.77,41.54-1.03,18.06-5.86,30.73-14.28,35.67Zm63.96,82.06c-3.83,10.93-9.13,15.89-15.22,15.92-3.48.02-6.95-2.26-9.9-6.85-1.54-2.39-3.04-4.06-5-4.88-7.64-3.22-12.5-13.53-14.75-29.89-.24-1.75-.67-3.55-1.23-4.87-8.6-20.18-6.46-51.81,4.65-65.06,2.62-3.12,5.8-4,7.83-5.33,4.7,1.05,8.44,1.62,12.14,2.8,3.05.96,5.57,4.48,7.91,8.91,2.07,3.91,4.85,6.31,6.55,10.79,3.58,9.42,7.2,19.02,8.5,31.57.62,5.98,1.85,11.71,2.28,17.73.78,10.81-.75,20.57-3.76,29.17Zm394.21-109.56c-.18,0-.4.32-.55.19-2.68-2.45-3.65,1.99-4.96,5.62-3.56,9.87-8.33,14.73-14.02,15.03-1.63.08-2.7.81-3.72,3.99-3.73,11.61-9.14,17.6-15.44,17.29-9.69-.47-17-14.16-18.55-35.5-.83-11.38.45-21.83,3.67-30.85,1.18-3.29.41-6.34.37-9.39-.2-14.07,1.94-25.81,6.96-34.67,4.74-8.36,10.16-10.67,16.09-8.02.68.31,1.64.05,2.18-.82,4.72-7.63,9.92-9.99,15.64-7.73.55.22,1.38-.35,1.76-1.22,4.88-11.26,10.83-15.26,17.75-13.01.48.15,1,0,1.47-.29,6.06-3.72,11.76-2.44,17.01,5.6.2.31.43.61.66.77,7.86,5.43,11.77,19.6,14.89,34.44,3.98,18.89-.2,41.92-8.68,51.17-2.84,3.1-5.68,6.29-8.64,8.82-1.53,1.3-3.3,1.24-5.44,1.95-4.08-1.03-8.57-2.28-13.07-3.24-1.78-.38-3.6-.11-5.4-.12Z"/>
      <path class="cls-2" d="m419.81,232.25c-1.69-3.45-3.4-6.95-4.85-10.88-3.48-9.42-5.8-19.9-5.42-31.58.05-2.55.08-4.2.12-5.85.27-11.12-2.24-16.29-7.27-15.33-9.32,1.78-18.66,1.76-27.98-.02-5.46-1.04-7.9,4.93-7.39,17.04.24,5.86-.01,12.21-.8,17.82-2.21,15.7-7.33,26.68-13.32,35.68-7.87,11.8-16.52,19.59-25.59,24.87h87.67c1.43-3.93,3.03-7.54,4.79-10.89,3.4-6.46,3.34-14.17.06-20.86Z"/>
      <path class="cls-2" d="m541.37,67.96c-4.69-4.47-9.54-8.12-14.32-12.08-2.74-2.27-5.48-4.56-8.25-6.61-5.96-4.41-11.89-9.15-17.96-12.79-2.94-1.77-6.15-1.56-9.24-1.92-3.22-.38-6.45-.5-9.67-.49-3.29.01-6.58.26-9.86.52-2.1.17-4.19.5-6.28.84-.99.16-2,.36-2.97.82-2.43,1.13-4.89,2.07-7.25,3.73-4.75,3.34-9.38,7.58-14.17,10.53-4.11,2.53-7.66,6.33-10.54,13.39-1.26,3.07-2.89,5.73-4.58,7.54-3.18,3.4-6.04,7.67-7.82,14.29-2.73,10.19-5.34,20.33-6.67,32.3-1.29,11.58-1.4,22.91-1.14,34.37.5,22.26,9.68,40.12,20.6,37.47,7.77-1.88,14.2-13.67,16.19-30.4.26-2.22.61-4.38.92-6.57.24-.21.49-.42.73-.64.45,1.32.85,2.73,1.35,3.96,5.9,14.43,16.51,16.46,24.01,5.41,1.25-1.84,2.75-3.16,4.22-3.98,7.75-4.32,13.64-19.23,14.08-36.01.14-5.2.49-5.72,2.76-3.89,4.1,3.29,8.2,6.54,12.28,9.95,5.94,4.98,11.86,10.11,17.8,15.14,3.98,3.37,8.02,4.83,12.26,2.33,8.41-4.94,13.25-17.61,14.28-35.67,1-17.54-3.48-34.59-10.77-41.54Z"/>
      <path class="cls-2" d="m603.3,180.34c-1.31-12.55-4.92-22.15-8.5-31.57-1.7-4.47-4.48-6.88-6.55-10.79-2.34-4.43-4.86-7.94-7.91-8.91-3.7-1.17-7.44-1.75-12.14-2.8-2.03,1.33-5.21,2.2-7.83,5.33-11.1,13.24-13.24,44.88-4.65,65.06.56,1.32.99,3.13,1.23,4.87,2.24,16.36,7.11,26.67,14.75,29.89,1.95.82,3.46,2.49,5,4.88,2.95,4.59,6.41,6.87,9.9,6.85,6.09-.04,11.39-5,15.22-15.92,3.01-8.59,4.54-18.36,3.76-29.17-.44-6.02-1.66-11.75-2.28-17.73Z"/>
      <path class="cls-2" d="m329.16,123.7c-2.33-1.1-4.82-.37-7.2-1.06-7.04-2.06-12.98,2.22-17.75,13.92-.71,1.73-1.32,3.66-2.1,5.23-5.66,11.45-7.54,25.31-5.73,41.73.21,1.94-.06,4.25-.29,6.29-.52,4.51-1.46,8.88-1.68,13.44-1.2,24.45,7.4,45.21,18.63,45.71,1.72-.63,3.54-.66,5.13-2.02,3.3-2.84,6.59-5.92,9.65-9.8,2.23-2.83,4.09-7.07,6.08-10.76.71-1.31,1.38-2.76,1.95-4.37,1.7-4.86,3.83-9.35,4.9-14.83,2.95-15.06,4.23-30.76,3.12-47.42-1.23-18.56-6.36-32.1-14.71-36.05Z"/>
      <path class="cls-2" d="m160.47,264c5.74-15.3,13.17-25.48,21.44-32.51,6.41-5.44,13.04-9.78,19.7-13.51,3.76-2.11,5.79-7.94,4.86-16.97-.51-4.99-.65-10.4-.42-15.49.55-12.04-1.99-17.74-7.48-16.92-22.22,3.34-44.11.27-65.16-17.44-8.74-7.35-16.75-17.23-23.16-32.74-8.19-19.8-8.21-47.02-.05-66.81,7.67-18.63,17.53-29.05,28.08-36.77C155.82,2.01,173.95-1.13,192.3.47c5.75.5,11.48,2.32,17.22,3.3,1.41.24,2.87-.35,4.29-.74,15.32-4.28,30.63-3.87,45.94.44,1.58.44,3.24-.01,4.84-.46,15.33-4.24,30.63-3.84,45.95.44,1.7.48,3.49-.06,5.21-.52,15.27-4.12,30.51-3.77,45.76.51,1.76.49,3.61-.13,5.4-.56,23.49-5.67,46.69-3.69,69.31,12.93,2.12,1.56,4.12,1.58,6.23-.01C460.37,2.28,478.91-1.11,497.7.41c11.99.97,23.86,4.24,35.4,11.87,9.48,6.27,18.57,14.42,26.37,28.18,3.48,6.13,6.52,13.19,8.76,21.85,2.93,11.3,3.32,23.12,2.02,35.49-.72,6.92.96,13.01,4.17,14.56,8.17,3.94,16.13,9.23,23.7,17.12,7.14,7.45,13.71,16.63,18.65,30.54,4.41,12.4,6.2,26.14,4.5,41.75-.92,8.48.66,13.64,4.46,15.82,4.79,2.74,9.55,5.7,14.29,8.82,1.93,1.27,3.75,1.42,5.69.15,4.98-3.25,9.99-6.31,15.01-9.27,3.13-1.85,4.79-7.37,4.03-14.24-2.51-22.77,1.81-40.02,9.33-54.29,9.94-18.87,22-27.99,34.5-34.87,1.03-.57,2.08-1.01,3.11-1.56,3.02-1.63,4.73-7.75,3.99-14.48-1.97-17.93.2-33.31,5.74-46.84,7.06-17.23,16.17-27,25.86-34.72,13.46-10.73,27.48-14.79,41.69-15.93,16.75-1.35,33.33,1.53,49.5,11.92,9.5,6.11,18.58,14.32,26.39,28.08,3.53,6.22,6.62,13.35,8.88,22.16,4.85,18.91,2.94,39.45-3.21,55.01-1.48,3.73-3.18,7.03-4.77,10.53-2.95,6.49-2.77,13.8.3,20.04,2.02,4.09,3.9,8.53,5.7,13.07,2.3,5.79,6.65,6.3,8.74.32,5.64-16.11,13.23-26.23,21.51-34.27,6.91-6.7,14.12-11.29,21.47-14.87,3.35-1.63,4.95-7.49,4.22-14.79-.21-2.14-.32-4.33-.48-6.5-1.02-14.51,1.3-26.79,5.37-37.75,6.39-17.18,15.03-27.05,24.21-34.99,11.3-9.76,23.11-14.41,35.15-16.76,13.54-2.64,27.05-1.85,40.52,2.21,1.33.4,2.74-.37,4.1-.75,15.32-4.26,30.63-3.85,45.94.45,1.7.48,3.49-.09,5.21-.55,15.27-4.11,30.51-3.76,45.76.55,1.64.46,3.36-.02,5.02-.47,15.33-4.23,30.63-3.82,45.95.46,1.76.49,3.61-.19,5.4-.61,23.69-5.61,47.09-3.77,69.84,13.42,9.99,7.55,19.21,18.03,26.43,35.74,7.99,19.61,7.92,46.69-.12,66.19-7.18,17.4-16.31,27.56-26.12,35.35-14.55,11.57-29.72,15.36-45.07,16.25-9.42.55-18.79-.88-28.13-3.63-1.45-.43-2.99.33-4.47.74-15.2,4.19-30.38,3.8-45.57-.41-1.82-.51-3.74,0-5.58.5-15.14,4.05-30.26,3.59-45.39-.42-2.74-.72-5.6.43-8.38,1.08-11.13,2.59-22.27,2.96-33.42.85-4.01-.76-7.05,4.84-6.58,13.26,1.32,23.46-3.86,39.93-11.71,53.34-8.43,14.4-18.05,22.94-28.15,28.9h297.56V0H1v264h159.47Z"/>
      <path class="cls-2" d="m907.75,221.2c-4.17-19.77-13.6-29.2-23.12-21.84-2.48,1.92-4.61,5.89-7,8.53-3.45,3.83-6.09,9.47-8.28,16.35-2.89,9.09-5.88,18.03-8.8,27.09-1.36,4.22-2.73,8.42-4.07,12.66h48.68c2.65-7.3,4.07-16.31,4.47-27.64-.46-3.87-.77-9.92-1.87-15.16Z"/>
      <path class="cls-2" d="m1019.94,119.08c2.95-2.52,5.79-5.71,8.64-8.82,8.48-9.25,12.65-32.28,8.68-51.17-3.13-14.85-7.03-29.02-14.89-34.44-.23-.16-.46-.46-.66-.77-5.25-8.03-10.95-9.32-17.01-5.6-.47.29-1,.44-1.47.29-6.93-2.25-12.87,1.75-17.75,13.01-.38.87-1.21,1.44-1.76,1.22-5.73-2.27-10.93.09-15.64,7.73-.54.87-1.5,1.13-2.18.82-5.93-2.65-11.35-.34-16.09,8.02-5.02,8.86-7.15,20.6-6.96,34.67.04,3.05.81,6.1-.37,9.39-3.22,9.02-4.5,19.47-3.67,30.85,1.55,21.35,8.86,35.03,18.55,35.5,6.3.31,11.71-5.69,15.44-17.29,1.02-3.18,2.09-3.9,3.72-3.99,5.68-.3,10.46-5.16,14.02-15.03,1.31-3.63,2.28-8.07,4.96-5.62.15.13.36-.19.55-.19,1.8,0,3.61-.26,5.4.12,4.5.96,8.99,2.21,13.07,3.24,2.14-.71,3.91-.64,5.44-1.95Z"/>
    </g>
  </g>
</svg>