<?xml version="1.0" encoding="UTF-8"?>
<svg id="Layer_2" data-name="Layer 2" xmlns="http://www.w3.org/2000/svg" preserveAspectRatio="none" xmlns:xlink="http://www.w3.org/1999/xlink" viewBox="0 0 1280 266.67">
  <defs>
    <style>
      .cls-1 {
        clip-path: url(#clippath);
      }

      .cls-2 {
        fill: none;
      }

      .cls-2, .cls-3 {
        stroke-width: 0px;
      }

      .cls-3 {
        fill: #399;
      }
    </style>
    <clipPath id="clippath">
      <rect class="cls-2" width="1280" height="266.67"/>
    </clipPath>
  </defs>
  <g id="Layer_1-2" data-name="Layer 1">
    <g class="cls-1">
      <path class="cls-3" d="m1273.24,106.11c-3.9,0-6.72-6.16-6.73-14.71-.01-8.75,2.82-14.88,6.85-14.85,3.87.03,6.66,6.3,6.64,14.91-.02,8.53-2.84,14.65-6.76,14.65"/>
      <path class="cls-3" d="m248.04,190.32c0,8.72-2.72,14.72-6.68,14.72-3.92,0-6.74-6.1-6.77-14.63-.02-8.77,2.8-14.95,6.82-14.93,3.92.02,6.63,6.09,6.63,14.84"/>
      <path class="cls-3" d="m162.74,2.35c4.03-.03,6.85,6.13,6.84,14.89-.02,8.54-2.84,14.67-6.75,14.67s-6.7-5.99-6.7-14.68c0-8.76,2.7-14.86,6.61-14.88"/>
      <path class="cls-3" d="m185.2,31.91c-3.93-.02-6.64-6.07-6.64-14.81,0-8.86,2.76-14.8,6.86-14.75,3.87.04,6.56,6.21,6.55,15.02-.01,8.59-2.79,14.56-6.76,14.54"/>
      <path class="cls-3" d="m207.78,2.35c3.87.02,6.67,6.27,6.66,14.87-.01,8.69-2.87,14.75-6.92,14.69-3.85-.05-6.54-6.26-6.52-15.07.02-8.56,2.81-14.51,6.79-14.49"/>
      <path class="cls-3" d="m236.83,17.2c0,8.72-2.73,14.71-6.69,14.71-4.04,0-6.74-6.04-6.72-15.05.02-8.56,2.8-14.53,6.78-14.5,3.92.02,6.63,6.09,6.62,14.84"/>
      <path class="cls-3" d="m252.51,31.91c-3.94-.01-6.65-6.05-6.65-14.78s2.75-14.82,6.85-14.78c3.85.04,6.63,6.35,6.6,14.99-.03,8.51-2.86,14.58-6.79,14.57"/>
      <path class="cls-3" d="m281.69,17.03c0,8.76-2.7,14.86-6.61,14.89-4.08.03-6.8-5.93-6.8-14.88,0-8.69,2.74-14.68,6.7-14.68s6.7,5.99,6.7,14.67"/>
      <path class="cls-3" d="m297.49,31.91c-3.98.02-6.76-5.95-6.77-14.53-.02-9.01,2.68-15.04,6.73-15.03,3.9,0,6.71,6.18,6.72,14.73,0,8.59-2.79,14.81-6.68,14.83"/>
      <path class="cls-3" d="m326.56,17.04c0,8.76-2.7,14.85-6.61,14.88-4.08.03-6.8-5.93-6.79-14.89,0-8.68,2.74-14.67,6.71-14.67s6.69,5.99,6.7,14.68"/>
      <path class="cls-3" d="m342.32,31.91c-3.97.01-6.73-5.96-6.74-14.59-.01-8.99,2.7-14.98,6.76-14.97,3.89.02,6.69,6.23,6.69,14.8,0,8.56-2.82,14.75-6.71,14.76"/>
      <path class="cls-3" d="m371.42,16.96c.01,8.77-2.69,14.92-6.58,14.95-4.09.04-6.83-5.91-6.83-14.81,0-8.73,2.72-14.74,6.67-14.75,3.97-.01,6.72,5.96,6.74,14.6"/>
      <path class="cls-3" d="m387.06,31.91c-3.91-.02-6.62-6.11-6.61-14.87,0-8.82,2.78-14.74,6.89-14.69,3.84.05,6.61,6.41,6.56,15.08-.05,8.48-2.89,14.5-6.83,14.48"/>
      <path class="cls-3" d="m408.87,31.91c-3.91-.02-6.62-6.11-6.61-14.87,0-8.82,2.78-14.74,6.89-14.69,3.84.05,6.61,6.41,6.56,15.08-.05,8.48-2.89,14.5-6.83,14.48"/>
      <path class="cls-3" d="m408.87,81.43c-3.91-.02-6.62-6.11-6.61-14.87,0-8.82,2.78-14.74,6.89-14.69,3.84.05,6.61,6.41,6.56,15.08-.05,8.48-2.89,14.5-6.83,14.48"/>
      <path class="cls-3" d="m432.23,31.91c-3.91-.02-6.62-6.11-6.61-14.87,0-8.82,2.78-14.74,6.89-14.69,3.84.05,6.61,6.41,6.56,15.08-.05,8.48-2.89,14.5-6.83,14.48"/>
      <path class="cls-3" d="m454.39,2.35c3.97-.02,6.74,5.95,6.76,14.55.01,9.01-2.69,15.02-6.74,15.01-3.95-.01-6.66-6.03-6.66-14.76,0-8.74,2.72-14.79,6.65-14.8"/>
      <path class="cls-3" d="m476.97,2.35c3.87.02,6.67,6.28,6.65,14.88-.01,8.68-2.87,14.74-6.93,14.68-3.85-.05-6.54-6.27-6.52-15.08.02-8.56,2.81-14.5,6.79-14.48"/>
      <path class="cls-3" d="m506.01,17.32c-.01,8.63-2.77,14.6-6.74,14.59-4-.01-6.69-6.13-6.66-15.17.02-8.5,2.84-14.42,6.84-14.38,3.88.04,6.58,6.19,6.57,14.97"/>
      <path class="cls-3" d="m529.38,17.32c-.01,8.63-2.77,14.6-6.74,14.59-4-.01-6.69-6.13-6.66-15.17.02-8.5,2.84-14.42,6.84-14.38,3.88.04,6.58,6.19,6.57,14.97"/>
      <path class="cls-3" d="m761.79,16.6c.03-8.41,2.89-14.3,6.9-14.24,3.91.06,6.56,6.38,6.51,15.52-.05,8.27-2.97,14.13-6.99,14.04-3.78-.09-6.45-6.45-6.41-15.32"/>
      <path class="cls-3" d="m739.3,14.24c.03-8.41,2.89-14.3,6.9-14.24,3.91.06,6.56,6.38,6.51,15.52-.05,8.27-2.97,14.13-6.99,14.04-3.79-.09-6.45-6.45-6.41-15.32"/>
      <path class="cls-3" d="m790.95,31.91c-3.97.01-6.72-5.97-6.73-14.61,0-8.97,2.7-14.97,6.77-14.94,3.88.02,6.69,6.24,6.68,14.82,0,8.55-2.82,14.73-6.72,14.74"/>
      <path class="cls-3" d="m813.44,31.91c-3.97.01-6.72-5.97-6.73-14.61,0-8.97,2.7-14.97,6.77-14.94,3.88.02,6.69,6.24,6.68,14.82,0,8.55-2.82,14.73-6.72,14.74"/>
      <path class="cls-3" d="m1015.2,31.91c-3.94-.01-6.65-6.05-6.65-14.78s2.75-14.82,6.85-14.78c3.85.04,6.63,6.35,6.6,14.99-.03,8.51-2.86,14.58-6.79,14.57"/>
      <path class="cls-3" d="m1044.38,17.07c0,8.75-2.71,14.82-6.63,14.84-4.07.02-6.79-5.96-6.78-14.92,0-8.65,2.76-14.64,6.72-14.64,3.96,0,6.68,6,6.68,14.72"/>
      <path class="cls-3" d="m1060.2,31.91c-3.98.03-6.77-5.92-6.79-14.48-.02-9.03,2.67-15.08,6.71-15.08s6.72,6.14,6.74,14.69c.01,8.6-2.78,14.85-6.66,14.87"/>
      <path class="cls-3" d="m1082.49,2.35c3.97-.02,6.74,5.95,6.76,14.55.01,9.01-2.69,15.02-6.74,15.01-3.95-.01-6.66-6.03-6.66-14.76,0-8.74,2.72-14.79,6.65-14.8"/>
      <path class="cls-3" d="m1104.92,31.91c-3.93-.02-6.65-6.06-6.65-14.8,0-8.87,2.76-14.8,6.85-14.76,3.85.04,6.63,6.37,6.59,15.01-.03,8.5-2.87,14.57-6.8,14.55"/>
      <path class="cls-3" d="m1134.11,17.19c0,8.72-2.72,14.72-6.68,14.72-4.04,0-6.74-6.03-6.72-15.04.02-8.57,2.8-14.54,6.78-14.52,3.92.02,6.63,6.09,6.63,14.84"/>
      <path class="cls-3" d="m1149.92,31.91c-3.98.02-6.77-5.93-6.79-14.49-.02-9.03,2.68-15.08,6.71-15.07,3.91,0,6.72,6.15,6.74,14.69.01,8.6-2.78,14.84-6.66,14.87"/>
      <path class="cls-3" d="m1178.97,17.09c0,8.74-2.71,14.81-6.64,14.82-4.07.02-6.78-5.97-6.77-14.94,0-8.65,2.76-14.63,6.73-14.62,3.96.01,6.67,6.01,6.68,14.73"/>
      <path class="cls-3" d="m1194.75,2.35c3.89.01,6.7,6.22,6.69,14.79,0,8.72-2.84,14.81-6.89,14.77-3.88-.04-6.57-6.2-6.56-14.99.01-8.61,2.78-14.58,6.75-14.57"/>
      <path class="cls-3" d="m1223.84,17.2c0,8.71-2.73,14.71-6.69,14.71-4.04,0-6.74-6.03-6.72-15.05.02-8.56,2.8-14.53,6.78-14.51,3.92.02,6.63,6.09,6.62,14.85"/>
      <path class="cls-3" d="m1246.22,17.2c0,8.71-2.73,14.71-6.69,14.71-4.04,0-6.74-6.03-6.72-15.05.02-8.56,2.8-14.53,6.78-14.51,3.92.02,6.63,6.09,6.62,14.85"/>
      <path class="cls-3" d="m129.15,27.09c3.93-.01,6.75,6.08,6.78,14.6.03,8.58-2.8,15.01-6.62,15.03-4.02.02-6.88-6.16-6.87-14.87,0-8.56,2.82-14.75,6.71-14.76"/>
      <path class="cls-3" d="m158.32,41.89c0,8.61-2.79,14.82-6.67,14.85-3.95.03-6.82-6.35-6.78-15.1.03-8.5,2.87-14.57,6.8-14.56,3.93.01,6.65,6.06,6.65,14.8"/>
      <path class="cls-3" d="m174.02,27.09c3.92,0,6.75,6.09,6.77,14.62.02,8.58-2.81,14.99-6.62,15.01-4.02.02-6.87-6.18-6.86-14.89,0-8.55,2.82-14.73,6.72-14.74"/>
      <path class="cls-3" d="m203.18,41.94c0,8.59-2.81,14.79-6.69,14.8-3.86.01-6.74-6.25-6.76-14.74-.02-8.77,2.8-14.94,6.82-14.91,3.92.02,6.63,6.09,6.62,14.85"/>
      <path class="cls-3" d="m218.9,27.09c3.91,0,6.74,6.12,6.75,14.66.02,8.55-2.82,14.95-6.64,14.96-4.01,0-6.86-6.19-6.85-14.92.01-8.54,2.83-14.7,6.74-14.7"/>
      <path class="cls-3" d="m248.04,42c0,8.56-2.83,14.75-6.72,14.73-3.86-.01-6.72-6.29-6.73-14.8-.01-8.75,2.82-14.88,6.85-14.85,3.9.03,6.6,6.15,6.6,14.92"/>
      <path class="cls-3" d="m263.75,56.69c-3.99-.07-6.78-6.37-6.72-15.18.06-8.57,2.96-14.52,7.05-14.42,3.7.09,6.46,6.5,6.44,14.94-.02,8.5-2.9,14.72-6.77,14.66"/>
      <path class="cls-3" d="m292.91,42.22c-.02,8.49-2.89,14.6-6.82,14.52-3.84-.09-6.65-6.47-6.63-15.02.02-8.67,2.88-14.7,6.95-14.63,3.84.06,6.52,6.3,6.5,15.13"/>
      <path class="cls-3" d="m315.38,42.2c-.05,8.46-2.94,14.57-6.85,14.47-3.97-.1-6.72-6.46-6.63-15.34.08-8.55,3-14.38,7.12-14.25,3.66.12,6.41,6.65,6.36,15.11"/>
      <path class="cls-3" d="m337.77,41.93c0,8.59-2.8,14.8-6.68,14.81-3.86.01-6.74-6.25-6.77-14.72-.02-8.77,2.8-14.95,6.82-14.93,3.92.02,6.63,6.08,6.63,14.84"/>
      <path class="cls-3" d="m353.49,27.09c3.91,0,6.74,6.12,6.75,14.66.02,8.55-2.82,14.95-6.64,14.96-4.01,0-6.86-6.19-6.85-14.92.01-8.54,2.83-14.7,6.74-14.7"/>
      <path class="cls-3" d="m375.95,27.09c3.96,0,6.68,6,6.68,14.72,0,8.65-2.76,14.88-6.63,14.93-3.96.05-6.84-6.29-6.82-15.02.02-8.53,2.84-14.64,6.76-14.64"/>
      <path class="cls-3" d="m398.38,27.09c3.9,0,6.72,6.17,6.73,14.71.01,8.55-2.83,14.91-6.67,14.9-4.01-.01-6.84-6.23-6.82-14.98.02-8.53,2.84-14.65,6.76-14.64"/>
      <path class="cls-3" d="m398.38,76.52c3.9,0,6.72,6.17,6.73,14.71.01,8.55-2.83,14.91-6.67,14.9-4.01-.01-6.84-6.23-6.82-14.98.02-8.53,2.84-14.65,6.76-14.64"/>
      <path class="cls-3" d="m398.38,125.91c3.9,0,6.72,6.17,6.73,14.71.01,8.55-2.83,14.91-6.67,14.9-4.01-.01-6.84-6.23-6.82-14.98.02-8.53,2.84-14.65,6.76-14.64"/>
      <path class="cls-3" d="m398.38,175.41c3.9,0,6.72,6.17,6.73,14.71.01,8.55-2.83,14.91-6.67,14.9-4.01-.01-6.84-6.23-6.82-14.98.02-8.53,2.84-14.65,6.76-14.64"/>
      <path class="cls-3" d="m427.54,42.2c-.05,8.46-2.94,14.57-6.85,14.47-3.97-.1-6.72-6.46-6.63-15.34.08-8.55,3-14.38,7.12-14.25,3.66.12,6.41,6.65,6.36,15.11"/>
      <path class="cls-3" d="m449.93,41.93c0,8.59-2.8,14.8-6.68,14.81-3.86.01-6.74-6.25-6.77-14.72-.02-8.77,2.8-14.95,6.82-14.93,3.92.02,6.63,6.08,6.63,14.84"/>
      <path class="cls-3" d="m465.65,27.09c3.91,0,6.74,6.12,6.75,14.66.02,8.55-2.82,14.95-6.64,14.96-4.01,0-6.86-6.19-6.85-14.92.01-8.54,2.83-14.7,6.74-14.7"/>
      <path class="cls-3" d="m488.11,27.09c3.96,0,6.68,6,6.68,14.72,0,8.65-2.76,14.88-6.63,14.93-3.96.05-6.84-6.29-6.82-15.02.02-8.53,2.84-14.64,6.76-14.64"/>
      <path class="cls-3" d="m510.54,27.09c3.9,0,6.72,6.17,6.73,14.71.01,8.55-2.83,14.91-6.67,14.9-4.01-.01-6.84-6.23-6.82-14.98.02-8.53,2.84-14.65,6.76-14.64"/>
      <path class="cls-3" d="m532.97,27.09c3.9,0,6.72,6.17,6.73,14.71.01,8.55-2.83,14.91-6.67,14.9-4.01-.01-6.84-6.23-6.82-14.98.02-8.53,2.84-14.65,6.76-14.64"/>
      <path class="cls-3" d="m734.86,27.09c3.96,0,6.68,6,6.68,14.72,0,8.65-2.76,14.88-6.63,14.93-3.96.05-6.84-6.29-6.82-15.02.02-8.53,2.84-14.64,6.76-14.64"/>
      <path class="cls-3" d="m712.43,27.09c3.96,0,6.68,6,6.68,14.72,0,8.65-2.76,14.88-6.63,14.93-3.96.05-6.84-6.29-6.82-15.02.02-8.53,2.84-14.64,6.76-14.64"/>
      <path class="cls-3" d="m757.3,27.09c3.9,0,6.72,6.17,6.72,14.72,0,8.56-2.83,14.9-6.67,14.89-4.01-.01-6.84-6.24-6.82-14.99.02-8.53,2.84-14.64,6.77-14.63"/>
      <path class="cls-3" d="m779.72,27.09c3.96,0,6.69,5.99,6.69,14.7,0,8.65-2.76,14.89-6.62,14.95-3.96.06-6.85-6.28-6.83-15,.02-8.53,2.84-14.66,6.76-14.65"/>
      <path class="cls-3" d="m802.13,56.69c-3.99-.06-6.78-6.36-6.73-15.16.05-8.58,2.96-14.54,7.04-14.44,3.71.09,6.47,6.48,6.45,14.92-.02,8.5-2.89,14.74-6.76,14.68"/>
      <path class="cls-3" d="m831.28,41.77c0,8.66-2.75,14.9-6.61,14.97-3.96.07-6.85-6.26-6.84-14.98.02-8.54,2.84-14.67,6.75-14.67s6.7,5.99,6.7,14.68"/>
      <path class="cls-3" d="m853.77,41.77c0,8.66-2.75,14.9-6.61,14.97-3.96.07-6.85-6.26-6.84-14.98.02-8.54,2.84-14.67,6.75-14.67s6.7,5.99,6.7,14.68"/>
      <path class="cls-3" d="m1026.41,27.09c3.93-.01,6.76,6.06,6.79,14.57.03,8.59-2.8,15.03-6.6,15.06-4.02.03-6.89-6.15-6.89-14.84,0-8.57,2.81-14.77,6.7-14.78"/>
      <path class="cls-3" d="m1048.94,27.09c3.94.01,6.65,6.05,6.65,14.79,0,8.62-2.79,14.83-6.66,14.86-3.95.03-6.82-6.34-6.79-15.09.03-8.51,2.87-14.58,6.8-14.57"/>
      <path class="cls-3" d="m1071.29,56.68c-3.98-.07-6.77-6.38-6.71-15.21.06-8.57,2.97-14.49,7.06-14.39,3.7.1,6.46,6.52,6.43,14.97-.03,8.49-2.91,14.7-6.78,14.63"/>
      <path class="cls-3" d="m1100.46,41.72c0,8.68-2.73,14.93-6.59,15.02-3.97.09-6.87-6.22-6.86-14.93,0-8.55,2.83-14.71,6.72-14.72,3.96,0,6.72,5.98,6.72,14.64"/>
      <path class="cls-3" d="m1116.1,27.09c4.03-.03,6.85,6.13,6.84,14.89-.02,8.33-2.85,14.69-6.56,14.74-4.03.05-6.91-6.08-6.93-14.75-.02-8.6,2.78-14.86,6.65-14.88"/>
      <path class="cls-3" d="m1138.71,27.09c3.91.02,6.62,6.12,6.61,14.88,0,8.58-2.82,14.77-6.7,14.77-3.94,0-6.79-6.41-6.75-15.17.05-8.48,2.89-14.5,6.84-14.48"/>
      <path class="cls-3" d="m1161.04,27.09c3.92,0,6.74,6.11,6.76,14.65.02,8.56-2.82,14.97-6.64,14.98-4.02.01-6.86-6.19-6.85-14.91.01-8.55,2.83-14.71,6.73-14.71"/>
      <path class="cls-3" d="m1190.19,42.01c0,8.57-2.83,14.75-6.72,14.73-3.86-.01-6.72-6.29-6.73-14.8-.01-8.75,2.82-14.88,6.85-14.85,3.9.03,6.6,6.16,6.59,14.92"/>
      <path class="cls-3" d="m1206.01,27.09c3.87.02,6.67,6.28,6.65,14.88-.02,8.52-2.88,14.77-6.74,14.72-3.99-.05-6.79-6.34-6.75-15.13.05-8.48,2.89-14.5,6.84-14.48"/>
      <path class="cls-3" d="m1228.51,27.09c3.87.04,6.56,6.23,6.54,15.03-.01,8.52-2.86,14.67-6.77,14.62-3.84-.05-6.68-6.4-6.68-14.92,0-8.71,2.86-14.78,6.91-14.73"/>
      <path class="cls-3" d="m1250.63,56.67c-3.88-.12-6.63-6.39-6.6-15.03.04-8.76,2.98-14.71,7.18-14.55,3.64.15,6.38,6.74,6.31,15.22-.07,8.45-2.96,14.48-6.89,14.36"/>
      <path class="cls-3" d="m111.26,66.4c.01-8.62,2.78-14.59,6.75-14.58,3.86.01,6.69,6.24,6.73,14.79.03,8.46-2.99,14.97-6.91,14.87-3.84-.1-6.58-6.38-6.57-15.08"/>
      <path class="cls-3" d="m111.26,18.3c.01-8.62,2.78-14.59,6.75-14.58,3.86.01,6.69,6.24,6.73,14.79.03,8.47-2.99,14.97-6.91,14.87-3.84-.1-6.58-6.38-6.57-15.08"/>
      <path class="cls-3" d="m147.1,66.66c0,8.59-2.8,14.8-6.68,14.81-3.97.02-6.74-6.23-6.72-15.13.02-8.58,2.8-14.54,6.77-14.52,3.92.02,6.63,6.09,6.63,14.84"/>
      <path class="cls-3" d="m147.1,18.56c0,8.59-2.8,14.8-6.68,14.82-3.97.02-6.74-6.23-6.72-15.13.02-8.57,2.8-14.54,6.77-14.52,3.92.02,6.63,6.09,6.63,14.84"/>
      <path class="cls-3" d="m156.13,66.7c0-8.77,2.7-14.86,6.61-14.88,3.98-.03,6.86,6.22,6.87,14.89,0,8.28-2.97,14.76-6.78,14.76s-6.7-6.19-6.7-14.77"/>
      <path class="cls-3" d="m191.96,66.44c0,8.86-2.79,15.09-6.77,15.03-3.87-.05-6.64-6.28-6.64-14.92,0-8.73,2.72-14.73,6.68-14.74,3.97,0,6.72,5.97,6.73,14.62"/>
      <path class="cls-3" d="m101.62,66.44c0,8.86-2.79,15.09-6.77,15.03-3.87-.05-6.64-6.28-6.64-14.92,0-8.73,2.72-14.73,6.68-14.74,3.97,0,6.72,5.97,6.73,14.62"/>
      <path class="cls-3" d="m200.99,66.68c0-8.76,2.7-14.84,6.62-14.86,3.98-.02,6.86,6.24,6.86,14.91,0,8.28-2.98,14.75-6.79,14.74-3.88,0-6.69-6.21-6.7-14.79"/>
      <path class="cls-3" d="m236.83,66.76c0,8.55-2.84,14.73-6.73,14.71-3.95-.02-6.7-6.3-6.68-15.24.02-8.52,2.83-14.45,6.82-14.41,3.88.03,6.59,6.18,6.58,14.94"/>
      <path class="cls-3" d="m245.85,66.42c.01-8.64,2.77-14.62,6.74-14.6,3.91,0,6.82,6.52,6.76,15.16-.06,8.22-3.09,14.58-6.92,14.49-3.85-.09-6.59-6.35-6.58-15.05"/>
      <path class="cls-3" d="m281.69,66.42c.01,8.87-2.79,15.1-6.76,15.05-3.87-.05-6.65-6.27-6.64-14.9,0-8.73,2.72-14.74,6.67-14.75,3.97-.01,6.72,5.96,6.74,14.6"/>
      <path class="cls-3" d="m297.38,51.82c3.96-.01,6.85,6.33,6.83,14.99-.02,8.26-3.01,14.69-6.83,14.66-3.88-.03-6.66-6.25-6.66-14.87s2.72-14.77,6.66-14.78"/>
      <path class="cls-3" d="m319.96,81.47c-3.83.08-6.76-5.99-6.81-14.11-.06-9.15,2.59-15.48,6.5-15.54,4.01-.06,6.87,5.84,6.91,14.23.04,8.99-2.68,15.34-6.59,15.43"/>
      <path class="cls-3" d="m297.38,102.19c3.96-.01,6.85,6.33,6.83,14.99-.02,8.26-3.01,14.69-6.83,14.66-3.88-.03-6.66-6.25-6.66-14.87s2.72-14.77,6.66-14.78"/>
      <path class="cls-3" d="m319.96,131.84c-3.83.08-6.76-5.99-6.81-14.11-.06-9.15,2.59-15.48,6.5-15.54,4.01-.06,6.87,5.84,6.91,14.23.04,8.99-2.68,15.34-6.59,15.42"/>
      <path class="cls-3" d="m319.96,278.5c-3.83.08-6.76-5.99-6.81-14.11-.06-9.15,2.59-15.48,6.5-15.54,4.01-.06,6.87,5.84,6.91,14.23.04,8.99-2.68,15.34-6.59,15.43"/>
      <path class="cls-3" d="m335.58,66.42c.01-8.65,2.76-14.62,6.74-14.6,3.91,0,6.82,6.52,6.76,15.16-.06,8.22-3.09,14.58-6.92,14.49-3.85-.09-6.59-6.35-6.58-15.05"/>
      <path class="cls-3" d="m364.7,51.82c3.96,0,6.71,5.98,6.72,14.65,0,8.85-2.8,15.06-6.78,15-3.87-.06-6.63-6.29-6.62-14.94,0-8.71,2.73-14.7,6.69-14.71"/>
      <path class="cls-3" d="m380.45,66.51c0-8.7,2.74-14.69,6.7-14.69s6.84,6.46,6.79,15.08c-.04,8.23-3.06,14.63-6.88,14.57-3.86-.06-6.62-6.3-6.62-14.97"/>
      <path class="cls-3" d="m544.26,51.82c3.91.02,6.62,6.12,6.61,14.88,0,8.58-2.82,14.77-6.7,14.77-3.96,0-6.72-6.26-6.71-15.17.02-8.56,2.81-14.5,6.79-14.48"/>
      <path class="cls-3" d="m730.33,66.77c0,8.55-2.84,14.72-6.73,14.7-3.94-.02-6.7-6.31-6.67-15.25.02-8.51,2.83-14.44,6.83-14.41,3.88.03,6.59,6.18,6.58,14.95"/>
      <path class="cls-3" d="m707.95,66.77c0,8.55-2.84,14.72-6.73,14.7-3.94-.02-6.7-6.31-6.67-15.25.02-8.51,2.83-14.44,6.83-14.41,3.88.03,6.59,6.18,6.58,14.95"/>
      <path class="cls-3" d="m739.36,66.5c0-8.7,2.74-14.68,6.7-14.68s6.83,6.46,6.79,15.09c-.04,8.23-3.06,14.63-6.88,14.56-3.86-.06-6.62-6.3-6.61-14.97"/>
      <path class="cls-3" d="m768.55,51.82c3.93.01,6.65,6.06,6.65,14.79,0,8.61-2.79,14.83-6.66,14.86-3.97.03-6.76-6.2-6.74-15.09.01-8.61,2.78-14.58,6.76-14.56"/>
      <path class="cls-3" d="m784.22,66.62c0-8.74,2.71-14.78,6.65-14.8,3.96-.02,6.85,6.31,6.84,14.97-.01,8.27-3.01,14.71-6.82,14.68-3.88-.03-6.67-6.24-6.67-14.86"/>
      <path class="cls-3" d="m820.06,66.79c-.01,8.54-2.84,14.71-6.74,14.68-3.94-.03-6.69-6.33-6.66-15.27.02-8.5,2.84-14.43,6.84-14.39,3.88.04,6.58,6.19,6.57,14.97"/>
      <path class="cls-3" d="m835.86,51.82c3.85.02,6.69,6.28,6.71,14.82.02,8.3-2.93,14.8-6.75,14.83-3.97.02-6.75-6.21-6.74-15.12.01-8.59,2.79-14.56,6.77-14.54"/>
      <path class="cls-3" d="m858.45,52.92c3.85.02,6.69,6.28,6.71,14.82.02,8.3-2.93,14.8-6.75,14.83-3.97.03-6.75-6.21-6.74-15.11.01-8.59,2.79-14.56,6.77-14.54"/>
      <path class="cls-3" d="m1037.79,51.82c3.89.03,6.6,6.16,6.59,14.92,0,8.56-2.83,14.75-6.72,14.73-3.95-.02-6.71-6.29-6.69-15.22.02-8.53,2.82-14.47,6.81-14.44"/>
      <path class="cls-3" d="m1060.09,51.82c3.94,0,6.84,6.4,6.81,15.05-.03,8.24-3.04,14.65-6.86,14.6-3.87-.05-6.64-6.28-6.63-14.93,0-8.72,2.73-14.72,6.69-14.72"/>
      <path class="cls-3" d="m1082.65,81.47c-3.83.08-6.76-5.99-6.81-14.11-.06-9.15,2.59-15.48,6.5-15.54,4.01-.06,6.87,5.84,6.91,14.23.04,8.99-2.68,15.34-6.59,15.43"/>
      <path class="cls-3" d="m1105.08,51.82c3.84.03,6.67,6.37,6.67,14.92,0,8.28-2.98,14.74-6.79,14.74-3.95-.01-6.71-6.28-6.69-15.21.02-8.54,2.82-14.47,6.81-14.44"/>
      <path class="cls-3" d="m1134.11,66.66c0,8.59-2.8,14.8-6.68,14.82-3.97.02-6.74-6.23-6.72-15.13.02-8.58,2.8-14.54,6.77-14.52,3.92.02,6.63,6.09,6.63,14.84"/>
      <path class="cls-3" d="m1143.13,66.44c0-8.65,2.76-14.63,6.73-14.62,3.91,0,6.82,6.52,6.77,15.15-.05,8.22-3.09,14.59-6.91,14.5-3.86-.09-6.6-6.34-6.59-15.03"/>
      <path class="cls-3" d="m1165.57,66.57c0-8.73,2.72-14.75,6.67-14.75,4.05-.01,6.75,6.01,6.74,15.02-.01,8.52-2.86,14.68-6.76,14.64-3.87-.04-6.65-6.27-6.64-14.9"/>
      <path class="cls-3" d="m1194.86,51.82c3.8.04,6.66,6.52,6.63,15.03-.03,8.25-3.03,14.67-6.85,14.62-3.93-.05-6.67-6.36-6.64-15.33.03-8.47,2.86-14.38,6.86-14.33"/>
      <path class="cls-3" d="m1223.84,66.4c.01,8.88-2.78,15.11-6.75,15.07-3.87-.04-6.65-6.26-6.65-14.88s2.72-14.76,6.66-14.77c3.98-.01,6.73,5.95,6.75,14.58"/>
      <path class="cls-3" d="m1232.86,66.56c0-8.73,2.72-14.73,6.68-14.75,3.95,0,6.84,6.38,6.82,15.03-.02,8.25-3.03,14.67-6.85,14.62-3.87-.04-6.64-6.27-6.64-14.91"/>
      <path class="cls-3" d="m1262.01,51.82c3.96,0,6.68,6,6.69,14.71,0,8.65-2.76,14.89-6.62,14.94-3.98.06-6.79-6.16-6.78-15.01,0-8.66,2.76-14.65,6.72-14.65"/>
      <path class="cls-3" d="m113.45,91.54c-.01,8.62-2.78,14.59-6.75,14.58-3.89-.01-6.7-6.21-6.7-14.78s2.84-14.82,6.88-14.78c3.88.04,6.58,6.19,6.56,14.99"/>
      <path class="cls-3" d="m113.45,43.44c-.01,8.62-2.78,14.59-6.75,14.58-3.89-.01-6.7-6.21-6.7-14.78s2.84-14.82,6.88-14.78c3.88.04,6.58,6.19,6.56,14.99"/>
      <path class="cls-3" d="m129.14,106.11c-3.89-.01-6.7-6.21-6.7-14.78,0-8.73,2.84-14.82,6.88-14.78,3.86.03,6.64,6.34,6.61,14.98-.03,8.52-2.86,14.59-6.79,14.58"/>
      <path class="cls-3" d="m151.6,76.55c3.96,0,6.71,5.99,6.72,14.64,0,8.97-2.71,14.94-6.78,14.92-3.88-.02-6.68-6.26-6.67-14.85.01-8.55,2.83-14.71,6.73-14.71"/>
      <path class="cls-3" d="m174.02,106.11c-3.89,0-6.71-6.19-6.72-14.74,0-8.74,2.83-14.86,6.87-14.82,3.86.03,6.65,6.32,6.62,14.94-.02,8.53-2.85,14.62-6.77,14.61"/>
      <path class="cls-3" d="m196.51,76.55c3.95.01,6.67,6.01,6.67,14.75,0,8.91-2.74,14.85-6.83,14.81-3.86-.03-6.65-6.32-6.62-14.95.03-8.53,2.85-14.62,6.77-14.61"/>
      <path class="cls-3" d="m219,106.11c-4.03.02-6.85-6.13-6.83-14.9.02-8.54,2.84-14.67,6.75-14.66,3.91,0,6.72,6.14,6.74,14.69.01,8.6-2.78,14.85-6.66,14.87"/>
      <path class="cls-3" d="m241.35,76.55c3.96,0,6.69,5.99,6.69,14.7,0,8.94-2.72,14.89-6.81,14.86-3.87-.03-6.66-6.3-6.64-14.9.02-8.54,2.84-14.66,6.75-14.66"/>
      <path class="cls-3" d="m263.72,106.11c-3.89-.02-6.7-6.22-6.7-14.79,0-8.72,2.84-14.81,6.89-14.77,3.85.04,6.63,6.36,6.6,14.99-.03,8.51-2.86,14.58-6.79,14.57"/>
      <path class="cls-3" d="m286.29,76.55c3.91.02,6.62,6.12,6.61,14.88,0,8.82-2.78,14.74-6.89,14.68-3.84-.05-6.61-6.41-6.56-15.08.05-8.48,2.89-14.5,6.83-14.48"/>
      <path class="cls-3" d="m308.69,106.11c-3.93.01-6.77-6.06-6.8-14.56-.03-8.79,2.78-15.01,6.79-15,3.89.01,6.7,6.2,6.7,14.77,0,8.57-2.81,14.78-6.69,14.79"/>
      <path class="cls-3" d="m337.77,91.13c.01,8.79-2.68,14.94-6.57,14.98-4.04.04-6.88-6.06-6.88-14.79,0-8.56,2.81-14.76,6.7-14.78,3.97-.01,6.74,5.96,6.75,14.58"/>
      <path class="cls-3" d="m337.77,141.33c.01,8.79-2.68,14.94-6.57,14.98-4.04.04-6.88-6.06-6.88-14.79,0-8.56,2.81-14.76,6.7-14.77,3.97-.01,6.74,5.95,6.75,14.58"/>
      <path class="cls-3" d="m337.77,239.62c.01,8.79-2.68,14.94-6.57,14.98-4.04.04-6.88-6.06-6.88-14.79,0-8.56,2.81-14.76,6.7-14.78,3.97-.01,6.74,5.96,6.75,14.58"/>
      <path class="cls-3" d="m353.56,76.55c3.89.02,6.69,6.23,6.69,14.81,0,8.72-2.85,14.8-6.9,14.75-3.85-.04-6.63-6.37-6.59-15.01.04-8.5,2.87-14.56,6.8-14.55"/>
      <path class="cls-3" d="m382.64,91.38c0,8.73-2.72,14.73-6.68,14.73-3.92,0-6.75-6.09-6.77-14.62-.02-8.78,2.79-14.96,6.81-14.94,3.93.02,6.64,6.08,6.64,14.82"/>
      <path class="cls-3" d="m712.45,106.11c-3.93,0-6.75-6.08-6.78-14.61-.03-8.78,2.79-14.97,6.81-14.95,3.89.01,6.69,6.23,6.68,14.81,0,8.55-2.82,14.74-6.71,14.75"/>
      <path class="cls-3" d="m734.8,106.11c-3.89-.01-6.7-6.21-6.7-14.77,0-8.73,2.84-14.83,6.88-14.79,3.88.03,6.58,6.19,6.57,14.97-.01,8.63-2.77,14.6-6.74,14.59"/>
      <path class="cls-3" d="m757.37,106.11c-4.03.02-6.85-6.13-6.83-14.89.02-8.54,2.84-14.67,6.75-14.67,3.91,0,6.73,6.14,6.74,14.68.01,8.6-2.78,14.85-6.66,14.88"/>
      <path class="cls-3" d="m786.41,91.31c0,8.74-2.72,14.78-6.65,14.8-4.01.01-6.83-6.19-6.8-14.97.03-8.52,2.86-14.6,6.78-14.59,3.95.01,6.66,6.03,6.67,14.76"/>
      <path class="cls-3" d="m802.17,76.55c3.89.01,6.71,6.19,6.72,14.75,0,8.74-2.83,14.85-6.87,14.81-3.86-.03-6.65-6.32-6.62-14.95.02-8.53,2.85-14.62,6.77-14.61"/>
      <path class="cls-3" d="m831.28,91.42c0,8.7-2.73,14.69-6.7,14.7-3.91,0-6.73-6.12-6.75-14.66-.02-8.77,2.8-14.93,6.83-14.9,3.92.02,6.62,6.1,6.62,14.87"/>
      <path class="cls-3" d="m847.03,106.11c-3.92,0-6.74-6.1-6.77-14.63-.02-8.77,2.8-14.95,6.82-14.93,3.88.02,6.68,6.25,6.67,14.83,0,8.55-2.83,14.72-6.72,14.72"/>
      <path class="cls-3" d="m1048.85,76.55c3.97-.01,6.73,5.96,6.74,14.59.01,8.99-2.69,14.99-6.76,14.97-3.89-.01-6.69-6.22-6.69-14.79,0-8.56,2.81-14.76,6.7-14.77"/>
      <path class="cls-3" d="m1026.44,76.55c3.97-.01,6.73,5.96,6.74,14.59.01,8.99-2.69,14.99-6.76,14.97-3.89-.01-6.69-6.22-6.69-14.79,0-8.56,2.81-14.76,6.7-14.77"/>
      <path class="cls-3" d="m1071.27,106.11c-3.89-.02-6.69-6.23-6.69-14.81,0-8.71,2.85-14.8,6.9-14.75,3.85.04,6.63,6.37,6.59,15.01-.03,8.5-2.87,14.56-6.8,14.55"/>
      <path class="cls-3" d="m1100.46,91.25c0,8.76-2.7,14.84-6.62,14.86-4.03.02-6.85-6.14-6.83-14.91.02-8.54,2.84-14.66,6.75-14.66,3.96,0,6.69,5.99,6.69,14.7"/>
      <path class="cls-3" d="m1116.19,106.11c-3.91,0-6.73-6.14-6.75-14.67-.02-8.76,2.81-14.91,6.84-14.89,3.87.02,6.67,6.28,6.65,14.88-.02,8.54-2.84,14.68-6.74,14.68"/>
      <path class="cls-3" d="m1145.32,91.35c0,8.73-2.72,14.75-6.67,14.76-4,.01-6.82-6.21-6.78-15.01.03-8.5,2.87-14.57,6.8-14.55,3.93.01,6.65,6.06,6.65,14.8"/>
      <path class="cls-3" d="m1161.01,76.55c3.93-.01,6.76,6.07,6.79,14.59.03,8.78-2.79,14.99-6.8,14.97-3.89-.01-6.69-6.22-6.69-14.79,0-8.56,2.81-14.76,6.71-14.77"/>
      <path class="cls-3" d="m1190.19,91.37c0,8.73-2.72,14.73-6.67,14.75-3.92,0-6.75-6.08-6.77-14.61-.03-8.78,2.79-14.97,6.81-14.95,3.93.02,6.64,6.08,6.64,14.82"/>
      <path class="cls-3" d="m1205.87,76.55c3.93-.01,6.76,6.07,6.79,14.58.03,8.78-2.79,14.99-6.8,14.98-3.89-.01-6.7-6.22-6.69-14.79,0-8.56,2.81-14.76,6.7-14.77"/>
      <path class="cls-3" d="m1235.05,91.17c0,8.76-2.7,14.9-6.59,14.94-4.04.03-6.87-6.08-6.86-14.83,0-8.55,2.82-14.72,6.72-14.73,3.97,0,6.72,5.97,6.73,14.62"/>
      <path class="cls-3" d="m1250.77,106.11c-3.9,0-6.72-6.16-6.73-14.71-.01-8.75,2.82-14.88,6.85-14.85,3.87.03,6.66,6.3,6.64,14.91-.02,8.53-2.84,14.65-6.76,14.65"/>
      <path class="cls-3" d="m117.9,130.84c-3.93-.02-6.64-6.08-6.64-14.81,0-8.86,2.76-14.79,6.86-14.75,3.85.04,6.63,6.37,6.59,15.02-.04,8.5-2.87,14.56-6.81,14.54"/>
      <path class="cls-3" d="m94.54,130.84c-3.93-.02-6.64-6.08-6.64-14.81,0-8.86,2.76-14.79,6.86-14.75,3.85.04,6.63,6.37,6.59,15.02-.04,8.5-2.87,14.56-6.81,14.54"/>
      <path class="cls-3" d="m147.1,116.21c0,8.65-2.76,14.64-6.72,14.63-4.02,0-6.7-6.1-6.68-15.14.02-8.53,2.82-14.46,6.82-14.43,3.89.03,6.6,6.17,6.59,14.93"/>
      <path class="cls-3" d="m162.8,130.84c-3.95,0-6.67-6.02-6.67-14.75,0-8.91,2.74-14.85,6.83-14.81,3.86.03,6.65,6.33,6.62,14.95-.03,8.52-2.85,14.61-6.78,14.61"/>
      <path class="cls-3" d="m162.8,182.38c-3.95,0-6.67-6.02-6.67-14.75,0-8.91,2.74-14.85,6.83-14.81,3.86.03,6.65,6.33,6.62,14.95-.03,8.52-2.85,14.61-6.78,14.61"/>
      <path class="cls-3" d="m185.15,130.84c-3.89-.03-6.6-6.16-6.59-14.92,0-8.79,2.8-14.7,6.91-14.64,3.84.06,6.52,6.3,6.5,15.12-.02,8.53-2.82,14.47-6.81,14.44"/>
      <path class="cls-3" d="m207.62,130.84c-3.92-.02-6.63-6.09-6.62-14.85,0-8.84,2.77-14.76,6.87-14.71,3.84.05,6.61,6.4,6.57,15.05-.04,8.49-2.88,14.53-6.82,14.5"/>
      <path class="cls-3" d="m230.05,130.84c-3.92-.02-6.63-6.09-6.62-14.85,0-8.84,2.77-14.76,6.87-14.71,3.86.05,6.55,6.25,6.53,15.05-.02,8.56-2.8,14.53-6.78,14.51"/>
      <path class="cls-3" d="m252.54,101.28c3.92,0,6.74,6.1,6.77,14.63.02,8.77-2.8,14.95-6.82,14.93-3.92-.02-6.63-6.08-6.63-14.83,0-8.72,2.72-14.72,6.68-14.72"/>
      <path class="cls-3" d="m281.69,115.9c0,8.76-2.7,14.91-6.58,14.94-4.09.03-6.82-5.91-6.82-14.83,0-8.73,2.72-14.72,6.68-14.73,3.97,0,6.72,5.97,6.73,14.62"/>
      <path class="cls-3" d="m342.37,130.84c-3.98.02-6.77-5.93-6.79-14.48-.02-9.03,2.68-15.08,6.71-15.08,3.91,0,6.72,6.15,6.74,14.69.01,8.6-2.78,14.84-6.66,14.87"/>
      <path class="cls-3" d="m371.42,115.97c0,8.76-2.7,14.85-6.61,14.87-4.08.02-6.8-5.94-6.79-14.89,0-8.68,2.75-14.67,6.71-14.67,3.96,0,6.69,5.99,6.7,14.69"/>
      <path class="cls-3" d="m371.42,165.34c0,8.76-2.7,14.85-6.61,14.87-4.08.02-6.8-5.94-6.79-14.89,0-8.68,2.75-14.67,6.71-14.67,3.96,0,6.69,5.99,6.7,14.69"/>
      <path class="cls-3" d="m387.18,130.84c-3.97.01-6.73-5.96-6.74-14.6-.01-8.98,2.7-14.97,6.76-14.95,3.88.02,6.69,6.23,6.68,14.81,0,8.55-2.82,14.74-6.71,14.75"/>
      <path class="cls-3" d="m387.18,180.21c-3.97.01-6.73-5.96-6.74-14.6-.01-8.98,2.7-14.97,6.76-14.95,3.88.02,6.69,6.23,6.68,14.81,0,8.55-2.82,14.74-6.71,14.75"/>
      <path class="cls-3" d="m730.33,115.98c0,8.76-2.7,14.84-6.62,14.86-4.08.02-6.79-5.94-6.79-14.9,0-8.67,2.75-14.66,6.71-14.66,3.96,0,6.69,5.99,6.69,14.7"/>
      <path class="cls-3" d="m707.95,115.98c0,8.76-2.7,14.84-6.62,14.86-4.08.02-6.79-5.94-6.79-14.9,0-8.67,2.75-14.66,6.71-14.66,3.96,0,6.69,5.99,6.69,14.7"/>
      <path class="cls-3" d="m739.36,115.53c.03-8.41,2.89-14.3,6.9-14.24,3.84.06,6.6,6.43,6.55,15.11-.05,8.58-2.95,14.55-7.03,14.45-3.79-.09-6.45-6.45-6.41-15.32"/>
      <path class="cls-3" d="m768.55,101.28c3.93.02,6.64,6.08,6.64,14.81,0,8.86-2.76,14.8-6.86,14.75-3.87-.04-6.56-6.21-6.55-15.02.01-8.59,2.79-14.56,6.76-14.54"/>
      <path class="cls-3" d="m790.99,101.28c3.88.02,6.69,6.23,6.68,14.81,0,8.71-2.85,14.79-6.9,14.75-3.87-.04-6.56-6.21-6.55-15.02.01-8.59,2.79-14.56,6.77-14.54"/>
      <path class="cls-3" d="m820.06,116.12c0,8.72-2.72,14.72-6.68,14.72-4.04,0-6.74-6.03-6.72-15.04.02-8.57,2.8-14.54,6.78-14.52,3.92.02,6.63,6.09,6.63,14.84"/>
      <path class="cls-3" d="m835.75,130.84c-3.94-.01-6.66-6.04-6.66-14.77,0-8.89,2.75-14.83,6.84-14.79,3.86.04,6.64,6.34,6.61,14.98-.03,8.51-2.86,14.59-6.79,14.58"/>
      <path class="cls-3" d="m1044.38,116.12c0,8.72-2.72,14.72-6.68,14.72-4.04,0-6.74-6.03-6.72-15.04.02-8.57,2.8-14.54,6.78-14.52,3.92.02,6.63,6.09,6.63,14.84"/>
      <path class="cls-3" d="m1021.99,116.12c0,8.72-2.72,14.72-6.68,14.72-4.04,0-6.74-6.03-6.72-15.04.02-8.57,2.8-14.54,6.77-14.52,3.92.02,6.63,6.09,6.63,14.84"/>
      <path class="cls-3" d="m1060.07,101.28c3.93-.01,6.75,6.07,6.78,14.59.03,8.78-2.79,14.98-6.8,14.97-3.93-.01-6.65-6.06-6.65-14.8,0-8.73,2.72-14.75,6.67-14.76"/>
      <path class="cls-3" d="m1082.59,130.84c-3.97.01-6.74-5.95-6.75-14.57-.01-9,2.69-15,6.75-14.99,3.94.01,6.66,6.04,6.66,14.78s-2.72,14.77-6.65,14.78"/>
      <path class="cls-3" d="m1104.89,130.84c-3.92-.02-6.62-6.1-6.62-14.87,0-8.83,2.78-14.75,6.88-14.69,3.84.05,6.61,6.4,6.57,15.07-.04,8.49-2.88,14.52-6.83,14.49"/>
      <path class="cls-3" d="m1134.11,116.31c-.01,8.59-2.79,14.56-6.77,14.54-3.98-.02-6.67-6.17-6.64-15.23.03-8.47,2.86-14.38,6.86-14.33,3.87.04,6.56,6.22,6.55,15.02"/>
      <path class="cls-3" d="m1149.91,130.84c-3.98.02-6.76-5.95-6.78-14.51-.02-9.02,2.68-15.05,6.72-15.05,3.9,0,6.72,6.17,6.72,14.72,0,8.59-2.79,14.82-6.67,14.84"/>
      <path class="cls-3" d="m1172.19,130.84c-3.92-.02-6.63-6.1-6.62-14.85,0-8.84,2.77-14.76,6.88-14.71,3.86.05,6.55,6.25,6.53,15.06-.02,8.56-2.8,14.53-6.78,14.5"/>
      <path class="cls-3" d="m1194.69,101.28c3.92,0,6.74,6.11,6.76,14.65.02,8.77-2.8,14.94-6.82,14.91-3.92-.02-6.63-6.1-6.62-14.85,0-8.71,2.73-14.7,6.69-14.71"/>
      <path class="cls-3" d="m1217.13,130.84c-3.96,0-6.69-5.99-6.7-14.69,0-8.95,2.72-14.9,6.8-14.87,3.91.03,6.61,6.13,6.6,14.89,0,8.68-2.75,14.67-6.71,14.67"/>
      <path class="cls-3" d="m1239.48,130.84c-3.92-.02-6.62-6.1-6.62-14.87,0-8.83,2.78-14.75,6.88-14.69,3.84.05,6.61,6.41,6.57,15.07-.04,8.48-2.89,14.52-6.83,14.49"/>
      <path class="cls-3" d="m1261.96,130.51c-3.92-.02-6.62-6.1-6.62-14.87,0-8.83,2.78-14.75,6.88-14.69,3.84.05,6.61,6.41,6.57,15.07-.04,8.48-2.89,14.52-6.83,14.49"/>
      <path class="cls-3" d="m158.32,140.82c0,8.61-2.79,14.82-6.67,14.85-3.95.03-6.82-6.35-6.78-15.1.03-8.5,2.87-14.57,6.8-14.56,3.93.01,6.65,6.06,6.65,14.8"/>
      <path class="cls-3" d="m174.03,155.62c-3.99-.06-6.79-6.36-6.73-15.16.05-8.45,2.91-14.47,6.85-14.44,3.87.03,6.66,6.3,6.64,14.91-.02,8.5-2.89,14.75-6.76,14.69"/>
      <path class="cls-3" d="m203.18,140.6c.01,8.88-2.78,15.11-6.75,15.07-3.85-.03-6.7-6.35-6.7-14.88,0-8.57,2.81-14.76,6.7-14.78,3.98-.01,6.74,5.95,6.75,14.58"/>
      <path class="cls-3" d="m218.88,126.02c3.92,0,6.75,6.09,6.77,14.62.02,8.58-2.81,14.99-6.62,15.01-4.02.02-6.87-6.17-6.87-14.89,0-8.55,2.82-14.73,6.72-14.74"/>
      <path class="cls-3" d="m241.41,126.02c3.93.02,6.64,6.08,6.64,14.83,0,8.6-2.8,14.81-6.68,14.82-3.95.02-6.81-6.37-6.77-15.12.04-8.5,2.87-14.55,6.81-14.53"/>
      <path class="cls-3" d="m263.65,155.6c-3.88-.11-6.65-6.37-6.62-14.98.03-8.79,2.95-14.76,7.15-14.6,3.65.13,6.4,6.7,6.34,15.16-.06,8.46-2.95,14.53-6.87,14.42"/>
      <path class="cls-3" d="m360.25,140.55c.04,8.58-2.79,15.06-6.59,15.09-4.02.04-6.9-6.13-6.9-14.81,0-8.43,2.76-14.75,6.49-14.82,4.08-.08,6.96,5.91,7,14.54"/>
      <path class="cls-3" d="m360.25,189.94c.04,8.58-2.79,15.06-6.59,15.09-4.02.04-6.9-6.13-6.9-14.81,0-8.43,2.76-14.75,6.49-14.82,4.08-.08,6.96,5.91,7,14.54"/>
      <path class="cls-3" d="m375.98,126.02c3.94.01,6.66,6.05,6.66,14.78s-2.78,14.83-6.66,14.87c-3.95.04-6.82-6.34-6.79-15.08.03-8.51,2.86-14.59,6.79-14.57"/>
      <path class="cls-3" d="m488.07,155.62c-3.99-.06-6.78-6.36-6.73-15.17.05-8.58,2.96-14.53,7.05-14.43,3.7.09,6.47,6.49,6.44,14.93-.02,8.5-2.9,14.73-6.76,14.67"/>
      <path class="cls-3" d="m689.9,126.02c3.98-.02,6.76,5.94,6.78,14.51.02,8.91-2.76,15.16-6.72,15.14-3.86-.01-6.72-6.3-6.73-14.81-.01-8.59,2.79-14.82,6.67-14.84"/>
      <path class="cls-3" d="m667.49,126.02c3.98-.02,6.76,5.94,6.78,14.51.02,8.91-2.76,15.15-6.72,15.14-3.86-.01-6.72-6.3-6.73-14.81-.01-8.59,2.79-14.82,6.67-14.84"/>
      <path class="cls-3" d="m712.26,155.59c-3.88-.12-6.63-6.4-6.59-15.04.04-8.75,2.98-14.71,7.18-14.54,3.64.15,6.37,6.75,6.31,15.23-.07,8.44-2.96,14.47-6.9,14.35"/>
      <path class="cls-3" d="m734.88,126.02c3.95.01,6.67,6.02,6.67,14.75,0,8.63-2.77,14.86-6.64,14.9-3.96.05-6.83-6.31-6.8-15.04.02-8.53,2.85-14.61,6.78-14.61"/>
      <path class="cls-3" d="m757.31,126.02c3.89,0,6.71,6.19,6.71,14.75,0,8.56-2.83,14.89-6.68,14.87-4.01-.02-6.84-6.25-6.81-15,.03-8.53,2.85-14.62,6.78-14.61"/>
      <path class="cls-3" d="m779.66,126.02c3.97-.01,6.74,5.95,6.75,14.57.01,8.88-2.78,15.12-6.75,15.08-3.86-.03-6.7-6.34-6.7-14.87,0-8.57,2.81-14.77,6.7-14.78"/>
      <path class="cls-3" d="m795.4,140.67c.02-8.67,2.88-14.71,6.94-14.66,3.84.06,6.6,6.43,6.55,15.11-.05,8.3-2.9,14.51-6.66,14.5-4.01,0-6.85-6.22-6.83-14.96"/>
      <path class="cls-3" d="m824.55,126.02c3.97,0,6.72,5.97,6.73,14.62,0,8.87-2.79,15.09-6.77,15.03-3.84-.05-6.68-6.39-6.68-14.91,0-8.55,2.82-14.73,6.72-14.74"/>
      <path class="cls-3" d="m847.04,126.02c3.97,0,6.72,5.97,6.73,14.62,0,8.87-2.79,15.09-6.77,15.03-3.84-.05-6.68-6.39-6.68-14.91,0-8.55,2.82-14.73,6.72-14.74"/>
      <path class="cls-3" d="m891.75,155.6c-3.88-.1-6.65-6.36-6.62-14.97.02-8.8,2.94-14.77,7.15-14.62,3.66.13,6.4,6.68,6.34,15.15-.05,8.46-2.95,14.54-6.86,14.44"/>
      <path class="cls-3" d="m921,140.82c0,8.61-2.79,14.82-6.67,14.84-3.87.03-6.75-6.23-6.78-14.69-.03-8.78,2.79-14.98,6.8-14.96,3.93.02,6.65,6.07,6.65,14.81"/>
      <path class="cls-3" d="m921.01,91.12c0,8.61-2.79,14.82-6.67,14.84-3.87.03-6.75-6.23-6.78-14.69-.03-8.78,2.79-14.98,6.8-14.96,3.93.02,6.65,6.07,6.65,14.81"/>
      <path class="cls-3" d="m988.34,141.12c-.05,8.47-2.94,14.58-6.84,14.48-3.97-.1-6.72-6.45-6.64-15.33.08-8.55,3-14.39,7.12-14.25,3.66.12,6.41,6.65,6.36,15.1"/>
      <path class="cls-3" d="m1004.08,126.02c3.93.02,6.65,6.06,6.65,14.8,0,8.61-2.79,14.82-6.67,14.85-3.95.03-6.82-6.35-6.78-15.1.03-8.5,2.87-14.57,6.8-14.56"/>
      <path class="cls-3" d="m1026.42,155.61c-3.98-.07-6.77-6.38-6.71-15.21.06-8.57,2.97-14.49,7.06-14.39,3.7.1,6.46,6.52,6.43,14.97-.03,8.49-2.91,14.7-6.78,14.63"/>
      <path class="cls-3" d="m1048.81,126.02c3.98-.02,6.77,5.93,6.79,14.49.02,8.92-2.75,15.17-6.71,15.16-3.87,0-6.72-6.28-6.74-14.78-.01-8.6,2.78-14.85,6.66-14.87"/>
      <path class="cls-3" d="m1071.36,126.02c3.89.01,6.71,6.19,6.71,14.75,0,8.56-2.84,14.88-6.68,14.87-4.01-.02-6.83-6.25-6.81-15.01.03-8.52,2.85-14.61,6.78-14.6"/>
      <path class="cls-3" d="m1100.46,140.95c0,8.56-2.83,14.74-6.73,14.72-3.86-.02-6.71-6.3-6.72-14.82,0-8.75,2.82-14.87,6.86-14.84,3.89.03,6.6,6.17,6.59,14.93"/>
      <path class="cls-3" d="m1116.19,155.62c-3.99-.05-6.79-6.33-6.75-15.13.05-8.47,2.89-14.5,6.84-14.47,3.87.03,6.67,6.28,6.65,14.88-.02,8.52-2.88,14.77-6.74,14.72"/>
      <path class="cls-3" d="m1138.58,126.02c3.97-.01,6.73,5.96,6.74,14.59.01,8.88-2.78,15.11-6.75,15.06-3.85-.04-6.7-6.36-6.69-14.88,0-8.56,2.81-14.76,6.7-14.77"/>
      <path class="cls-3" d="m1161.11,155.63c-4-.02-6.83-6.26-6.8-15.02.03-8.52,2.86-14.61,6.78-14.6,3.89.01,6.71,6.2,6.71,14.76,0,8.56-2.84,14.87-6.69,14.85"/>
      <path class="cls-3" d="m1183.48,126.02c3.96,0,6.7,5.99,6.71,14.67,0,8.84-2.81,15.05-6.79,14.98-3.84-.07-6.67-6.44-6.65-14.97.01-8.54,2.83-14.69,6.74-14.69"/>
      <path class="cls-3" d="m1212.66,141.01c-.03,8.49-2.91,14.68-6.79,14.6-3.98-.08-6.76-6.4-6.69-15.23.06-8.57,2.97-14.47,7.07-14.36,3.69.1,6.45,6.55,6.42,14.99"/>
      <path class="cls-3" d="m1257.48,141.01c-.03,8.49-2.91,14.68-6.79,14.6-3.98-.08-6.76-6.4-6.69-15.23.06-8.57,2.97-14.47,7.07-14.36,3.69.1,6.45,6.55,6.42,14.99"/>
      <path class="cls-3" d="m1228.36,126.02c3.96,0,6.68,6,6.69,14.71,0,8.65-2.76,14.88-6.62,14.94-3.96.06-6.84-6.29-6.82-15.01.02-8.53,2.84-14.65,6.76-14.64"/>
      <path class="cls-3" d="m200.99,165.61c0-8.76,2.7-14.83,6.62-14.86,3.98-.02,6.86,6.24,6.86,14.92,0,8.28-2.98,14.74-6.79,14.74-3.88-.01-6.69-6.21-6.69-14.8"/>
      <path class="cls-3" d="m230.21,150.75c3.91.02,6.62,6.1,6.62,14.87,0,8.58-2.81,14.78-6.7,14.79-3.96,0-6.73-6.25-6.71-15.16.02-8.56,2.81-14.52,6.79-14.49"/>
      <path class="cls-3" d="m245.85,165.49c0-8.73,2.72-14.74,6.68-14.75,3.95,0,6.84,6.37,6.82,15.03-.02,8.25-3.03,14.67-6.85,14.62-3.87-.05-6.64-6.27-6.64-14.91"/>
      <path class="cls-3" d="m268.29,165.33c.01-8.63,2.77-14.6,6.74-14.58,4,.01,6.69,6.14,6.66,15.18-.02,8.47-2.91,14.57-6.84,14.47-3.84-.1-6.58-6.37-6.57-15.07"/>
      <path class="cls-3" d="m279.19,141.28c.01-8.63,2.77-14.6,6.74-14.58,4,.01,6.69,6.14,6.66,15.18-.02,8.47-2.91,14.57-6.84,14.47-3.84-.1-6.58-6.37-6.57-15.07"/>
      <path class="cls-3" d="m342.25,150.75c3.95-.01,6.85,6.35,6.83,15.01-.02,8.25-3.03,14.68-6.84,14.65-3.87-.04-6.65-6.26-6.65-14.89,0-8.74,2.72-14.75,6.67-14.76"/>
      <path class="cls-3" d="m476.91,150.75c3.88.01,6.7,6.18,6.74,14.75.04,8.32-2.9,14.86-6.71,14.9-3.98.05-6.78-6.17-6.77-15.04,0-8.65,2.76-14.62,6.74-14.61"/>
      <path class="cls-3" d="m492.61,165.58c0-8.75,2.71-14.81,6.63-14.83,4.07-.02,6.78,5.97,6.77,14.94,0,8.56-2.83,14.73-6.73,14.71-3.88-.02-6.67-6.23-6.68-14.82"/>
      <path class="cls-3" d="m515.04,165.5c0-8.74,2.72-14.74,6.67-14.75,3.95,0,6.84,6.37,6.82,15.03-.02,8.25-3.03,14.67-6.85,14.63-3.87-.04-6.65-6.27-6.64-14.91"/>
      <path class="cls-3" d="m678.73,150.75c3.97-.01,6.73,5.96,6.74,14.6.01,8.88-2.78,15.1-6.76,15.06-3.87-.04-6.65-6.27-6.65-14.9,0-8.73,2.72-14.75,6.67-14.76"/>
      <path class="cls-3" d="m656.28,150.75c3.97-.01,6.73,5.96,6.74,14.6.01,8.88-2.78,15.1-6.76,15.06-3.87-.04-6.65-6.27-6.65-14.9,0-8.73,2.72-14.75,6.67-14.76"/>
      <path class="cls-3" d="m694.49,165.42c0-8.69,2.74-14.68,6.71-14.68s6.83,6.47,6.79,15.1c-.04,8.23-3.06,14.62-6.89,14.56-3.86-.07-6.62-6.31-6.61-14.98"/>
      <path class="cls-3" d="m716.93,165.34c.01-8.63,2.77-14.6,6.74-14.6,4,.01,6.69,6.13,6.67,15.17-.02,8.47-2.91,14.58-6.83,14.48-3.85-.1-6.58-6.36-6.57-15.06"/>
      <path class="cls-3" d="m739.36,165.53c0-8.74,2.72-14.77,6.66-14.79,3.96-.01,6.85,6.32,6.83,14.99-.02,8.26-3.01,14.7-6.83,14.67-3.88-.03-6.66-6.25-6.66-14.87"/>
      <path class="cls-3" d="m775.2,165.71c-.01,8.54-2.84,14.71-6.74,14.69-3.94-.03-6.69-6.32-6.67-15.26.02-8.5,2.84-14.43,6.83-14.39,3.88.04,6.58,6.19,6.57,14.97"/>
      <path class="cls-3" d="m784.22,165.39c0-8.66,2.76-14.65,6.72-14.64,3.92,0,6.83,6.5,6.78,15.13-.05,8.22-3.08,14.6-6.9,14.52-3.86-.08-6.6-6.33-6.6-15.01"/>
      <path class="cls-3" d="m820.06,165.47c0,8.65-2.76,14.88-6.63,14.93-3.98.05-6.79-6.16-6.78-15.02,0-8.65,2.76-14.64,6.72-14.64,3.96,0,6.68,6,6.68,14.72"/>
      <path class="cls-3" d="m829.09,165.61c0-8.76,2.7-14.84,6.62-14.86,3.98-.02,6.86,6.24,6.86,14.92,0,8.28-2.98,14.74-6.79,14.73-3.88,0-6.69-6.21-6.69-14.79"/>
      <path class="cls-3" d="m880.9,150.75c3.76.07,6.62,6.7,6.55,15.21-.07,8.23-3.1,14.55-6.93,14.44-3.9-.1-6.6-6.5-6.56-15.5.04-8.36,2.92-14.23,6.95-14.15"/>
      <path class="cls-3" d="m909.79,165.53c0,8.62-2.78,14.83-6.66,14.87-3.97.03-6.76-6.2-6.75-15.08.01-8.62,2.78-14.59,6.75-14.57,3.94.01,6.65,6.05,6.65,14.79"/>
      <path class="cls-3" d="m909.79,116.43c0,8.62-2.78,14.83-6.66,14.87-3.97.03-6.76-6.2-6.75-15.08.01-8.62,2.78-14.59,6.75-14.57,3.94.01,6.65,6.05,6.65,14.79"/>
      <path class="cls-3" d="m918.81,165.73c-.01-8.79,2.69-14.94,6.57-14.98,4.01-.04,6.88,6.11,6.91,14.79.03,8.3-2.92,14.82-6.73,14.86-3.9.03-6.74-6.13-6.75-14.67"/>
      <path class="cls-3" d="m918.81,66.8c-.01-8.79,2.69-14.94,6.57-14.98,4.01-.04,6.88,6.11,6.91,14.79.03,8.3-2.92,14.82-6.73,14.86-3.9.03-6.74-6.13-6.75-14.67"/>
      <path class="cls-3" d="m963.68,165.72c-.01-8.78,2.69-14.93,6.57-14.97,4-.04,6.88,6.13,6.91,14.8.03,8.3-2.93,14.82-6.74,14.85-3.9.03-6.73-6.14-6.74-14.68"/>
      <path class="cls-3" d="m963.68,16.82c-.01-8.78,2.69-14.93,6.57-14.97,4-.04,6.88,6.13,6.91,14.8.03,8.3-2.93,14.82-6.74,14.85-3.9.03-6.73-6.14-6.74-14.68"/>
      <path class="cls-3" d="m999.52,165.64c0,8.57-2.82,14.76-6.71,14.76-3.96,0-6.72-6.27-6.7-15.19.02-8.55,2.81-14.49,6.8-14.46,3.91.03,6.61,6.13,6.6,14.9"/>
      <path class="cls-3" d="m999.37,116.54c0,8.57-2.82,14.76-6.71,14.76-3.96,0-6.72-6.27-6.7-15.19.02-8.55,2.81-14.49,6.8-14.46,3.91.03,6.61,6.13,6.6,14.9"/>
      <path class="cls-3" d="m999.55,16.75c0,8.57-2.82,14.76-6.71,14.76-3.96,0-6.72-6.27-6.7-15.2.02-8.55,2.81-14.49,6.8-14.46,3.91.03,6.61,6.13,6.6,14.9"/>
      <path class="cls-3" d="m1008.54,165.36c0-8.65,2.76-14.62,6.74-14.61,3.91.01,6.82,6.52,6.76,15.16-.05,8.22-3.09,14.58-6.92,14.49-3.85-.09-6.59-6.35-6.58-15.04"/>
      <path class="cls-3" d="m218.9,175.48c3.91,0,6.73,6.13,6.75,14.67.02,8.76-2.81,14.92-6.83,14.89-3.87-.02-6.67-6.27-6.66-14.87.02-8.54,2.83-14.69,6.74-14.69"/>
      <path class="cls-3" d="m263.75,205.04c-3.89,0-6.71-6.19-6.72-14.74,0-8.74,2.82-14.86,6.87-14.82,3.86.03,6.65,6.32,6.62,14.94-.02,8.53-2.85,14.62-6.77,14.61"/>
      <path class="cls-3" d="m443.22,205.04c-3.91,0-6.72-6.15-6.74-14.69-.02-8.76,2.81-14.9,6.84-14.87,3.87.03,6.66,6.29,6.65,14.89-.02,8.54-2.84,14.67-6.75,14.67"/>
      <path class="cls-3" d="m420.77,205.04c-3.91,0-6.72-6.15-6.74-14.69-.02-8.76,2.81-14.9,6.84-14.87,3.87.03,6.66,6.29,6.65,14.89-.02,8.54-2.84,14.67-6.75,14.67"/>
      <path class="cls-3" d="m465.77,175.48c3.89.03,6.6,6.16,6.59,14.92,0,8.79-2.8,14.7-6.91,14.64-3.75-.06-6.53-6.31-6.54-14.71-.01-8.75,2.82-14.88,6.85-14.84"/>
      <path class="cls-3" d="m488.07,175.48c3.92,0,6.75,6.09,6.77,14.61.03,8.78-2.79,14.97-6.81,14.94-3.88-.02-6.69-6.24-6.68-14.82,0-8.55,2.82-14.73,6.72-14.74"/>
      <path class="cls-3" d="m517.23,190.37c0,8.68-2.75,14.67-6.71,14.67-3.91,0-6.73-6.14-6.74-14.69-.01-8.76,2.81-14.9,6.84-14.87,3.91.03,6.61,6.13,6.6,14.89"/>
      <path class="cls-3" d="m606.96,190.41c0,8.65-2.76,14.64-6.73,14.63-3.9,0-6.71-6.18-6.72-14.73,0-8.74,2.82-14.87,6.86-14.83,3.89.03,6.6,6.17,6.59,14.93"/>
      <path class="cls-3" d="m667.53,175.48c3.92,0,6.74,6.1,6.77,14.63.02,8.77-2.8,14.95-6.82,14.93-3.88-.02-6.68-6.25-6.67-14.83,0-8.55,2.83-14.72,6.72-14.72"/>
      <path class="cls-3" d="m696.68,190.1c0,8.77-2.7,14.91-6.58,14.94-4.04.03-6.87-6.08-6.86-14.83,0-8.55,2.82-14.73,6.72-14.73,3.97,0,6.72,5.97,6.73,14.62"/>
      <path class="cls-3" d="m712.42,205.04c-3.91,0-6.73-6.13-6.75-14.67-.02-8.76,2.81-14.92,6.83-14.89,3.87.02,6.67,6.27,6.66,14.87-.02,8.54-2.83,14.69-6.74,14.69"/>
      <path class="cls-3" d="m741.55,190.33c0,8.71-2.73,14.71-6.69,14.71-3.92,0-6.74-6.11-6.76-14.64-.02-8.77,2.8-14.94,6.82-14.92,3.92.02,6.63,6.09,6.62,14.85"/>
      <path class="cls-3" d="m757.23,205.04c-3.89-.01-6.7-6.21-6.7-14.78,0-8.73,2.84-14.82,6.89-14.78,3.86.04,6.64,6.35,6.6,14.99-.03,8.51-2.86,14.58-6.79,14.57"/>
      <path class="cls-3" d="m786.41,190.33c0,8.71-2.73,14.7-6.69,14.71-3.91,0-6.74-6.11-6.76-14.65-.02-8.77,2.8-14.94,6.82-14.91,3.92.02,6.63,6.1,6.62,14.85"/>
      <path class="cls-3" d="m802.23,175.48c3.87.02,6.67,6.28,6.65,14.88-.02,8.68-2.87,14.74-6.93,14.68-3.76-.05-6.55-6.29-6.56-14.67-.02-8.76,2.81-14.92,6.84-14.89"/>
      <path class="cls-3" d="m824.57,205.04c-3.91,0-6.72-6.15-6.74-14.69-.01-8.76,2.81-14.9,6.84-14.87,3.91.03,6.61,6.13,6.6,14.89,0,8.68-2.75,14.67-6.71,14.67"/>
      <path class="cls-3" d="m847.02,205.04c-3.92,0-6.74-6.11-6.76-14.65-.02-8.77,2.8-14.94,6.82-14.91,3.88.02,6.68,6.26,6.67,14.85-.01,8.55-2.83,14.7-6.73,14.71"/>
      <path class="cls-3" d="m869.43,205.04c-3.92,0-6.74-6.11-6.76-14.65-.02-8.77,2.8-14.94,6.82-14.91,3.88.02,6.68,6.26,6.67,14.85-.01,8.55-2.83,14.7-6.73,14.71"/>
      <path class="cls-3" d="m891.86,205.04c-3.9,0-6.72-6.15-6.73-14.7-.01-8.75,2.81-14.89,6.85-14.86,3.87.03,6.66,6.3,6.64,14.9-.02,8.54-2.84,14.66-6.76,14.66"/>
      <path class="cls-3" d="m914.39,175.48c3.91.02,6.62,6.11,6.61,14.87,0,8.82-2.78,14.74-6.89,14.69-3.84-.05-6.61-6.41-6.56-15.08.05-8.48,2.89-14.5,6.83-14.48"/>
      <path class="cls-3" d="m936.72,175.48c3.92,0,6.74,6.11,6.76,14.64.02,8.77-2.8,14.94-6.82,14.92-3.88-.02-6.68-6.26-6.67-14.85.01-8.55,2.83-14.71,6.73-14.71"/>
      <path class="cls-3" d="m936.72,27.18c3.92,0,6.74,6.11,6.76,14.64.02,8.77-2.8,14.94-6.82,14.92-3.88-.02-6.68-6.26-6.67-14.85.01-8.55,2.83-14.71,6.73-14.71"/>
      <path class="cls-3" d="m959.16,175.48c3.96,0,6.7,5.99,6.71,14.66,0,8.96-2.71,14.92-6.79,14.9-3.87-.02-6.67-6.27-6.66-14.87.01-8.54,2.83-14.69,6.74-14.69"/>
      <path class="cls-3" d="m959.16,126.03c3.96,0,6.7,5.99,6.71,14.67,0,8.96-2.71,14.92-6.79,14.89-3.87-.02-6.67-6.27-6.66-14.87.01-8.54,2.83-14.69,6.74-14.69"/>
      <path class="cls-3" d="m959.16,27.1c3.96,0,6.7,5.99,6.71,14.67,0,8.96-2.71,14.92-6.79,14.89-3.87-.02-6.67-6.27-6.66-14.87.01-8.54,2.83-14.69,6.74-14.69"/>
      <path class="cls-3" d="m981.64,27.91c3.92,0,6.74,6.11,6.76,14.65.02,8.77-2.8,14.94-6.82,14.91-3.88-.02-6.68-6.26-6.67-14.85.01-8.55,2.83-14.71,6.73-14.71"/>
      <path class="cls-3" d="m1004.08,27.83c3.96,0,6.7,5.99,6.71,14.67,0,8.96-2.71,14.92-6.79,14.89-3.87-.02-6.67-6.27-6.66-14.87.01-8.54,2.83-14.69,6.74-14.69"/>
      <path class="cls-3" d="m981.61,205.04c-3.91,0-6.74-6.12-6.75-14.66-.02-8.77,2.8-14.93,6.83-14.9,3.88.02,6.67,6.27,6.66,14.86-.01,8.55-2.83,14.69-6.74,14.7"/>
      <path class="cls-3" d="m1004.06,175.48c3.95.01,6.67,6.03,6.67,14.76,0,8.9-2.74,14.84-6.83,14.8-3.86-.03-6.64-6.34-6.61-14.96.03-8.52,2.86-14.61,6.78-14.6"/>
      <path class="cls-3" d="m207.74,200.21c3.89.01,6.7,6.22,6.69,14.79,0,8.72-2.84,14.81-6.89,14.77-3.88-.04-6.57-6.19-6.56-14.99.01-8.61,2.78-14.58,6.75-14.57"/>
      <path class="cls-3" d="m236.83,215.13c0,8.66-2.76,14.65-6.72,14.65-4.02,0-6.71-6.08-6.69-15.12.02-8.54,2.82-14.47,6.81-14.44,3.9.03,6.6,6.15,6.6,14.91"/>
      <path class="cls-3" d="m252.49,229.77c-3.92-.02-6.63-6.09-6.63-14.84,0-8.85,2.77-14.77,6.87-14.72,3.85.04,6.62,6.39,6.58,15.04-.04,8.5-2.88,14.54-6.82,14.52"/>
      <path class="cls-3" d="m274.97,200.21c3.96,0,6.72,5.98,6.72,14.63,0,8.97-2.71,14.95-6.77,14.93-3.92-.02-6.63-6.08-6.63-14.83,0-8.72,2.72-14.72,6.68-14.72"/>
      <path class="cls-3" d="m335.58,214.75c.01-8.59,2.79-14.56,6.77-14.54,3.88.02,6.69,6.24,6.68,14.82,0,8.71-2.85,14.79-6.9,14.75-3.87-.04-6.56-6.22-6.55-15.02"/>
      <path class="cls-3" d="m409.74,200.21c3.87.05,6.56,6.23,6.54,15.03-.01,8.73-2.83,14.61-6.96,14.53-3.8-.08-6.48-6.39-6.45-15.24.03-8.46,2.86-14.37,6.86-14.32"/>
      <path class="cls-3" d="m432.05,229.77c-3.97.01-6.73-5.96-6.74-14.59-.01-8.99,2.69-14.99,6.76-14.97,3.89.01,6.69,6.22,6.69,14.8,0,8.56-2.82,14.75-6.71,14.76"/>
      <path class="cls-3" d="m461.15,214.81c.01,8.78-2.69,14.93-6.57,14.96-4.09.04-6.83-5.9-6.83-14.8,0-8.73,2.72-14.75,6.67-14.76,3.97-.01,6.73,5.96,6.74,14.6"/>
      <path class="cls-3" d="m476.86,200.21c3.92,0,6.74,6.1,6.77,14.63.02,8.77-2.8,14.95-6.82,14.93-3.92-.02-6.63-6.09-6.63-14.83,0-8.72,2.72-14.72,6.68-14.72"/>
      <path class="cls-3" d="m499.39,229.77c-3.98.02-6.77-5.94-6.78-14.5-.02-9.02,2.68-15.06,6.72-15.06,3.96,0,6.68,5.99,6.69,14.71,0,8.75-2.71,14.83-6.62,14.85"/>
      <path class="cls-3" d="m521.65,229.77c-3.91-.02-6.62-6.12-6.61-14.88,0-8.82,2.78-14.74,6.89-14.68,3.84.05,6.61,6.41,6.56,15.08-.05,8.48-2.89,14.5-6.83,14.48"/>
      <path class="cls-3" d="m544.06,229.77c-3.91-.02-6.62-6.12-6.61-14.88,0-8.82,2.78-14.74,6.89-14.68,3.84.05,6.61,6.41,6.56,15.08-.05,8.48-2.89,14.5-6.83,14.48"/>
      <path class="cls-3" d="m656.58,200.21c3.81.07,6.57,6.52,6.5,15.21-.07,8.57-2.97,14.47-7.08,14.35-3.75-.11-6.41-6.55-6.37-15.42.04-8.34,2.93-14.22,6.95-14.14"/>
      <path class="cls-3" d="m685.47,214.8c.01,8.78-2.69,14.94-6.57,14.98-4.09.04-6.84-5.9-6.84-14.79,0-8.74,2.72-14.76,6.66-14.77,3.97-.01,6.73,5.95,6.74,14.58"/>
      <path class="cls-3" d="m701.23,229.77c-3.97.01-6.73-5.96-6.74-14.6-.01-8.98,2.7-14.98,6.76-14.96,3.89.02,6.69,6.23,6.69,14.8,0,8.56-2.82,14.75-6.71,14.76"/>
      <path class="cls-3" d="m730.33,215.13c0,8.66-2.76,14.65-6.72,14.65-4.02,0-6.71-6.08-6.69-15.12.02-8.54,2.82-14.47,6.81-14.44,3.9.03,6.6,6.15,6.6,14.91"/>
      <path class="cls-3" d="m746.01,200.21c3.93-.01,6.76,6.06,6.79,14.57.03,8.79-2.78,15-6.79,14.99-3.94-.01-6.66-6.04-6.66-14.78s2.72-14.77,6.66-14.78"/>
      <path class="cls-3" d="m768.49,229.77c-3.96,0-6.69-5.99-6.7-14.69,0-8.94,2.72-14.9,6.8-14.87,3.9.03,6.61,6.14,6.6,14.9,0,8.67-2.75,14.66-6.71,14.66"/>
      <path class="cls-3" d="m790.89,229.77c-3.95-.01-6.67-6.02-6.67-14.75,0-8.9,2.74-14.84,6.83-14.81,3.86.03,6.65,6.33,6.62,14.96-.03,8.52-2.85,14.61-6.78,14.6"/>
      <path class="cls-3" d="m813.43,200.21c3.92.02,6.63,6.09,6.63,14.84,0,8.84-2.77,14.77-6.87,14.72-3.86-.05-6.55-6.24-6.53-15.04.01-8.57,2.8-14.54,6.78-14.52"/>
      <path class="cls-3" d="m835.78,229.77c-3.96,0-6.69-5.99-6.69-14.7,0-8.94,2.72-14.89,6.81-14.86,3.87.03,6.66,6.3,6.64,14.9-.02,8.54-2.84,14.66-6.75,14.66"/>
      <path class="cls-3" d="m858.39,229.77c-3.96,0-6.69-5.99-6.69-14.7,0-8.94,2.72-14.89,6.81-14.86,3.87.03,6.66,6.3,6.64,14.9-.02,8.54-2.84,14.66-6.75,14.66"/>
      <path class="cls-3" d="m858.39,180.36c-3.96,0-6.69-5.99-6.69-14.7,0-8.94,2.72-14.89,6.81-14.86,3.87.03,6.66,6.3,6.64,14.9-.02,8.54-2.84,14.66-6.75,14.66"/>
      <path class="cls-3" d="m903.07,200.21c3.96,0,6.71,5.99,6.72,14.65,0,8.96-2.71,14.94-6.78,14.91-3.92-.02-6.63-6.1-6.62-14.85,0-8.71,2.73-14.7,6.69-14.71"/>
      <path class="cls-3" d="m925.53,229.77c-3.96,0-6.71-5.99-6.72-14.65,0-8.96,2.71-14.94,6.78-14.91,3.88.02,6.68,6.26,6.66,14.85-.01,8.54-2.83,14.7-6.73,14.71"/>
      <path class="cls-3" d="m947.95,200.21c3.96,0,6.7,5.99,6.71,14.67,0,8.95-2.71,14.92-6.79,14.89-3.91-.02-6.62-6.11-6.61-14.88,0-8.69,2.74-14.68,6.7-14.68"/>
      <path class="cls-3" d="m947.98,150.79c3.96,0,6.7,5.99,6.71,14.67,0,8.95-2.71,14.92-6.79,14.89-3.91-.02-6.62-6.11-6.61-14.88,0-8.69,2.74-14.68,6.7-14.68"/>
      <path class="cls-3" d="m1037.96,150.75c3.76.07,6.62,6.7,6.55,15.21-.07,8.23-3.1,14.55-6.93,14.44-3.9-.1-6.6-6.5-6.56-15.5.04-8.36,2.92-14.23,6.95-14.15"/>
      <path class="cls-3" d="m1066.85,165.53c0,8.62-2.78,14.83-6.66,14.87-3.97.03-6.76-6.2-6.75-15.08.01-8.62,2.78-14.59,6.75-14.57,3.94.01,6.65,6.05,6.65,14.79"/>
      <path class="cls-3" d="m1075.88,165.73c-.01-8.79,2.69-14.94,6.57-14.98,4.01-.04,6.88,6.11,6.91,14.79.03,8.3-2.92,14.82-6.73,14.86-3.9.03-6.74-6.13-6.75-14.67"/>
      <path class="cls-3" d="m1120.74,165.72c-.01-8.78,2.69-14.93,6.57-14.97,4-.04,6.88,6.13,6.91,14.8.03,8.3-2.93,14.82-6.74,14.85-3.9.03-6.73-6.14-6.74-14.68"/>
      <path class="cls-3" d="m1156.58,165.64c0,8.57-2.82,14.76-6.71,14.76-3.96,0-6.72-6.27-6.7-15.19.02-8.55,2.81-14.49,6.8-14.46,3.91.03,6.61,6.13,6.6,14.9"/>
      <path class="cls-3" d="m1165.6,165.36c0-8.65,2.77-14.62,6.74-14.61,3.91.01,6.82,6.52,6.76,15.16-.05,8.22-3.09,14.58-6.92,14.49-3.85-.09-6.59-6.35-6.58-15.04"/>
      <path class="cls-3" d="m1201.53,165.64c0,8.57-2.82,14.76-6.71,14.76-3.96,0-6.72-6.27-6.7-15.19.02-8.55,2.81-14.49,6.8-14.46,3.91.03,6.61,6.13,6.6,14.9"/>
      <path class="cls-3" d="m1210.56,165.36c0-8.65,2.77-14.62,6.74-14.61,3.91.01,6.82,6.52,6.76,15.16-.05,8.22-3.09,14.58-6.92,14.49-3.85-.09-6.59-6.35-6.58-15.04"/>
      <path class="cls-3" d="m1105.04,150.79c3.96,0,6.7,5.99,6.71,14.67,0,8.95-2.71,14.92-6.79,14.89-3.91-.02-6.62-6.11-6.61-14.88,0-8.69,2.74-14.68,6.7-14.68"/>
      <path class="cls-3" d="m947.98,1.9c3.96,0,6.7,5.99,6.71,14.67,0,8.95-2.71,14.92-6.79,14.89-3.91-.02-6.62-6.11-6.61-14.88,0-8.69,2.74-14.68,6.7-14.68"/>
      <path class="cls-3" d="m970.39,200.21c3.9,0,6.72,6.16,6.73,14.7.01,8.75-2.82,14.89-6.85,14.86-3.9-.03-6.61-6.14-6.6-14.91,0-8.66,2.75-14.66,6.71-14.65"/>
      <path class="cls-3" d="m970.39,249.72c3.9,0,6.72,6.16,6.73,14.7.01,8.75-2.82,14.89-6.85,14.86-3.9-.03-6.61-6.14-6.6-14.91,0-8.66,2.75-14.66,6.71-14.65"/>
      <path class="cls-3" d="m999.42,217.44c-.64,8.6-3.77,13.54-7.67,12.14-3.99-1.43-6.21-8.35-5.53-17.25.64-8.44,3.83-13.34,7.75-11.9,3.87,1.41,6.1,8.37,5.45,17.01"/>
      <path class="cls-3" d="m203.18,239.65c0,8.66-2.76,14.89-6.62,14.95-3.96.06-6.85-6.28-6.83-15,.02-8.54,2.84-14.66,6.76-14.66,3.96,0,6.69,5.99,6.69,14.7"/>
      <path class="cls-3" d="m181.37,239.65c0,8.66-2.76,14.89-6.62,14.95-3.96.06-6.85-6.28-6.83-15,.02-8.54,2.84-14.66,6.76-14.66,3.96,0,6.69,5.99,6.69,14.7"/>
      <path class="cls-3" d="m225.65,240.06c-.05,8.46-2.94,14.57-6.85,14.47-3.97-.1-6.72-6.45-6.64-15.34.08-8.55,3-14.38,7.12-14.25,3.66.12,6.41,6.65,6.36,15.11"/>
      <path class="cls-3" d="m248.04,239.55c.01,8.87-2.79,15.09-6.76,15.05-3.85-.05-6.69-6.38-6.68-14.9,0-8.56,2.82-14.74,6.71-14.75,3.97,0,6.72,5.96,6.74,14.61"/>
      <path class="cls-3" d="m263.62,254.52c-3.88-.12-6.63-6.39-6.59-15.03.03-8.76,2.97-14.71,7.18-14.55,3.64.15,6.38,6.75,6.31,15.22-.07,8.44-2.96,14.48-6.89,14.36"/>
      <path class="cls-3" d="m286.17,254.52c-3.88-.12-6.63-6.39-6.59-15.03.04-8.76,2.97-14.71,7.18-14.55,3.64.15,6.38,6.75,6.31,15.22-.07,8.44-2.96,14.48-6.89,14.36"/>
      <path class="cls-3" d="m427.5,239.53c.01,8.88-2.78,15.11-6.75,15.07-3.85-.04-6.7-6.35-6.7-14.88,0-8.57,2.81-14.76,6.7-14.78,3.98-.01,6.74,5.95,6.75,14.58"/>
      <path class="cls-3" d="m443.31,224.94c3.88.02,6.68,6.26,6.67,14.85-.01,8.54-2.86,14.8-6.73,14.76-3.99-.04-6.8-6.32-6.76-15.11.04-8.49,2.88-14.53,6.82-14.5"/>
      <path class="cls-3" d="m465.6,224.94c3.98-.02,6.75,5.95,6.77,14.54.01,8.9-2.77,15.14-6.74,15.11-3.86-.02-6.71-6.32-6.71-14.83,0-8.59,2.8-14.8,6.68-14.82"/>
      <path class="cls-3" d="m488.13,224.94c3.89.01,6.7,6.2,6.71,14.76,0,8.56-2.84,14.87-6.69,14.85-4-.02-6.83-6.26-6.8-15.02.03-8.52,2.86-14.6,6.78-14.59"/>
      <path class="cls-3" d="m517.23,239.72c0,8.62-2.78,14.84-6.65,14.88-3.95.04-6.82-6.33-6.79-15.07.03-8.52,2.86-14.59,6.79-14.58,3.94.01,6.66,6.04,6.66,14.78"/>
      <path class="cls-3" d="m532.93,224.94c3.92,0,6.75,6.08,6.78,14.61.02,8.58-2.81,15-6.62,15.01-4.02.02-6.87-6.17-6.87-14.88,0-8.55,2.82-14.74,6.71-14.75"/>
      <path class="cls-3" d="m606.96,239.79c0,8.59-2.81,14.79-6.69,14.8-3.87.01-6.74-6.25-6.76-14.73-.02-8.77,2.8-14.94,6.82-14.92,3.92.02,6.63,6.1,6.62,14.85"/>
      <path class="cls-3" d="m622.53,254.52c-3.88-.12-6.63-6.39-6.59-15.03.04-8.76,2.98-14.71,7.18-14.55,3.64.15,6.37,6.75,6.31,15.23-.07,8.44-2.96,14.47-6.89,14.35"/>
      <path class="cls-3" d="m651.82,239.88c0,8.56-2.83,14.74-6.72,14.72-3.86-.02-6.71-6.3-6.72-14.82,0-8.75,2.82-14.87,6.86-14.84,3.89.03,6.6,6.17,6.59,14.93"/>
      <path class="cls-3" d="m674.29,240.03c-.05,8.47-2.93,14.59-6.84,14.5-3.97-.09-6.73-6.45-6.65-15.32.08-8.55,2.99-14.4,7.11-14.27,3.67.12,6.42,6.63,6.37,15.09"/>
      <path class="cls-3" d="m696.68,239.97c-.01,8.52-2.86,14.68-6.77,14.63-3.85-.05-6.69-6.38-6.68-14.91,0-8.71,2.85-14.79,6.9-14.75,3.87.04,6.56,6.22,6.55,15.02"/>
      <path class="cls-3" d="m712.24,254.52c-3.87-.13-6.62-6.41-6.58-15.07.04-8.73,3-14.69,7.2-14.51,3.63.15,6.36,6.78,6.29,15.26-.07,8.44-2.97,14.45-6.91,14.32"/>
      <path class="cls-3" d="m734.93,224.94c3.92.02,6.62,6.1,6.62,14.86,0,8.58-2.81,14.78-6.69,14.79-3.94.01-6.8-6.4-6.76-15.16.04-8.49,2.88-14.52,6.83-14.49"/>
      <path class="cls-3" d="m757.27,224.94c3.91,0,6.74,6.12,6.75,14.66.02,8.55-2.82,14.95-6.64,14.96-4.01,0-6.86-6.19-6.85-14.92.01-8.54,2.83-14.69,6.74-14.7"/>
      <path class="cls-3" d="m786.41,239.62c0,8.66-2.75,14.91-6.61,14.98-3.96.07-6.86-6.25-6.84-14.97.02-8.54,2.83-14.68,6.74-14.68s6.7,5.99,6.71,14.67"/>
      <path class="cls-3" d="m802.2,224.94c3.89.02,6.69,6.23,6.69,14.8,0,8.55-2.85,14.84-6.71,14.81-4-.03-6.82-6.29-6.78-15.06.03-8.51,2.87-14.57,6.8-14.55"/>
      <path class="cls-3" d="m831.28,239.62c0,8.66-2.75,14.91-6.61,14.98-3.97.07-6.86-6.25-6.84-14.97.02-8.54,2.83-14.68,6.74-14.69,3.96,0,6.7,5.99,6.71,14.67"/>
      <path class="cls-3" d="m853.77,239.62c0,8.66-2.75,14.91-6.61,14.98-3.97.07-6.86-6.25-6.84-14.97.02-8.54,2.83-14.68,6.74-14.69,3.96,0,6.7,5.99,6.71,14.67"/>
      <path class="cls-3" d="m921,239.93c-.01,8.54-2.85,14.7-6.75,14.67-3.86-.03-6.7-6.34-6.7-14.87,0-8.73,2.84-14.82,6.88-14.79,3.88.04,6.58,6.19,6.57,14.99"/>
      <path class="cls-3" d="m936.7,254.54c-3.98-.07-6.77-6.38-6.71-15.21.06-8.57,2.97-14.49,7.06-14.39,3.7.1,6.46,6.52,6.43,14.97-.03,8.49-2.91,14.7-6.78,14.63"/>
      <path class="cls-3" d="m959.22,224.94c3.94.01,6.65,6.05,6.65,14.79,0,8.61-2.79,14.83-6.66,14.86-3.95.03-6.82-6.34-6.79-15.09.03-8.51,2.86-14.58,6.79-14.57"/>
      <path class="cls-3" d="m981.61,224.94c3.9,0,6.72,6.16,6.73,14.71.01,8.55-2.83,14.92-6.67,14.91-4.01,0-6.84-6.23-6.82-14.97.02-8.54,2.84-14.65,6.76-14.65"/>
      <path class="cls-3" d="m1021.86,217.44c-.64,8.6-3.77,13.54-7.67,12.14-3.99-1.43-6.21-8.35-5.53-17.25.64-8.44,3.83-13.34,7.75-11.9,3.87,1.41,6.1,8.37,5.45,17.01"/>
      <path class="cls-3" d="m1004.04,224.94c3.9,0,6.72,6.16,6.73,14.71.01,8.55-2.83,14.92-6.67,14.91-4.01,0-6.84-6.23-6.82-14.97.02-8.54,2.84-14.65,6.76-14.65"/>
      <path class="cls-3" d="m156.13,264.59c0-8.77,2.7-14.89,6.6-14.92,4-.03,6.87,6.16,6.89,14.86.02,8.29-2.95,14.78-6.77,14.8-3.89.01-6.71-6.17-6.72-14.74"/>
      <path class="cls-3" d="m191.96,264.34c0,8.67-2.74,14.92-6.6,14.99-3.98.08-6.81-6.13-6.8-14.95,0-8.71,2.73-14.7,6.7-14.7,3.96,0,6.7,5.98,6.71,14.66"/>
      <path class="cls-3" d="m200.99,264.52c0-8.76,2.71-14.82,6.63-14.84,3.98-.02,6.86,6.26,6.86,14.93,0,8.28-2.98,14.73-6.8,14.72-3.88-.01-6.68-6.22-6.69-14.81"/>
      <path class="cls-3" d="m236.83,264.51c0,8.59-2.8,14.8-6.68,14.81-3.97.02-6.74-6.22-6.72-15.13.02-8.58,2.8-14.54,6.77-14.52,3.92.02,6.63,6.09,6.63,14.84"/>
      <path class="cls-3" d="m245.85,264.58c0-8.77,2.7-14.88,6.6-14.9,3.99-.03,6.87,6.19,6.88,14.87.01,8.29-2.96,14.77-6.77,14.78-3.89.01-6.71-6.18-6.72-14.75"/>
      <path class="cls-3" d="m281.69,264.38c0,8.66-2.76,14.89-6.62,14.95-3.98.07-6.79-6.15-6.79-15,0-8.67,2.75-14.66,6.71-14.66,3.96,0,6.69,5.99,6.69,14.7"/>
      <path class="cls-3" d="m297.46,249.68c3.88.01,6.7,6.18,6.74,14.75.04,8.32-2.9,14.85-6.71,14.9-3.98.05-6.78-6.17-6.77-15.04,0-8.65,2.76-14.62,6.74-14.61"/>
      <path class="cls-3" d="m425.31,264.66c-.01-8.79,2.69-14.94,6.57-14.98,4.01-.04,6.88,6.11,6.91,14.79.03,8.3-2.93,14.82-6.73,14.86-3.9.03-6.74-6.13-6.75-14.67"/>
      <path class="cls-3" d="m454.44,249.68c3.96,0,6.7,5.99,6.71,14.67,0,8.84-2.81,15.05-6.79,14.98-3.86-.07-6.62-6.3-6.61-14.97,0-8.7,2.74-14.69,6.7-14.69"/>
      <path class="cls-3" d="m470.17,264.6c0-8.77,2.7-14.9,6.59-14.93,3.99-.03,6.87,6.17,6.89,14.84.02,8.3-2.94,14.79-6.76,14.81-3.89.02-6.72-6.16-6.72-14.72"/>
      <path class="cls-3" d="m506.01,264.38c0,8.66-2.75,14.89-6.62,14.95-3.98.06-6.79-6.15-6.79-15,0-8.67,2.75-14.66,6.71-14.66,3.96,0,6.69,5.99,6.69,14.7"/>
      <path class="cls-3" d="m515.04,264.27c.01-8.63,2.77-14.6,6.75-14.59,3.91.01,6.81,6.53,6.75,15.18-.06,8.22-3.1,14.57-6.92,14.47-3.85-.1-6.58-6.36-6.57-15.06"/>
      <path class="cls-3" d="m544.17,249.68c3.96,0,6.7,5.99,6.7,14.67,0,8.84-2.81,15.05-6.79,14.98-3.86-.07-6.62-6.3-6.61-14.97,0-8.7,2.74-14.68,6.7-14.68"/>
      <path class="cls-3" d="m559.9,264.54c0-8.76,2.7-14.84,6.62-14.87,3.98-.02,6.86,6.23,6.87,14.91,0,8.28-2.97,14.75-6.79,14.75-3.89,0-6.69-6.2-6.7-14.79"/>
      <path class="cls-3" d="m559.9,116.06c0-8.76,2.7-14.84,6.62-14.87,3.98-.02,6.86,6.23,6.87,14.91,0,8.28-2.97,14.75-6.79,14.75-3.89,0-6.69-6.2-6.7-14.79"/>
      <path class="cls-3" d="m595.74,264.4c0,8.65-2.76,14.88-6.63,14.93-3.98.05-6.78-6.16-6.78-15.02,0-8.65,2.76-14.64,6.72-14.64,3.96,0,6.68,6,6.68,14.72"/>
      <path class="cls-3" d="m595.72,215.67c0,8.65-2.76,14.88-6.63,14.93-3.98.05-6.78-6.16-6.78-15.02,0-8.65,2.76-14.64,6.72-14.64,3.96,0,6.68,6,6.68,14.72"/>
      <path class="cls-3" d="m618.22,215.67c0,8.65-2.76,14.88-6.63,14.93-3.98.05-6.78-6.16-6.78-15.02,0-8.65,2.76-14.64,6.72-14.64,3.96,0,6.68,6,6.68,14.72"/>
      <path class="cls-3" d="m595.74,165.14c0,8.65-2.76,14.88-6.63,14.93-3.98.05-6.78-6.16-6.78-15.02,0-8.65,2.76-14.64,6.72-14.63,3.96,0,6.68,6,6.68,14.72"/>
      <path class="cls-3" d="m611.49,249.68c3.92,0,6.83,6.51,6.77,15.14-.05,8.07-3.01,14.46-6.72,14.52-3.98.06-6.79-6.16-6.78-15.02,0-8.66,2.76-14.64,6.73-14.64"/>
      <path class="cls-3" d="m640.6,264.41c0,8.64-2.77,14.87-6.63,14.92-3.98.05-6.78-6.17-6.77-15.03,0-8.65,2.76-14.63,6.73-14.62,3.96,0,6.67,6.01,6.68,14.73"/>
      <path class="cls-3" d="m649.63,264.34c0-8.68,2.75-14.67,6.71-14.66,3.92,0,6.83,6.48,6.79,15.11-.04,8.23-3.07,14.61-6.89,14.54-3.86-.07-6.61-6.32-6.6-14.99"/>
      <path class="cls-3" d="m685.47,264.36c0,8.66-2.75,14.9-6.61,14.97-3.98.07-6.8-6.14-6.79-14.98,0-8.69,2.74-14.68,6.7-14.68,3.96,0,6.7,5.99,6.7,14.68"/>
      <path class="cls-3" d="m701.2,249.68c3.92,0,6.83,6.47,6.79,15.09-.04,8.23-3.06,14.62-6.88,14.56-3.86-.06-6.62-6.3-6.61-14.97,0-8.7,2.74-14.68,6.7-14.68"/>
      <path class="cls-3" d="m716.93,264.33c0-8.66,2.75-14.65,6.72-14.65,4.02,0,6.71,6.08,6.69,15.12-.02,8.49-2.89,14.61-6.81,14.54-3.86-.08-6.6-6.33-6.6-15"/>
      <path class="cls-3" d="m739.36,264.48c0-8.74,2.72-14.79,6.65-14.8,3.96-.01,6.85,6.31,6.84,14.97-.01,8.27-3,14.71-6.82,14.68-3.88-.03-6.67-6.24-6.67-14.85"/>
      <path class="cls-3" d="m768.46,249.68c3.97-.01,6.73,5.96,6.74,14.6.01,8.88-2.79,15.1-6.76,15.05-3.87-.04-6.65-6.26-6.65-14.89,0-8.73,2.72-14.75,6.67-14.76"/>
      <path class="cls-3" d="m784.22,264.58c0-8.77,2.7-14.88,6.6-14.91,3.99-.03,6.87,6.2,6.88,14.87.01,8.29-2.96,14.78-6.77,14.79-3.89.01-6.71-6.18-6.72-14.75"/>
      <path class="cls-3" d="m820.06,264.35c0,8.66-2.75,14.91-6.61,14.98-3.99.07-6.8-6.13-6.8-14.97,0-8.69,2.74-14.68,6.7-14.68,3.96,0,6.7,5.99,6.7,14.68"/>
      <path class="cls-3" d="m842.09,264.35c0,8.66-2.75,14.91-6.61,14.98-3.99.07-6.8-6.13-6.8-14.97,0-8.69,2.74-14.68,6.7-14.68,3.96,0,6.7,5.99,6.7,14.68"/>
      <path class="cls-3" d="m903.16,249.68c3.92.02,6.63,6.09,6.63,14.84,0,8.59-2.81,14.79-6.68,14.81-3.97.02-6.74-6.23-6.72-15.14.02-8.57,2.8-14.54,6.78-14.52"/>
      <path class="cls-3" d="m918.81,264.3c0-8.65,2.76-14.64,6.73-14.62,3.91,0,6.82,6.51,6.77,15.14-.05,8.22-3.09,14.59-6.91,14.51-3.86-.08-6.6-6.33-6.59-15.03"/>
      <path class="cls-3" d="m948.02,249.68c3.92.02,6.64,6.08,6.63,14.83,0,8.59-2.8,14.8-6.68,14.82-3.97.02-6.74-6.22-6.73-15.12.01-8.58,2.8-14.55,6.77-14.53"/>
      <path class="cls-3" d="m555.33,254.5c-3.88-.02-6.69-6.23-6.68-14.81,0-8.71,2.85-14.79,6.9-14.75,3.87.04,6.56,6.21,6.55,15.01-.01,8.6-2.79,14.56-6.76,14.55"/>
      <path class="cls-3" d="m555.33,106.11c-3.88-.02-6.69-6.23-6.68-14.81,0-8.71,2.85-14.8,6.9-14.75,3.87.04,6.56,6.21,6.55,15.01-.01,8.6-2.79,14.56-6.76,14.55"/>
      <path class="cls-3" d="m577.76,254.5c-3.88-.02-6.69-6.23-6.68-14.81,0-8.71,2.85-14.79,6.9-14.75,3.87.04,6.56,6.21,6.55,15.01-.01,8.6-2.79,14.56-6.76,14.55"/>
      <path class="cls-3" d="m577.76,155.55c-3.88-.02-6.69-6.23-6.68-14.81,0-8.71,2.85-14.8,6.9-14.75,3.87.04,6.56,6.21,6.55,15.01-.01,8.6-2.79,14.56-6.76,14.55"/>
      <path class="cls-3" d="m532.91,175.48c4.32-.84,6.46,7.67,6.72,15.16.28,8.14-2.81,14.37-6.59,14.4-4.02.03-6.84-6.11-6.83-14.84,0-8.53,2.82-14.71,6.7-14.72"/>
      <path class="cls-3" d="m532.91,125.97c4.32-.84,6.46,7.67,6.72,15.16.28,8.14-2.81,14.37-6.59,14.4-4.02.03-6.84-6.11-6.83-14.84,0-8.53,2.82-14.71,6.7-14.72"/>
      <path class="cls-3" d="m550.88,116.12c0,8.7-2.72,14.71-6.66,14.72-3.49.01-6.79-6.3-6.74-12.88.08-10.66,2.55-16.71,6.8-16.68,3.9.03,6.61,6.12,6.6,14.84"/>
      <path class="cls-3" d="m402.88,264.28c0-6.72,3.66-14.61,6.75-14.6,3.94.02,6.65,6.05,6.65,14.78s-2.78,14.83-6.65,14.88c-3.97.04-6.77-6.18-6.76-15.05"/>
      <path class="cls-3" d="m129.14,126.02c3.92-.01,6.75,6.06,6.78,14.57.03,7.39-2.8,14.87-5.66,14.97-4.54.16-7.83-6.06-7.83-14.8,0-8.55,2.82-14.73,6.71-14.75"/>
    </g>
  </g>
</svg>