<?xml version="1.0" encoding="UTF-8"?>
<svg id="Layer_2" data-name="Layer 2" xmlns="http://www.w3.org/2000/svg" xmlns:xlink="http://www.w3.org/1999/xlink" viewBox="0 0 1280 266.67">
  <defs>
    <style>
      .cls-1 {
        clip-path: url(#clippath);
                        fill: #FF3600;

      }

      .cls-2 {
        fill: none;
      }

      .cls-2, .cls-3 {
        stroke-width: 0px;
      }
    </style>
    <clipPath id="clippath">
      <rect class="cls-2" width="1280" height="266.67"/>
    </clipPath>
  </defs>
  <g id="Layer_1-2" data-name="Layer 1">
    <g class="cls-1">
      <path class="cls-3" d="m1272.98,136.23c-3.89-.02-6.69-6.23-6.69-14.81,0-8.71,2.85-14.79,6.9-14.75,3.85.04,6.63,6.37,6.59,15.01-.04,8.5-2.87,14.56-6.8,14.55"/>
      <path class="cls-3" d="m398.38,7.71c3.9,0,6.72,6.17,6.73,14.71.01,8.55-2.83,14.91-6.67,14.9-4.01-.01-6.84-6.23-6.82-14.98.02-8.53,2.84-14.65,6.76-14.64"/>
      <path class="cls-3" d="m319.96,11.84c-3.83.08-6.76-5.99-6.81-14.11-.06-9.15,2.59-15.48,6.5-15.54,4.01-.06,6.87,5.84,6.91,14.23.04,8.99-2.68,15.34-6.59,15.43"/>
      <path class="cls-3" d="m1004.16,255.11c3.92.02,6.62,6.1,6.62,14.87,0,8.83-2.78,14.75-6.88,14.69-3.84-.05-6.61-6.4-6.57-15.07.04-8.49,2.88-14.52,6.83-14.49"/>
      <path class="cls-3" d="m375.98,57.21c3.94.01,6.66,6.04,6.66,14.78s-2.78,14.83-6.66,14.87c-3.95.04-6.82-6.34-6.79-15.08.03-8.51,2.86-14.59,6.79-14.57"/>
      <path class="cls-3" d="m645.21,136.23c-4.03.03-6.85-6.13-6.84-14.89.02-8.54,2.84-14.67,6.75-14.67s6.7,5.99,6.7,14.68c0,8.76-2.7,14.85-6.61,14.88"/>
      <path class="cls-3" d="m667.58,136.23c-3.92,0-6.75-6.09-6.77-14.61-.03-8.78,2.79-14.97,6.81-14.94,3.88.02,6.69,6.24,6.68,14.82,0,8.55-2.82,14.73-6.72,14.74"/>
      <path class="cls-3" d="m1037.96,32.7c3.76.07,6.62,6.7,6.55,15.21-.07,8.23-3.1,14.55-6.93,14.45-3.9-.11-6.6-6.5-6.56-15.5.04-8.36,2.92-14.23,6.95-14.15"/>
      <path class="cls-3" d="m1066.85,47.49c0,8.62-2.78,14.83-6.66,14.87-3.97.03-6.76-6.2-6.75-15.08.01-8.62,2.78-14.59,6.75-14.57,3.94.01,6.65,6.05,6.65,14.79"/>
      <path class="cls-3" d="m1075.88,47.69c-.01-8.79,2.69-14.94,6.57-14.98,4.01-.04,6.88,6.11,6.91,14.79.03,8.3-2.92,14.82-6.73,14.86-3.9.03-6.74-6.13-6.75-14.67"/>
      <path class="cls-3" d="m1165.6,47.32c0-8.65,2.77-14.62,6.74-14.61,3.91.01,6.82,6.52,6.76,15.16-.05,8.22-3.09,14.58-6.92,14.49-3.85-.09-6.59-6.35-6.58-15.04"/>
      <path class="cls-3" d="m1201.53,47.6c0,8.57-2.82,14.76-6.71,14.76-3.96,0-6.72-6.27-6.7-15.19.02-8.55,2.81-14.49,6.8-14.46,3.91.03,6.61,6.13,6.6,14.9"/>
      <path class="cls-3" d="m1210.56,47.32c0-8.65,2.77-14.62,6.74-14.61,3.91.01,6.82,6.52,6.76,15.16-.05,8.22-3.09,14.58-6.92,14.49-3.85-.09-6.59-6.35-6.58-15.04"/>
      <path class="cls-3" d="m1105.04,32.75c3.96,0,6.7,5.99,6.71,14.67,0,8.95-2.71,14.92-6.79,14.89-3.91-.02-6.62-6.11-6.61-14.88,0-8.69,2.74-14.68,6.7-14.68"/>
      <path class="cls-3" d="m970.39-16.94c3.9,0,6.72,6.16,6.73,14.7.01,8.75-2.82,14.89-6.85,14.86-3.9-.03-6.61-6.14-6.6-14.91,0-8.66,2.75-14.66,6.71-14.65"/>
      <path class="cls-3" d="m970.39,32.28c3.9,0,6.72,6.16,6.73,14.7.01,8.75-2.82,14.89-6.85,14.86-3.9-.03-6.61-6.14-6.6-14.91,0-8.66,2.75-14.66,6.71-14.65"/>
      <path class="cls-3" d="m156.13-2.07c0-8.77,2.7-14.89,6.6-14.92,4-.03,6.87,6.16,6.89,14.86.02,8.29-2.95,14.78-6.77,14.8-3.89.01-6.71-6.17-6.72-14.74"/>
      <path class="cls-3" d="m191.96-2.33c0,8.67-2.74,14.92-6.6,14.99-3.98.08-6.81-6.13-6.8-14.95,0-8.71,2.73-14.7,6.7-14.7,3.96,0,6.7,5.98,6.71,14.66"/>
      <path class="cls-3" d="m200.99-2.15c0-8.76,2.71-14.82,6.63-14.84,3.98-.02,6.86,6.26,6.86,14.93,0,8.28-2.98,14.73-6.8,14.72-3.88-.01-6.68-6.22-6.69-14.81"/>
      <path class="cls-3" d="m236.83-2.15c0,8.59-2.8,14.8-6.68,14.81-3.97.02-6.74-6.22-6.72-15.13.02-8.58,2.8-14.54,6.77-14.52,3.92.02,6.63,6.09,6.63,14.84"/>
      <path class="cls-3" d="m245.85-2.09c0-8.77,2.7-14.88,6.6-14.9,3.99-.03,6.87,6.19,6.88,14.87.01,8.29-2.96,14.77-6.77,14.78-3.89.01-6.71-6.18-6.72-14.75"/>
      <path class="cls-3" d="m281.69-2.29c0,8.66-2.76,14.89-6.62,14.95-3.98.07-6.79-6.15-6.79-15,0-8.67,2.75-14.66,6.71-14.66,3.96,0,6.69,5.99,6.69,14.7"/>
      <path class="cls-3" d="m297.46-16.99c3.88.01,6.7,6.18,6.74,14.75.04,8.32-2.9,14.85-6.71,14.9-3.98.05-6.78-6.17-6.77-15.04,0-8.65,2.76-14.62,6.74-14.61"/>
      <path class="cls-3" d="m297.46,32.43c3.88.01,6.7,6.18,6.74,14.75.04,8.32-2.9,14.85-6.71,14.9-3.98.05-6.78-6.17-6.77-15.05,0-8.64,2.76-14.62,6.74-14.61"/>
      <path class="cls-3" d="m425.31-2.01c-.01-8.79,2.69-14.94,6.57-14.98,4.01-.04,6.88,6.11,6.91,14.79.03,8.3-2.93,14.82-6.73,14.86-3.9.03-6.74-6.13-6.75-14.67"/>
      <path class="cls-3" d="m454.44-16.99c3.96,0,6.7,5.99,6.71,14.67,0,8.84-2.81,15.05-6.79,14.98-3.86-.07-6.62-6.3-6.61-14.97,0-8.7,2.74-14.69,6.7-14.69"/>
      <path class="cls-3" d="m470.17-2.06c0-8.77,2.7-14.9,6.59-14.93,3.99-.03,6.87,6.17,6.89,14.84.02,8.3-2.94,14.79-6.76,14.81-3.89.02-6.72-6.16-6.72-14.72"/>
      <path class="cls-3" d="m506.01-2.29c0,8.66-2.75,14.89-6.62,14.95-3.98.06-6.79-6.15-6.79-15,0-8.67,2.75-14.66,6.71-14.66,3.96,0,6.69,5.99,6.69,14.7"/>
      <path class="cls-3" d="m515.04-2.4c.01-8.63,2.77-14.6,6.75-14.59,3.91.01,6.81,6.53,6.75,15.18-.06,8.22-3.1,14.57-6.92,14.47-3.85-.1-6.58-6.36-6.57-15.06"/>
      <path class="cls-3" d="m544.17-16.99c3.96,0,6.7,5.99,6.7,14.67,0,8.84-2.81,15.05-6.79,14.98-3.86-.07-6.62-6.3-6.61-14.97,0-8.7,2.74-14.68,6.7-14.68"/>
      <path class="cls-3" d="m559.9-2.12c0-8.76,2.7-14.84,6.62-14.87,3.98-.02,6.86,6.23,6.87,14.91,0,8.28-2.97,14.75-6.79,14.75-3.89,0-6.69-6.2-6.7-14.79"/>
      <path class="cls-3" d="m595.74-2.27c0,8.65-2.76,14.88-6.63,14.93-3.98.05-6.78-6.16-6.78-15.02,0-8.65,2.76-14.64,6.72-14.64,3.96,0,6.68,6,6.68,14.72"/>
      <path class="cls-3" d="m611.49-16.99c3.92,0,6.83,6.51,6.77,15.14-.05,8.07-3.01,14.46-6.72,14.52-3.98.06-6.79-6.16-6.78-15.02,0-8.66,2.76-14.64,6.73-14.64"/>
      <path class="cls-3" d="m640.6-2.25c0,8.64-2.77,14.87-6.63,14.92-3.98.05-6.78-6.17-6.77-15.03,0-8.65,2.76-14.63,6.73-14.62,3.96,0,6.67,6.01,6.68,14.73"/>
      <path class="cls-3" d="m649.63-2.33c0-8.68,2.75-14.67,6.71-14.66,3.92,0,6.83,6.48,6.79,15.11-.04,8.23-3.07,14.61-6.89,14.54-3.86-.07-6.61-6.32-6.6-14.99"/>
      <path class="cls-3" d="m685.47-2.31c0,8.66-2.75,14.9-6.61,14.97-3.98.07-6.8-6.14-6.79-14.98,0-8.69,2.74-14.68,6.7-14.68,3.96,0,6.7,5.99,6.7,14.68"/>
      <path class="cls-3" d="m701.2-16.99c3.92,0,6.83,6.47,6.79,15.09-.04,8.23-3.06,14.62-6.88,14.56-3.86-.06-6.62-6.3-6.61-14.97,0-8.7,2.74-14.68,6.7-14.68"/>
      <path class="cls-3" d="m716.93-2.34c0-8.66,2.75-14.65,6.72-14.65,4.02,0,6.71,6.08,6.69,15.12-.02,8.49-2.89,14.61-6.81,14.54-3.86-.08-6.6-6.33-6.6-15"/>
      <path class="cls-3" d="m739.36-2.19c0-8.74,2.72-14.79,6.65-14.8,3.96-.01,6.85,6.31,6.84,14.97-.01,8.27-3,14.71-6.82,14.68-3.88-.03-6.67-6.24-6.67-14.85"/>
      <path class="cls-3" d="m768.46-16.99c3.97-.01,6.73,5.96,6.74,14.6.01,8.88-2.79,15.1-6.76,15.05-3.87-.04-6.65-6.26-6.65-14.89,0-8.73,2.72-14.75,6.67-14.76"/>
      <path class="cls-3" d="m784.22-2.08c0-8.77,2.7-14.88,6.6-14.91,3.99-.03,6.87,6.2,6.88,14.87.01,8.29-2.96,14.78-6.77,14.79-3.89.01-6.71-6.18-6.72-14.75"/>
      <path class="cls-3" d="m820.06-2.31c0,8.66-2.75,14.91-6.61,14.98-3.99.07-6.8-6.13-6.8-14.97,0-8.69,2.74-14.68,6.7-14.68,3.96,0,6.7,5.99,6.7,14.68"/>
      <path class="cls-3" d="m842.09-2.31c0,8.66-2.75,14.91-6.61,14.98-3.99.07-6.8-6.13-6.8-14.97,0-8.69,2.74-14.68,6.7-14.68,3.96,0,6.7,5.99,6.7,14.68"/>
      <path class="cls-3" d="m903.16-16.99c3.92.02,6.63,6.09,6.63,14.84,0,8.59-2.81,14.79-6.68,14.81-3.97.02-6.74-6.23-6.72-15.14.02-8.57,2.8-14.54,6.78-14.52"/>
      <path class="cls-3" d="m918.81-2.36c0-8.65,2.76-14.64,6.73-14.62,3.91,0,6.82,6.51,6.77,15.14-.05,8.22-3.09,14.59-6.91,14.51-3.86-.08-6.6-6.33-6.59-15.03"/>
      <path class="cls-3" d="m948.02-16.99c3.92.02,6.64,6.08,6.63,14.83,0,8.59-2.8,14.8-6.68,14.82-3.97.02-6.74-6.22-6.73-15.12.01-8.58,2.8-14.55,6.77-14.53"/>
      <path class="cls-3" d="m151.59,7.74c3.97,0,6.72,5.98,6.72,14.63,0,8.97-2.71,14.95-6.78,14.93-3.88-.02-6.68-6.25-6.67-14.83,0-8.55,2.83-14.72,6.72-14.72"/>
      <path class="cls-3" d="m174.12,37.3c-4.02.02-6.84-6.16-6.82-14.93.02-8.53,2.85-14.64,6.77-14.63,3.9,0,6.72,6.17,6.72,14.72,0,8.59-2.79,14.81-6.67,14.83"/>
      <path class="cls-3" d="m203.18,22.35c.01,8.77-2.69,14.92-6.58,14.95-4.04.03-6.87-6.08-6.87-14.81,0-8.56,2.82-14.74,6.71-14.75,3.97-.01,6.73,5.96,6.74,14.6"/>
      <path class="cls-3" d="m218.97,7.74c3.89.02,6.69,6.23,6.69,14.81,0,8.71-2.85,14.79-6.9,14.75-3.85-.04-6.63-6.37-6.59-15.01.04-8.5,2.87-14.56,6.8-14.55"/>
      <path class="cls-3" d="m241.4,37.3c-3.93.01-6.77-6.05-6.8-14.56-.03-8.79,2.78-15.01,6.78-15,3.95.01,6.67,6.03,6.67,14.76,0,8.74-2.72,14.78-6.65,14.8"/>
      <path class="cls-3" d="m263.76,37.3c-3.9,0-6.72-6.16-6.73-14.71-.01-8.75,2.82-14.88,6.85-14.85,3.86.03,6.66,6.31,6.64,14.92-.02,8.53-2.84,14.65-6.76,14.64"/>
      <path class="cls-3" d="m286.18,7.74c3.97,0,6.72,5.98,6.72,14.63,0,8.97-2.71,14.95-6.78,14.93-3.88-.02-6.68-6.25-6.67-14.83,0-8.55,2.83-14.72,6.72-14.72"/>
      <path class="cls-3" d="m286.18,57.25c3.97,0,6.72,5.98,6.72,14.63,0,8.97-2.71,14.95-6.78,14.93-3.88-.02-6.68-6.25-6.67-14.83,0-8.55,2.83-14.72,6.72-14.72"/>
      <path class="cls-3" d="m420.85,7.74c3.94.01,6.65,6.05,6.65,14.79s-2.75,14.82-6.85,14.77c-3.85-.04-6.63-6.35-6.6-14.99.03-8.51,2.86-14.58,6.79-14.57"/>
      <path class="cls-3" d="m443.31,7.74c3.88.02,6.67,6.27,6.66,14.87-.01,8.69-2.87,14.75-6.92,14.69-3.85-.05-6.61-6.39-6.57-15.07.04-8.49,2.89-14.52,6.83-14.49"/>
      <path class="cls-3" d="m465.62,7.74c3.97-.01,6.74,5.96,6.75,14.58.01,9-2.69,14.99-6.75,14.98-3.89-.01-6.7-6.21-6.69-14.79,0-8.56,2.81-14.76,6.7-14.77"/>
      <path class="cls-3" d="m488.05,7.74c3.93-.01,6.76,6.07,6.78,14.59.03,8.78-2.79,14.98-6.8,14.97-3.89-.01-6.69-6.22-6.69-14.8,0-8.56,2.81-14.75,6.71-14.76"/>
      <path class="cls-3" d="m510.56,7.74c3.95.01,6.67,6.03,6.67,14.76,0,8.9-2.74,14.84-6.83,14.8-3.86-.03-6.64-6.34-6.61-14.96.03-8.52,2.86-14.61,6.78-14.6"/>
      <path class="cls-3" d="m532.87,37.3c-3.88-.02-6.67-6.27-6.66-14.87.01-8.69,2.87-14.75,6.92-14.69,3.85.05,6.61,6.4,6.57,15.07-.04,8.49-2.88,14.52-6.83,14.49"/>
      <path class="cls-3" d="m555.33,37.3c-3.88-.02-6.69-6.23-6.68-14.81,0-8.71,2.85-14.79,6.9-14.75,3.87.04,6.56,6.21,6.55,15.02-.01,8.59-2.79,14.56-6.76,14.54"/>
      <path class="cls-3" d="m577.87,37.3c-3.93.01-6.77-6.05-6.8-14.56-.03-8.79,2.78-15.01,6.79-15,3.89.01,6.7,6.2,6.71,14.76,0,8.58-2.8,14.78-6.69,14.8"/>
      <path class="cls-3" d="m600.28,7.74c3.95.01,6.67,6.01,6.67,14.75,0,8.91-2.74,14.85-6.83,14.81-3.86-.03-6.65-6.32-6.62-14.95.03-8.53,2.85-14.62,6.77-14.61"/>
      <path class="cls-3" d="m622.72,37.3c-3.93.01-6.75-6.08-6.78-14.6-.03-8.78,2.79-14.98,6.8-14.96,3.89.02,6.69,6.23,6.69,14.8,0,8.56-2.82,14.75-6.71,14.76"/>
      <path class="cls-3" d="m651.82,22.69c0,8.64-2.76,14.62-6.73,14.61-3.89-.01-6.71-6.19-6.71-14.75,0-8.74,2.83-14.85,6.87-14.82,3.88.04,6.59,6.18,6.58,14.95"/>
      <path class="cls-3" d="m667.55,7.74c3.91,0,6.73,6.13,6.75,14.67.02,8.76-2.81,14.92-6.84,14.89-3.87-.02-6.67-6.28-6.65-14.87.01-8.54,2.83-14.69,6.74-14.69"/>
      <path class="cls-3" d="m690.01,7.74c3.95.01,6.67,6.02,6.67,14.75,0,8.91-2.74,14.85-6.83,14.81-3.86-.03-6.65-6.33-6.62-14.95.03-8.52,2.85-14.61,6.78-14.61"/>
      <path class="cls-3" d="m712.39,7.74c3.92,0,6.75,6.09,6.77,14.61.02,8.78-2.79,14.97-6.81,14.94-3.88-.02-6.69-6.24-6.68-14.82,0-8.55,2.82-14.73,6.72-14.74"/>
      <path class="cls-3" d="m741.55,22.32c.01,8.79-2.69,14.94-6.57,14.98-4.04.04-6.88-6.06-6.88-14.79,0-8.56,2.81-14.76,6.7-14.78,3.97-.01,6.74,5.96,6.75,14.58"/>
      <path class="cls-3" d="m757.29,37.3c-3.92,0-6.74-6.11-6.76-14.65-.02-8.77,2.8-14.94,6.82-14.91,3.88.02,6.68,6.26,6.67,14.85-.01,8.55-2.83,14.7-6.73,14.71"/>
      <path class="cls-3" d="m786.41,22.5c0,8.74-2.72,14.78-6.65,14.8-4.01.01-6.83-6.19-6.8-14.97.03-8.52,2.86-14.6,6.78-14.59,3.95.01,6.66,6.03,6.67,14.76"/>
      <path class="cls-3" d="m802.2,37.3c-3.93.02-6.77-6.04-6.81-14.55-.04-8.79,2.78-15.02,6.78-15.01,3.89.01,6.71,6.19,6.71,14.75,0,8.58-2.8,14.79-6.69,14.81"/>
      <path class="cls-3" d="m824.66,37.3c-4.03.03-6.85-6.13-6.84-14.89.02-8.54,2.84-14.67,6.75-14.67s6.7,5.99,6.7,14.68c0,8.76-2.7,14.85-6.61,14.88"/>
      <path class="cls-3" d="m891.96,37.3c-4.03.03-6.85-6.13-6.84-14.89.02-8.54,2.84-14.67,6.75-14.67s6.73,6.14,6.74,14.68c.02,8.6-2.78,14.85-6.65,14.88"/>
      <path class="cls-3" d="m914.39,37.3c-4.03.03-6.85-6.13-6.84-14.89.02-8.54,2.84-14.67,6.75-14.67s6.7,5.99,6.7,14.68c0,8.76-2.7,14.85-6.61,14.88"/>
      <path class="cls-3" d="m936.72,37.3c-3.91,0-6.72-6.15-6.74-14.69-.01-8.76,2.81-14.9,6.85-14.87,3.87.03,6.66,6.3,6.64,14.9-.02,8.54-2.84,14.66-6.75,14.66"/>
      <path class="cls-3" d="m959.14,7.74c3.97,0,6.72,5.97,6.73,14.63,0,8.97-2.71,14.95-6.78,14.93-3.88-.02-6.68-6.25-6.67-14.83,0-8.55,2.83-14.72,6.72-14.72"/>
      <path class="cls-3" d="m959.14,57.25c3.97,0,6.72,5.97,6.73,14.63,0,8.97-2.71,14.95-6.78,14.93-3.88-.02-6.68-6.25-6.67-14.83,0-8.55,2.83-14.72,6.72-14.72"/>
      <path class="cls-3" d="m169.57,47.13c.02,8.6-2.78,14.88-6.64,14.91-3.99.03-6.79-5.91-6.81-14.45-.02-8.82,2.66-15.05,6.51-15.11,4.06-.06,6.92,5.98,6.94,14.66"/>
      <path class="cls-3" d="m191.96,47.33c0,8.71-2.73,14.7-6.69,14.71-4.04,0-6.73-6.04-6.72-15.06.02-8.56,2.8-14.52,6.78-14.5,3.92.02,6.63,6.1,6.62,14.86"/>
      <path class="cls-3" d="m207.68,62.04c-3.96,0-6.69-5.99-6.69-14.7,0-8.94,2.72-14.89,6.81-14.86,3.87.03,6.66,6.3,6.64,14.9-.02,8.54-2.84,14.66-6.75,14.66"/>
      <path class="cls-3" d="m236.83,47.15c0,8.76-2.7,14.86-6.61,14.89-4.08.03-6.8-5.93-6.8-14.88,0-8.69,2.74-14.68,6.7-14.68s6.7,5.98,6.7,14.67"/>
      <path class="cls-3" d="m252.49,62.04c-3.93-.02-6.64-6.08-6.64-14.82,0-8.86,2.76-14.79,6.86-14.74,3.85.04,6.62,6.37,6.59,15.02-.04,8.5-2.87,14.56-6.81,14.54"/>
      <path class="cls-3" d="m281.69,47.39c0,8.66-2.76,14.65-6.72,14.65-4.02,0-6.71-6.09-6.69-15.12.02-8.54,2.82-14.47,6.81-14.44,3.9.03,6.6,6.15,6.6,14.91"/>
      <path class="cls-3" d="m416.28,47.33c0,8.71-2.73,14.7-6.69,14.71-4.04,0-6.73-6.04-6.72-15.06.02-8.56,2.8-14.52,6.78-14.5,3.92.02,6.63,6.09,6.62,14.85"/>
      <path class="cls-3" d="m432.08,62.04c-3.98.02-6.76-5.95-6.77-14.53-.02-9.01,2.68-15.04,6.73-15.03,3.9,0,6.71,6.18,6.72,14.73,0,8.58-2.79,14.81-6.67,14.83"/>
      <path class="cls-3" d="m461.15,47.35c0,8.7-2.74,14.68-6.7,14.68s-6.72-6.06-6.71-15.08c.02-8.56,2.81-14.5,6.79-14.48,3.91.02,6.62,6.11,6.61,14.88"/>
      <path class="cls-3" d="m476.88,62.04c-3.96,0-6.7-5.99-6.71-14.67,0-8.96,2.71-14.92,6.79-14.89,3.87.02,6.67,6.28,6.66,14.87-.02,8.54-2.83,14.69-6.74,14.69"/>
      <path class="cls-3" d="m499.28,62.04c-3.96,0-6.67-6.01-6.68-14.73,0-8.92,2.73-14.86,6.82-14.82,3.89.03,6.59,6.17,6.58,14.94,0,8.65-2.76,14.63-6.73,14.62"/>
      <path class="cls-3" d="m521.81,62.04c-3.98.02-6.76-5.95-6.77-14.53-.02-9.01,2.68-15.04,6.73-15.03,3.89,0,6.71,6.18,6.72,14.73,0,8.58-2.79,14.81-6.68,14.83"/>
      <path class="cls-3" d="m521.84,111.4c-3.98.02-6.76-5.95-6.77-14.53-.02-9.01,2.68-15.04,6.73-15.03,3.89,0,6.71,6.18,6.72,14.73,0,8.59-2.79,14.81-6.67,14.83"/>
      <path class="cls-3" d="m550.88,47.13c0,8.76-2.7,14.87-6.6,14.9-4.08.03-6.81-5.92-6.8-14.87,0-8.7,2.74-14.69,6.7-14.69,3.96,0,6.7,5.99,6.71,14.66"/>
      <path class="cls-3" d="m550.86,96.5c0,8.76-2.7,14.87-6.6,14.9-4.08.03-6.81-5.92-6.8-14.87,0-8.7,2.74-14.69,6.7-14.69,3.96,0,6.7,5.99,6.71,14.66"/>
      <path class="cls-3" d="m566.59,32.47c3.92,0,6.74,6.1,6.77,14.63.02,8.77-2.8,14.95-6.82,14.93-3.92-.02-6.63-6.08-6.63-14.84,0-8.72,2.72-14.71,6.68-14.72"/>
      <path class="cls-3" d="m595.74,47.25c0,8.74-2.72,14.77-6.65,14.78-4.06.01-6.76-5.98-6.75-14.98.01-8.62,2.77-14.59,6.75-14.58,3.94.01,6.66,6.04,6.66,14.78"/>
      <path class="cls-3" d="m611.4,62.04c-3.93-.02-6.64-6.08-6.64-14.82,0-8.86,2.76-14.78,6.86-14.73,3.85.04,6.62,6.38,6.58,15.03-.04,8.5-2.87,14.55-6.81,14.53"/>
      <path class="cls-3" d="m640.6,47.17c0,8.76-2.7,14.84-6.62,14.87-4.08.02-6.79-5.94-6.79-14.9,0-8.67,2.75-14.66,6.71-14.66,3.96,0,6.69,5.99,6.7,14.69"/>
      <path class="cls-3" d="m656.3,32.47c3.93-.01,6.75,6.07,6.78,14.59.03,8.78-2.79,14.98-6.8,14.97-3.93-.01-6.65-6.06-6.65-14.8,0-8.73,2.72-14.75,6.67-14.76"/>
      <path class="cls-3" d="m678.82,32.47c3.94.01,6.65,6.05,6.65,14.79,0,8.88-2.75,14.82-6.85,14.77-3.88-.04-6.57-6.19-6.56-14.99.01-8.61,2.78-14.58,6.75-14.57"/>
      <path class="cls-3" d="m701.17,62.04c-3.96,0-6.67-6.01-6.68-14.73,0-8.92,2.73-14.86,6.82-14.82,3.86.03,6.65,6.32,6.62,14.94-.02,8.53-2.85,14.62-6.77,14.62"/>
      <path class="cls-3" d="m730.33,47.46c-.01,8.62-2.77,14.59-6.75,14.58-4-.01-6.68-6.14-6.66-15.19.02-8.49,2.85-14.41,6.84-14.37,3.88.04,6.58,6.19,6.56,14.98"/>
      <path class="cls-3" d="m746.12,62.04c-3.98.02-6.75-5.95-6.77-14.54-.01-9.01,2.69-15.03,6.74-15.02,3.89,0,6.71,6.19,6.71,14.75,0,8.58-2.8,14.8-6.68,14.81"/>
      <path class="cls-3" d="m775.2,47.61c-.02,8.52-2.83,14.46-6.82,14.43-3.96-.03-6.63-6.25-6.59-15.34.04-8.39,2.9-14.28,6.91-14.22,3.84.06,6.52,6.31,6.49,15.14"/>
      <path class="cls-3" d="m784.22,46.9c.02-8.52,2.83-14.46,6.82-14.43,3.86.03,6.65,6.32,6.63,14.93-.02,8.67-2.89,14.69-6.95,14.63-3.84-.06-6.52-6.3-6.5-15.14"/>
      <path class="cls-3" d="m813.28,62.04c-3.92-.02-6.63-6.09-6.62-14.85,0-8.84,2.77-14.76,6.87-14.71,3.86.05,6.55,6.25,6.53,15.05-.02,8.56-2.8,14.53-6.78,14.51"/>
      <path class="cls-3" d="m880.59,62.04c-3.93-.02-6.65-6.07-6.64-14.81,0-8.86,2.76-14.8,6.86-14.75,3.85.04,6.63,6.37,6.59,15.01-.04,8.5-2.87,14.56-6.8,14.55"/>
      <path class="cls-3" d="m903.14,32.47c3.94.01,6.65,6.05,6.65,14.79s-2.75,14.81-6.85,14.77c-3.88-.04-6.57-6.2-6.56-15,.01-8.61,2.78-14.58,6.75-14.56"/>
      <path class="cls-3" d="m925.61,32.47c3.87.03,6.67,6.28,6.65,14.88-.02,8.68-2.87,14.74-6.93,14.68-3.85-.05-6.54-6.27-6.52-15.09.02-8.55,2.81-14.5,6.79-14.47"/>
      <path class="cls-3" d="m954.65,47.37c0,8.68-2.74,14.67-6.71,14.67s-6.72-6.07-6.7-15.1c.02-8.55,2.81-14.49,6.8-14.46,3.91.03,6.61,6.13,6.61,14.89"/>
      <path class="cls-3" d="m174.04,86.81c-3.99-.05-6.79-6.35-6.74-15.15.05-8.46,2.9-14.48,6.85-14.45,3.87.03,6.66,6.3,6.64,14.9-.02,8.51-2.89,14.75-6.75,14.7"/>
      <path class="cls-3" d="m196.44,57.21c3.97-.01,6.73,5.96,6.74,14.6.01,8.88-2.78,15.1-6.76,15.05-3.85-.04-6.69-6.38-6.68-14.9,0-8.56,2.82-14.75,6.71-14.76"/>
      <path class="cls-3" d="m218.74,86.78c-3.87-.13-6.62-6.42-6.58-15.07.04-8.73,3-14.69,7.2-14.51,3.63.15,6.36,6.78,6.29,15.26-.07,8.43-2.97,14.45-6.91,14.32"/>
      <path class="cls-3" d="m241.34,57.21c3.96,0,6.7,5.99,6.71,14.67,0,8.84-2.81,15.05-6.79,14.98-3.84-.07-6.67-6.44-6.65-14.97.01-8.54,2.83-14.69,6.74-14.69"/>
      <path class="cls-3" d="m263.65,86.79c-3.88-.11-6.65-6.37-6.62-14.98.03-8.79,2.95-14.76,7.15-14.6,3.65.13,6.39,6.7,6.34,15.17-.06,8.45-2.95,14.53-6.87,14.42"/>
      <path class="cls-3" d="m405.11,72.3c-.05,8.47-2.93,14.58-6.84,14.49-3.97-.1-6.72-6.45-6.64-15.33.08-8.55,2.99-14.39,7.12-14.26,3.67.12,6.41,6.64,6.37,15.1"/>
      <path class="cls-3" d="m420.86,57.21c3.93.02,6.64,6.08,6.64,14.83,0,8.59-2.8,14.8-6.68,14.82-3.95.02-6.81-6.37-6.77-15.12.04-8.5,2.87-14.55,6.81-14.53"/>
      <path class="cls-3" d="m443.27,57.21c3.89.01,6.7,6.2,6.71,14.76s-2.84,14.87-6.69,14.85c-4-.02-6.83-6.26-6.8-15.02.03-8.52,2.86-14.6,6.78-14.59"/>
      <path class="cls-3" d="m465.62,57.21c3.97-.01,6.73,5.96,6.74,14.59.01,8.88-2.78,15.1-6.76,15.06-3.85-.04-6.69-6.37-6.69-14.89,0-8.56,2.81-14.75,6.71-14.76"/>
      <path class="cls-3" d="m488.13,57.21c3.89.01,6.7,6.2,6.71,14.76,0,8.56-2.84,14.87-6.69,14.86-4-.02-6.83-6.26-6.8-15.02.03-8.52,2.86-14.61,6.78-14.6"/>
      <path class="cls-3" d="m510.47,57.21c3.98-.01,6.74,5.95,6.76,14.57.01,8.89-2.77,15.12-6.75,15.09-3.86-.03-6.7-6.34-6.7-14.86,0-8.58,2.8-14.78,6.69-14.79"/>
      <path class="cls-3" d="m532.96,86.81c-3.99-.05-6.79-6.34-6.74-15.14.05-8.47,2.9-14.49,6.84-14.47,3.87.03,6.67,6.29,6.65,14.89-.02,8.51-2.88,14.77-6.75,14.71"/>
      <path class="cls-3" d="m555.38,57.21c3.96,0,6.7,5.99,6.71,14.67,0,8.84-2.81,15.05-6.79,14.98-3.84-.07-6.67-6.44-6.66-14.97.02-8.54,2.83-14.69,6.74-14.69"/>
      <path class="cls-3" d="m577.78,57.21c3.93-.01,6.76,6.07,6.79,14.59.03,8.58-2.8,15.02-6.61,15.04-4.02.02-6.88-6.16-6.88-14.86,0-8.56,2.81-14.76,6.7-14.77"/>
      <path class="cls-3" d="m606.96,71.96c0,8.63-2.77,14.85-6.65,14.9-3.96.04-6.83-6.32-6.8-15.05.03-8.53,2.85-14.61,6.78-14.6,3.95.01,6.67,6.02,6.67,14.76"/>
      <path class="cls-3" d="m622.8,57.21c3.86.03,6.66,6.31,6.63,14.92-.02,8.5-2.89,14.74-6.76,14.68-3.91-.06-6.72-6.23-6.73-14.75-.01-8.75,2.82-14.88,6.86-14.85"/>
      <path class="cls-3" d="m651.82,71.99c0,8.62-2.79,14.83-6.66,14.87-3.95.03-6.82-6.34-6.79-15.08.03-8.51,2.86-14.58,6.79-14.57,3.94.01,6.65,6.05,6.65,14.79"/>
      <path class="cls-3" d="m667.51,57.21c3.93-.01,6.75,6.07,6.78,14.6.03,8.58-2.8,15.01-6.62,15.03-4.02.02-6.88-6.16-6.87-14.87,0-8.56,2.82-14.75,6.71-14.76"/>
      <path class="cls-3" d="m696.68,72.34c-.02,8.49-2.89,14.6-6.82,14.52-3.84-.09-6.65-6.47-6.63-15.02.02-8.67,2.88-14.7,6.95-14.64,3.84.06,6.52,6.3,6.5,15.14"/>
      <path class="cls-3" d="m712.37,57.21c3.93-.01,6.76,6.07,6.78,14.59.03,8.58-2.8,15.01-6.61,15.03-4.02.02-6.88-6.16-6.88-14.86,0-8.56,2.81-14.75,6.71-14.76"/>
      <path class="cls-3" d="m741.55,72.14c0,8.56-2.83,14.74-6.72,14.72-3.86-.02-6.71-6.3-6.72-14.82,0-8.75,2.82-14.87,6.86-14.84,3.89.03,6.6,6.17,6.59,14.93"/>
      <path class="cls-3" d="m764.02,72.22c-.04,8.49-2.91,14.66-6.8,14.58-3.98-.08-6.75-6.42-6.68-15.25.07-8.57,2.97-14.46,7.08-14.34,3.69.11,6.44,6.56,6.41,15.01"/>
      <path class="cls-3" d="m786.41,71.81c.01,8.87-2.79,15.1-6.76,15.05-3.85-.04-6.69-6.37-6.69-14.9,0-8.56,2.82-14.75,6.71-14.76,3.97-.01,6.73,5.96,6.74,14.6"/>
      <path class="cls-3" d="m808.89,72.22c-.04,8.49-2.91,14.66-6.8,14.58-3.98-.08-6.75-6.41-6.68-15.25.07-8.57,2.97-14.46,7.08-14.34,3.69.11,6.44,6.56,6.41,15.01"/>
      <path class="cls-3" d="m891.92,57.21c3.89.01,6.7,6.22,6.69,14.79,0,8.56-2.85,14.85-6.7,14.82-4-.03-6.82-6.28-6.79-15.04.03-8.51,2.87-14.58,6.8-14.57"/>
      <path class="cls-3" d="m869.8,57.21c3.89.01,6.7,6.22,6.69,14.79,0,8.56-2.85,14.85-6.7,14.82-4-.03-6.82-6.28-6.79-15.04.03-8.51,2.87-14.58,6.8-14.57"/>
      <path class="cls-3" d="m921,72c0,8.61-2.79,14.83-6.66,14.86-3.95.03-6.82-6.34-6.79-15.09.03-8.51,2.87-14.58,6.8-14.56,3.94.01,6.65,6.06,6.65,14.79"/>
      <path class="cls-3" d="m936.71,86.81c-3.99-.06-6.78-6.37-6.72-15.17.05-8.58,2.96-14.53,7.05-14.43,3.7.09,6.47,6.5,6.44,14.93-.02,8.5-2.9,14.73-6.77,14.67"/>
      <path class="cls-3" d="m1004.01,57.21c3.96,0,6.71,5.98,6.72,14.65,0,8.85-2.8,15.07-6.78,15.01-3.84-.06-6.67-6.42-6.66-14.94.01-8.55,2.83-14.71,6.73-14.71"/>
      <path class="cls-3" d="m1026.44,86.81c-3.99-.06-6.78-6.37-6.72-15.17.05-8.58,2.96-14.53,7.05-14.43,3.7.09,6.47,6.5,6.44,14.93-.02,8.5-2.9,14.73-6.77,14.67"/>
      <path class="cls-3" d="m1055.6,71.84c0,8.68-2.73,14.93-6.59,15.02-3.97.09-6.87-6.22-6.86-14.93,0-8.55,2.83-14.72,6.72-14.72,3.96,0,6.71,5.98,6.72,14.64"/>
      <path class="cls-3" d="m1071.17,86.79c-3.88-.12-6.63-6.39-6.6-15.03.04-8.76,2.98-14.72,7.18-14.55,3.64.15,6.38,6.75,6.31,15.22-.07,8.45-2.96,14.48-6.89,14.36"/>
      <path class="cls-3" d="m1093.71,57.21c3.98-.01,6.74,5.95,6.75,14.57.01,8.88-2.78,15.12-6.75,15.08-3.86-.03-6.7-6.34-6.7-14.87,0-8.57,2.81-14.77,6.7-14.78"/>
      <path class="cls-3" d="m1116.19,86.81c-3.99-.05-6.79-6.34-6.74-15.14.05-8.47,2.9-14.49,6.84-14.46,3.87.03,6.67,6.29,6.65,14.89-.02,8.51-2.88,14.76-6.75,14.71"/>
      <path class="cls-3" d="m1138.66,57.21c3.95.01,6.66,6.03,6.67,14.76,0,8.63-2.78,14.85-6.65,14.89-3.95.04-6.83-6.32-6.8-15.06.03-8.52,2.86-14.6,6.78-14.59"/>
      <path class="cls-3" d="m1167.8,72.06c-.01,8.54-2.87,14.79-6.73,14.75-3.99-.04-6.8-6.32-6.76-15.11.04-8.49,2.88-14.53,6.83-14.5,3.88.02,6.68,6.26,6.66,14.86"/>
      <path class="cls-3" d="m1212.66,72.06c-.01,8.54-2.87,14.79-6.73,14.75-4-.04-6.8-6.32-6.76-15.11.04-8.49,2.88-14.53,6.83-14.5,3.88.02,6.68,6.26,6.66,14.86"/>
      <path class="cls-3" d="m1190.22,72.06c-.01,8.54-2.87,14.79-6.73,14.75-3.99-.04-6.8-6.32-6.76-15.11.04-8.49,2.88-14.53,6.82-14.5,3.88.02,6.68,6.26,6.67,14.86"/>
      <path class="cls-3" d="m162.82,81.94c3.93,0,6.84,6.44,6.8,15.07-.03,8.24-3.05,14.64-6.87,14.58-3.87-.06-6.63-6.29-6.62-14.95,0-8.71,2.73-14.7,6.7-14.7"/>
      <path class="cls-3" d="m185.32,111.59c-3.9.04-6.75-6.12-6.76-14.64-.01-8.8,2.68-14.97,6.55-15.01,4-.04,6.83,5.87,6.85,14.35.03,8.95-2.71,15.26-6.65,15.31"/>
      <path class="cls-3" d="m200.99,96.65c0-8.71,2.73-14.7,6.69-14.71,3.93,0,6.84,6.42,6.8,15.06-.03,8.24-3.05,14.65-6.87,14.59-3.87-.06-6.63-6.29-6.62-14.95"/>
      <path class="cls-3" d="m223.42,96.77c0-8.75,2.71-14.81,6.63-14.83,4.07-.02,6.78,5.97,6.77,14.94,0,8.55-2.84,14.73-6.73,14.71-3.88-.02-6.67-6.23-6.68-14.82"/>
      <path class="cls-3" d="m245.85,96.78c0-8.75,2.71-14.82,6.63-14.84,3.98-.02,6.86,6.26,6.86,14.93,0,8.28-2.99,14.73-6.8,14.72-3.88-.01-6.68-6.22-6.69-14.81"/>
      <path class="cls-3" d="m281.69,96.92c-.01,8.54-2.85,14.7-6.75,14.67-3.94-.03-6.68-6.34-6.66-15.28.02-8.49,2.85-14.42,6.84-14.37,3.88.04,6.58,6.19,6.56,14.98"/>
      <path class="cls-3" d="m304.16,96.92c-.01,8.54-2.85,14.7-6.75,14.67-3.94-.03-6.68-6.34-6.66-15.28.02-8.49,2.85-14.42,6.84-14.37,3.88.04,6.58,6.19,6.56,14.98"/>
      <path class="cls-3" d="m304.16,146.36c-.01,8.54-2.85,14.7-6.75,14.67-3.94-.03-6.68-6.34-6.66-15.28.02-8.49,2.85-14.42,6.84-14.37,3.88.04,6.58,6.19,6.56,14.98"/>
      <path class="cls-3" d="m304.16,245.32c-.01,8.54-2.85,14.7-6.75,14.67-3.94-.03-6.68-6.34-6.66-15.28.02-8.49,2.85-14.42,6.84-14.37,3.88.04,6.58,6.19,6.56,14.98"/>
      <path class="cls-3" d="m364.63,81.94c3.99-.03,6.78,5.92,6.79,14.48.02,8.92-2.75,15.18-6.71,15.17-3.88,0-6.69-6.2-6.7-14.77,0-8.76,2.7-14.85,6.61-14.88"/>
      <path class="cls-3" d="m387.06,81.94c3.98-.03,6.87,6.21,6.87,14.89,0,8.29-2.96,14.76-6.78,14.77-3.89,0-6.7-6.19-6.71-14.77,0-8.77,2.7-14.86,6.61-14.89"/>
      <path class="cls-3" d="m416.28,96.7c0,8.63-2.78,14.85-6.65,14.89-3.98.04-6.77-6.18-6.76-15.06.01-8.63,2.77-14.61,6.74-14.59,3.95.01,6.66,6.03,6.67,14.76"/>
      <path class="cls-3" d="m425.31,96.6c0-8.68,2.75-14.67,6.71-14.66,3.92,0,6.83,6.48,6.79,15.11-.04,8.23-3.07,14.62-6.89,14.55-3.86-.07-6.61-6.32-6.61-14.99"/>
      <path class="cls-3" d="m454.46,81.94c3.96,0,6.68,6,6.69,14.71,0,8.65-2.76,14.89-6.62,14.94-3.98.06-6.79-6.15-6.78-15.01,0-8.66,2.75-14.65,6.72-14.65"/>
      <path class="cls-3" d="m476.95,81.94c3.85.02,6.69,6.29,6.71,14.84.02,8.3-2.94,14.79-6.76,14.81-3.97.02-6.74-6.22-6.73-15.13.01-8.58,2.8-14.54,6.78-14.52"/>
      <path class="cls-3" d="m499.25,81.94c3.97-.02,6.74,5.95,6.76,14.56.01,8.89-2.77,15.12-6.74,15.09-3.87-.03-6.66-6.24-6.66-14.85,0-8.74,2.72-14.79,6.65-14.8"/>
      <path class="cls-3" d="m499.29,131.4c3.98-.02,6.74,5.95,6.76,14.56.01,8.89-2.77,15.12-6.74,15.09-3.87-.03-6.66-6.24-6.66-14.85,0-8.74,2.72-14.78,6.65-14.8"/>
      <path class="cls-3" d="m851.67,244.98c0-8.7,2.74-14.69,6.7-14.69s6.84,6.45,6.8,15.08c-.04,8.23-3.06,14.64-6.88,14.57-3.87-.06-6.62-6.3-6.62-14.96"/>
      <path class="cls-3" d="m851.67,195.51c0-8.7,2.74-14.69,6.7-14.69s6.84,6.45,6.8,15.08c-.04,8.23-3.06,14.64-6.88,14.57-3.87-.06-6.62-6.3-6.62-14.96"/>
      <path class="cls-3" d="m851.67,145.92c0-8.7,2.74-14.69,6.7-14.69,3.93,0,6.84,6.45,6.8,15.08-.04,8.23-3.06,14.64-6.88,14.57-3.87-.06-6.62-6.3-6.62-14.96"/>
      <path class="cls-3" d="m559.9,96.72c0-8.74,2.72-14.77,6.66-14.78,3.96-.01,6.85,6.33,6.83,14.99-.02,8.26-3.01,14.7-6.83,14.66-3.87-.03-6.66-6.25-6.66-14.87"/>
      <path class="cls-3" d="m589.09,81.94c3.94.01,6.65,6.05,6.65,14.79s-2.79,14.83-6.66,14.86c-3.97.03-6.76-6.2-6.74-15.09.01-8.61,2.78-14.58,6.75-14.57"/>
      <path class="cls-3" d="m604.77,96.72c0-8.74,2.72-14.77,6.66-14.78,3.96-.01,6.85,6.33,6.83,14.99-.02,8.26-3.02,14.69-6.83,14.66-3.88-.03-6.66-6.25-6.66-14.87"/>
      <path class="cls-3" d="m640.6,96.79c0,8.58-2.81,14.79-6.69,14.8-3.96.01-6.73-6.24-6.72-15.15.02-8.56,2.8-14.53,6.78-14.5,3.92.02,6.63,6.1,6.62,14.86"/>
      <path class="cls-3" d="m649.63,96.72c0-8.74,2.72-14.77,6.66-14.78,3.96-.01,6.85,6.34,6.83,15-.02,8.26-3.02,14.69-6.83,14.66-3.88-.03-6.66-6.25-6.66-14.88"/>
      <path class="cls-3" d="m685.47,96.6c0,8.66-2.74,14.92-6.6,14.99-3.98.08-6.81-6.13-6.8-14.96,0-8.7,2.73-14.69,6.7-14.69,3.96,0,6.7,5.98,6.71,14.66"/>
      <path class="cls-3" d="m694.49,96.55c.01-8.65,2.76-14.61,6.74-14.6,3.91.01,6.82,6.52,6.76,15.16-.06,8.22-3.09,14.58-6.92,14.49-3.85-.09-6.59-6.35-6.58-15.05"/>
      <path class="cls-3" d="m716.93,96.61c0-8.68,2.74-14.67,6.7-14.67s6.72,6.07,6.7,15.1c-.02,8.5-2.88,14.63-6.8,14.56-3.86-.07-6.61-6.31-6.61-14.98"/>
      <path class="cls-3" d="m746.08,81.94c3.92,0,6.83,6.51,6.77,15.14-.05,8.07-3.01,14.46-6.72,14.52-3.98.06-6.79-6.16-6.78-15.02,0-8.66,2.76-14.64,6.73-14.64"/>
      <path class="cls-3" d="m775.2,96.73c0,8.61-2.79,14.83-6.66,14.86-3.97.03-6.76-6.2-6.74-15.09.01-8.61,2.78-14.58,6.75-14.56,3.94.01,6.65,6.05,6.65,14.79"/>
      <path class="cls-3" d="m784.22,96.8c0-8.76,2.7-14.84,6.62-14.86,3.98-.02,6.86,6.24,6.86,14.91,0,8.28-2.98,14.75-6.79,14.74-3.88,0-6.69-6.21-6.7-14.79"/>
      <path class="cls-3" d="m813.6,81.94c3.81.07,6.49,6.37,6.46,15.22-.03,8.46-2.92,14.55-6.85,14.44-3.89-.11-6.6-6.51-6.55-15.51.04-8.35,2.92-14.22,6.95-14.14"/>
      <path class="cls-3" d="m873.95,96.68c0-8.73,2.72-14.74,6.68-14.75,3.95,0,6.84,6.37,6.82,15.03-.02,8.25-3.03,14.67-6.85,14.62-3.87-.05-6.64-6.27-6.64-14.91"/>
      <path class="cls-3" d="m896.38,96.51c.01-8.62,2.78-14.59,6.75-14.57,4,.01,6.68,6.14,6.66,15.2-.02,8.28-2.85,14.42-6.66,14.46-3.97.04-6.76-6.19-6.75-15.08"/>
      <path class="cls-3" d="m918.81,96.57c0-8.66,2.76-14.64,6.73-14.64,3.91,0,6.83,6.51,6.77,15.14-.05,8.22-3.08,14.6-6.91,14.52-3.86-.08-6.6-6.33-6.59-15.02"/>
      <path class="cls-3" d="m948.02,81.94c3.92.02,6.63,6.09,6.63,14.84,0,8.59-2.81,14.79-6.68,14.81-3.97.02-6.74-6.23-6.72-15.14.02-8.57,2.8-14.54,6.78-14.52"/>
      <path class="cls-3" d="m999.52,96.78c0,8.59-2.8,14.8-6.68,14.82-3.97.02-6.74-6.23-6.72-15.13.02-8.57,2.8-14.54,6.77-14.52,3.92.02,6.63,6.09,6.63,14.84"/>
      <path class="cls-3" d="m1008.54,96.72c0-8.74,2.72-14.77,6.66-14.78,3.96-.01,6.85,6.33,6.83,14.99-.02,8.26-3.01,14.7-6.83,14.66-3.88-.03-6.66-6.25-6.66-14.87"/>
      <path class="cls-3" d="m1044.38,96.87c0,8.56-2.83,14.74-6.72,14.72-3.95-.02-6.7-6.3-6.68-15.23.02-8.53,2.82-14.46,6.82-14.42,3.89.03,6.6,6.17,6.59,14.93"/>
      <path class="cls-3" d="m1053.41,96.92c-.01-8.79,2.69-14.94,6.57-14.98,4.01-.04,6.88,6.11,6.91,14.79.03,8.3-2.93,14.82-6.73,14.86-3.9.03-6.74-6.13-6.75-14.67"/>
      <path class="cls-3" d="m1082.54,81.94c3.96,0,6.7,5.99,6.71,14.67,0,8.84-2.81,15.05-6.79,14.98-3.86-.07-6.62-6.3-6.61-14.97,0-8.7,2.74-14.68,6.7-14.68"/>
      <path class="cls-3" d="m1105.01,81.94c3.87.01,6.7,6.2,6.74,14.76.04,8.32-2.91,14.84-6.72,14.89-3.98.05-6.77-6.17-6.76-15.05.01-8.64,2.77-14.61,6.74-14.6"/>
      <path class="cls-3" d="m1120.7,96.51c.01-8.62,2.78-14.59,6.75-14.57,4,.01,6.68,6.14,6.66,15.2-.02,8.28-2.85,14.42-6.66,14.46-3.97.04-6.76-6.19-6.75-15.08"/>
      <path class="cls-3" d="m1143.13,96.55c.01-8.65,2.77-14.62,6.74-14.6,3.91.01,6.82,6.52,6.76,15.16-.06,8.22-3.09,14.58-6.92,14.49-3.85-.09-6.59-6.35-6.58-15.05"/>
      <path class="cls-3" d="m1165.16,96.55c.01-8.65,2.77-14.62,6.74-14.6,3.91.01,6.82,6.52,6.76,15.16-.06,8.22-3.09,14.58-6.92,14.49-3.85-.09-6.59-6.35-6.58-15.05"/>
      <path class="cls-3" d="m1232.73,96.55c0-8.65,2.77-14.62,6.74-14.6,3.91.01,6.82,6.52,6.76,15.16-.06,8.22-3.09,14.58-6.92,14.49-3.85-.09-6.59-6.35-6.58-15.05"/>
      <path class="cls-3" d="m1255.28,96.55c.01-8.65,2.77-14.62,6.74-14.6,3.91.01,6.82,6.52,6.76,15.16-.06,8.22-3.09,14.58-6.92,14.49-3.85-.09-6.59-6.35-6.58-15.05"/>
      <path class="cls-3" d="m158.32,121.35c0,8.76-2.7,14.86-6.61,14.89-4.03.02-6.85-6.12-6.84-14.88.02-8.54,2.84-14.68,6.74-14.68s6.7,5.99,6.7,14.68"/>
      <path class="cls-3" d="m174.01,136.23c-3.89-.01-6.71-6.19-6.71-14.75,0-8.74,2.83-14.85,6.87-14.81,3.86.03,6.65,6.33,6.62,14.95-.03,8.52-2.85,14.61-6.78,14.6"/>
      <path class="cls-3" d="m196.54,106.67c3.92.02,6.64,6.08,6.64,14.82,0,8.85-2.76,14.79-6.86,14.73-3.85-.04-6.62-6.38-6.58-15.03.04-8.5,2.87-14.55,6.81-14.53"/>
      <path class="cls-3" d="m218.9,136.23c-3.9,0-6.72-6.16-6.73-14.71-.01-8.75,2.82-14.89,6.85-14.85,3.87.03,6.66,6.3,6.64,14.91-.02,8.53-2.84,14.65-6.76,14.65"/>
      <path class="cls-3" d="m248.04,121.26c.01,8.78-2.69,14.94-6.57,14.98-4.04.04-6.88-6.06-6.88-14.79,0-8.56,2.81-14.76,6.7-14.77,3.97-.01,6.73,5.95,6.74,14.58"/>
      <path class="cls-3" d="m263.83,136.23c-3.93.02-6.77-6.04-6.81-14.55-.04-8.79,2.78-15.02,6.78-15.01,3.89,0,6.71,6.19,6.71,14.75,0,8.58-2.8,14.79-6.68,14.81"/>
      <path class="cls-3" d="m292.91,121.45c0,8.74-2.72,14.77-6.65,14.78-4.01.02-6.82-6.19-6.79-14.98.03-8.52,2.86-14.59,6.79-14.58,3.94.01,6.66,6.04,6.66,14.78"/>
      <path class="cls-3" d="m382.64,121.65c-.01,8.62-2.77,14.59-6.75,14.58-3.89-.01-6.7-6.21-6.7-14.78,0-8.72,2.84-14.82,6.88-14.78,3.88.04,6.58,6.19,6.57,14.98"/>
      <path class="cls-3" d="m398.28,136.23c-3.88-.02-6.67-6.27-6.66-14.87.01-8.69,2.87-14.75,6.92-14.69,3.84.05,6.61,6.41,6.57,15.07-.04,8.48-2.89,14.51-6.83,14.49"/>
      <path class="cls-3" d="m420.83,136.23c-3.93.01-6.75-6.08-6.78-14.6-.03-8.78,2.79-14.98,6.8-14.96,3.93.01,6.65,6.06,6.65,14.8,0,8.73-2.72,14.75-6.67,14.76"/>
      <path class="cls-3" d="m443.18,106.67c3.93-.01,6.76,6.06,6.79,14.58.03,8.79-2.78,15-6.79,14.98-3.89-.01-6.7-6.21-6.7-14.78s2.81-14.76,6.7-14.78"/>
      <path class="cls-3" d="m472.36,121.41c0,8.74-2.71,14.81-6.64,14.82-4.02.02-6.84-6.16-6.81-14.94.02-8.53,2.85-14.62,6.77-14.62,3.96,0,6.67,6.01,6.68,14.73"/>
      <path class="cls-3" d="m488.17,136.23c-4.02.02-6.84-6.14-6.82-14.91.02-8.54,2.84-14.65,6.76-14.65,3.9,0,6.72,6.16,6.73,14.71.01,8.59-2.79,14.83-6.67,14.85"/>
      <path class="cls-3" d="m577.88,136.23c-3.93.02-6.77-6.05-6.8-14.55-.04-8.79,2.78-15.02,6.78-15.01,3.89.01,6.7,6.2,6.71,14.76,0,8.58-2.8,14.78-6.69,14.8"/>
      <path class="cls-3" d="m600.26,106.67c3.96,0,6.69,5.99,6.69,14.7,0,8.94-2.72,14.89-6.81,14.86-3.87-.03-6.66-6.3-6.64-14.9.02-8.54,2.84-14.66,6.75-14.66"/>
      <path class="cls-3" d="m622.75,106.67c3.88.02,6.69,6.24,6.68,14.82,0,8.71-2.86,14.78-6.91,14.73-3.85-.04-6.62-6.38-6.58-15.03.04-8.51,2.87-14.55,6.81-14.53"/>
      <path class="cls-3" d="m690.07,106.67c3.91.02,6.62,6.12,6.61,14.88,0,8.82-2.78,14.74-6.89,14.68-3.84-.05-6.61-6.41-6.56-15.08.05-8.48,2.89-14.5,6.83-14.48"/>
      <path class="cls-3" d="m712.43,136.23c-3.92,0-6.74-6.11-6.76-14.64-.02-8.77,2.8-14.94,6.82-14.92,3.88.02,6.68,6.26,6.67,14.85-.01,8.55-2.83,14.71-6.73,14.71"/>
      <path class="cls-3" d="m734.81,106.67c3.97-.01,6.73,5.96,6.74,14.59.01,8.99-2.69,14.98-6.76,14.97-3.89-.01-6.69-6.22-6.69-14.8,0-8.56,2.81-14.75,6.71-14.76"/>
      <path class="cls-3" d="m757.23,136.23c-3.89-.01-6.7-6.21-6.7-14.79,0-8.72,2.84-14.81,6.89-14.77,3.85.04,6.63,6.35,6.6,14.99-.03,8.51-2.86,14.58-6.79,14.57"/>
      <path class="cls-3" d="m786.41,121.47c0,8.73-2.72,14.75-6.67,14.76-3.93.01-6.75-6.07-6.78-14.59-.03-8.78,2.79-14.98,6.8-14.97,3.93.02,6.65,6.06,6.65,14.8"/>
      <path class="cls-3" d="m802.1,136.23c-3.89-.01-6.7-6.21-6.7-14.78,0-8.73,2.84-14.82,6.88-14.78,3.86.04,6.64,6.35,6.61,14.98-.03,8.52-2.86,14.59-6.79,14.58"/>
      <path class="cls-3" d="m869.42,106.67c3.97,0,6.72,5.98,6.72,14.63,0,8.97-2.71,14.95-6.78,14.93-3.88-.02-6.68-6.25-6.67-14.83,0-8.55,2.83-14.72,6.72-14.72"/>
      <path class="cls-3" d="m891.82,106.67c3.93-.01,6.76,6.06,6.79,14.58.03,8.79-2.78,15-6.79,14.98-3.89-.01-6.7-6.21-6.7-14.78,0-8.57,2.81-14.76,6.7-14.78"/>
      <path class="cls-3" d="m921,121.54c0,8.7-2.73,14.69-6.7,14.7-3.91,0-6.73-6.12-6.75-14.66-.02-8.77,2.8-14.93,6.83-14.9,3.92.02,6.62,6.1,6.62,14.87"/>
      <path class="cls-3" d="m936.73,136.23c-3.91,0-6.73-6.14-6.74-14.69-.02-8.76,2.81-14.9,6.84-14.87,3.87.03,6.67,6.29,6.65,14.89-.02,8.54-2.84,14.67-6.75,14.67"/>
      <path class="cls-3" d="m965.87,121.59c0,8.66-2.76,14.65-6.72,14.64-3.9,0-6.72-6.16-6.73-14.71-.01-8.75,2.82-14.88,6.85-14.85,3.9.03,6.6,6.15,6.59,14.92"/>
      <path class="cls-3" d="m965.87,170.57c0,8.66-2.76,14.65-6.72,14.64-3.9,0-6.72-6.16-6.73-14.71-.01-8.75,2.82-14.88,6.85-14.85,3.9.03,6.6,6.15,6.59,14.92"/>
      <path class="cls-3" d="m981.56,136.23c-3.89-.01-6.7-6.2-6.71-14.76,0-8.73,2.83-14.84,6.88-14.8,3.86.03,6.64,6.34,6.61,14.97-.03,8.52-2.86,14.6-6.78,14.59"/>
      <path class="cls-3" d="m981.56,86.81c-3.89-.01-6.7-6.2-6.71-14.76,0-8.73,2.83-14.84,6.88-14.8,3.86.03,6.64,6.34,6.61,14.97-.03,8.52-2.86,14.6-6.78,14.59"/>
      <path class="cls-3" d="m1010.73,121.59c0,8.66-2.76,14.65-6.72,14.65-3.9,0-6.72-6.16-6.73-14.71-.01-8.75,2.82-14.88,6.85-14.85,3.9.03,6.6,6.15,6.6,14.91"/>
      <path class="cls-3" d="m1026.47,136.23c-3.92,0-6.74-6.11-6.76-14.65-.02-8.77,2.8-14.93,6.82-14.91,3.88.02,6.68,6.26,6.67,14.85-.01,8.55-2.83,14.7-6.73,14.71"/>
      <path class="cls-3" d="m1055.6,121.47c0,8.73-2.72,14.75-6.67,14.76-4,.01-6.82-6.21-6.78-15.01.03-8.5,2.87-14.57,6.8-14.55,3.93.01,6.65,6.06,6.65,14.8"/>
      <path class="cls-3" d="m1071.42,106.67c3.87.02,6.67,6.28,6.65,14.88-.02,8.68-2.87,14.74-6.93,14.68-3.84-.05-6.61-6.41-6.56-15.08.05-8.48,2.89-14.5,6.84-14.48"/>
      <path class="cls-3" d="m1100.46,121.37c0,8.76-2.7,14.84-6.62,14.86-4.03.02-6.85-6.14-6.83-14.91.02-8.54,2.84-14.66,6.75-14.66,3.96,0,6.69,5.99,6.69,14.7"/>
      <path class="cls-3" d="m1116.18,136.23c-3.9,0-6.72-6.16-6.73-14.71-.01-8.75,2.82-14.88,6.85-14.85,3.87.03,6.66,6.3,6.64,14.91-.02,8.54-2.84,14.65-6.76,14.65"/>
      <path class="cls-3" d="m1138.58,106.67c3.97-.01,6.73,5.96,6.74,14.59.01,8.99-2.69,14.99-6.76,14.97-3.89-.01-6.69-6.22-6.69-14.8,0-8.56,2.82-14.75,6.71-14.76"/>
      <path class="cls-3" d="m1160.99,136.23c-3.89-.02-6.69-6.23-6.69-14.81,0-8.71,2.85-14.79,6.9-14.75,3.85.04,6.63,6.37,6.59,15.01-.04,8.5-2.87,14.56-6.8,14.55"/>
      <path class="cls-3" d="m1250.67,136.23c-3.89-.02-6.69-6.23-6.69-14.81,0-8.71,2.85-14.79,6.9-14.75,3.85.04,6.63,6.37,6.59,15.01-.04,8.5-2.87,14.56-6.8,14.55"/>
      <path class="cls-3" d="m162.9,160.96c-3.98.02-6.76-5.95-6.78-14.52-.02-9.01,2.68-15.05,6.72-15.04,3.9,0,6.71,6.17,6.72,14.72,0,8.59-2.79,14.82-6.67,14.84"/>
      <path class="cls-3" d="m185.2,160.96c-3.93-.02-6.65-6.07-6.65-14.8,0-8.87,2.76-14.8,6.85-14.76,3.87.04,6.57,6.21,6.55,15.01-.01,8.6-2.79,14.57-6.76,14.55"/>
      <path class="cls-3" d="m207.66,160.96c-3.95-.01-6.66-6.03-6.66-14.76,0-8.9,2.74-14.84,6.84-14.8,3.86.03,6.64,6.34,6.61,14.97-.03,8.52-2.86,14.6-6.78,14.59"/>
      <path class="cls-3" d="m236.83,146.33c0,8.65-2.76,14.64-6.72,14.63-4.01,0-6.7-6.1-6.68-15.14.02-8.52,2.83-14.46,6.82-14.42,3.89.03,6.6,6.16,6.59,14.93"/>
      <path class="cls-3" d="m252.52,131.4c3.93-.01,6.75,6.07,6.78,14.59.03,8.78-2.79,14.98-6.8,14.97-3.93-.01-6.65-6.06-6.65-14.8,0-8.73,2.72-14.75,6.67-14.76"/>
      <path class="cls-3" d="m274.97,131.4c3.96,0,6.72,5.98,6.72,14.63,0,8.97-2.71,14.95-6.77,14.93-3.92-.02-6.63-6.09-6.63-14.83,0-8.72,2.72-14.72,6.68-14.72"/>
      <path class="cls-3" d="m371.42,146.31c0,8.66-2.75,14.66-6.71,14.65-4.02,0-6.71-6.08-6.69-15.11.02-8.54,2.82-14.48,6.81-14.45,3.9.03,6.61,6.14,6.6,14.91"/>
      <path class="cls-3" d="m387.09,160.96c-3.93-.02-6.65-6.07-6.65-14.81,0-8.86,2.76-14.8,6.86-14.75,3.85.04,6.63,6.37,6.59,15.01-.04,8.5-2.87,14.57-6.8,14.55"/>
      <path class="cls-3" d="m409.56,160.96c-3.96,0-6.68-6-6.68-14.72,0-8.92,2.73-14.87,6.82-14.84,3.89.03,6.6,6.16,6.59,14.92,0,8.65-2.76,14.64-6.72,14.64"/>
      <path class="cls-3" d="m432.1,160.96c-3.98.02-6.77-5.92-6.79-14.48-.02-9.03,2.68-15.08,6.71-15.08,3.91,0,6.72,6.15,6.74,14.69.01,8.6-2.78,14.84-6.66,14.87"/>
      <path class="cls-3" d="m461.15,146.72c-.03,8.41-2.89,14.3-6.9,14.24-3.91-.06-6.56-6.38-6.51-15.52.05-8.27,2.97-14.13,6.99-14.04,3.78.09,6.45,6.45,6.41,15.32"/>
      <path class="cls-3" d="m476.77,160.96c-3.89-.03-6.6-6.16-6.59-14.92,0-8.79,2.8-14.7,6.91-14.64,3.75.06,6.53,6.31,6.54,14.71.01,8.75-2.82,14.88-6.85,14.84"/>
      <path class="cls-3" d="m566.6,160.96c-3.96,0-6.69-5.99-6.7-14.69,0-8.95,2.72-14.9,6.8-14.87,3.87.03,6.67,6.29,6.65,14.89-.02,8.54-2.84,14.67-6.75,14.67"/>
      <path class="cls-3" d="m595.74,145.99c.01,8.79-2.69,14.94-6.57,14.98-4.09.04-6.84-5.9-6.84-14.79,0-8.73,2.72-14.76,6.66-14.77,3.98-.01,6.74,5.95,6.75,14.58"/>
      <path class="cls-3" d="m595.74,195.5c.01,8.79-2.69,14.94-6.57,14.98-4.09.04-6.84-5.9-6.84-14.79,0-8.73,2.72-14.76,6.66-14.77,3.98-.01,6.74,5.95,6.75,14.58"/>
      <path class="cls-3" d="m611.41,160.96c-3.93-.02-6.64-6.08-6.64-14.82,0-8.86,2.76-14.79,6.86-14.74,3.85.04,6.62,6.37,6.59,15.02-.04,8.5-2.87,14.55-6.81,14.54"/>
      <path class="cls-3" d="m640.6,146.35c0,8.64-2.76,14.62-6.73,14.61-4.01-.01-6.7-6.11-6.67-15.16.02-8.51,2.83-14.44,6.83-14.41,3.88.04,6.59,6.18,6.58,14.95"/>
      <path class="cls-3" d="m656.25,160.96c-3.92-.02-6.62-6.1-6.62-14.87,0-8.83,2.78-14.75,6.88-14.69,3.84.05,6.61,6.4,6.57,15.07-.04,8.49-2.88,14.52-6.83,14.49"/>
      <path class="cls-3" d="m685.47,146.17c0,8.74-2.72,14.78-6.65,14.8-4.06.01-6.77-5.98-6.76-14.97.01-8.63,2.77-14.6,6.74-14.59,3.95.01,6.66,6.03,6.67,14.76"/>
      <path class="cls-3" d="m701.09,160.96c-3.89-.03-6.6-6.16-6.59-14.92,0-8.79,2.8-14.7,6.91-14.64,3.75.06,6.53,6.31,6.54,14.71,0,8.75-2.82,14.88-6.86,14.84"/>
      <path class="cls-3" d="m701.09,259.73c-3.89-.03-6.6-6.16-6.59-14.92,0-8.79,2.8-14.7,6.91-14.64,3.75.06,6.53,6.31,6.54,14.71,0,8.75-2.82,14.88-6.86,14.84"/>
      <path class="cls-3" d="m730.33,146.24c0,8.72-2.72,14.72-6.68,14.72-4.04,0-6.74-6.03-6.72-15.04.02-8.57,2.8-14.54,6.78-14.52,3.92.02,6.63,6.09,6.63,14.84"/>
      <path class="cls-3" d="m746.08,160.96c-3.97,0-6.72-5.97-6.73-14.63,0-8.97,2.71-14.95,6.78-14.93,3.88.02,6.68,6.25,6.67,14.83,0,8.55-2.83,14.72-6.72,14.72"/>
      <path class="cls-3" d="m768.55,160.96c-3.97.02-6.74-5.95-6.76-14.56-.01-9,2.69-15.01,6.74-15,3.95.01,6.66,6.03,6.66,14.76,0,8.74-2.72,14.78-6.65,14.8"/>
      <path class="cls-3" d="m791,160.96c-3.98.02-6.76-5.95-6.78-14.52-.02-9.01,2.68-15.05,6.72-15.04,3.9,0,6.72,6.17,6.72,14.72,0,8.59-2.79,14.82-6.67,14.84"/>
      <path class="cls-3" d="m813.49,161.01c-3.98.02-6.76-5.95-6.78-14.52-.02-9.01,2.68-15.05,6.72-15.04,3.9,0,6.72,6.17,6.72,14.72,0,8.59-2.79,14.82-6.67,14.84"/>
      <path class="cls-3" d="m880.74,160.96c-3.98.03-6.77-5.92-6.79-14.48-.02-9.03,2.67-15.08,6.71-15.08s6.72,6.14,6.74,14.69c.01,8.6-2.78,14.85-6.66,14.87"/>
      <path class="cls-3" d="m903.03,160.96c-3.93-.02-6.65-6.07-6.65-14.8,0-8.87,2.76-14.8,6.85-14.76,3.87.04,6.57,6.21,6.55,15.01-.01,8.6-2.79,14.57-6.76,14.55"/>
      <path class="cls-3" d="m925.51,160.96c-3.96,0-6.69-5.99-6.7-14.69,0-8.95,2.72-14.9,6.8-14.87,3.87.03,6.67,6.29,6.65,14.89-.02,8.54-2.84,14.67-6.75,14.67"/>
      <path class="cls-3" d="m954.65,146.24c0,8.72-2.72,14.72-6.68,14.72-4.04,0-6.74-6.03-6.72-15.04.02-8.57,2.8-14.54,6.78-14.52,3.92.02,6.63,6.09,6.63,14.84"/>
      <path class="cls-3" d="m970.36,160.96c-3.96,0-6.67-6.01-6.68-14.73,0-8.92,2.73-14.86,6.82-14.82,3.86.03,6.65,6.32,6.62,14.94-.02,8.53-2.85,14.62-6.77,14.62"/>
      <path class="cls-3" d="m970.36,111.4c-3.96,0-6.67-6.01-6.68-14.73,0-8.92,2.73-14.86,6.82-14.82,3.86.03,6.65,6.32,6.62,14.94-.02,8.53-2.85,14.62-6.77,14.62"/>
      <path class="cls-3" d="m999.52,145.99c.01,8.78-2.69,14.94-6.57,14.98-4.09.04-6.84-5.9-6.84-14.79s2.72-14.76,6.66-14.77c3.97-.01,6.73,5.95,6.74,14.58"/>
      <path class="cls-3" d="m999.52,195.44c.01,8.78-2.69,14.94-6.57,14.98-4.09.04-6.84-5.9-6.84-14.79s2.72-14.76,6.66-14.77c3.97-.01,6.73,5.95,6.74,14.58"/>
      <path class="cls-3" d="m1015.33,160.96c-3.98.03-6.77-5.92-6.79-14.48-.02-9.03,2.67-15.08,6.71-15.08s6.72,6.14,6.74,14.69c.01,8.6-2.78,14.85-6.66,14.87"/>
      <path class="cls-3" d="m1044.38,146.26c0,8.71-2.73,14.7-6.69,14.71-4.04,0-6.73-6.04-6.72-15.06.02-8.56,2.8-14.53,6.78-14.5,3.92.02,6.63,6.1,6.62,14.85"/>
      <path class="cls-3" d="m1060.04,160.96c-3.92-.02-6.63-6.09-6.63-14.84,0-8.85,2.77-14.77,6.87-14.72,3.85.05,6.62,6.39,6.58,15.04-.04,8.5-2.88,14.54-6.82,14.52"/>
      <path class="cls-3" d="m1082.53,131.4c3.96,0,6.71,5.99,6.72,14.65,0,8.96-2.71,14.94-6.78,14.91-3.92-.02-6.63-6.1-6.62-14.85,0-8.71,2.73-14.7,6.69-14.71"/>
      <path class="cls-3" d="m1105.03,160.96c-3.97.01-6.74-5.95-6.76-14.56-.01-9,2.69-15.01,6.75-15,3.89.01,6.7,6.2,6.7,14.77,0,8.57-2.81,14.78-6.69,14.79"/>
      <path class="cls-3" d="m1127.46,160.96c-3.97.02-6.74-5.95-6.76-14.56-.01-9,2.69-15.01,6.74-15,3.95.01,6.66,6.03,6.66,14.76,0,8.74-2.72,14.78-6.65,14.8"/>
      <path class="cls-3" d="m1149.89,160.96c-3.97.01-6.74-5.95-6.76-14.56-.01-9.01,2.69-15.01,6.74-15,3.89.01,6.7,6.2,6.7,14.77,0,8.57-2.81,14.78-6.69,14.79"/>
      <path class="cls-3" d="m1261.94,160.96c-3.93-.02-6.64-6.07-6.64-14.81,0-8.86,2.76-14.8,6.86-14.75,3.87.04,6.56,6.21,6.55,15.02-.01,8.59-2.79,14.56-6.76,14.54"/>
      <path class="cls-3" d="m180.79,171.12c-.03,8.49-2.91,14.68-6.79,14.61-3.98-.07-6.76-6.39-6.7-15.22.06-8.57,2.97-14.48,7.07-14.37,3.69.1,6.45,6.54,6.42,14.99"/>
      <path class="cls-3" d="m196.56,156.14c3.92.02,6.62,6.11,6.62,14.87,0,8.58-2.81,14.78-6.7,14.78-3.94,0-6.8-6.4-6.75-15.16.04-8.49,2.88-14.52,6.83-14.49"/>
      <path class="cls-3" d="m225.65,171.12c-.03,8.49-2.91,14.68-6.79,14.61-3.98-.07-6.76-6.39-6.7-15.22.06-8.57,2.97-14.48,7.07-14.37,3.69.1,6.45,6.54,6.42,14.99"/>
      <path class="cls-3" d="m241.38,156.14c3.94.01,6.66,6.04,6.66,14.77,0,8.62-2.78,14.84-6.65,14.88-3.95.04-6.83-6.33-6.79-15.06.03-8.52,2.86-14.6,6.79-14.59"/>
      <path class="cls-3" d="m264.02,156.14c3.74.07,6.51,6.37,6.5,14.8,0,8.71-2.89,14.9-6.89,14.78-3.87-.12-6.63-6.4-6.6-15.03.03-8.64,2.91-14.63,6.99-14.55"/>
      <path class="cls-3" d="m292.91,170.8c0,8.67-2.75,14.92-6.6,14.99-3.97.08-6.86-6.24-6.85-14.96.01-8.54,2.83-14.69,6.74-14.7,3.96,0,6.7,5.99,6.71,14.66"/>
      <path class="cls-3" d="m382.64,170.8c0,8.67-2.75,14.92-6.6,14.99-3.97.08-6.86-6.24-6.85-14.96.01-8.54,2.83-14.69,6.74-14.7,3.96,0,6.7,5.99,6.71,14.66"/>
      <path class="cls-3" d="m360.2,170.8c0,8.67-2.75,14.92-6.6,14.99-3.97.08-6.86-6.24-6.85-14.96.01-8.54,2.83-14.69,6.74-14.7,3.96,0,6.7,5.99,6.71,14.66"/>
      <path class="cls-3" d="m398.34,185.74c-3.99-.07-6.78-6.37-6.72-15.18.06-8.57,2.96-14.52,7.05-14.42,3.7.09,6.46,6.5,6.44,14.94-.02,8.5-2.9,14.72-6.77,14.66"/>
      <path class="cls-3" d="m427.5,171.07c0,8.56-2.83,14.74-6.73,14.72-3.86-.02-6.71-6.3-6.72-14.81,0-8.75,2.82-14.87,6.86-14.84,3.89.03,6.6,6.17,6.59,14.93"/>
      <path class="cls-3" d="m443.21,156.14c3.92,0,6.74,6.1,6.77,14.63.02,8.57-2.81,14.98-6.63,14.99-4.02.01-6.87-6.18-6.86-14.9,0-8.55,2.83-14.72,6.72-14.72"/>
      <path class="cls-3" d="m465.65,156.14c3.96,0,6.71,5.99,6.72,14.65,0,8.85-2.8,15.07-6.78,15.01-3.84-.05-6.68-6.42-6.67-14.94.01-8.54,2.83-14.71,6.73-14.71"/>
      <path class="cls-3" d="m494.84,170.79c.02,8.55-2.82,14.96-6.64,14.97-4.02,0-6.86-6.19-6.85-14.92.01-8.4,2.79-14.65,6.55-14.7,4.06-.06,6.92,5.98,6.94,14.66"/>
      <path class="cls-3" d="m577.75,156.14c3.94-.02,6.77,6.03,6.81,14.53.04,8.58-2.79,15.06-6.58,15.1-4.02.04-6.9-6.13-6.91-14.8,0-8.59,2.8-14.81,6.68-14.83"/>
      <path class="cls-3" d="m606.96,171.11c-.01,8.54-2.85,14.71-6.74,14.68-3.86-.03-6.7-6.34-6.7-14.86,0-8.73,2.84-14.83,6.88-14.8,3.88.04,6.58,6.19,6.57,14.98"/>
      <path class="cls-3" d="m622.69,185.74c-3.99-.05-6.79-6.34-6.75-15.13.05-8.47,2.89-14.5,6.84-14.47,3.87.02,6.67,6.28,6.65,14.88-.02,8.52-2.88,14.77-6.74,14.72"/>
      <path class="cls-3" d="m651.82,170.95c0,8.6-2.8,14.81-6.67,14.84-3.86.02-6.75-6.24-6.78-14.7-.03-8.78,2.79-14.97,6.81-14.95,3.93.02,6.64,6.08,6.64,14.81"/>
      <path class="cls-3" d="m674.29,171.23c-.05,8.47-2.93,14.58-6.84,14.49-3.97-.1-6.72-6.45-6.64-15.33.08-8.55,2.99-14.39,7.12-14.26,3.67.12,6.41,6.64,6.37,15.1"/>
      <path class="cls-3" d="m696.92,171.27c-.05,8.47-2.93,14.58-6.84,14.49-3.97-.1-6.72-6.45-6.64-15.33.08-8.55,2.99-14.39,7.12-14.26,3.67.12,6.41,6.64,6.37,15.1"/>
      <path class="cls-3" d="m741.55,170.76c0,8.86-2.79,15.09-6.77,15.03-3.84-.05-6.68-6.39-6.68-14.91,0-8.55,2.82-14.73,6.72-14.74,3.97,0,6.72,5.97,6.73,14.62"/>
      <path class="cls-3" d="m719.14,170.76c0,8.86-2.79,15.09-6.77,15.03-3.85-.05-6.68-6.39-6.68-14.91,0-8.55,2.82-14.73,6.72-14.74,3.97,0,6.72,5.97,6.73,14.62"/>
      <path class="cls-3" d="m757.3,156.14c3.9,0,6.71,6.18,6.72,14.74,0,8.56-2.83,14.89-6.68,14.88-4.01-.01-6.84-6.25-6.81-15,.02-8.53,2.85-14.62,6.77-14.62"/>
      <path class="cls-3" d="m786.41,170.76c0,8.86-2.79,15.09-6.77,15.03-3.84-.05-6.68-6.39-6.68-14.91,0-8.55,2.82-14.73,6.72-14.74,3.97,0,6.72,5.97,6.73,14.62"/>
      <path class="cls-3" d="m802.2,185.75c-4-.02-6.83-6.26-6.8-15.02.03-8.52,2.86-14.61,6.78-14.6,3.89.01,6.71,6.2,6.71,14.76,0,8.56-2.84,14.87-6.69,14.86"/>
      <path class="cls-3" d="m869.35,156.14c3.98-.02,6.77,5.93,6.79,14.49.02,8.91-2.75,15.17-6.71,15.16-3.86,0-6.72-6.28-6.73-14.79-.01-8.6,2.79-14.84,6.66-14.86"/>
      <path class="cls-3" d="m891.86,156.14c3.91,0,6.73,6.12,6.75,14.66.02,8.55-2.82,14.95-6.64,14.96-4.01,0-6.86-6.2-6.85-14.92.01-8.55,2.83-14.69,6.74-14.7"/>
      <path class="cls-3" d="m914.37,156.14c3.93.02,6.64,6.08,6.64,14.83,0,8.59-2.8,14.81-6.68,14.82-3.95.02-6.81-6.37-6.77-15.12.04-8.51,2.87-14.55,6.81-14.53"/>
      <path class="cls-3" d="m936.71,156.14c3.92,0,6.75,6.09,6.77,14.62.02,8.58-2.81,14.99-6.62,15.01-4.02.02-6.87-6.17-6.86-14.89,0-8.55,2.82-14.73,6.72-14.74"/>
      <path class="cls-3" d="m981.57,185.74c-3.99-.07-6.77-6.38-6.71-15.2.06-8.57,2.96-14.5,7.06-14.4,3.7.09,6.46,6.51,6.43,14.95-.03,8.49-2.9,14.71-6.78,14.65"/>
      <path class="cls-3" d="m1010.73,170.91c0,8.62-2.78,14.84-6.65,14.88-3.95.04-6.82-6.33-6.79-15.07.03-8.52,2.86-14.59,6.79-14.58,3.94.01,6.66,6.04,6.66,14.78"/>
      <path class="cls-3" d="m1026.44,156.14c3.92,0,6.74,6.1,6.77,14.63.02,8.57-2.81,14.98-6.63,14.99-4.02.01-6.87-6.18-6.86-14.9,0-8.55,2.83-14.72,6.72-14.72"/>
      <path class="cls-3" d="m1048.82,156.14c3.98-.02,6.76,5.95,6.77,14.53.01,8.9-2.76,15.14-6.73,15.12-3.86-.02-6.71-6.31-6.72-14.82,0-8.59,2.79-14.81,6.68-14.83"/>
      <path class="cls-3" d="m1071.31,156.14c3.92,0,6.74,6.12,6.76,14.65.02,8.56-2.82,14.97-6.64,14.97-4.02.01-6.86-6.19-6.85-14.91.01-8.55,2.83-14.7,6.73-14.71"/>
      <path class="cls-3" d="m1100.46,170.83c0,8.66-2.75,14.9-6.62,14.96-3.96.07-6.85-6.27-6.83-14.99.02-8.54,2.84-14.67,6.75-14.67,3.96,0,6.69,5.99,6.7,14.69"/>
      <path class="cls-3" d="m1116.28,156.14c3.88.02,6.67,6.27,6.66,14.87-.01,8.53-2.87,14.78-6.74,14.73-3.99-.04-6.8-6.33-6.75-15.12.04-8.48,2.89-14.51,6.83-14.49"/>
      <path class="cls-3" d="m1138.59,156.14c3.97,0,6.72,5.97,6.73,14.62,0,8.87-2.79,15.09-6.77,15.03-3.84-.05-6.68-6.39-6.68-14.91,0-8.55,2.82-14.73,6.72-14.74"/>
      <path class="cls-3" d="m1167.8,170.67c.04,8.58-2.79,15.06-6.59,15.09-4.02.04-6.9-6.13-6.9-14.81,0-8.43,2.76-14.75,6.49-14.82,4.08-.08,6.96,5.91,7,14.54"/>
      <path class="cls-3" d="m1212.67,170.67c.04,8.58-2.79,15.06-6.59,15.09-4.02.04-6.9-6.13-6.9-14.81,0-8.43,2.76-14.75,6.49-14.82,4.08-.08,6.96,5.91,7,14.54"/>
      <path class="cls-3" d="m1235.07,170.67c.04,8.58-2.79,15.06-6.59,15.09-4.02.04-6.9-6.13-6.9-14.81,0-8.43,2.76-14.75,6.49-14.82,4.08-.08,6.96,5.91,7,14.54"/>
      <path class="cls-3" d="m1257.48,170.67c.04,8.58-2.79,15.06-6.59,15.09-4.02.04-6.9-6.13-6.9-14.81,0-8.43,2.76-14.75,6.49-14.82,4.08-.08,6.96,5.91,7,14.54"/>
      <path class="cls-3" d="m156.13,195.8c0-8.77,2.7-14.9,6.59-14.93,3.99-.03,6.87,6.16,6.89,14.84.02,8.3-2.94,14.79-6.76,14.81-3.89.02-6.72-6.16-6.73-14.72"/>
      <path class="cls-3" d="m178.56,195.7c0-8.75,2.71-14.81,6.63-14.83,4.07-.02,6.78,5.97,6.77,14.94,0,8.56-2.83,14.73-6.73,14.71-3.88-.02-6.67-6.23-6.68-14.82"/>
      <path class="cls-3" d="m207.78,180.87c3.84.02,6.68,6.32,6.7,14.87.01,8.29-2.96,14.78-6.77,14.78-3.96.01-6.73-6.25-6.71-15.16.02-8.56,2.81-14.52,6.79-14.49"/>
      <path class="cls-3" d="m223.42,195.69c0-8.74,2.72-14.8,6.64-14.81,4.07-.02,6.77,5.97,6.77,14.95-.01,8.55-2.84,14.72-6.73,14.7-3.88-.02-6.67-6.24-6.67-14.84"/>
      <path class="cls-3" d="m245.85,195.67c0-8.74,2.72-14.79,6.65-14.8,3.96-.02,6.85,6.3,6.84,14.97,0,8.27-3,14.71-6.82,14.68-3.88-.03-6.67-6.24-6.67-14.85"/>
      <path class="cls-3" d="m281.69,195.85c-.01,8.54-2.85,14.7-6.75,14.67-3.94-.03-6.68-6.34-6.66-15.28.02-8.49,2.85-14.42,6.84-14.37,3.88.04,6.58,6.19,6.56,14.98"/>
      <path class="cls-3" d="m358.01,195.45c.01-8.63,2.77-14.6,6.74-14.58,4,.01,6.69,6.13,6.66,15.18-.02,8.46-2.91,14.57-6.84,14.47-3.84-.1-6.58-6.37-6.57-15.07"/>
      <path class="cls-3" d="m380.45,195.85c-.01-8.79,2.69-14.94,6.57-14.98,4.01-.04,6.88,6.11,6.91,14.79.03,8.3-2.93,14.82-6.73,14.86-3.9.03-6.74-6.13-6.75-14.67"/>
      <path class="cls-3" d="m409.58,180.87c3.96,0,6.7,5.99,6.7,14.67,0,8.84-2.81,15.05-6.79,14.98-3.86-.07-6.62-6.3-6.61-14.97,0-8.7,2.74-14.68,6.7-14.68"/>
      <path class="cls-3" d="m432.09,180.87c3.85.02,6.68,6.31,6.7,14.85.02,8.3-2.95,14.79-6.76,14.8-3.97.02-6.74-6.23-6.72-15.14.02-8.57,2.8-14.53,6.78-14.51"/>
      <path class="cls-3" d="m461.15,195.54c0,8.66-2.75,14.91-6.6,14.98-3.99.08-6.81-6.13-6.8-14.97,0-8.7,2.74-14.69,6.7-14.69s6.7,5.99,6.71,14.67"/>
      <path class="cls-3" d="m470.17,195.56c0-8.7,2.74-14.69,6.7-14.69s6.84,6.46,6.79,15.08c-.04,8.23-3.06,14.64-6.88,14.57-3.86-.06-6.62-6.3-6.62-14.97"/>
      <path class="cls-3" d="m611.58,210.52c-3.83.08-6.76-5.99-6.81-14.12-.05-9.15,2.59-15.48,6.51-15.53,4.05-.06,6.91,5.95,6.97,14.65.06,8.37-2.85,14.92-6.66,15"/>
      <path class="cls-3" d="m627.2,195.75c0-8.76,2.7-14.86,6.61-14.88,4.08-.03,6.8,5.93,6.79,14.89,0,8.58-2.82,14.77-6.7,14.77-3.89,0-6.7-6.19-6.7-14.77"/>
      <path class="cls-3" d="m649.63,195.67c0-8.74,2.72-14.78,6.65-14.8,3.96-.02,6.85,6.31,6.84,14.97-.01,8.27-3.01,14.71-6.82,14.68-3.88-.03-6.67-6.24-6.67-14.86"/>
      <path class="cls-3" d="m672.02,195.67c0-8.74,2.72-14.78,6.65-14.8,3.96-.02,6.85,6.31,6.84,14.97-.01,8.27-3.01,14.71-6.82,14.68-3.88-.03-6.67-6.24-6.67-14.86"/>
      <path class="cls-3" d="m716.93,195.57c0-8.71,2.73-14.7,6.69-14.7,4.04,0,6.73,6.05,6.71,15.07-.02,8.51-2.87,14.65-6.79,14.58-3.86-.06-6.62-6.29-6.62-14.95"/>
      <path class="cls-3" d="m739.36,195.67c0-8.74,2.72-14.79,6.65-14.8,3.96-.01,6.85,6.31,6.84,14.97-.01,8.27-3,14.71-6.82,14.68-3.88-.03-6.67-6.24-6.67-14.85"/>
      <path class="cls-3" d="m775.2,195.54c0,8.66-2.75,14.91-6.61,14.98-3.99.07-6.8-6.14-6.8-14.97,0-8.69,2.74-14.68,6.7-14.68s6.7,5.99,6.7,14.68"/>
      <path class="cls-3" d="m784.22,195.47c0-8.65,2.76-14.61,6.74-14.6,3.91.01,6.82,6.52,6.76,15.16-.06,8.22-3.09,14.58-6.92,14.49-3.85-.09-6.59-6.35-6.58-15.05"/>
      <path class="cls-3" d="m805.57,195.47c.01-8.65,2.76-14.61,6.74-14.6,3.91.01,6.82,6.52,6.76,15.16-.06,8.22-3.09,14.58-6.92,14.49-3.85-.09-6.59-6.35-6.58-15.05"/>
      <path class="cls-3" d="m873.95,195.79c0-8.77,2.7-14.89,6.6-14.92,3.99-.03,6.87,6.18,6.89,14.86.02,8.29-2.95,14.78-6.77,14.8-3.89.01-6.71-6.17-6.72-14.74"/>
      <path class="cls-3" d="m903.07,180.87c3.96,0,6.71,5.98,6.72,14.64,0,8.86-2.8,15.07-6.78,15.02-3.87-.05-6.63-6.28-6.63-14.93,0-8.72,2.72-14.72,6.68-14.72"/>
      <path class="cls-3" d="m918.81,195.44c.01-8.62,2.78-14.59,6.75-14.58,3.86.01,6.7,6.24,6.73,14.79.03,8.47-2.99,14.97-6.91,14.87-3.84-.1-6.58-6.38-6.57-15.08"/>
      <path class="cls-3" d="m941.25,195.68c0-8.74,2.72-14.8,6.64-14.81,4.06-.02,6.77,5.97,6.76,14.96-.01,8.55-2.84,14.72-6.74,14.7-3.88-.03-6.67-6.24-6.67-14.84"/>
      <path class="cls-3" d="m1008.54,195.75c0-8.77,2.7-14.86,6.61-14.88,3.98-.03,6.86,6.22,6.87,14.89,0,8.29-2.97,14.76-6.78,14.76s-6.7-6.19-6.7-14.77"/>
      <path class="cls-3" d="m1037.69,180.87c3.96,0,6.69,5.99,6.69,14.7,0,8.66-2.76,14.89-6.62,14.95-3.98.06-6.79-6.15-6.78-15,0-8.66,2.75-14.66,6.71-14.65"/>
      <path class="cls-3" d="m1053.41,195.79c0-8.77,2.7-14.89,6.6-14.92,3.99-.03,6.87,6.18,6.89,14.86.02,8.29-2.95,14.78-6.77,14.8-3.89.01-6.71-6.17-6.72-14.74"/>
      <path class="cls-3" d="m1089.24,195.47c.01,8.87-2.79,15.1-6.76,15.05-3.87-.04-6.65-6.27-6.64-14.9,0-8.73,2.72-14.74,6.67-14.75,3.97-.01,6.73,5.96,6.74,14.6"/>
      <path class="cls-3" d="m1098.27,195.67c0-8.74,2.72-14.79,6.65-14.8,3.96-.01,6.85,6.31,6.84,14.97-.01,8.27-3,14.71-6.82,14.68-3.88-.03-6.67-6.24-6.67-14.85"/>
      <path class="cls-3" d="m1134.11,195.56c0,8.66-2.75,14.9-6.61,14.96-3.98.07-6.8-6.14-6.79-14.99,0-8.68,2.75-14.67,6.71-14.67,3.96,0,6.69,5.99,6.7,14.69"/>
      <path class="cls-3" d="m1149.91,180.87c3.85.02,6.69,6.29,6.71,14.83.02,8.3-2.94,14.8-6.75,14.82-3.97.02-6.74-6.22-6.73-15.13.01-8.58,2.8-14.55,6.77-14.53"/>
      <path class="cls-3" d="m1172.23,180.87c3.97-.01,6.73,5.96,6.74,14.6.01,8.87-2.78,15.1-6.76,15.05-3.87-.04-6.65-6.26-6.65-14.89,0-8.73,2.72-14.75,6.67-14.76"/>
      <path class="cls-3" d="m1172.23,131.36c3.97-.01,6.73,5.96,6.74,14.6.01,8.88-2.78,15.1-6.76,15.06-3.87-.04-6.65-6.26-6.65-14.89,0-8.73,2.72-14.75,6.67-14.76"/>
      <path class="cls-3" d="m1188,195.65c0-8.74,2.72-14.77,6.66-14.78,3.96-.01,6.85,6.34,6.83,14.99-.02,8.26-3.02,14.69-6.83,14.66-3.88-.03-6.66-6.25-6.66-14.88"/>
      <path class="cls-3" d="m1223.84,195.47c.01,8.87-2.79,15.1-6.76,15.05-3.87-.04-6.65-6.27-6.64-14.9,0-8.73,2.72-14.74,6.67-14.75,3.97-.01,6.73,5.96,6.74,14.6"/>
      <path class="cls-3" d="m1246.18,195.47c.01,8.87-2.79,15.1-6.76,15.05-3.87-.04-6.65-6.27-6.64-14.9,0-8.73,2.72-14.74,6.67-14.75,3.97-.01,6.73,5.96,6.74,14.6"/>
      <path class="cls-3" d="m173.96,235.16c-3.88-.02-6.67-6.27-6.66-14.87.01-8.69,2.87-14.75,6.92-14.69,3.84.05,6.61,6.41,6.57,15.07-.04,8.48-2.89,14.52-6.83,14.49"/>
      <path class="cls-3" d="m196.49,205.6c3.96,0,6.69,5.99,6.69,14.7,0,8.94-2.72,14.89-6.81,14.86-3.87-.03-6.66-6.3-6.64-14.9.02-8.54,2.84-14.66,6.75-14.66"/>
      <path class="cls-3" d="m218.91,235.16c-3.91,0-6.73-6.14-6.74-14.69-.02-8.76,2.81-14.9,6.84-14.87,3.87.03,6.67,6.29,6.65,14.89-.02,8.54-2.84,14.67-6.75,14.67"/>
      <path class="cls-3" d="m241.32,235.16c-3.89,0-6.71-6.18-6.72-14.73,0-8.74,2.82-14.86,6.86-14.82,3.89.03,6.59,6.17,6.58,14.94,0,8.65-2.76,14.63-6.73,14.62"/>
      <path class="cls-3" d="m263.53,235.16c-3.74-.07-6.51-6.37-6.5-14.8,0-8.85,2.9-14.88,7.08-14.76,3.69.1,6.44,6.55,6.41,15.01-.03,8.64-2.91,14.63-6.99,14.55"/>
      <path class="cls-3" d="m292.91,220.29c0,8.76-2.7,14.84-6.62,14.87-4.03.03-6.85-6.13-6.83-14.9.02-8.54,2.84-14.66,6.75-14.66s6.69,5.99,6.7,14.69"/>
      <path class="cls-3" d="m1145.32,269.94c0,8.58-2.81,14.78-6.7,14.78-3.87,0-6.73-6.26-6.75-14.76-.02-8.76,2.81-14.92,6.83-14.9,3.91.02,6.62,6.11,6.61,14.88"/>
      <path class="cls-3" d="m1167.61,269.94c0,8.58-2.81,14.78-6.7,14.78-3.86,0-6.73-6.26-6.75-14.76-.02-8.76,2.81-14.92,6.83-14.9,3.91.02,6.62,6.11,6.61,14.88"/>
      <path class="cls-3" d="m375.69,235.16c-3.81-.07-6.57-6.52-6.5-15.21.07-8.56,2.97-14.46,7.08-14.35,3.75.1,6.41,6.55,6.37,15.42-.04,8.35-2.92,14.22-6.95,14.14"/>
      <path class="cls-3" d="m353.28,235.16c-3.81-.07-6.57-6.52-6.5-15.21.07-8.56,2.97-14.46,7.08-14.35,3.75.1,6.41,6.55,6.37,15.42-.04,8.35-2.92,14.22-6.95,14.14"/>
      <path class="cls-3" d="m398.26,235.16c-3.86-.03-6.66-6.31-6.64-14.92.02-8.67,2.88-14.7,6.95-14.64,3.75.05,6.53,6.31,6.54,14.71.01,8.75-2.82,14.88-6.85,14.85"/>
      <path class="cls-3" d="m420.89,235.16c-4.03.02-6.85-6.13-6.84-14.89.02-8.54,2.84-14.67,6.75-14.67s6.7,5.99,6.7,14.68c0,8.76-2.7,14.85-6.61,14.88"/>
      <path class="cls-3" d="m443.24,235.16c-3.92,0-6.74-6.11-6.76-14.65-.02-8.77,2.8-14.93,6.83-14.91,3.88.02,6.68,6.26,6.67,14.85-.01,8.55-2.83,14.7-6.73,14.71"/>
      <path class="cls-3" d="m472.36,220.18c.01,8.79-2.69,14.94-6.57,14.98-4.04.04-6.88-6.06-6.88-14.79,0-8.56,2.81-14.76,6.7-14.77,3.98-.01,6.74,5.95,6.75,14.58"/>
      <path class="cls-3" d="m488.14,235.16c-3.93.01-6.76-6.07-6.79-14.58-.03-8.78,2.79-14.99,6.8-14.98,3.89.01,6.7,6.22,6.69,14.79,0,8.56-2.81,14.76-6.7,14.77"/>
      <path class="cls-3" d="m1116.26,255.07c3.88.02,6.69,6.24,6.68,14.83,0,8.55-2.86,14.82-6.72,14.78-4-.04-6.81-6.3-6.77-15.08.04-8.5,2.87-14.55,6.81-14.53"/>
      <path class="cls-3" d="m1093.82,255.07c3.93.02,6.65,6.07,6.64,14.81,0,8.6-2.79,14.81-6.67,14.84-3.95.02-6.81-6.36-6.78-15.11.04-8.5,2.87-14.56,6.81-14.55"/>
      <path class="cls-3" d="m1071.42,255.07c3.87.02,6.67,6.28,6.65,14.88-.02,8.52-2.88,14.78-6.74,14.72-3.99-.05-6.79-6.33-6.75-15.13.05-8.48,2.89-14.5,6.84-14.48"/>
      <path class="cls-3" d="m712.39,235.16c-3.9,0-6.71-6.17-6.72-14.72,0-8.75,2.82-14.87,6.86-14.83,3.86.03,6.65,6.31,6.63,14.93-.02,8.53-2.85,14.64-6.77,14.63"/>
      <path class="cls-3" d="m734.9,235.16c-3.93.01-6.77-6.05-6.8-14.56-.04-8.79,2.78-15.02,6.78-15,3.95.01,6.66,6.03,6.66,14.76,0,8.74-2.72,14.78-6.65,14.8"/>
      <path class="cls-3" d="m757.22,235.16c-3.89-.02-6.69-6.23-6.69-14.8,0-8.72,2.85-14.8,6.9-14.76,3.85.04,6.63,6.37,6.59,15.01-.03,8.5-2.87,14.57-6.8,14.55"/>
      <path class="cls-3" d="m786.41,220.39c0,8.74-2.72,14.76-6.66,14.78-4.01.01-6.82-6.2-6.79-14.99.03-8.51,2.86-14.58,6.79-14.57,3.94.01,6.65,6.05,6.65,14.79"/>
      <path class="cls-3" d="m802.19,235.16c-3.93.01-6.77-6.06-6.8-14.56-.03-8.79,2.78-15.01,6.79-15,3.89.01,6.7,6.2,6.7,14.77,0,8.57-2.81,14.78-6.69,14.79"/>
      <path class="cls-3" d="m869.47,235.16c-3.93.01-6.75-6.08-6.78-14.6-.03-8.78,2.79-14.98,6.8-14.96,3.93.01,6.65,6.06,6.65,14.8,0,8.73-2.72,14.75-6.67,14.76"/>
      <path class="cls-3" d="m891.85,235.16c-3.9,0-6.71-6.18-6.72-14.72,0-8.75,2.82-14.87,6.86-14.83,3.86.03,6.65,6.31,6.63,14.93-.02,8.53-2.85,14.64-6.77,14.63"/>
      <path class="cls-3" d="m914.26,235.16c-3.89-.01-6.7-6.21-6.7-14.77,0-8.73,2.84-14.83,6.88-14.79,3.88.04,6.58,6.19,6.57,14.98-.01,8.63-2.77,14.59-6.74,14.58"/>
      <path class="cls-3" d="m936.7,235.16c-3.89-.01-6.71-6.19-6.71-14.75,0-8.74,2.83-14.84,6.87-14.81,3.86.03,6.65,6.33,6.62,14.96-.03,8.52-2.85,14.61-6.78,14.6"/>
      <path class="cls-3" d="m959.25,205.6c3.91.02,6.62,6.11,6.61,14.87,0,8.82-2.78,14.74-6.89,14.69-3.84-.05-6.61-6.41-6.56-15.08.05-8.48,2.89-14.5,6.83-14.48"/>
      <path class="cls-3" d="m1026.37,235.16c-3.87-.02-6.67-6.28-6.66-14.88.02-8.68,2.87-14.74,6.93-14.68,3.84.05,6.61,6.41,6.56,15.08-.04,8.48-2.89,14.5-6.83,14.48"/>
      <path class="cls-3" d="m1055.6,220.39c0,8.73-2.72,14.76-6.66,14.77-4,.01-6.82-6.21-6.79-15,.03-8.5,2.87-14.58,6.8-14.56,3.94.01,6.65,6.05,6.65,14.79"/>
      <path class="cls-3" d="m1071.33,235.16c-3.91,0-6.73-6.13-6.75-14.67-.02-8.76,2.81-14.92,6.84-14.89,3.87.02,6.67,6.28,6.65,14.87-.01,8.54-2.83,14.69-6.74,14.69"/>
      <path class="cls-3" d="m1093.73,205.6c3.97,0,6.72,5.97,6.73,14.63,0,8.97-2.71,14.95-6.77,14.93-3.88-.02-6.68-6.25-6.67-14.83,0-8.55,2.83-14.72,6.72-14.72"/>
      <path class="cls-3" d="m1116.1,235.16c-3.87-.03-6.67-6.28-6.65-14.88.02-8.68,2.87-14.74,6.93-14.68,3.84.05,6.61,6.41,6.56,15.08-.05,8.48-2.89,14.5-6.84,14.48"/>
      <path class="cls-3" d="m1145.32,220.52c0,8.66-2.76,14.65-6.72,14.64-3.9,0-6.72-6.16-6.73-14.71-.01-8.75,2.82-14.88,6.85-14.85,3.9.03,6.6,6.15,6.6,14.92"/>
      <path class="cls-3" d="m1161.01,235.16c-3.89-.01-6.7-6.21-6.7-14.78,0-8.73,2.84-14.82,6.88-14.78,3.86.04,6.64,6.34,6.61,14.98-.03,8.52-2.86,14.59-6.79,14.58"/>
      <path class="cls-3" d="m1048.84,255.07c3.97-.01,6.74,5.95,6.75,14.57.01,8.88-2.78,15.12-6.75,15.08-3.86-.04-6.7-6.35-6.7-14.87,0-8.57,2.81-14.77,6.7-14.78"/>
      <path class="cls-3" d="m162.9,259.89c-3.98.02-6.76-5.95-6.77-14.53-.02-9.01,2.68-15.04,6.73-15.03,3.9,0,6.71,6.18,6.72,14.73,0,8.59-2.79,14.81-6.68,14.83"/>
      <path class="cls-3" d="m191.96,245.12c0,8.74-2.72,14.76-6.66,14.78-4.06.01-6.76-5.99-6.75-14.99.01-8.62,2.78-14.58,6.75-14.57,3.94.01,6.65,6.05,6.65,14.78"/>
      <path class="cls-3" d="m207.76,230.33c3.88.02,6.68,6.24,6.68,14.83,0,8.71-2.86,14.78-6.91,14.73-3.87-.04-6.56-6.23-6.54-15.03.02-8.58,2.8-14.55,6.77-14.53"/>
      <path class="cls-3" d="m236.83,245.1c0,8.74-2.72,14.78-6.65,14.79-4.06.01-6.77-5.98-6.75-14.98.01-8.63,2.77-14.6,6.74-14.58,3.94.01,6.66,6.04,6.66,14.77"/>
      <path class="cls-3" d="m252.52,259.89c-3.95-.01-6.66-6.03-6.67-14.76,0-8.89,2.74-14.84,6.84-14.8,3.86.03,6.64,6.34,6.61,14.97-.03,8.52-2.86,14.6-6.78,14.59"/>
      <path class="cls-3" d="m275.1,230.33c3.89.03,6.6,6.16,6.59,14.92,0,8.79-2.8,14.7-6.91,14.64-3.84-.06-6.52-6.3-6.5-15.12.02-8.53,2.82-14.47,6.81-14.44"/>
      <path class="cls-3" d="m1026.45,284.67c-3.99-.05-6.79-6.35-6.74-15.15.05-8.46,2.9-14.48,6.85-14.45,3.87.03,6.66,6.3,6.64,14.91-.02,8.51-2.89,14.75-6.75,14.7"/>
      <path class="cls-3" d="m364.61,259.89c-3.89-.03-6.6-6.16-6.59-14.92,0-8.79,2.8-14.7,6.91-14.64,3.84.06,6.52,6.3,6.5,15.12-.02,8.53-2.82,14.47-6.81,14.44"/>
      <path class="cls-3" d="m387.24,230.33c3.87.02,6.67,6.28,6.65,14.88-.01,8.68-2.87,14.74-6.93,14.68-3.85-.05-6.54-6.27-6.52-15.08.02-8.56,2.81-14.5,6.79-14.48"/>
      <path class="cls-3" d="m409.54,259.89c-3.94-.01-6.66-6.04-6.66-14.77s2.75-14.83,6.84-14.79c3.88.04,6.58,6.19,6.57,14.98-.01,8.63-2.77,14.59-6.75,14.58"/>
      <path class="cls-3" d="m432.08,230.33c3.88.02,6.68,6.24,6.68,14.83,0,8.71-2.86,14.78-6.91,14.73-3.87-.04-6.56-6.23-6.54-15.03.02-8.58,2.8-14.55,6.77-14.53"/>
      <path class="cls-3" d="m461.15,245.08c0,8.74-2.72,14.79-6.64,14.81-4.06.02-6.77-5.97-6.76-14.95.01-8.64,2.76-14.61,6.74-14.6,3.95.01,6.67,6.02,6.67,14.75"/>
      <path class="cls-3" d="m476.97,230.33c3.87.03,6.67,6.28,6.65,14.88-.02,8.68-2.87,14.73-6.93,14.68-3.85-.05-6.54-6.27-6.52-15.09.02-8.55,2.81-14.5,6.79-14.47"/>
      <path class="cls-3" d="m936.78,255.07c3.89.01,6.7,6.21,6.7,14.78,0,8.56-2.84,14.86-6.7,14.83-4-.02-6.83-6.26-6.79-15.03.03-8.52,2.86-14.59,6.79-14.58"/>
      <path class="cls-3" d="m959.26,255.07c3.89.01,6.7,6.21,6.7,14.78,0,8.56-2.84,14.86-6.7,14.83-4-.02-6.82-6.26-6.79-15.03.03-8.52,2.86-14.59,6.79-14.58"/>
      <path class="cls-3" d="m730.33,245.47c-.02,8.52-2.82,14.46-6.82,14.43-3.96-.03-6.63-6.25-6.59-15.34.04-8.39,2.9-14.28,6.91-14.22,3.84.06,6.52,6.3,6.49,15.14"/>
      <path class="cls-3" d="m746.02,259.89c-3.95-.01-6.66-6.03-6.66-14.76,0-8.9,2.74-14.84,6.84-14.8,3.86.03,6.64,6.34,6.61,14.97-.03,8.52-2.86,14.6-6.78,14.59"/>
      <path class="cls-3" d="m768.48,259.89c-3.96,0-6.69-5.99-6.69-14.7,0-8.94,2.72-14.89,6.81-14.86,3.9.03,6.61,6.14,6.6,14.9,0,8.67-2.75,14.66-6.71,14.66"/>
      <path class="cls-3" d="m790.94,259.89c-3.96,0-6.71-5.99-6.72-14.64,0-8.96,2.71-14.94,6.78-14.92,3.88.02,6.68,6.26,6.67,14.85-.01,8.55-2.83,14.71-6.73,14.71"/>
      <path class="cls-3" d="m813.43,259.89c-3.96,0-6.71-5.99-6.72-14.64,0-8.96,2.71-14.94,6.78-14.92,3.88.02,6.68,6.26,6.67,14.85-.01,8.55-2.83,14.71-6.73,14.71"/>
      <path class="cls-3" d="m914.26,255.07c3.97-.01,6.73,5.96,6.74,14.6.01,8.87-2.78,15.1-6.76,15.06-3.85-.04-6.69-6.37-6.69-14.89,0-8.56,2.81-14.75,6.71-14.76"/>
      <path class="cls-3" d="m891.83,255.07c3.93-.01,6.75,6.07,6.78,14.6.03,8.58-2.8,15.01-6.62,15.03-4.02.02-6.88-6.17-6.87-14.87,0-8.56,2.82-14.75,6.71-14.76"/>
      <path class="cls-3" d="m880.7,259.89c-3.97.01-6.74-5.96-6.75-14.58-.01-8.99,2.69-14.99,6.75-14.98,3.89.01,6.7,6.22,6.69,14.79,0,8.56-2.81,14.76-6.7,14.77"/>
      <path class="cls-3" d="m909.79,244.99c0,8.76-2.7,14.87-6.6,14.9-4.08.03-6.81-5.92-6.8-14.87,0-8.7,2.74-14.69,6.7-14.69,3.96,0,6.7,5.99,6.71,14.66"/>
      <path class="cls-3" d="m925.51,259.89c-3.96,0-6.69-5.99-6.69-14.7,0-8.94,2.72-14.89,6.81-14.86,3.87.03,6.66,6.3,6.64,14.9-.02,8.54-2.84,14.66-6.75,14.66"/>
      <path class="cls-3" d="m947.94,230.33c3.96,0,6.7,5.99,6.71,14.67,0,8.96-2.71,14.92-6.79,14.89-3.91-.02-6.62-6.11-6.61-14.87,0-8.7,2.74-14.69,6.7-14.69"/>
      <path class="cls-3" d="m876.14,269.9c0,8.59-2.8,14.8-6.68,14.81-3.86.02-6.74-6.25-6.77-14.72-.02-8.77,2.8-14.95,6.82-14.93,3.92.02,6.63,6.09,6.63,14.84"/>
      <path class="cls-3" d="m1037.62,230.33c3.97-.02,6.74,5.95,6.76,14.56.01,9-2.69,15.01-6.74,15-3.95-.01-6.66-6.03-6.66-14.76,0-8.74,2.72-14.78,6.65-14.8"/>
      <path class="cls-3" d="m1015.19,230.33c3.97-.02,6.74,5.95,6.76,14.56.01,9-2.69,15.01-6.74,15-3.95-.01-6.66-6.03-6.66-14.76,0-8.74,2.72-14.78,6.65-14.8"/>
      <path class="cls-3" d="m1060.05,259.89c-3.93-.02-6.64-6.08-6.64-14.82,0-8.86,2.76-14.79,6.86-14.74,3.85.04,6.62,6.37,6.59,15.02-.04,8.5-2.87,14.55-6.81,14.54"/>
      <path class="cls-3" d="m1089.24,245.08c0,8.74-2.72,14.79-6.64,14.81-4.07.02-6.77-5.97-6.76-14.96.01-8.64,2.76-14.61,6.74-14.6,3.95.01,6.67,6.02,6.67,14.75"/>
      <path class="cls-3" d="m1104.95,259.89c-3.96,0-6.68-6-6.68-14.72,0-8.92,2.73-14.87,6.82-14.83,3.86.03,6.65,6.31,6.63,14.93-.02,8.53-2.85,14.64-6.77,14.63"/>
      <path class="cls-3" d="m1134.11,245.07c0,8.74-2.71,14.81-6.64,14.82-4.07.02-6.78-5.97-6.77-14.94,0-8.65,2.76-14.63,6.73-14.62,3.96,0,6.67,6.01,6.68,14.73"/>
      <path class="cls-3" d="m1149.76,259.89c-3.92-.02-6.63-6.09-6.62-14.85,0-8.84,2.77-14.77,6.87-14.71,3.84.05,6.62,6.4,6.57,15.05-.04,8.49-2.88,14.53-6.82,14.5"/>
      <path class="cls-3" d="m1171.81,259.89c-3.92-.02-6.63-6.09-6.62-14.85,0-8.84,2.77-14.77,6.87-14.71,3.84.05,6.62,6.4,6.57,15.05-.04,8.49-2.88,14.53-6.82,14.5"/>
      <path class="cls-3" d="m158.32,269.82c0,8.63-2.77,14.85-6.65,14.9-3.96.04-6.83-6.32-6.8-15.05.03-8.52,2.85-14.61,6.78-14.6,3.95.01,6.67,6.03,6.67,14.76"/>
      <path class="cls-3" d="m174.04,284.67c-3.99-.05-6.79-6.34-6.74-15.14.05-8.47,2.9-14.49,6.84-14.46,3.87.03,6.67,6.29,6.65,14.89-.02,8.51-2.88,14.76-6.75,14.71"/>
      <path class="cls-3" d="m203.18,269.89c0,8.6-2.8,14.81-6.68,14.83-3.86.02-6.75-6.24-6.77-14.71-.02-8.78,2.79-14.96,6.81-14.94,3.93.02,6.64,6.08,6.64,14.82"/>
      <path class="cls-3" d="m225.65,270.17c-.05,8.47-2.94,14.58-6.84,14.48-3.97-.1-6.72-6.45-6.64-15.33.08-8.55,3-14.39,7.12-14.25,3.66.12,6.41,6.65,6.36,15.1"/>
      <path class="cls-3" d="m248.04,269.9c0,8.59-2.8,14.8-6.68,14.81-3.86.02-6.74-6.24-6.77-14.72-.02-8.77,2.8-14.95,6.82-14.93,3.92.02,6.63,6.09,6.63,14.84"/>
      <path class="cls-3" d="m263.82,255.07c3.89.01,6.7,6.21,6.7,14.78,0,8.56-2.84,14.86-6.7,14.83-4-.02-6.82-6.27-6.79-15.04.03-8.51,2.86-14.58,6.79-14.57"/>
      <path class="cls-3" d="m292.91,269.84c0,8.62-2.78,14.84-6.65,14.88-3.95.04-6.82-6.33-6.79-15.07.03-8.52,2.86-14.59,6.79-14.58,3.94.01,6.66,6.04,6.66,14.78"/>
      <path class="cls-3" d="m382.64,269.89c0,8.6-2.8,14.81-6.67,14.83-3.86.02-6.75-6.24-6.77-14.7-.03-8.78,2.79-14.97,6.81-14.95,3.93.02,6.64,6.08,6.64,14.82"/>
      <path class="cls-3" d="m360.23,269.92c0,8.6-2.8,14.81-6.67,14.83-3.87.02-6.75-6.24-6.77-14.7-.03-8.78,2.79-14.97,6.81-14.95,3.93.02,6.64,6.08,6.64,14.82"/>
      <path class="cls-3" d="m398.34,255.07c3.92,0,6.75,6.09,6.77,14.62.02,8.58-2.81,14.99-6.62,15.01-4.02.02-6.87-6.17-6.86-14.89,0-8.55,2.82-14.73,6.72-14.74"/>
      <path class="cls-3" d="m420.78,255.07c3.96,0,6.71,5.98,6.72,14.65,0,8.85-2.8,15.07-6.78,15.01-3.84-.06-6.68-6.42-6.67-14.94.01-8.55,2.83-14.71,6.73-14.71"/>
      <path class="cls-3" d="m449.97,269.92c-.01,8.54-2.87,14.79-6.73,14.75-3.99-.04-6.8-6.32-6.76-15.11.04-8.49,2.88-14.52,6.83-14.5,3.88.02,6.68,6.26,6.66,14.86"/>
      <path class="cls-3" d="m472.36,270.04c-.01,8.54-2.85,14.71-6.74,14.68-3.86-.03-6.7-6.34-6.7-14.86,0-8.73,2.84-14.83,6.88-14.8,3.88.04,6.58,6.19,6.57,14.98"/>
      <path class="cls-3" d="m488.09,255.07c3.91,0,6.73,6.13,6.75,14.67.02,8.55-2.83,14.95-6.65,14.95-4.01,0-6.86-6.2-6.84-14.93.01-8.54,2.83-14.69,6.74-14.69"/>
      <path class="cls-3" d="m712.35,255.07c3.94-.02,6.77,6.02,6.81,14.53.04,8.58-2.79,15.06-6.58,15.1-4.02.04-6.9-6.13-6.91-14.8,0-8.59,2.8-14.81,6.68-14.83"/>
      <path class="cls-3" d="m689.89,255.07c3.94-.02,6.77,6.02,6.81,14.53.04,8.58-2.79,15.06-6.58,15.1-4.02.04-6.9-6.13-6.91-14.8,0-8.59,2.8-14.81,6.68-14.83"/>
      <path class="cls-3" d="m734.92,255.07c3.92.02,6.63,6.09,6.63,14.84,0,8.59-2.81,14.8-6.68,14.81-3.95.01-6.8-6.38-6.76-15.14.04-8.5,2.88-14.54,6.82-14.52"/>
      <path class="cls-3" d="m757.35,255.07c3.88.02,6.68,6.25,6.67,14.84-.01,8.54-2.86,14.81-6.73,14.77-4-.04-6.81-6.31-6.77-15.09.04-8.5,2.88-14.54,6.82-14.52"/>
      <path class="cls-3" d="m779.64,255.07c3.98-.02,6.76,5.95,6.77,14.53.02,8.9-2.76,15.14-6.73,15.13-3.86-.02-6.71-6.31-6.72-14.82,0-8.59,2.79-14.81,6.68-14.83"/>
      <path class="cls-3" d="m802.13,284.67c-3.99-.06-6.78-6.36-6.73-15.16.05-8.58,2.96-14.54,7.04-14.44,3.71.09,6.47,6.48,6.45,14.92-.02,8.5-2.89,14.74-6.76,14.68"/>
      <path class="cls-3" d="m1190.19,170.86c0,8.64-2.76,14.87-6.62,14.93-3.96.06-6.84-6.28-6.82-15,.02-7.9,2.86-14.64,6.19-14.66,4.46-.02,7.26,5.65,7.26,14.72"/>
      <path class="cls-3" d="m353.54,136.23c-3.91.01-6.78-6.16-6.78-14.58,0-8.54,2.84-14.95,6.64-14.98,4.03-.03,6.86,6.09,6.85,14.83,0,8.54-2.82,14.72-6.71,14.73"/>
      <path class="cls-3" d="m499.37,230.33c3.72.01,6.64,6.14,6.65,13.94,0,9.32-2.7,15.61-6.7,15.61s-6.72-6.05-6.7-15.05c.02-8.56,2.8-14.53,6.76-14.51"/>
      <path class="cls-3" d="m555.41,106.67c3.95,0,6.68,6,6.68,14.69,0,8.93-2.72,14.89-6.79,14.87-3.36-.02-6.78-6.43-6.59-12.77.32-10.84,1.96-16.46,6.69-16.79"/>
      <path class="cls-3" d="m1235.05,71.95c0,7.71-2.81,14.79-5.87,14.81-4.59.03-7.56-5.71-7.58-14.64-.02-8.75,2.8-14.93,6.8-14.91,3.93.01,6.65,6.04,6.65,14.74"/>
      <path class="cls-3" d="m1257.55,71.95c0,7.71-2.81,14.79-5.87,14.81-4.59.03-7.56-5.71-7.58-14.64-.02-8.75,2.8-14.93,6.8-14.91,3.93.01,6.65,6.04,6.65,14.74"/>
      <path class="cls-3" d="m402.88-2.39c0-6.72,3.66-14.61,6.75-14.6,3.94.02,6.65,6.05,6.65,14.78s-2.78,14.83-6.65,14.88c-3.97.04-6.77-6.18-6.76-15.05"/>
      <path class="cls-3" d="m151.63,235.14c-2.29.46-4.07-1.89-5.44-5.73-1.26-3.55-1.79-7.48-.64-11.79.41-1.53.7-3.21,1.1-4.76,1.95-7.61,5.62-9.7,8.72-5.01,3.17,4.79,4.02,15.01,1.74,21.39-1.37,3.83-3.1,6.3-5.48,5.91"/>
    </g>
  </g>
</svg>