<?xml version="1.0" encoding="UTF-8"?>
<svg id="Layer_2" data-name="Layer 2" preserveAspectRatio="none" xmlns="http://www.w3.org/2000/svg"  xmlns:xlink="http://www.w3.org/1999/xlink" viewBox="0 0 1280 266.67">
  <defs>
    <style>
      .cls-1 {
        stroke: #ff15eb;
        stroke-miterlimit: 10;
        stroke-width: 3px;
      }

      .cls-1, .cls-2 {
        fill: none;
      }

      .cls-3 {
        clip-path: url(#clippath);
      }

      .cls-2 {
        stroke-width: 0px;
      }
    </style>
    <clipPath id="clippath">
      <rect class="cls-2" width="1280" height="266.67"/>
    </clipPath>
  </defs>
  <g id="Layer_1-2" data-name="Layer 1">
    <g class="cls-3">
      <path class="cls-1" d="m667.46,452.13c3.92-.01,6.75,6.05,6.78,14.55.03,8.56-2.79,14.98-6.6,15.01-4.01.02-6.87-6.14-6.87-14.82,0-8.54,2.81-14.72,6.69-14.74ZM1227.44-139.97c3.95,0,6.67,5.98,6.68,14.68,0,8.63-2.76,14.84-6.61,14.9-3.95.06-6.83-6.27-6.81-14.97.02-8.51,2.84-14.61,6.75-14.61Zm29.07,14.95c-.03,8.47-2.9,14.64-6.78,14.57-3.97-.07-6.75-6.38-6.68-15.19.06-8.55,2.97-14.44,7.06-14.33,3.68.1,6.44,6.53,6.41,14.95Zm-44.75,0c-.03,8.47-2.9,14.64-6.78,14.57-3.97-.07-6.75-6.38-6.68-15.19.06-8.55,2.97-14.44,7.06-14.33,3.68.1,6.44,6.53,6.41,14.95Zm-29.14-14.95c3.96,0,6.69,5.97,6.7,14.64,0,8.82-2.8,15.01-6.78,14.94-3.83-.07-6.66-6.42-6.64-14.93.02-8.52,2.83-14.65,6.73-14.65Zm-22.34,29.54c-4-.02-6.82-6.24-6.79-14.98.03-8.5,2.85-14.57,6.77-14.56,3.89.01,6.69,6.18,6.7,14.72,0,8.54-2.83,14.84-6.68,14.82Zm-22.5-29.54c3.97-.01,6.72,5.94,6.73,14.55.01,8.86-2.78,15.07-6.74,15.03-3.85-.04-6.68-6.34-6.68-14.84,0-8.54,2.81-14.72,6.69-14.73Zm-22.35,29.53c-3.99-.05-6.78-6.32-6.74-15.09.05-8.45,2.89-14.46,6.83-14.44,3.86.03,6.66,6.27,6.64,14.84-.02,8.5-2.87,14.73-6.73,14.69Zm-15.71-14.63c0,8.54-2.83,14.7-6.71,14.68-3.86-.02-6.7-6.29-6.71-14.78,0-8.73,2.82-14.83,6.85-14.8,3.89.03,6.59,6.15,6.58,14.9Zm-29.06-14.9c3.89,0,6.7,6.18,6.7,14.71,0,8.54-2.83,14.84-6.67,14.83-4-.02-6.82-6.24-6.79-14.97.03-8.5,2.85-14.58,6.77-14.57Zm-22.52,0c3.98-.03,6.76,5.91,6.78,14.45.02,8.89-2.75,15.13-6.7,15.13-3.86,0-6.71-6.26-6.73-14.74-.01-8.58,2.78-14.81,6.65-14.83Zm-22.35-20.02c-3.98-.07-6.76-6.37-6.7-15.17.06-8.55,2.96-14.46,7.05-14.35,3.69.1,6.45,6.51,6.42,14.93-.03,8.47-2.9,14.66-6.77,14.59Zm0,49.55c-3.98-.07-6.76-6.37-6.7-15.17.06-8.55,2.96-14.46,7.05-14.35,3.69.09,6.45,6.51,6.42,14.93-.03,8.47-2.9,14.66-6.77,14.6Zm-38.02-14.46c-.05,8.45-2.93,14.54-6.83,14.45-3.96-.1-6.71-6.43-6.63-15.3.08-8.53,2.99-14.35,7.11-14.22,3.66.12,6.4,6.63,6.36,15.07Zm-67.23-49.87c0,8.58-2.79,14.78-6.66,14.81-3.86.03-6.74-6.21-6.77-14.65-.03-8.76,2.78-14.94,6.79-14.92,3.92.02,6.64,6.05,6.64,14.77Zm0,49.58c0,8.58-2.79,14.78-6.66,14.81-3.86.03-6.74-6.21-6.77-14.66-.03-8.76,2.79-14.94,6.79-14.92,3.92.02,6.64,6.05,6.64,14.77Zm-29.21,14.74c-3.87-.1-6.64-6.35-6.61-14.93.03-8.78,2.94-14.73,7.13-14.58,3.65.13,6.39,6.66,6.34,15.11-.06,8.44-2.94,14.5-6.85,14.4Zm-44.64-29.51c3.96,0,6.71,5.95,6.72,14.58,0,8.84-2.79,15.05-6.76,15-3.84-.05-6.67-6.38-6.67-14.88,0-8.53,2.82-14.7,6.71-14.7Zm-179.26,0c3.97-.02,6.75,5.93,6.77,14.48.02,8.89-2.75,15.12-6.71,15.1-3.86-.02-6.71-6.28-6.72-14.77-.01-8.57,2.78-14.79,6.66-14.81Zm22.38,0c3.97-.02,6.75,5.93,6.77,14.48.02,8.89-2.75,15.12-6.71,15.1-3.86-.01-6.71-6.28-6.72-14.77-.01-8.57,2.79-14.79,6.66-14.81Zm.11,640.74c3.94.01,6.66,6.01,6.66,14.72,0,8.61-2.77,14.81-6.64,14.86-3.95.04-6.82-6.31-6.79-15.02.03-8.5,2.85-14.57,6.77-14.56ZM488.3-110.44c-3.98-.06-6.77-6.35-6.71-15.13.05-8.56,2.96-14.49,7.03-14.39,3.7.09,6.46,6.47,6.43,14.89-.02,8.48-2.89,14.7-6.75,14.64Zm291.3,640.77c-3.98-.07-6.76-6.37-6.7-15.17.06-8.55,2.96-14.46,7.05-14.36,3.69.1,6.45,6.51,6.42,14.93-.03,8.47-2.9,14.66-6.77,14.6Zm-22.48.71c-3.98-.07-6.76-6.37-6.7-15.17.06-8.55,2.96-14.46,7.05-14.35,3.69.1,6.45,6.51,6.42,14.93-.03,8.47-2.9,14.66-6.77,14.6Zm-22.48,0c-3.98-.07-6.76-6.37-6.7-15.17.06-8.55,2.96-14.46,7.05-14.35,3.69.1,6.45,6.51,6.42,14.93-.03,8.47-2.9,14.66-6.77,14.6Zm-22.38,0c-3.98-.07-6.76-6.37-6.7-15.17.06-8.55,2.96-14.46,7.05-14.35,3.69.1,6.45,6.51,6.42,14.93-.03,8.47-2.9,14.66-6.77,14.6Zm89.18-49.38c-3.98-.07-6.76-6.37-6.7-15.17.06-8.55,2.96-14.46,7.05-14.35,3.69.1,6.45,6.5,6.42,14.93-.03,8.47-2.9,14.66-6.77,14.6Zm-89.18,0c-3.98-.07-6.76-6.37-6.7-15.17.06-8.55,2.96-14.46,7.05-14.35,3.69.1,6.45,6.5,6.42,14.93-.03,8.47-2.9,14.66-6.77,14.6ZM376.39,57.4c3.93.01,6.65,6.03,6.65,14.75s-2.78,14.8-6.65,14.83c-3.95.03-6.81-6.32-6.78-15.04.03-8.49,2.86-14.55,6.78-14.54Zm3.58-133.6c.04,8.56-2.78,15.02-6.58,15.06-4.01.04-6.89-6.12-6.89-14.77,0-8.4,2.76-14.71,6.48-14.78,4.07-.08,6.95,5.89,6.98,14.5Zm-19.29,0c.04,8.56-2.78,15.02-6.58,15.06-4.01.04-6.89-6.12-6.89-14.77,0-8.4,2.76-14.71,6.48-14.78,4.07-.08,6.95,5.89,6.98,14.5Zm-141.14-63.76c3.92,0,6.74,6.07,6.76,14.58.02,8.56-2.8,14.95-6.61,14.97-4.01.02-6.86-6.16-6.85-14.85,0-8.53,2.82-14.69,6.71-14.7Zm-15.68,14.55c.01,8.86-2.77,15.07-6.74,15.03-3.85-.04-6.68-6.34-6.68-14.84,0-8.54,2.81-14.73,6.69-14.74,3.97-.01,6.72,5.94,6.74,14.55Zm-29.1,14.98c-3.98-.06-6.78-6.34-6.72-15.12.05-8.43,2.9-14.44,6.84-14.41,3.86.03,6.65,6.29,6.63,14.88-.02,8.48-2.89,14.71-6.75,14.65Zm-15.69-14.76c0,8.59-2.79,14.79-6.66,14.81-3.95.03-6.81-6.33-6.77-15.06.03-8.48,2.86-14.54,6.79-14.52,3.93.02,6.64,6.05,6.64,14.77Zm642.88,429.31c3.88.02,6.68,6.21,6.67,14.77,0,8.69-2.85,14.76-6.89,14.71-3.85-.04-6.62-6.35-6.58-14.98.04-8.48,2.86-14.53,6.79-14.51Zm44.81,0c3.95,0,6.68,5.98,6.68,14.67,0,8.91-2.72,14.85-6.8,14.82-3.86-.03-6.65-6.29-6.63-14.87.02-8.51,2.84-14.61,6.75-14.61Zm-22.46,0c3.95,0,6.68,5.98,6.68,14.67,0,8.91-2.72,14.85-6.8,14.82-3.86-.03-6.65-6.29-6.63-14.87.02-8.51,2.84-14.61,6.75-14.61Zm44.83,148.02c3.88.02,6.67,6.23,6.67,14.79,0,8.53-2.85,14.78-6.71,14.74-3.99-.04-6.8-6.29-6.76-15.04.04-8.48,2.87-14.51,6.8-14.49Zm22.42,0c3.88.02,6.67,6.23,6.67,14.79,0,8.53-2.85,14.78-6.71,14.74-3.99-.04-6.8-6.29-6.76-15.04.04-8.48,2.87-14.51,6.8-14.49Zm29.02,64.37c-.01,8.52-2.84,14.67-6.73,14.64-3.85-.03-6.69-6.32-6.69-14.82,0-8.71,2.83-14.8,6.87-14.76,3.88.04,6.57,6.17,6.56,14.94Zm15.75-14.94c3.88.01,6.69,6.2,6.69,14.74,0,8.54-2.84,14.82-6.68,14.8-4-.02-6.82-6.25-6.78-14.99.03-8.5,2.86-14.56,6.78-14.54Zm29.04,14.55c.01,8.86-2.77,15.07-6.74,15.04-3.85-.04-6.69-6.34-6.68-14.84,0-8.54,2.81-14.73,6.69-14.74,3.97-.01,6.73,5.94,6.74,14.55Zm15.68,14.98c-3.98-.07-6.76-6.36-6.71-15.15.06-8.55,2.96-14.48,7.04-14.37,3.69.09,6.45,6.49,6.43,14.91-.03,8.47-2.9,14.68-6.76,14.62Zm22.43-29.53c3.96,0,6.69,5.97,6.69,14.65,0,8.82-2.81,15.01-6.79,14.93-3.83-.07-6.66-6.43-6.64-14.94.02-8.52,2.83-14.64,6.74-14.64Zm22.45,0c3.88.01,6.69,6.2,6.68,14.75,0,8.54-2.84,14.81-6.69,14.79-4-.03-6.81-6.26-6.78-15.01.03-8.49,2.86-14.55,6.79-14.53Zm235.08-637.05c-3.91-.02-6.61-6.09-6.61-14.83,0-8.81,2.78-14.72,6.87-14.66,3.83.05,6.6,6.39,6.56,15.03-.04,8.46-2.88,14.48-6.82,14.45Zm-22.44.33c-3.91-.02-6.61-6.09-6.61-14.83,0-8.81,2.77-14.72,6.87-14.66,3.83.05,6.6,6.39,6.56,15.03-.04,8.46-2.88,14.48-6.82,14.45Zm-217.27-14.69c0,8.7-2.72,14.68-6.67,14.69-4.04,0-6.73-6.01-6.71-15.01.02-8.55,2.8-14.5,6.77-14.48,3.92.02,6.62,6.07,6.62,14.8Zm4.63,601.97c3.88.01,6.69,6.2,6.68,14.75,0,8.54-2.84,14.81-6.69,14.79-4-.03-6.81-6.26-6.78-15.01.03-8.49,2.86-14.55,6.79-14.53Zm-190.47-587.28c-3.94-.01-6.65-6.02-6.65-14.73,0-8.87,2.74-14.79,6.83-14.75,3.85.04,6.63,6.33,6.6,14.94-.03,8.49-2.85,14.56-6.78,14.54Zm-127.6-14.83c0,8.74-2.7,14.8-6.61,14.83-4.07.03-6.78-5.93-6.78-14.87,0-8.65,2.75-14.62,6.7-14.62,3.95,0,6.68,5.98,6.68,14.66Zm250.79,454.08c3.97-.01,6.72,5.94,6.73,14.56.01,8.97-2.69,14.95-6.75,14.93-3.88-.02-6.68-6.21-6.68-14.76,0-8.54,2.81-14.71,6.7-14.73ZM387.57-85.9c-3.97.01-6.72-5.95-6.73-14.57-.01-8.96,2.69-14.94,6.75-14.92,3.88.02,6.68,6.22,6.67,14.77,0,8.53-2.81,14.7-6.7,14.71Zm0-49.25c-3.97.01-6.72-5.95-6.73-14.57-.01-8.96,2.69-14.94,6.75-14.92,3.88.02,6.68,6.21,6.67,14.77,0,8.53-2.81,14.7-6.7,14.71Zm593.55,468.74c-3.93.02-6.76-6.01-6.8-14.5-.04-8.77,2.77-15,6.76-14.99,3.89,0,6.7,6.17,6.71,14.7,0,8.56-2.79,14.77-6.67,14.78Zm22.46-78.78c3.91.02,6.61,6.09,6.61,14.83,0,8.8-2.77,14.71-6.87,14.66-3.84-.05-6.6-6.38-6.56-15.03.04-8.46,2.88-14.48,6.82-14.45ZM163.54-83.75c-3.95,0-6.66-6-6.66-14.71,0-8.88,2.73-14.81,6.82-14.78,3.85.04,6.64,6.31,6.61,14.92-.03,8.5-2.85,14.58-6.77,14.57Zm-15.67-66c0,8.63-2.76,14.6-6.71,14.59-4.01,0-6.69-6.08-6.67-15.1.02-8.5,2.82-14.42,6.81-14.39,3.88.03,6.59,6.15,6.58,14.89Zm-52.48,14.59c-3.92-.02-6.63-6.06-6.63-14.77,0-8.84,2.76-14.76,6.85-14.71,3.84.04,6.61,6.36,6.58,14.98-.04,8.48-2.87,14.52-6.8,14.5Zm23.33,0c-3.92-.02-6.63-6.06-6.63-14.77,0-8.84,2.76-14.76,6.85-14.71,3.84.04,6.62,6.36,6.58,14.98-.04,8.48-2.87,14.52-6.79,14.5Zm950.8,587.28c3.93.01,6.64,6.04,6.64,14.76,0,8.59-2.78,14.79-6.65,14.82-3.95.03-6.81-6.33-6.78-15.05.03-8.49,2.86-14.54,6.79-14.53Zm-11.18,24.67c3.92.02,6.63,6.07,6.62,14.79,0,8.57-2.8,14.77-6.67,14.79-3.96.02-6.73-6.21-6.72-15.09.01-8.56,2.79-14.51,6.76-14.49Zm-10.03-24.67c3.93.01,6.64,6.04,6.64,14.76,0,8.59-2.78,14.79-6.65,14.82-3.95.03-6.81-6.33-6.78-15.05.03-8.49,2.86-14.54,6.79-14.53Zm-201.6-611.95c-3.91,0-6.73-6.08-6.75-14.59-.02-8.75,2.79-14.91,6.81-14.89,3.87.02,6.67,6.23,6.66,14.8,0,8.53-2.82,14.68-6.71,14.69Zm-134.37,0c-3.92,0-6.74-6.07-6.77-14.57-.03-8.76,2.79-14.93,6.8-14.92,3.88.02,6.68,6.22,6.67,14.78,0,8.53-2.82,14.7-6.7,14.71ZM237.45,491.43c0,8.64-2.74,14.88-6.59,14.95-3.98.08-6.8-6.11-6.79-14.92,0-8.68,2.73-14.66,6.68-14.66,3.96,0,6.69,5.97,6.7,14.63Zm15.69-14.63c3.94,0,6.83,6.38,6.8,15.02-.03,8.22-3.04,14.61-6.85,14.56-3.86-.05-6.62-6.27-6.62-14.9,0-8.7,2.72-14.68,6.68-14.68Zm869.02-157.95c0,8.71-2.71,14.72-6.65,14.74-4,.01-6.81-6.19-6.78-14.95.03-8.49,2.86-14.55,6.78-14.53,3.93.01,6.64,6.03,6.64,14.75ZM338.24-26.65c.01,8.77-2.68,14.91-6.55,14.94-4.04.04-6.87-6.04-6.87-14.75,0-8.54,2.81-14.73,6.69-14.74,3.97-.01,6.73,5.94,6.74,14.54Zm0-98.05c.01,8.77-2.68,14.91-6.55,14.94-4.04.04-6.87-6.04-6.87-14.75,0-8.54,2.81-14.73,6.69-14.74,3.97-.01,6.73,5.94,6.74,14.54Zm-223.97-97.64c-.01,8.6-2.77,14.55-6.74,14.54-3.88-.01-6.69-6.19-6.69-14.74,0-8.71,2.83-14.78,6.87-14.74,3.88.04,6.57,6.18,6.55,14.95Zm0,47.98c-.01,8.6-2.77,14.55-6.74,14.54-3.88-.01-6.69-6.19-6.69-14.74,0-8.7,2.83-14.78,6.87-14.74,3.88.04,6.57,6.18,6.55,14.95Zm167.98,666.03c0,8.55-2.82,14.72-6.7,14.71-3.95,0-6.7-6.26-6.68-15.16.02-8.52,2.81-14.44,6.79-14.42,3.9.03,6.6,6.13,6.59,14.87Zm9.01-.24c0-8.66,2.74-14.63,6.7-14.63,3.91,0,6.82,6.47,6.77,15.07-.04,8.21-3.06,14.58-6.88,14.51-3.85-.07-6.6-6.31-6.59-14.95Zm35.78.1c0,8.61-2.77,14.81-6.64,14.86-3.97.04-6.76-6.16-6.75-15.02.01-8.61,2.76-14.57,6.73-14.56,3.94.01,6.66,6.01,6.66,14.72ZM1261.04-213.98c3.95,0,6.67,5.98,6.68,14.67,0,8.63-2.75,14.85-6.61,14.91-3.97.06-6.78-6.14-6.77-14.97,0-8.64,2.75-14.61,6.71-14.61Zm-223.88,0c3.89.03,6.59,6.14,6.58,14.88,0,8.54-2.82,14.71-6.71,14.7-3.94-.01-6.7-6.27-6.68-15.18.02-8.51,2.82-14.43,6.8-14.4ZM472.62,417.51c0,8.65-2.74,14.88-6.59,14.95-3.96.08-6.85-6.23-6.83-14.92.01-8.52,2.83-14.65,6.73-14.66,3.96,0,6.69,5.97,6.7,14.63ZM858.1-212.88c3.85.02,6.68,6.26,6.7,14.79.02,8.28-2.93,14.77-6.74,14.79-3.96.02-6.74-6.2-6.73-15.08.01-8.57,2.79-14.52,6.76-14.5Zm-22.55-1.1c3.85.02,6.68,6.26,6.7,14.79.02,8.28-2.93,14.77-6.74,14.79-3.96.03-6.74-6.2-6.73-15.08.01-8.57,2.79-14.52,6.76-14.5Zm-127.71,14.91c-.01,8.53-2.83,14.69-6.72,14.67-3.94-.02-6.69-6.3-6.66-15.21.02-8.49,2.83-14.41,6.82-14.37,3.88.03,6.58,6.16,6.57,14.91Zm22.35,0c0,8.53-2.83,14.69-6.72,14.67-3.94-.02-6.69-6.3-6.66-15.21.02-8.49,2.83-14.41,6.82-14.37,3.88.03,6.58,6.16,6.57,14.91Zm-185.78-14.91c3.9.02,6.61,6.1,6.6,14.84,0,8.55-2.81,14.74-6.69,14.74-3.95,0-6.71-6.24-6.69-15.14.02-8.54,2.8-14.47,6.78-14.44Zm-201.64,690.78c3.91,0,6.82,6.49,6.76,15.1-.05,8.04-3,14.43-6.71,14.48-3.97.06-6.78-6.14-6.77-14.98,0-8.64,2.75-14.61,6.71-14.6Zm-247.32-118.54c-3.96,0-6.69-5.97-6.69-14.65,0-8.93,2.71-14.87,6.79-14.84,3.86.03,6.65,6.27,6.64,14.85-.02,8.52-2.83,14.63-6.74,14.63ZM320.46,12.14c-3.83.08-6.75-5.98-6.8-14.08-.05-9.12,2.59-15.44,6.49-15.5,4-.06,6.86,5.82,6.9,14.19.04,8.96-2.67,15.3-6.58,15.39Zm0-146.29c-3.83.08-6.75-5.98-6.8-14.08-.05-9.12,2.59-15.44,6.49-15.5,4-.06,6.86,5.82,6.9,14.19.04,8.97-2.67,15.3-6.58,15.38Zm-22.55-29.58c3.95-.01,6.84,6.31,6.82,14.95-.02,8.24-3.01,14.66-6.82,14.63-3.87-.03-6.65-6.23-6.65-14.83s2.71-14.73,6.65-14.74Zm-195.46-35.66c.01,8.84-2.79,15.05-6.76,15-3.86-.05-6.63-6.26-6.62-14.88,0-8.71,2.72-14.69,6.67-14.7,3.96,0,6.71,5.96,6.72,14.58Zm45.41-47.76c0,8.57-2.8,14.76-6.67,14.78-3.96.02-6.73-6.21-6.71-15.09.02-8.55,2.79-14.51,6.76-14.48,3.92.02,6.62,6.07,6.62,14.8Zm-35.78-.26c.01-8.6,2.77-14.55,6.74-14.54,3.86.01,6.68,6.22,6.72,14.75.03,8.44-2.99,14.93-6.9,14.83-3.84-.1-6.57-6.36-6.56-15.04ZM371.83,491.57c0,8.59-2.79,14.79-6.65,14.82-3.96.03-6.74-6.19-6.73-15.06.01-8.58,2.78-14.54,6.75-14.52,3.93.02,6.64,6.05,6.64,14.76Zm9.01.08c0-8.74,2.7-14.82,6.6-14.85,3.98-.02,6.85,6.2,6.86,14.86,0,8.26-2.96,14.72-6.77,14.72-3.88,0-6.69-6.18-6.69-14.73Zm51.47-14.85c3.92.02,6.63,6.07,6.62,14.79,0,8.57-2.8,14.77-6.67,14.79-3.96.02-6.73-6.21-6.72-15.09.01-8.56,2.79-14.51,6.76-14.49Zm-22.32,0c3.92.02,6.63,6.07,6.62,14.79,0,8.57-2.8,14.77-6.67,14.79-3.96.02-6.73-6.21-6.72-15.09.02-8.56,2.79-14.51,6.76-14.49ZM1249.68-209.14c-3.87-.12-6.62-6.38-6.58-14.99.04-8.74,2.97-14.68,7.17-14.51,3.63.15,6.37,6.73,6.3,15.18-.06,8.43-2.96,14.45-6.88,14.33Zm-22.09-29.51c3.86.05,6.55,6.22,6.53,15-.01,8.5-2.86,14.63-6.76,14.58-3.84-.05-6.67-6.38-6.67-14.88,0-8.68,2.85-14.74,6.9-14.7Zm-22.47,0c3.87.03,6.66,6.27,6.64,14.84-.02,8.5-2.87,14.74-6.73,14.69-3.99-.05-6.78-6.32-6.74-15.09.05-8.45,2.89-14.47,6.83-14.44Zm-15.8,14.88c0,8.55-2.82,14.71-6.71,14.7-3.86-.01-6.71-6.28-6.72-14.77-.01-8.73,2.81-14.84,6.84-14.81,3.89.03,6.59,6.14,6.58,14.88Zm-29.1-14.88c3.91,0,6.73,6.1,6.75,14.61.02,8.54-2.81,14.93-6.63,14.94-4.01,0-6.85-6.17-6.84-14.88.01-8.53,2.82-14.67,6.72-14.67Zm-22.29,0c3.91.03,6.61,6.1,6.6,14.84,0,8.55-2.81,14.74-6.69,14.74-3.94,0-6.78-6.4-6.74-15.14.05-8.46,2.89-14.47,6.83-14.44Zm-22.58,0c4.02-.03,6.84,6.11,6.83,14.85-.02,8.31-2.84,14.66-6.55,14.7-4.02.05-6.9-6.07-6.92-14.71-.02-8.58,2.78-14.82,6.64-14.84Zm-15.61,14.6c0,8.66-2.73,14.9-6.58,14.98-3.96.09-6.86-6.21-6.85-14.89,0-8.53,2.82-14.68,6.71-14.68,3.96,0,6.7,5.97,6.71,14.6Zm-29.13,14.92c-3.98-.07-6.76-6.37-6.7-15.17.06-8.55,2.96-14.46,7.05-14.36,3.69.1,6.44,6.51,6.42,14.93-.03,8.47-2.9,14.66-6.77,14.6Zm-22.31-29.53c3.93.02,6.64,6.04,6.64,14.76,0,8.59-2.78,14.79-6.65,14.82-3.95.03-6.81-6.33-6.78-15.05.03-8.49,2.86-14.54,6.79-14.53Zm-22.5,0c3.92-.01,6.75,6.05,6.78,14.54.03,8.56-2.79,14.99-6.59,15.02-4.01.03-6.87-6.14-6.88-14.81,0-8.55,2.8-14.73,6.69-14.75Zm-340.41,730.38c-.01,8.52-2.84,14.68-6.73,14.65-3.93-.03-6.68-6.31-6.66-15.23.02-8.48,2.83-14.39,6.82-14.35,3.88.04,6.57,6.17,6.56,14.93Zm15.74-14.93c3.87.01,6.69,6.17,6.73,14.72.04,8.3-2.9,14.82-6.7,14.86-3.97.05-6.77-6.16-6.76-15.01.01-8.62,2.76-14.58,6.73-14.57Zm152.3-700.8c0,8.64-2.74,14.87-6.6,14.93-3.96.07-6.84-6.25-6.82-14.94.02-8.52,2.83-14.64,6.73-14.64s6.69,5.98,6.69,14.65Zm-22.46,0c0,8.64-2.74,14.87-6.6,14.93-3.96.07-6.84-6.25-6.82-14.94.02-8.52,2.83-14.64,6.74-14.64s6.68,5.98,6.69,14.65Zm-29.1,14.88c-3.98-.06-6.77-6.34-6.72-15.13.05-8.56,2.95-14.5,7.03-14.4,3.7.09,6.46,6.47,6.44,14.88-.02,8.48-2.89,14.7-6.75,14.65Zm-22.37-29.53c3.95,0,6.68,5.98,6.68,14.67,0,8.63-2.75,14.85-6.61,14.91-3.95.06-6.83-6.26-6.82-14.96.02-8.51,2.84-14.62,6.74-14.62Zm-22.39,0c3.89,0,6.71,6.16,6.71,14.69,0,8.54-2.83,14.86-6.66,14.86-4-.01-6.83-6.22-6.81-14.95.02-8.51,2.84-14.6,6.76-14.6Zm-44.8,0c3.95,0,6.67,5.99,6.67,14.69,0,8.63-2.76,14.84-6.62,14.89-3.95.05-6.83-6.28-6.81-14.98.02-8.51,2.84-14.6,6.75-14.6Zm22.4,0c3.95,0,6.67,5.99,6.67,14.69,0,8.63-2.76,14.84-6.62,14.89-3.95.05-6.83-6.28-6.81-14.98.02-8.51,2.84-14.6,6.75-14.6Zm-201.58,0c3.9,0,6.71,6.15,6.72,14.68.01,8.53-2.83,14.87-6.66,14.87-4,0-6.83-6.22-6.81-14.94.02-8.51,2.84-14.61,6.75-14.61Zm264.41,730.21c0,8.59-2.78,14.79-6.65,14.82-3.96.03-6.75-6.18-6.73-15.05.01-8.59,2.78-14.54,6.74-14.53,3.93.01,6.64,6.04,6.64,14.76Zm-22.47,0c0,8.59-2.78,14.79-6.65,14.82-3.97.03-6.75-6.18-6.73-15.05.01-8.59,2.77-14.54,6.74-14.53,3.93.01,6.64,6.04,6.64,14.76Zm-22.47,0c0,8.59-2.78,14.79-6.65,14.82-3.97.03-6.75-6.18-6.73-15.05.01-8.59,2.77-14.54,6.74-14.53,3.93.01,6.64,6.04,6.64,14.76Zm-22.42,0c0,8.59-2.78,14.79-6.65,14.82-3.96.03-6.75-6.18-6.73-15.05.01-8.59,2.78-14.54,6.74-14.53,3.93.01,6.64,6.04,6.64,14.76Zm-331.57-108.6c-3.87-.1-6.64-6.35-6.62-14.93.02-8.78,2.94-14.74,7.13-14.59,3.65.13,6.39,6.66,6.34,15.11-.05,8.44-2.94,14.51-6.85,14.4Zm112.12-621.61c3.89,0,6.71,6.15,6.72,14.68.01,8.53-2.83,14.87-6.66,14.87-4,0-6.83-6.22-6.81-14.94.02-8.51,2.84-14.61,6.75-14.61Zm-22.39,0c3.95,0,6.67,5.99,6.67,14.69,0,8.63-2.76,14.84-6.62,14.89-3.95.05-6.83-6.28-6.81-14.98.02-8.51,2.84-14.6,6.75-14.6Zm-22.42,0c3.91,0,6.72,6.11,6.74,14.62.02,8.53-2.82,14.92-6.63,14.93-4.01,0-6.85-6.18-6.84-14.89.01-8.53,2.83-14.66,6.73-14.66Zm-15.7,14.8c0,8.57-2.8,14.76-6.67,14.78-3.86.02-6.73-6.23-6.75-14.69-.02-8.75,2.79-14.91,6.81-14.89,3.92.02,6.62,6.07,6.62,14.8Zm-22.36.27c-.05,8.44-2.94,14.54-6.84,14.44-3.96-.1-6.71-6.44-6.62-15.3.08-8.53,2.99-14.35,7.11-14.21,3.66.12,6.4,6.64,6.35,15.07Zm-29.11,231.6c3.9,0,6.71,6.15,6.72,14.68.01,8.53-2.83,14.87-6.66,14.86-4,0-6.83-6.21-6.81-14.94.02-8.51,2.84-14.61,6.75-14.6Zm0-98.73c3.89,0,6.71,6.15,6.72,14.68.01,8.53-2.83,14.87-6.66,14.87-4,0-6.83-6.22-6.81-14.94.02-8.51,2.84-14.61,6.75-14.61Zm0-49.37c3.89,0,6.71,6.15,6.72,14.68.01,8.53-2.83,14.87-6.66,14.87-4-.01-6.83-6.22-6.81-14.94.02-8.51,2.84-14.61,6.75-14.61Zm0-49.27c3.89,0,6.71,6.15,6.72,14.68.01,8.53-2.83,14.87-6.66,14.87-4,0-6.83-6.22-6.81-14.94.02-8.51,2.84-14.61,6.75-14.61Zm-22.39-49.31c3.95,0,6.67,5.99,6.67,14.69,0,8.63-2.76,14.84-6.62,14.89-3.95.05-6.83-6.28-6.81-14.98.02-8.51,2.84-14.6,6.75-14.6Zm-22.42,0c3.91,0,6.72,6.11,6.74,14.62.02,8.53-2.82,14.92-6.63,14.93-4.01,0-6.85-6.18-6.84-14.89.01-8.53,2.83-14.66,6.73-14.66Zm-15.7,14.8c0,8.57-2.8,14.76-6.67,14.78-3.86.02-6.73-6.23-6.75-14.69-.02-8.75,2.79-14.91,6.81-14.89,3.92.02,6.62,6.07,6.62,14.8ZM886.99,491.4c0,8.66-2.73,14.9-6.58,14.98-3.98.09-6.81-6.1-6.8-14.89,0-8.7,2.72-14.68,6.67-14.69,3.96,0,6.7,5.96,6.71,14.6Zm22.38,0c0,8.66-2.73,14.9-6.58,14.98-3.98.09-6.81-6.1-6.81-14.89,0-8.7,2.72-14.68,6.67-14.69,3.96,0,6.7,5.96,6.71,14.6Zm9.01.29c0-8.75,2.69-14.86,6.58-14.89,3.99-.03,6.86,6.16,6.88,14.81.02,8.28-2.94,14.75-6.75,14.77-3.89.02-6.7-6.15-6.71-14.69Zm35.78-.03c0,8.55-2.82,14.72-6.7,14.72-3.95,0-6.71-6.26-6.69-15.15.02-8.53,2.81-14.45,6.79-14.43,3.9.03,6.6,6.12,6.59,14.86Zm9.01.06c-.01-8.75,2.69-14.88,6.57-14.92,3.99-.04,6.86,6.13,6.89,14.78.02,8.28-2.93,14.77-6.73,14.8-3.89.03-6.72-6.13-6.73-14.66Zm-575.59-133.46c-3.97.01-6.72-5.94-6.74-14.55-.01-8.97,2.69-14.96,6.74-14.94,3.88.01,6.68,6.2,6.68,14.75,0,8.54-2.81,14.72-6.69,14.74Zm73.84,34.15c0,8.74-2.7,14.83-6.59,14.86-4.08.03-6.8-5.91-6.79-14.83,0-8.68,2.73-14.65,6.68-14.66,3.95,0,6.69,5.97,6.7,14.62Zm0-49.02c0,8.74-2.7,14.83-6.59,14.86-4.08.03-6.8-5.91-6.79-14.83,0-8.68,2.73-14.65,6.68-14.66,3.95,0,6.69,5.97,6.7,14.62Zm15.66,63.88c-3.94-.01-6.65-6.02-6.65-14.74s2.74-14.79,6.83-14.75c3.85.04,6.63,6.33,6.6,14.94-.03,8.5-2.85,14.55-6.78,14.54Zm515.19,69.52c3.95,0,6.67,5.98,6.68,14.68,0,8.63-2.75,14.85-6.61,14.9-3.97.06-6.78-6.14-6.77-14.97,0-8.64,2.75-14.61,6.71-14.61Zm-492.74-148.02c3.95,0,6.67,5.98,6.68,14.67,0,8.91-2.72,14.85-6.8,14.81-3.89-.03-6.59-6.13-6.59-14.88,0-8.64,2.75-14.61,6.71-14.61Zm508.43,162.6c.01-8.62,2.76-14.58,6.73-14.57,3.91.01,6.81,6.51,6.75,15.12-.06,8.2-3.09,14.54-6.91,14.45-3.85-.09-6.58-6.33-6.57-15.01Zm29.16-14.57c3.92.02,6.63,6.07,6.62,14.79,0,8.57-2.8,14.77-6.67,14.79-3.96.02-6.73-6.21-6.72-15.09.01-8.56,2.79-14.51,6.76-14.49Zm208.15-725.31c0,8.69-2.72,14.67-6.68,14.68-4.03,0-6.72-6.02-6.71-15.02.02-8.54,2.8-14.49,6.77-14.47,3.91.02,6.62,6.08,6.61,14.81Zm-22.35,0c0,8.69-2.72,14.67-6.68,14.68-4.03,0-6.73-6.02-6.71-15.02.02-8.54,2.8-14.49,6.77-14.47,3.91.02,6.62,6.08,6.62,14.81Zm-29.04-14.81c3.88.01,6.68,6.2,6.68,14.75,0,8.7-2.84,14.78-6.88,14.74-3.87-.04-6.56-6.18-6.55-14.96.01-8.59,2.78-14.54,6.74-14.53Zm-15.76,14.7c0,8.72-2.71,14.77-6.62,14.79-4.06.02-6.77-5.95-6.76-14.9,0-8.63,2.76-14.59,6.72-14.58,3.95,0,6.66,5.99,6.67,14.7Zm-29,14.79c-3.98.03-6.76-5.91-6.78-14.45-.02-9,2.67-15.04,6.7-15.04,3.9,0,6.71,6.13,6.73,14.66.01,8.57-2.78,14.81-6.65,14.83Zm-15.79-14.69c0,8.7-2.72,14.68-6.67,14.69-4.04,0-6.73-6.01-6.71-15.01.02-8.55,2.8-14.5,6.76-14.48,3.92.02,6.62,6.07,6.62,14.8Zm-29.15,14.69c-3.92-.02-6.64-6.05-6.64-14.77,0-8.84,2.75-14.77,6.84-14.72,3.84.04,6.62,6.35,6.58,14.97-.03,8.48-2.86,14.53-6.79,14.51Zm-22.4-29.49c3.97-.02,6.73,5.94,6.75,14.52.01,8.98-2.68,14.98-6.73,14.97-3.94-.01-6.65-6.01-6.66-14.72,0-8.71,2.71-14.75,6.64-14.76Zm-22.25,29.49c-3.98.03-6.77-5.91-6.78-14.44-.02-9,2.67-15.04,6.7-15.04,3.9,0,6.71,6.13,6.73,14.65.01,8.57-2.78,14.81-6.65,14.84Zm-15.79-14.8c0,8.73-2.7,14.78-6.62,14.8-4.06.02-6.77-5.95-6.77-14.89,0-8.63,2.75-14.6,6.71-14.6,3.95,0,6.67,5.99,6.67,14.68Zm-29.14,14.8c-3.93-.01-6.65-6.03-6.65-14.75s2.75-14.78,6.84-14.74c3.85.04,6.62,6.34,6.59,14.95-.03,8.49-2.86,14.55-6.78,14.53Zm-201.44,0c-3.96,0-6.71-5.95-6.72-14.58,0-8.95,2.7-14.93,6.76-14.91,3.88.02,6.68,6.22,6.67,14.78,0,8.53-2.82,14.7-6.71,14.7Zm-22.45,0c-3.96,0-6.71-5.95-6.72-14.58-.01-8.95,2.7-14.93,6.76-14.91,3.88.02,6.68,6.22,6.67,14.78,0,8.53-2.82,14.7-6.71,14.7Zm-51.58-17.62c.03-8.39,2.89-14.27,6.89-14.21,3.9.06,6.55,6.36,6.5,15.48-.05,8.24-2.97,14.1-6.98,14-3.78-.09-6.44-6.43-6.4-15.28Zm22.46,2.35c.03-8.39,2.89-14.27,6.89-14.21,3.9.06,6.55,6.36,6.49,15.48-.05,8.24-2.96,14.1-6.98,14-3.78-.09-6.44-6.43-6.4-15.28Zm-232.05.72c-.01,8.61-2.77,14.57-6.73,14.55-4-.01-6.68-6.11-6.65-15.14.02-8.47,2.84-14.38,6.83-14.35,3.88.04,6.57,6.17,6.56,14.93Zm-23.33,0c-.01,8.61-2.77,14.57-6.73,14.55-4-.01-6.68-6.11-6.65-15.14.02-8.47,2.84-14.38,6.83-14.35,3.88.04,6.57,6.17,6.56,14.93Zm-29-14.93c3.87.03,6.66,6.26,6.64,14.84-.02,8.66-2.87,14.7-6.92,14.65-3.84-.05-6.53-6.26-6.51-15.04.02-8.54,2.8-14.47,6.78-14.44Zm-22.54,0c3.97-.02,6.73,5.94,6.75,14.52.01,8.98-2.68,14.98-6.73,14.97-3.94-.01-6.65-6.01-6.65-14.72,0-8.71,2.71-14.75,6.64-14.76Zm-22.12,29.49c-3.91-.02-6.61-6.1-6.6-14.84,0-8.8,2.78-14.71,6.88-14.65,3.83.05,6.6,6.4,6.55,15.04-.05,8.46-2.89,14.47-6.82,14.44Zm-23.33,49.39c-3.91-.03-6.61-6.1-6.6-14.84,0-8.8,2.78-14.71,6.88-14.65,3.83.05,6.6,6.4,6.55,15.04-.04,8.46-2.89,14.47-6.82,14.45Zm0-49.39c-3.91-.02-6.61-6.1-6.6-14.84,0-8.8,2.78-14.71,6.88-14.65,3.83.05,6.6,6.4,6.55,15.04-.04,8.46-2.89,14.47-6.82,14.44Zm-21.77,0c-3.91-.02-6.61-6.1-6.6-14.84,0-8.8,2.78-14.71,6.88-14.65,3.83.05,6.6,6.4,6.55,15.04-.05,8.46-2.89,14.47-6.82,14.44Zm-15.62-14.92c.01,8.75-2.69,14.88-6.57,14.92-4.08.04-6.82-5.89-6.82-14.77,0-8.71,2.72-14.7,6.66-14.71,3.96-.01,6.71,5.95,6.72,14.57Zm-29.05,14.92c-3.97.01-6.72-5.95-6.73-14.56-.01-8.97,2.69-14.94,6.75-14.93,3.88.02,6.68,6.21,6.68,14.77,0,8.54-2.81,14.71-6.7,14.72Zm-15.74-14.84c0,8.74-2.7,14.82-6.6,14.84-4.07.03-6.79-5.92-6.78-14.85,0-8.66,2.74-14.64,6.7-14.64,3.96,0,6.68,5.97,6.69,14.65Zm-29.02,14.84c-3.97.02-6.75-5.93-6.76-14.49-.02-8.99,2.68-15,6.72-15,3.89,0,6.7,6.17,6.71,14.7,0,8.56-2.79,14.77-6.67,14.79Zm-15.77-14.85c0,8.74-2.7,14.82-6.6,14.85-4.08.03-6.79-5.91-6.79-14.84,0-8.67,2.73-14.65,6.69-14.65,3.96,0,6.69,5.97,6.69,14.64Zm-29.14,14.85c-3.93-.01-6.64-6.03-6.64-14.75s2.75-14.78,6.84-14.74c3.85.04,6.62,6.34,6.59,14.95-.03,8.49-2.86,14.55-6.78,14.53Zm-15.66-14.68c0,8.69-2.72,14.67-6.68,14.68-4.03,0-6.72-6.02-6.71-15.01.02-8.54,2.8-14.49,6.77-14.47,3.91.02,6.62,6.08,6.62,14.81Zm-29-14.81c3.87.02,6.66,6.26,6.65,14.83-.01,8.67-2.86,14.71-6.91,14.66-3.85-.05-6.53-6.25-6.51-15.03.02-8.54,2.8-14.48,6.78-14.45Zm-22.54,29.49c-3.92-.02-6.63-6.06-6.63-14.77,0-8.84,2.76-14.76,6.85-14.71,3.86.04,6.55,6.2,6.54,14.98-.01,8.57-2.79,14.52-6.75,14.51Zm-22.43-29.49c4.02-.03,6.84,6.11,6.82,14.85-.02,8.52-2.83,14.64-6.74,14.64s-6.69-5.97-6.69-14.64c0-8.74,2.7-14.82,6.6-14.84ZM768.26,407.65c-3.96,0-6.71-5.96-6.71-14.59,0-8.95,2.7-14.91,6.77-14.89,3.87.02,6.67,6.23,6.66,14.8,0,8.53-2.82,14.68-6.71,14.69Zm-22.34,0c-3.96,0-6.71-5.96-6.71-14.59,0-8.95,2.7-14.91,6.76-14.89,3.87.02,6.67,6.23,6.66,14.8,0,8.53-2.82,14.68-6.71,14.69Zm73.86-64.31c.01,8.75-2.69,14.88-6.57,14.92-4.08.04-6.82-5.89-6.82-14.77,0-8.71,2.72-14.7,6.66-14.71,3.96-.01,6.71,5.95,6.72,14.57Zm15.69,14.92c-3.95,0-6.68-5.98-6.68-14.67,0-8.91,2.72-14.85,6.8-14.82,3.86.03,6.65,6.29,6.63,14.88-.02,8.51-2.84,14.61-6.75,14.61Zm134.46,0c-3.97.02-6.74-5.93-6.76-14.5-.02-8.99,2.68-15,6.72-14.99,3.89,0,6.7,6.17,6.71,14.7,0,8.56-2.79,14.76-6.67,14.78Zm134.24,0c-3.92-.02-6.62-6.07-6.62-14.8,0-8.82,2.77-14.74,6.86-14.68,3.84.05,6.61,6.37,6.57,15-.04,8.48-2.87,14.5-6.81,14.48Zm-750.2-4.82c3.89,0,6.7,6.18,6.7,14.71,0,8.54-2.83,14.84-6.67,14.83-4-.02-6.82-6.24-6.79-14.97.03-8.5,2.85-14.58,6.77-14.57ZM18.88,476.82c3.97-.01,6.72,5.95,6.73,14.56.01,8.86-2.78,15.06-6.75,15.02-3.84-.04-6.68-6.35-6.68-14.85,0-8.54,2.81-14.71,6.7-14.73Zm21.77,0c3.97-.01,6.72,5.95,6.73,14.56.01,8.86-2.78,15.06-6.75,15.02-3.84-.04-6.68-6.35-6.68-14.85,0-8.54,2.81-14.71,6.7-14.73Zm21.77,0c3.97-.01,6.72,5.95,6.73,14.56.01,8.86-2.78,15.06-6.75,15.02-3.85-.04-6.68-6.35-6.68-14.85,0-8.54,2.81-14.71,6.7-14.73Zm23.33,0c3.97-.01,6.72,5.95,6.73,14.56.01,8.86-2.78,15.06-6.75,15.02-3.84-.04-6.68-6.35-6.68-14.85,0-8.54,2.81-14.71,6.7-14.73Zm21.77,0c3.97-.01,6.72,5.95,6.73,14.56.01,8.86-2.78,15.06-6.75,15.02-3.85-.04-6.68-6.35-6.68-14.85,0-8.54,2.81-14.71,6.7-14.73Zm22.49,0c3.88.01,6.69,6.2,6.68,14.75,0,8.54-2.84,14.81-6.69,14.78-4-.03-6.81-6.26-6.78-15.01.03-8.49,2.86-14.54,6.78-14.53Zm-89.36-123.37c3.97-.01,6.72,5.95,6.73,14.56.01,8.86-2.78,15.06-6.75,15.02-3.84-.04-6.68-6.35-6.68-14.85,0-8.54,2.81-14.71,6.7-14.73Zm21.77,0c3.97-.01,6.72,5.95,6.73,14.56.01,8.86-2.78,15.06-6.75,15.02-3.85-.04-6.68-6.35-6.68-14.85,0-8.54,2.81-14.71,6.7-14.73Zm23.33,0c3.97-.01,6.72,5.95,6.73,14.56.01,8.86-2.78,15.06-6.75,15.02-3.84-.04-6.68-6.35-6.68-14.85,0-8.54,2.81-14.71,6.7-14.73Zm88.99,77.51c-3.98-.06-6.77-6.34-6.72-15.12.05-8.56,2.95-14.5,7.03-14.4,3.7.09,6.46,6.47,6.44,14.88-.02,8.48-2.89,14.71-6.75,14.65Zm253.07-112.28c.01,8.75-2.69,14.88-6.57,14.92-4.03.04-6.86-6.06-6.86-14.77,0-8.53,2.81-14.7,6.7-14.71,3.96,0,6.71,5.95,6.72,14.57Zm844.43-478.5c-3.89,0-6.71-6.15-6.72-14.67-.01-8.73,2.81-14.85,6.84-14.82,3.86.03,6.65,6.29,6.63,14.88-.02,8.51-2.84,14.61-6.75,14.61Zm-.26,296.05c-3.88-.02-6.68-6.21-6.68-14.77,0-8.69,2.85-14.76,6.89-14.71,3.84.04,6.62,6.35,6.58,14.98-.03,8.48-2.87,14.53-6.79,14.51Z"/>
      <path class="cls-1" d="m869.06,106.73c3.96,0,6.71,5.96,6.71,14.59.01,8.95-2.7,14.91-6.77,14.89-3.87-.02-6.67-6.24-6.66-14.8.01-8.53,2.82-14.68,6.71-14.69Zm-67.21,29.49c-3.88-.01-6.69-6.2-6.69-14.74,0-8.71,2.83-14.79,6.87-14.75,3.85.04,6.63,6.33,6.6,14.94-.03,8.49-2.85,14.55-6.78,14.54Zm-116.45,157.85c0,8.64-2.74,14.87-6.6,14.94-3.98.07-6.79-6.12-6.79-14.93,0-8.67,2.74-14.65,6.69-14.65,3.96,0,6.69,5.97,6.69,14.64Zm-196.99-157.85c-4.02.02-6.83-6.13-6.81-14.88.02-8.51,2.84-14.61,6.75-14.61,3.9,0,6.71,6.15,6.72,14.67.01,8.57-2.78,14.79-6.65,14.81Zm-194.96-14.75c0,8.72-2.71,14.73-6.64,14.75-4,.01-6.81-6.18-6.78-14.95.03-8.5,2.85-14.55,6.78-14.54,3.94.01,6.65,6.02,6.65,14.74Zm-134.38-.1c0,8.74-2.7,14.82-6.6,14.85-4.02.03-6.84-6.11-6.83-14.85.02-8.52,2.83-14.64,6.73-14.64,3.96,0,6.69,5.97,6.69,14.64Zm669.68,271.37c0-8.66,2.74-14.63,6.7-14.63,3.91,0,6.82,6.46,6.77,15.07-.04,8.21-3.07,14.58-6.88,14.51-3.85-.07-6.6-6.3-6.6-14.95Zm-44.75,0c0-8.66,2.74-14.63,6.7-14.63,3.92,0,6.82,6.46,6.78,15.07-.04,8.21-3.06,14.58-6.88,14.51-3.85-.07-6.6-6.3-6.6-14.95Zm29.08-113.31c3.96,0,6.7,5.97,6.71,14.61,0,8.83-2.8,15.03-6.77,14.96-3.86-.06-6.62-6.28-6.61-14.91,0-8.69,2.73-14.67,6.68-14.67Zm45.05,98.68c3.81.07,6.48,6.36,6.45,15.18-.03,8.44-2.91,14.51-6.84,14.4-3.89-.11-6.59-6.49-6.54-15.47.04-8.33,2.92-14.18,6.93-14.11Zm396.2-281.48c.01-8.63,2.76-14.58,6.73-14.57,3.91,0,6.81,6.51,6.75,15.13-.06,8.2-3.09,14.54-6.91,14.45-3.85-.09-6.58-6.34-6.57-15.01Zm-22.52,0c.01-8.63,2.76-14.58,6.73-14.57,3.91,0,6.81,6.51,6.75,15.13-.06,8.2-3.09,14.54-6.91,14.45-3.85-.09-6.58-6.34-6.57-15.01Zm-67.46,0c.01-8.63,2.76-14.58,6.73-14.57,3.91,0,6.81,6.51,6.75,15.13-.06,8.2-3.09,14.54-6.91,14.45-3.85-.09-6.58-6.34-6.57-15.01Zm-21.99,0c.01-8.63,2.76-14.58,6.73-14.57,3.91,0,6.81,6.51,6.75,15.13-.06,8.2-3.09,14.54-6.91,14.45-3.85-.09-6.58-6.34-6.57-15.01Zm-22.4-.03c.01-8.6,2.77-14.55,6.74-14.54,3.99.01,6.67,6.13,6.65,15.16-.02,8.26-2.85,14.39-6.65,14.42-3.97.04-6.75-6.18-6.74-15.04Zm-111.99.21c0-8.72,2.71-14.73,6.65-14.75,3.95-.01,6.84,6.31,6.82,14.95-.02,8.24-3.01,14.66-6.82,14.63-3.87-.03-6.65-6.23-6.65-14.83Zm-9.01.05c0,8.57-2.8,14.76-6.67,14.78-3.96.02-6.73-6.21-6.71-15.1.01-8.55,2.79-14.51,6.76-14.48,3.92.02,6.62,6.07,6.62,14.8Zm-125.37-.09c0-8.71,2.72-14.7,6.67-14.71,3.94,0,6.83,6.36,6.81,14.99-.03,8.23-3.03,14.63-6.84,14.59-3.87-.05-6.63-6.25-6.63-14.87Zm-60.26-14.71c3.81.07,6.48,6.36,6.45,15.18-.03,8.44-2.91,14.52-6.84,14.4-3.89-.11-6.59-6.49-6.54-15.47.04-8.33,2.92-14.18,6.93-14.11Zm38.01,63.82c0-8.68,2.73-14.66,6.69-14.66,3.92,0,6.83,6.43,6.79,15.04-.04,8.22-3.05,14.6-6.87,14.54-3.86-.06-6.61-6.28-6.61-14.92Zm0,49.47c0-8.68,2.73-14.66,6.69-14.66,3.92,0,6.83,6.43,6.79,15.04-.04,8.22-3.05,14.6-6.87,14.54-3.86-.06-6.61-6.28-6.61-14.92Zm0,49.35c0-8.68,2.73-14.66,6.69-14.66,3.92,0,6.83,6.43,6.79,15.04-.04,8.22-3.05,14.6-6.87,14.54-3.86-.06-6.61-6.28-6.61-14.92Zm0,49.39c0-8.68,2.73-14.66,6.69-14.66,3.92,0,6.83,6.43,6.79,15.04-.04,8.22-3.05,14.6-6.87,14.54-3.86-.06-6.61-6.28-6.61-14.92Zm-351.83-162.68c3.97-.02,6.73,5.94,6.75,14.52.01,8.87-2.77,15.09-6.73,15.06-3.87-.03-6.65-6.23-6.65-14.82,0-8.72,2.71-14.75,6.64-14.76Zm-.03-49.34c3.97-.02,6.73,5.94,6.75,14.52.01,8.87-2.77,15.09-6.73,15.06-3.87-.03-6.65-6.23-6.65-14.82,0-8.71,2.71-14.75,6.64-14.76Zm-134.42,0c3.98-.03,6.77,5.9,6.78,14.44.02,8.9-2.74,15.14-6.69,15.14-3.88,0-6.68-6.18-6.69-14.74,0-8.74,2.7-14.82,6.6-14.84Zm-60.37,162.97c-.01,8.52-2.84,14.67-6.74,14.63-3.93-.04-6.67-6.32-6.65-15.24.03-8.46,2.84-14.38,6.83-14.34,3.88.04,6.57,6.18,6.55,14.95Zm0-98.71c-.01,8.52-2.84,14.67-6.74,14.63-3.93-.03-6.67-6.32-6.65-15.24.03-8.46,2.84-14.38,6.83-14.34,3.88.04,6.57,6.18,6.55,14.95Zm0-49.32c-.01,8.52-2.84,14.67-6.74,14.63-3.93-.04-6.67-6.32-6.65-15.24.03-8.47,2.84-14.38,6.83-14.34,3.88.04,6.57,6.18,6.55,14.95Zm-141.12-14.95c3.92,0,6.83,6.42,6.79,15.03-.04,8.22-3.05,14.6-6.86,14.55-3.86-.06-6.62-6.27-6.61-14.92,0-8.69,2.73-14.66,6.68-14.66Zm784.01,197.37c3.89.03,6.59,6.14,6.58,14.88,0,8.54-2.82,14.71-6.71,14.7-3.94-.01-6.7-6.27-6.68-15.18.02-8.51,2.82-14.43,6.8-14.4Zm51.38,14.88c0,8.54-2.82,14.71-6.71,14.7-3.95-.01-6.7-6.27-6.68-15.17.02-8.52,2.81-14.44,6.8-14.4,3.89.03,6.59,6.14,6.59,14.88Zm190.41-222.1c-.01,8.52-2.86,14.76-6.72,14.71-3.99-.04-6.79-6.3-6.75-15.07.04-8.47,2.88-14.49,6.81-14.46,3.87.02,6.67,6.25,6.65,14.82Zm22.4,0c-.01,8.52-2.86,14.76-6.72,14.71-3.99-.04-6.79-6.3-6.75-15.07.04-8.47,2.88-14.49,6.81-14.46,3.87.02,6.67,6.25,6.65,14.82Zm-44.79,0c-.01,8.52-2.86,14.76-6.72,14.71-3.99-.04-6.79-6.3-6.75-15.07.04-8.47,2.88-14.49,6.82-14.46,3.87.02,6.67,6.25,6.65,14.82Zm-29.09-14.82c3.94.01,6.65,6.01,6.66,14.73,0,8.61-2.77,14.81-6.64,14.85-3.95.04-6.82-6.31-6.79-15.02.03-8.5,2.85-14.57,6.77-14.56Zm-22.44,29.53c-3.98-.05-6.78-6.33-6.73-15.1.05-8.44,2.9-14.45,6.83-14.43,3.86.03,6.65,6.28,6.64,14.86-.02,8.49-2.88,14.73-6.74,14.67Zm-22.44-29.53c3.97-.01,6.73,5.94,6.74,14.54.01,8.86-2.77,15.08-6.74,15.04-3.85-.04-6.69-6.33-6.69-14.83,0-8.55,2.8-14.73,6.69-14.75Zm-22.5,29.51c-3.87-.12-6.62-6.38-6.59-14.99.04-8.74,2.97-14.68,7.17-14.51,3.63.14,6.37,6.73,6.3,15.18-.07,8.43-2.96,14.45-6.88,14.33Zm-15.56-14.91c0,8.66-2.73,14.9-6.58,14.98-3.96.08-6.86-6.21-6.85-14.89.01-8.53,2.82-14.68,6.71-14.69,3.96,0,6.7,5.96,6.71,14.6Zm-29.11,14.93c-3.98-.06-6.77-6.35-6.71-15.14.05-8.55,2.96-14.49,7.04-14.39,3.7.09,6.46,6.48,6.43,14.89-.02,8.48-2.89,14.69-6.76,14.63Zm-22.39-29.53c3.96,0,6.7,5.97,6.71,14.61,0,8.83-2.8,15.03-6.77,14.97-3.83-.06-6.67-6.41-6.65-14.91.01-8.52,2.82-14.67,6.72-14.67Zm-134.01,0c3.88.02,6.68,6.2,6.68,14.75,0,8.54-2.84,14.81-6.69,14.78-4-.03-6.81-6.26-6.78-15.01.03-8.49,2.86-14.54,6.79-14.53Zm-60.82,14.98c-.03,8.47-2.91,14.62-6.79,14.55-3.97-.08-6.74-6.4-6.67-15.21.07-8.55,2.97-14.42,7.07-14.31,3.68.11,6.43,6.54,6.4,14.98Zm-275.5,14.56c-3.99-.05-6.78-6.32-6.73-15.1.05-8.45,2.89-14.46,6.83-14.43,3.86.03,6.66,6.27,6.64,14.85-.02,8.49-2.88,14.73-6.74,14.68Zm-22.45-29.53c3.97-.01,6.73,5.94,6.74,14.53.01,8.87-2.77,15.08-6.73,15.05-3.85-.03-6.69-6.32-6.69-14.83,0-8.55,2.8-14.74,6.68-14.76Zm-22.31,0c3.89.01,6.7,6.18,6.7,14.72,0,8.54-2.83,14.84-6.68,14.82-4-.02-6.82-6.24-6.79-14.98.03-8.5,2.85-14.57,6.77-14.56Zm-82.89,15.06c-.05,8.45-2.93,14.55-6.83,14.46-3.96-.1-6.71-6.43-6.63-15.29.08-8.53,2.99-14.36,7.1-14.22,3.66.12,6.4,6.62,6.36,15.06Zm683.07,320.29c0,8.65-2.74,14.88-6.59,14.96-3.98.08-6.8-6.12-6.79-14.92,0-8.68,2.73-14.66,6.68-14.66,3.96,0,6.69,5.97,6.7,14.62Zm-931.04,120.77c0,8.71-2.71,14.71-6.66,14.72-3.92,0-6.74-6.06-6.77-14.56-.03-8.76,2.79-14.94,6.79-14.92,3.92.02,6.64,6.05,6.63,14.77Zm1.56-47.98c0,8.71-2.71,14.71-6.66,14.72-3.92.01-6.74-6.06-6.77-14.56-.03-8.76,2.78-14.94,6.79-14.92,3.92.02,6.64,6.05,6.63,14.77Zm0-47.98c0,8.71-2.71,14.71-6.66,14.72-3.92.01-6.74-6.06-6.77-14.56-.03-8.76,2.78-14.94,6.79-14.92,3.92.02,6.64,6.05,6.63,14.77Zm17.25,112.78c-3.98-.06-6.77-6.34-6.72-15.12.05-8.56,2.95-14.5,7.03-14.4,3.7.09,6.46,6.47,6.44,14.88-.02,8.48-2.89,14.71-6.75,14.65Zm20.89-28.17c3.94.01,6.66,6.01,6.66,14.72,0,8.88-2.74,14.8-6.82,14.77-3.85-.04-6.63-6.32-6.6-14.93.03-8.5,2.85-14.57,6.77-14.56Zm0-99.38c3.94.01,6.66,6.01,6.66,14.72,0,8.88-2.74,14.8-6.82,14.77-3.85-.04-6.63-6.32-6.6-14.93.03-8.5,2.85-14.57,6.77-14.56Zm96.24-34.48c0,8.69-2.73,14.67-6.68,14.67-3.91,0-6.73-6.1-6.75-14.61-.02-8.75,2.8-14.9,6.81-14.88,3.91.02,6.62,6.08,6.61,14.81Zm15.69-14.81c3.91,0,6.73,6.1,6.75,14.61.02,8.75-2.8,14.9-6.81,14.88-3.87-.02-6.67-6.25-6.66-14.82.01-8.52,2.83-14.67,6.72-14.67ZM880.22,62.21c-3.92-.02-6.64-6.06-6.63-14.77,0-8.84,2.76-14.76,6.85-14.71,3.84.04,6.62,6.35,6.58,14.98-.04,8.48-2.87,14.53-6.79,14.51Zm-67.21,0c-3.91-.02-6.62-6.08-6.61-14.81,0-8.82,2.77-14.73,6.86-14.67,3.85.05,6.54,6.23,6.52,15.01-.02,8.54-2.8,14.49-6.77,14.47Zm-262.01,34.38c0,8.74-2.7,14.83-6.59,14.86-4.08.03-6.8-5.91-6.79-14.83,0-8.68,2.73-14.65,6.68-14.66,3.96,0,6.69,5.97,6.7,14.62Zm-28.98,14.86c-3.97.02-6.75-5.93-6.76-14.49-.01-8.99,2.68-15.01,6.72-15,3.89,0,6.7,6.17,6.71,14.69,0,8.56-2.79,14.77-6.66,14.79Zm-105.39-63.92c0,8.69-2.73,14.67-6.68,14.67-4.03,0-6.72-6.03-6.71-15.02.02-8.54,2.8-14.49,6.77-14.46,3.91.02,6.62,6.08,6.61,14.82Zm-246.33-.2c.02,8.58-2.77,14.84-6.63,14.87-3.99.03-6.78-5.89-6.8-14.41-.02-8.8,2.66-15.02,6.5-15.07,4.05-.06,6.91,5.97,6.93,14.62Zm228.43,384.93c-3.89,0-6.7-6.17-6.71-14.7,0-8.72,2.82-14.83,6.85-14.79,3.88.03,6.58,6.16,6.57,14.9,0,8.63-2.76,14.59-6.72,14.59ZM958.65,8.05c3.96,0,6.71,5.96,6.71,14.59,0,8.95-2.7,14.92-6.77,14.89-3.87-.02-6.67-6.23-6.66-14.8,0-8.53,2.82-14.68,6.71-14.69Zm-67.08,29.49c-4.02.03-6.84-6.11-6.82-14.85.02-8.52,2.83-14.63,6.74-14.63,3.9,0,6.72,6.13,6.73,14.65.02,8.58-2.78,14.81-6.64,14.84Zm-67.19,0c-4.02.03-6.84-6.11-6.82-14.85.02-8.52,2.83-14.63,6.74-14.63,3.96,0,6.68,5.98,6.69,14.65,0,8.74-2.7,14.81-6.6,14.84Zm-246.52-148.05c-3.88-.02-6.68-6.21-6.67-14.77,0-8.69,2.84-14.76,6.89-14.71,3.87.04,6.55,6.2,6.54,14.98-.01,8.57-2.79,14.53-6.75,14.51Zm0,98.71c-3.88-.02-6.68-6.21-6.67-14.77,0-8.69,2.84-14.76,6.89-14.71,3.87.04,6.55,6.2,6.54,14.98-.01,8.57-2.79,14.53-6.75,14.51Zm-22.4-148.03c-3.88-.02-6.68-6.21-6.67-14.77,0-8.69,2.84-14.76,6.89-14.71,3.87.04,6.55,6.2,6.54,14.98-.01,8.57-2.79,14.53-6.75,14.51Zm0,148.03c-3.88-.02-6.68-6.21-6.67-14.77,0-8.69,2.84-14.76,6.89-14.71,3.87.04,6.55,6.2,6.54,14.98-.01,8.57-2.79,14.53-6.75,14.51Zm112.13,444.08c-4.02.03-6.84-6.12-6.82-14.86.02-8.52,2.83-14.63,6.74-14.63,3.9,0,6.72,6.13,6.73,14.65.02,8.58-2.78,14.81-6.65,14.83ZM286.74,57.44c3.96,0,6.71,5.96,6.71,14.59,0,8.95-2.7,14.91-6.77,14.89-3.87-.02-6.67-6.23-6.66-14.8,0-8.52,2.82-14.68,6.71-14.69Zm0-49.39c3.96,0,6.71,5.96,6.71,14.59,0,8.95-2.7,14.91-6.77,14.89-3.87-.02-6.67-6.23-6.66-14.8,0-8.53,2.82-14.68,6.71-14.69Zm-134.38,0c3.96,0,6.71,5.96,6.71,14.59,0,8.95-2.7,14.91-6.76,14.89-3.87-.02-6.67-6.23-6.66-14.8,0-8.53,2.82-14.68,6.71-14.69Zm649.59,424.22c-3.92.01-6.75-6.04-6.78-14.53-.03-8.77,2.78-14.97,6.78-14.96,3.88.01,6.69,6.19,6.69,14.74,0,8.55-2.8,14.74-6.68,14.75Zm-89.59,0c-3.92.01-6.75-6.04-6.78-14.53-.03-8.77,2.78-14.97,6.78-14.96,3.88.01,6.69,6.19,6.69,14.74,0,8.55-2.8,14.74-6.68,14.75ZM902.76-16.62c3.91.02,6.62,6.08,6.62,14.81,0,8.57-2.8,14.76-6.67,14.77-3.96.01-6.73-6.21-6.71-15.1.02-8.55,2.8-14.5,6.77-14.48Zm239.65,310.61c.01-8.61,2.76-14.57,6.73-14.56,4,.01,6.68,6.11,6.65,15.14-.02,8.46-2.9,14.54-6.82,14.44-3.84-.1-6.57-6.35-6.56-15.02Zm-22.44,0c.01-8.61,2.76-14.57,6.73-14.56,4,.01,6.68,6.11,6.65,15.14-.02,8.46-2.9,14.54-6.82,14.44-3.84-.1-6.57-6.35-6.56-15.02ZM841.78-1.98c0,8.64-2.74,14.87-6.6,14.94-3.98.07-6.79-6.12-6.79-14.93,0-8.67,2.73-14.65,6.69-14.65,3.96,0,6.69,5.97,6.69,14.64Zm-201.17.06c0,8.62-2.76,14.83-6.62,14.88-3.97.05-6.77-6.15-6.76-14.99,0-8.63,2.76-14.59,6.72-14.59,3.95,0,6.66,5.99,6.67,14.7Zm-44.79-99.03c0,8.63-2.76,14.84-6.62,14.89-3.97.06-6.77-6.15-6.77-14.98,0-8.63,2.75-14.6,6.71-14.6,3.95,0,6.67,5.99,6.67,14.69Zm22.44,50.4c0,8.63-2.76,14.84-6.62,14.89-3.97.05-6.77-6.15-6.77-14.98,0-8.63,2.75-14.6,6.71-14.6,3.95,0,6.67,5.99,6.67,14.69Zm-22.46,0c0,8.63-2.76,14.84-6.62,14.89-3.97.05-6.77-6.15-6.77-14.98,0-8.63,2.75-14.6,6.71-14.6,3.95,0,6.67,5.99,6.67,14.69Zm-35.76-99.36c0-8.74,2.7-14.81,6.61-14.83,3.98-.02,6.85,6.22,6.86,14.87,0,8.26-2.97,14.71-6.78,14.71-3.88,0-6.68-6.19-6.69-14.75Zm0,148.12c0-8.74,2.7-14.81,6.61-14.83,3.98-.02,6.85,6.22,6.86,14.87,0,8.26-2.97,14.71-6.78,14.71-3.88,0-6.68-6.19-6.69-14.75Zm203.8,370.3c-.05,8.44-2.93,14.54-6.84,14.44-3.96-.1-6.71-6.44-6.63-15.3.08-8.53,2.99-14.35,7.11-14.21,3.66.12,6.4,6.63,6.35,15.07Zm111.94,48.84c.01,8.75-2.69,14.88-6.57,14.92-4.03.04-6.86-6.06-6.86-14.78,0-8.53,2.82-14.7,6.7-14.71,3.96,0,6.71,5.95,6.72,14.57ZM297.99,32.67c3.87,0,6.69,6.17,6.73,14.72.04,8.3-2.9,14.82-6.7,14.86-3.97.05-6.77-6.16-6.76-15.01.01-8.62,2.76-14.58,6.73-14.57Zm0-49.3c3.87,0,6.69,6.17,6.73,14.72.04,8.3-2.9,14.81-6.7,14.86-3.97.05-6.77-6.15-6.76-15.01.01-8.62,2.76-14.58,6.73-14.57ZM192.66-2c0,8.64-2.74,14.88-6.59,14.96-3.98.08-6.8-6.11-6.79-14.92,0-8.68,2.73-14.66,6.68-14.66,3.96,0,6.69,5.97,6.7,14.62Zm-35.78.25c0-8.75,2.69-14.85,6.59-14.88,3.99-.03,6.86,6.15,6.88,14.82.02,8.27-2.95,14.75-6.75,14.76-3.89.01-6.7-6.15-6.71-14.7Zm584.51,369.95c0,8.59-2.78,14.79-6.65,14.82-3.95.03-6.81-6.33-6.77-15.06.03-8.48,2.86-14.54,6.79-14.52,3.93.01,6.64,6.05,6.64,14.76ZM1003.48-41.29c3.9,0,6.71,6.14,6.72,14.67.01,8.53-2.83,14.88-6.66,14.87-4,0-6.83-6.21-6.81-14.93.02-8.52,2.84-14.61,6.75-14.61Zm17.78-7.48c-.64,8.57-3.76,13.51-7.66,12.11-3.98-1.43-6.19-8.33-5.52-17.2.64-8.43,3.82-13.31,7.74-11.87,3.86,1.41,6.09,8.35,5.44,16.97Zm-40.18,7.48c3.9,0,6.71,6.14,6.72,14.67.01,8.53-2.83,14.88-6.65,14.87-4,0-6.84-6.21-6.81-14.93.02-8.52,2.84-14.61,6.75-14.61Zm-60.51,14.95c-.01,8.52-2.84,14.67-6.74,14.63-3.85-.03-6.69-6.33-6.69-14.83,0-8.7,2.83-14.79,6.87-14.75,3.88.04,6.57,6.18,6.55,14.95Zm-67.13-.31c0,8.64-2.74,14.87-6.6,14.94-3.96.07-6.85-6.24-6.83-14.93.01-8.52,2.83-14.65,6.73-14.65,3.96,0,6.69,5.97,6.7,14.63Zm-201.63.26c0,8.54-2.83,14.7-6.71,14.68-3.86-.02-6.7-6.29-6.71-14.78,0-8.73,2.82-14.83,6.85-14.8,3.89.03,6.59,6.15,6.58,14.9Zm-29.24,14.61c-3.87-.12-6.62-6.38-6.58-15,.04-8.73,2.97-14.67,7.17-14.51,3.63.15,6.36,6.74,6.3,15.19-.07,8.43-2.96,14.44-6.89,14.32Zm-194.73-14.96c.01,8.86-2.77,15.07-6.74,15.03-3.85-.04-6.68-6.34-6.68-14.84,0-8.54,2.81-14.72,6.69-14.74,3.97-.01,6.72,5.94,6.74,14.55ZM114.27,318.65c.01,8.76-2.68,14.9-6.56,14.94-4.04.04-6.87-6.05-6.87-14.75,0-8.54,2.81-14.72,6.69-14.74,3.97-.01,6.72,5.94,6.73,14.55ZM286.73-11.79c-3.87-.12-6.62-6.38-6.58-14.99.04-8.74,2.97-14.68,7.17-14.51,3.63.14,6.37,6.73,6.3,15.18-.07,8.43-2.96,14.44-6.88,14.33Zm-104.64-14.84c0,8.64-2.75,14.85-6.61,14.91-3.95.06-6.84-6.26-6.82-14.96.02-8.52,2.84-14.62,6.74-14.62,3.96,0,6.68,5.98,6.68,14.66Zm21.77,0c0,8.64-2.75,14.85-6.61,14.91-3.95.06-6.84-6.26-6.82-14.96.02-8.52,2.84-14.62,6.74-14.62,3.95,0,6.68,5.98,6.68,14.66Zm866.87,458.9c-3.92.01-6.75-6.04-6.78-14.53-.03-8.77,2.78-14.97,6.78-14.96,3.94.01,6.65,6.02,6.65,14.74,0,8.72-2.71,14.74-6.64,14.75ZM8.43,532.33c-3.97.02-6.76-5.92-6.77-14.47-.02-9,2.67-15.02,6.71-15.02,3.95,0,6.67,5.98,6.68,14.67,0,8.73-2.7,14.79-6.61,14.82ZM998.87-48.77c-.64,8.57-3.76,13.51-7.66,12.11-3.98-1.43-6.19-8.33-5.52-17.2.64-8.43,3.82-13.31,7.74-11.87,3.86,1.41,6.09,8.35,5.44,16.97Zm-28.98,81.3c3.9,0,6.71,6.14,6.72,14.66.01,8.73-2.81,14.85-6.84,14.82-3.89-.03-6.6-6.13-6.59-14.87,0-8.64,2.75-14.62,6.7-14.62Zm0-49.1c3.9,0,6.71,6.14,6.72,14.67.01,8.73-2.81,14.85-6.84,14.82-3.89-.03-6.6-6.13-6.59-14.87,0-8.64,2.75-14.62,6.7-14.62Zm-22.38-247.21c3.96,0,6.69,5.97,6.7,14.63,0,8.93-2.71,14.88-6.78,14.85-3.91-.02-6.61-6.1-6.6-14.84,0-8.67,2.73-14.65,6.69-14.65Zm156.82,296.78c3.96,0,6.69,5.97,6.7,14.63,0,8.93-2.71,14.88-6.78,14.86-3.91-.02-6.61-6.1-6.6-14.84,0-8.67,2.73-14.65,6.69-14.65Zm105.35,14.53c.01-8.62,2.76-14.58,6.73-14.57,3.91,0,6.81,6.51,6.75,15.12-.06,8.2-3.09,14.55-6.91,14.46-3.85-.09-6.58-6.33-6.57-15.01Zm-9.01.28c0,8.55-2.82,14.73-6.7,14.72-3.95,0-6.71-6.26-6.69-15.15.02-8.53,2.81-14.45,6.79-14.43,3.9.03,6.6,6.12,6.59,14.86Zm-35.87-.28c0-8.62,2.76-14.58,6.73-14.57,3.91,0,6.81,6.51,6.75,15.12-.06,8.2-3.08,14.55-6.9,14.46-3.85-.09-6.58-6.33-6.57-15.01Zm-89.59.37c-.01-8.77,2.68-14.91,6.56-14.95,4-.04,6.87,6.1,6.9,14.76.03,8.28-2.92,14.79-6.72,14.82-3.9.04-6.73-6.12-6.74-14.63Zm-9.01-.2c0,8.6-2.78,14.8-6.65,14.83-3.97.04-6.75-6.18-6.74-15.04.01-8.6,2.77-14.55,6.74-14.54,3.93.01,6.64,6.03,6.64,14.75Zm-28.85-14.75c3.76.07,6.61,6.68,6.54,15.17-.07,8.21-3.09,14.51-6.92,14.41-3.89-.11-6.59-6.49-6.55-15.46.04-8.33,2.92-14.19,6.94-14.12Zm66.98-148.21c3.96,0,6.69,5.97,6.7,14.63,0,8.93-2.71,14.88-6.78,14.85-3.91-.03-6.61-6.09-6.6-14.84,0-8.67,2.73-14.65,6.69-14.65Zm105.35,14.53c.01-8.62,2.76-14.58,6.73-14.57,3.91.01,6.81,6.51,6.75,15.12-.06,8.2-3.09,14.54-6.91,14.45-3.85-.09-6.58-6.33-6.57-15Zm-9.01.28c0,8.55-2.82,14.72-6.7,14.72-3.95,0-6.71-6.26-6.69-15.15.02-8.53,2.81-14.45,6.79-14.43,3.9.03,6.6,6.12,6.59,14.86Zm-35.87-.28c0-8.62,2.76-14.58,6.73-14.57,3.91.01,6.81,6.51,6.75,15.12-.06,8.2-3.08,14.54-6.9,14.45-3.85-.09-6.58-6.33-6.57-15Zm-9.01.28c0,8.55-2.82,14.72-6.7,14.72-3.95,0-6.71-6.26-6.69-15.15.02-8.53,2.81-14.45,6.79-14.43,3.9.03,6.6,6.12,6.59,14.86Zm-35.78.07c-.01-8.76,2.69-14.9,6.56-14.93,4-.04,6.87,6.11,6.9,14.77.03,8.28-2.92,14.78-6.73,14.81-3.89.03-6.72-6.12-6.73-14.65Zm-44.79.01c-.01-8.77,2.68-14.91,6.56-14.94,4-.04,6.87,6.09,6.9,14.76.03,8.28-2.92,14.79-6.72,14.82-3.9.04-6.73-6.12-6.74-14.64Zm-9.01-.19c0,8.6-2.78,14.8-6.65,14.83-3.97.04-6.75-6.18-6.74-15.04.01-8.6,2.77-14.55,6.74-14.54,3.93.01,6.64,6.03,6.64,14.75Zm-28.85-14.75c3.76.07,6.61,6.68,6.54,15.17-.07,8.21-3.09,14.51-6.92,14.41-3.89-.1-6.59-6.48-6.55-15.46.04-8.33,2.92-14.19,6.94-14.11Zm-89.83.05c3.96,0,6.69,5.97,6.7,14.63,0,8.93-2.71,14.88-6.78,14.85-3.91-.03-6.61-6.09-6.6-14.84,0-8.67,2.73-14.65,6.69-14.65Zm-44.84,49.29c3.96,0,6.7,5.97,6.71,14.61,0,8.94-2.7,14.9-6.77,14.88-3.91-.02-6.62-6.08-6.61-14.82,0-8.69,2.73-14.67,6.68-14.67Zm-44.61-19.81c-3.96,0-6.68-5.98-6.68-14.66,0-8.92,2.72-14.85,6.8-14.82,3.86.03,6.65,6.29,6.63,14.87-.02,8.52-2.84,14.62-6.74,14.62Zm0,49.29c-3.96,0-6.68-5.98-6.68-14.66,0-8.91,2.72-14.85,6.8-14.82,3.86.03,6.65,6.29,6.63,14.87-.02,8.51-2.84,14.62-6.74,14.62Zm-201.5-29.49c3.81.07,6.56,6.5,6.49,15.17-.07,8.55-2.97,14.43-7.07,14.31-3.74-.1-6.4-6.53-6.36-15.38.04-8.32,2.92-14.18,6.93-14.11Zm-112.34,29.49c-3.91-.03-6.61-6.1-6.6-14.84,0-8.8,2.78-14.7,6.88-14.65,3.83.05,6.6,6.4,6.55,15.04-.04,8.46-2.89,14.47-6.82,14.44Zm-82.79-14.93c.01,8.75-2.69,14.89-6.56,14.93-4.08.04-6.82-5.89-6.82-14.77,0-8.71,2.71-14.71,6.66-14.72,3.96-.01,6.72,5.95,6.73,14.56Zm-29.05,14.93c-3.97.01-6.72-5.94-6.73-14.56-.01-8.97,2.69-14.95,6.75-14.93,3.88.02,6.68,6.21,6.68,14.76,0,8.54-2.81,14.72-6.7,14.73Zm-22.28-29.49c3.86.05,6.55,6.21,6.53,14.99-.01,8.71-2.83,14.58-6.95,14.49-3.8-.08-6.47-6.38-6.44-15.2.03-8.44,2.85-14.33,6.85-14.29Zm-74.04,14.5c.01-8.57,2.79-14.52,6.76-14.5,3.88.02,6.68,6.22,6.67,14.78,0,8.69-2.85,14.75-6.89,14.71-3.86-.04-6.55-6.2-6.54-14.98Zm-60.52-14.5c3.96,0,6.7,5.96,6.71,14.6,0,8.94-2.7,14.91-6.77,14.89-3.92-.02-6.62-6.07-6.62-14.8,0-8.7,2.72-14.68,6.67-14.69Zm-67.12,0c3.88.01,6.68,6.2,6.68,14.75,0,8.7-2.84,14.78-6.88,14.74-3.87-.04-6.56-6.18-6.55-14.96.01-8.59,2.78-14.54,6.74-14.53Zm795.08-24.67c3.94.01,6.66,6.01,6.66,14.72,0,8.88-2.74,14.8-6.82,14.77-3.85-.04-6.63-6.32-6.6-14.93.03-8.5,2.85-14.57,6.77-14.56Zm.02-147.28c3.96,0,6.69,5.97,6.7,14.63,0,8.94-2.71,14.89-6.78,14.86-3.87-.02-6.66-6.26-6.65-14.83.01-8.52,2.83-14.65,6.73-14.65Zm-22.41.08c3.91,0,6.73,6.09,6.75,14.61.02,8.75-2.8,14.9-6.81,14.88-3.87-.02-6.67-6.24-6.66-14.81.01-8.53,2.82-14.67,6.72-14.67Zm-22.45-.8c3.96,0,6.69,5.97,6.7,14.63,0,8.94-2.71,14.89-6.78,14.86-3.87-.03-6.66-6.26-6.65-14.83.01-8.52,2.83-14.65,6.73-14.65Zm0,98.68c3.96,0,6.69,5.97,6.7,14.63,0,8.94-2.71,14.89-6.78,14.86-3.87-.03-6.66-6.26-6.65-14.83.01-8.52,2.83-14.65,6.73-14.65Zm-22.41-98.6c3.91,0,6.73,6.09,6.75,14.61.02,8.75-2.8,14.9-6.81,14.88-3.87-.02-6.67-6.24-6.66-14.81.01-8.53,2.82-14.67,6.72-14.67Zm0,147.93c3.91,0,6.73,6.09,6.75,14.61.02,8.75-2.8,14.9-6.81,14.88-3.87-.02-6.67-6.24-6.66-14.81.01-8.53,2.82-14.67,6.72-14.67Zm-44.79,29.48c-3.9,0-6.71-6.14-6.72-14.66-.01-8.73,2.81-14.85,6.84-14.82,3.86.03,6.65,6.28,6.63,14.87-.02,8.52-2.84,14.62-6.74,14.62Zm-22.39,0c-3.91,0-6.73-6.1-6.75-14.61-.02-8.75,2.8-14.9,6.81-14.88,3.87.02,6.67,6.24,6.65,14.82-.01,8.53-2.82,14.67-6.72,14.67Zm-201.59-29.48c3.91,0,6.73,6.08,6.76,14.59.02,8.75-2.79,14.91-6.8,14.89-3.88-.02-6.67-6.23-6.66-14.8,0-8.53,2.82-14.68,6.71-14.69Zm-60.48,14.89c0,8.63-2.76,14.6-6.71,14.59-3.89,0-6.7-6.16-6.71-14.69,0-8.73,2.82-14.83,6.85-14.8,3.89.03,6.59,6.15,6.58,14.89ZM242.04,333.59c-4.02.02-6.83-6.13-6.81-14.88.02-8.51,2.84-14.61,6.75-14.61,3.95,0,6.68,5.98,6.68,14.67,0,8.73-2.7,14.79-6.61,14.82ZM517.42-75.78c0,8.66-2.74,14.63-6.7,14.63-3.9,0-6.71-6.13-6.73-14.65-.01-8.73,2.81-14.86,6.83-14.83,3.9.03,6.6,6.11,6.59,14.85Zm-51.38-14.85c3.89.03,6.59,6.14,6.58,14.88,0,8.77-2.79,14.67-6.9,14.6-3.74-.06-6.52-6.3-6.53-14.68-.01-8.73,2.81-14.84,6.85-14.81Zm-44.93,29.48c-3.9,0-6.71-6.13-6.73-14.65-.01-8.74,2.81-14.86,6.83-14.83,3.86.03,6.65,6.28,6.64,14.86-.02,8.52-2.83,14.63-6.74,14.63Zm22.42,0c-3.9,0-6.71-6.13-6.73-14.65-.01-8.74,2.81-14.86,6.83-14.83,3.86.03,6.65,6.28,6.64,14.86-.02,8.52-2.83,14.63-6.74,14.63Zm11.15,518.09c-3.97.01-6.73-5.94-6.74-14.54-.01-8.97,2.69-14.96,6.74-14.94,3.88.01,6.68,6.2,6.68,14.75,0,8.54-2.81,14.72-6.69,14.73ZM264.33-61.15c-3.89,0-6.7-6.17-6.71-14.7,0-8.72,2.82-14.82,6.86-14.78,3.86.03,6.64,6.31,6.61,14.91-.02,8.51-2.85,14.59-6.76,14.58Zm-44.77-29.48c3.91,0,6.72,6.11,6.74,14.63.02,8.74-2.8,14.88-6.82,14.86-3.87-.02-6.66-6.26-6.65-14.83.02-8.52,2.83-14.65,6.73-14.65Zm441.21,458.58c.04-8.61,2.91-14.58,6.98-14.5,3.8.07,6.55,6.52,6.48,15.19-.07,8.42-2.96,14.43-6.89,14.31-3.87-.12-6.62-6.38-6.58-15Zm-300.11-48.95c0,8.68-2.73,14.66-6.68,14.66-3.91,0-6.72-6.1-6.74-14.62-.02-8.74,2.8-14.89,6.82-14.86,3.91.02,6.61,6.09,6.61,14.83Zm430.11,137.95c-3.92-.02-6.63-6.06-6.63-14.78,0-8.84,2.76-14.76,6.85-14.71,3.84.04,6.61,6.36,6.58,14.98-.04,8.48-2.87,14.52-6.8,14.5Zm-67.29,0c-3.92-.02-6.63-6.06-6.63-14.78,0-8.84,2.76-14.76,6.85-14.71,3.84.04,6.62,6.36,6.58,14.98-.04,8.48-2.87,14.52-6.8,14.5Zm-324.71-123.35c-3.92,0-6.74-6.07-6.77-14.57-.03-8.76,2.79-14.93,6.8-14.92,3.88.02,6.68,6.21,6.67,14.78,0,8.53-2.82,14.7-6.7,14.71Zm481.55,123.35c-3.97.01-6.72-5.94-6.73-14.55-.01-8.97,2.69-14.95,6.75-14.93,3.88.02,6.68,6.21,6.68,14.76,0,8.54-2.81,14.72-6.7,14.73Zm179.08,0c-3.92-.02-6.64-6.06-6.63-14.77,0-8.84,2.76-14.76,6.85-14.72,3.84.04,6.62,6.35,6.58,14.98-.04,8.48-2.87,14.53-6.79,14.51Zm-571.08-73.97c-3.98-.06-6.77-6.34-6.72-15.12.05-8.56,2.95-14.5,7.03-14.4,3.7.09,6.46,6.47,6.44,14.88-.02,8.48-2.89,14.71-6.75,14.65Zm-44.69-49.38c-4.02.03-6.84-6.12-6.82-14.86.02-8.52,2.83-14.63,6.74-14.63,3.9,0,6.72,6.13,6.73,14.65.02,8.58-2.78,14.81-6.65,14.83ZM1007.97-100.73c.01-8.62,2.76-14.58,6.73-14.57,3.91.01,6.81,6.51,6.75,15.12-.05,8.2-3.09,14.54-6.91,14.45-3.85-.09-6.58-6.33-6.57-15Zm-8.97-148.24c0,8.55-2.82,14.72-6.7,14.72-3.95,0-6.71-6.26-6.69-15.15.02-8.53,2.81-14.45,6.79-14.43,3.9.03,6.6,6.12,6.59,14.86Zm-.18,99.55c0,8.55-2.82,14.72-6.7,14.72-3.95,0-6.71-6.26-6.69-15.15.02-8.53,2.81-14.45,6.79-14.43,3.9.03,6.6,6.12,6.59,14.86Zm-35.64-99.47c-.01-8.76,2.68-14.9,6.56-14.93,4-.04,6.87,6.11,6.9,14.77.03,8.28-2.92,14.78-6.73,14.81-3.89.03-6.72-6.12-6.73-14.65Zm0,148.53c-.01-8.76,2.68-14.9,6.56-14.93,4-.04,6.87,6.11,6.9,14.77.03,8.28-2.92,14.78-6.73,14.81-3.89.03-6.72-6.12-6.73-14.65Zm-44.79-98.67c-.01-8.77,2.68-14.91,6.56-14.94,4-.04,6.87,6.09,6.9,14.76.03,8.28-2.92,14.79-6.72,14.82-3.9.04-6.73-6.12-6.74-14.64Zm0,98.68c-.01-8.77,2.68-14.91,6.56-14.94,4-.04,6.87,6.09,6.9,14.76.03,8.28-2.92,14.79-6.72,14.82-3.9.04-6.73-6.12-6.74-14.64Zm-9.01-49.17c0,8.59-2.78,14.8-6.65,14.83-3.97.04-6.75-6.18-6.74-15.04.01-8.6,2.77-14.55,6.74-14.54,3.93.01,6.64,6.03,6.64,14.75Zm-28.85,34.23c3.76.07,6.61,6.68,6.54,15.17-.07,8.21-3.09,14.51-6.92,14.41-3.89-.1-6.59-6.48-6.55-15.46.04-8.33,2.92-14.19,6.93-14.11Zm-224.27,0c3.96-.01,6.72,5.95,6.73,14.56.01,8.85-2.78,15.06-6.75,15.02-3.86-.04-6.64-6.25-6.64-14.86,0-8.71,2.71-14.71,6.66-14.72Zm22.42,0c3.97-.01,6.72,5.95,6.73,14.56.01,8.85-2.78,15.06-6.75,15.02-3.87-.04-6.64-6.25-6.64-14.86,0-8.71,2.71-14.71,6.66-14.72Zm-190.31,448.89c-3.92,0-6.74-6.07-6.76-14.58-.03-8.76,2.79-14.93,6.8-14.91,3.88.02,6.68,6.22,6.67,14.79,0,8.53-2.82,14.69-6.71,14.7Zm26.88-434.18c0-8.71,2.72-14.7,6.66-14.71,3.94,0,6.83,6.36,6.81,14.99-.02,8.23-3.03,14.63-6.84,14.59-3.87-.04-6.64-6.25-6.63-14.87Zm-22.4.08c0-8.73,2.71-14.77,6.62-14.79,4.06-.02,6.77,5.95,6.76,14.9,0,8.54-2.83,14.7-6.72,14.68-3.87-.02-6.67-6.21-6.67-14.78Zm-15.67-14.79c3.87.01,6.69,6.17,6.73,14.72.04,8.3-2.9,14.82-6.7,14.86-3.97.05-6.77-6.16-6.76-15.01.01-8.62,2.76-14.58,6.73-14.57Zm-250.87,630.44c-.04,8.45-2.92,14.57-6.82,14.48-3.97-.09-6.72-6.43-6.64-15.27.07-8.54,2.98-14.38,7.09-14.25,3.67.12,6.41,6.6,6.37,15.03Zm15.6-15.03c3.97-.02,6.74,5.93,6.76,14.5.01,8.88-2.76,15.1-6.72,15.07-3.85-.02-6.7-6.3-6.7-14.8,0-8.56,2.79-14.76,6.67-14.78Zm22.45,29.53c-3.98-.06-6.77-6.34-6.72-15.12.05-8.43,2.9-14.44,6.84-14.41,3.86.03,6.65,6.29,6.63,14.87-.02,8.48-2.89,14.71-6.75,14.65Zm22.49-29.53c3.91.02,6.61,6.09,6.61,14.83,0,8.56-2.81,14.75-6.68,14.75-3.94,0-6.79-6.39-6.74-15.12.04-8.46,2.88-14.48,6.82-14.46Zm22.35,0c3.89,0,6.69,6.19,6.7,14.73,0,8.54-2.84,14.83-6.68,14.81-4-.02-6.82-6.25-6.79-14.99.03-8.5,2.85-14.57,6.77-14.55Zm22.31,0c3.97-.01,6.73,5.94,6.74,14.54.01,8.87-2.77,15.08-6.74,15.04-3.85-.03-6.69-6.33-6.69-14.83,0-8.55,2.8-14.73,6.69-14.75Zm22.48,0c3.89,0,6.7,6.18,6.7,14.71,0,8.54-2.83,14.84-6.67,14.83-4-.02-6.82-6.24-6.8-14.97.03-8.5,2.85-14.58,6.77-14.57Zm29.06,14.78c0,8.58-2.79,14.77-6.66,14.8-3.86.02-6.74-6.22-6.76-14.67-.03-8.76,2.79-14.93,6.8-14.91,3.92.02,6.63,6.07,6.63,14.78Zm38.11,14.74c-3.98-.07-6.76-6.36-6.7-15.16.06-8.55,2.96-14.47,7.05-14.36,3.69.1,6.45,6.5,6.42,14.92-.03,8.47-2.9,14.67-6.77,14.6Zm-22.44,0c-3.98-.07-6.76-6.36-6.7-15.16.06-8.55,2.96-14.47,7.05-14.36,3.69.1,6.45,6.5,6.42,14.92-.03,8.47-2.9,14.67-6.77,14.6Zm-55.99-644.93c3.95-.01,6.84,6.34,6.81,14.97-.02,8.23-3.02,14.64-6.83,14.61-3.87-.04-6.64-6.24-6.64-14.85,0-8.72,2.71-14.72,6.66-14.73Zm-62.96-9.44c.01-8.61,2.77-14.56,6.74-14.55,3.99.01,6.67,6.12,6.65,15.15-.02,8.45-2.9,14.53-6.83,14.43-3.84-.1-6.57-6.36-6.56-15.03Zm-10.89,23.99c.01-8.61,2.77-14.56,6.73-14.55,3.99.01,6.68,6.12,6.65,15.15-.02,8.45-2.9,14.53-6.83,14.43-3.84-.1-6.57-6.35-6.56-15.03Zm-67.19.27c0-8.74,2.7-14.8,6.61-14.82,3.97-.02,6.85,6.22,6.85,14.88,0,8.26-2.97,14.71-6.78,14.7-3.88,0-6.68-6.19-6.68-14.76Zm241.83,582.13c-3.98-.07-6.76-6.36-6.7-15.16.06-8.55,2.96-14.47,7.05-14.36,3.69.1,6.45,6.5,6.42,14.92-.03,8.47-2.9,14.67-6.77,14.6Zm-44.79,0c-3.98-.07-6.76-6.36-6.7-15.16.06-8.55,2.96-14.47,7.05-14.36,3.69.1,6.45,6.5,6.42,14.92-.03,8.47-2.9,14.67-6.77,14.6Zm268.73-148.06c-3.87-.02-6.67-6.24-6.66-14.8.01-8.68,2.85-14.74,6.9-14.68,3.84.05,6.61,6.38,6.57,15.01-.04,8.47-2.87,14.5-6.81,14.48Z"/>
      <path class="cls-1" d="m152.39,234.63c-2.29.46-4.06-1.89-5.43-5.73-1.26-3.54-1.79-7.46-.64-11.77.41-1.53.7-3.21,1.1-4.75,1.95-7.6,5.61-9.69,8.71-5.01,3.17,4.78,4.02,14.98,1.73,21.35-1.37,3.83-3.1,6.29-5.47,5.9Zm-22.45-375.19c3.92-.01,6.74,6.06,6.77,14.55.03,7.38-2.8,14.85-5.65,14.95-4.54.16-7.82-6.05-7.82-14.77,0-8.53,2.82-14.71,6.7-14.72ZM403.25-2.52c0-6.7,3.66-14.59,6.74-14.58,3.93.01,6.64,6.04,6.64,14.75s-2.78,14.81-6.64,14.85c-3.97.04-6.76-6.17-6.74-15.03Zm853.34,74.22c0,7.69-2.8,14.77-5.86,14.79-4.58.03-7.55-5.7-7.57-14.62-.02-8.74,2.79-14.9,6.79-14.89,3.92.01,6.64,6.03,6.64,14.72Zm-22.46,0c0,7.69-2.8,14.77-5.86,14.79-4.58.03-7.55-5.7-7.57-14.62-.02-8.74,2.79-14.9,6.79-14.89,3.92.01,6.64,6.03,6.64,14.72Zm-683.11-222.14c0,8.68-2.72,14.69-6.65,14.7-3.48.01-6.78-6.29-6.73-12.86.08-10.64,2.54-16.68,6.79-16.65,3.89.03,6.6,6.1,6.59,14.81Zm-17.93,9.83c4.31-.84,6.45,7.66,6.71,15.14.28,8.13-2.81,14.35-6.58,14.37-4.01.02-6.83-6.1-6.82-14.82.01-8.51,2.82-14.68,6.69-14.7Zm0,49.43c4.31-.84,6.45,7.66,6.71,15.14.28,8.13-2.81,14.35-6.58,14.37-4.01.03-6.83-6.1-6.82-14.82.01-8.52,2.82-14.68,6.69-14.7Zm22.46,197.54c3.94,0,6.67,5.99,6.67,14.67,0,8.92-2.71,14.87-6.78,14.85-3.35-.02-6.77-6.42-6.58-12.75.32-10.82,1.95-16.44,6.68-16.76ZM112.09,294.09c-.42-8.87,3.37-14.49,6.86-14.8,3.75-.34,6.63,6.41,6.61,14.89-.01,8.23-3,14.66-6.79,14.64-3.87-.01-6.67-6.2-6.68-14.73Zm387.5-64.26c3.72.02,6.63,6.13,6.63,13.92,0,9.31-2.7,15.59-6.69,15.59s-6.71-6.04-6.69-15.02c.01-8.54,2.79-14.5,6.75-14.49Zm-145.61-93.95c-3.91.01-6.77-6.15-6.77-14.56,0-8.53,2.84-14.93,6.63-14.96,4.02-.03,6.85,6.08,6.84,14.8,0,8.53-2.82,14.7-6.7,14.71Zm835.35,34.57c0,8.63-2.76,14.85-6.61,14.9-3.95.06-6.83-6.27-6.81-14.97.02-7.89,2.86-14.61,6.18-14.63,4.45-.03,7.24,5.64,7.25,14.7Zm-533.02,286.43c-3.74,0-6.67-6.05-6.69-13.82-.03-9.66,2.6-15.73,6.79-15.69,3.86.03,6.65,6.29,6.63,14.87-.02,8.52-2.83,14.64-6.73,14.64Zm-246.4-98.77c-3.95,0-6.66-6-6.66-14.7,0-8.9,2.73-14.84,6.8-14.81,3.89.03,6.59,6.14,6.58,14.88,0,8.53-2.81,14.63-6.72,14.63Zm246.42,0c-4.03,0-6.7-5.97-6.71-15.04-.01-8.47,2.81-14.49,6.77-14.47,3.87.02,6.66,6.25,6.65,14.82-.01,8.53-2.82,14.69-6.71,14.69Zm145.55-74.04c-3.98-.06-6.77-6.35-6.72-15.14.05-8.57,2.95-14.51,7.03-14.42,3.7.09,6.46,6.47,6.44,14.89-.02,8.49-2.89,14.72-6.75,14.66Zm-112.06-29.55c3.93-.02,6.76,6.01,6.8,14.51.04,8.57-2.78,15.04-6.57,15.08-4.02.04-6.89-6.12-6.9-14.78,0-8.57,2.79-14.79,6.67-14.8Zm-201.49,0c3.91,0,6.72,6.12,6.74,14.64.02,8.54-2.82,14.92-6.64,14.93-4.01,0-6.85-6.19-6.83-14.91.01-8.53,2.83-14.66,6.73-14.66Zm-127.66,14.83c0,8.58-2.79,14.79-6.66,14.81-3.86.02-6.74-6.23-6.76-14.68-.03-8.77,2.79-14.94,6.8-14.93,3.92.02,6.63,6.07,6.63,14.8Zm-67.21-.08c0,8.61-2.78,14.82-6.64,14.85-3.95.04-6.81-6.32-6.78-15.05.03-8.5,2.86-14.57,6.78-14.56,3.94.01,6.65,6.03,6.65,14.75Zm-29.04,84.04c3.88.01,6.69,6.21,6.69,14.76,0,8.55-2.84,14.83-6.69,14.8-4-.03-6.81-6.26-6.78-15.01.03-8.5,2.86-14.56,6.78-14.55Zm-89.64-69.24c-3.99-.05-6.78-6.33-6.73-15.12.05-8.45,2.89-14.47,6.83-14.44,3.86.03,6.65,6.28,6.64,14.87-.02,8.5-2.88,14.74-6.74,14.69Zm-15.7-14.82c0,8.62-2.77,14.83-6.64,14.87-3.95.04-6.82-6.31-6.79-15.03.03-8.51,2.85-14.59,6.77-14.58,3.94.01,6.66,6.01,6.66,14.73Zm1011.92-9.91c-3.91-.02-6.62-6.09-6.61-14.83,0-8.82,2.77-14.74,6.86-14.69,3.84.05,6.6,6.39,6.56,15.03-.04,8.48-2.88,14.5-6.81,14.48Zm-156.37-29.51c3.97-.02,6.73,5.94,6.75,14.53.01,8.99-2.68,14.99-6.73,14.98-3.94-.01-6.65-6.02-6.65-14.74,0-8.72,2.71-14.76,6.64-14.78Zm-67.15,0c3.96,0,6.69,5.98,6.7,14.64,0,8.94-2.71,14.89-6.78,14.87-3.91-.02-6.61-6.1-6.6-14.85,0-8.68,2.73-14.66,6.69-14.66Zm-134.31,29.51c-3.96,0-6.7-5.98-6.71-14.62,0-8.95,2.7-14.92,6.77-14.89,3.87.02,6.67,6.25,6.66,14.83-.01,8.53-2.82,14.68-6.72,14.69Zm145.6-4.82c3.88.01,6.69,6.2,6.69,14.75,0,8.55-2.84,14.84-6.68,14.81-4-.02-6.82-6.25-6.78-15.01.03-8.5,2.85-14.57,6.78-14.56Zm-683.09,24.74c3.89.03,6.59,6.15,6.58,14.9,0,8.77-2.79,14.68-6.9,14.62-3.83-.06-6.51-6.29-6.49-15.1.02-8.52,2.82-14.44,6.8-14.41Zm-112.03-19.92c-3.97.02-6.75-5.94-6.76-14.5-.02-9,2.68-15.02,6.72-15.01,3.89,0,6.7,6.17,6.71,14.71,0,8.57-2.79,14.79-6.66,14.8Zm936.1,108.82c0,8.56-2.82,14.74-6.7,14.73-3.86,0-6.71-6.26-6.73-14.76-.02-8.74,2.81-14.88,6.83-14.85,3.9.03,6.6,6.12,6.59,14.87Zm60.45-133.51c-3.88-.01-6.69-6.2-6.69-14.75,0-8.71,2.83-14.8,6.87-14.76,3.85.04,6.63,6.33,6.6,14.96-.03,8.51-2.85,14.57-6.78,14.56Zm-134.43,0c-3.87-.02-6.66-6.27-6.64-14.85.01-8.67,2.87-14.72,6.92-14.66,3.83.05,6.6,6.4,6.55,15.05-.04,8.46-2.89,14.48-6.82,14.46Zm-67.01-29.51c3.91.02,6.61,6.1,6.6,14.85,0,8.81-2.78,14.72-6.88,14.66-3.83-.05-6.6-6.4-6.55-15.05.04-8.46,2.89-14.48,6.82-14.46Zm-156.82,29.51c-3.92.01-6.75-6.05-6.79-14.54-.03-8.77,2.78-14.99,6.77-14.97,3.89.01,6.69,6.19,6.69,14.74,0,8.56-2.8,14.76-6.68,14.77Zm-67.19,0c-3.92.01-6.75-6.05-6.79-14.53-.03-8.77,2.78-14.99,6.77-14.98,3.94,0,6.65,6.02,6.65,14.74,0,8.72-2.71,14.76-6.64,14.77Zm-22.47,0c-3.89,0-6.7-6.17-6.71-14.7,0-8.73,2.82-14.85,6.85-14.81,3.86.03,6.64,6.3,6.62,14.91-.02,8.52-2.84,14.61-6.76,14.61Zm-223.91,0c-3.92.01-6.75-6.06-6.78-14.56-.03-8.77,2.78-14.97,6.79-14.95,3.88.01,6.68,6.21,6.68,14.76,0,8.55-2.81,14.73-6.69,14.75Zm-134.65,0c-3.81-.07-6.55-6.51-6.49-15.19.07-8.55,2.97-14.44,7.07-14.33,3.74.1,6.4,6.54,6.36,15.39-.04,8.33-2.92,14.2-6.93,14.12Zm813.07,34.72c0,8.56-2.81,14.75-6.69,14.76-3.86,0-6.72-6.25-6.74-14.74-.02-8.75,2.8-14.89,6.82-14.87,3.91.03,6.61,6.1,6.6,14.85Zm-22.25,0c0,8.56-2.81,14.75-6.69,14.76-3.86,0-6.72-6.25-6.74-14.74-.02-8.75,2.8-14.89,6.82-14.87,3.91.03,6.61,6.1,6.6,14.85Zm-851.09-49.57c0,8.75-2.7,14.82-6.61,14.85-4.02.02-6.84-6.12-6.82-14.87.02-8.52,2.83-14.64,6.74-14.64,3.95,0,6.68,5.98,6.69,14.67Zm553.33,133.49c3.87.02,6.66,6.27,6.65,14.85-.02,8.51-2.87,14.75-6.73,14.7-3.99-.05-6.78-6.32-6.74-15.1.04-8.46,2.89-14.48,6.82-14.46ZM36.51,516.39c-.01,8.54-2.83,14.7-6.72,14.68-3.94-.02-6.69-6.3-6.66-15.22.02-8.5,2.83-14.42,6.82-14.38,3.88.03,6.58,6.17,6.57,14.92Zm21.77,0c-.01,8.54-2.83,14.7-6.72,14.68-3.94-.02-6.69-6.3-6.66-15.22.02-8.5,2.83-14.42,6.82-14.38,3.88.03,6.58,6.17,6.57,14.92Zm9.01-.07c0-8.75,2.7-14.83,6.6-14.85,3.98-.03,6.85,6.21,6.86,14.87,0,8.27-2.96,14.73-6.77,14.73s-6.69-6.19-6.69-14.75Zm35.78.05c0,8.54-2.83,14.71-6.71,14.7-3.94-.02-6.69-6.29-6.67-15.2.02-8.51,2.82-14.44,6.81-14.4,3.89.03,6.59,6.16,6.58,14.91Zm9.01-.06c0-8.75,2.7-14.82,6.61-14.85,3.98-.02,6.85,6.22,6.86,14.88,0,8.26-2.97,14.73-6.78,14.73-3.88,0-6.68-6.19-6.69-14.76Zm-75.58-123.4c-.01,8.54-2.83,14.7-6.72,14.68-3.94-.02-6.69-6.3-6.66-15.22.02-8.5,2.83-14.42,6.82-14.38,3.88.03,6.58,6.17,6.57,14.93Zm21.77,0c-.01,8.54-2.83,14.7-6.72,14.68-3.94-.02-6.69-6.3-6.66-15.22.02-8.5,2.83-14.42,6.82-14.38,3.88.03,6.58,6.17,6.57,14.93Zm9.01-.07c0-8.76,2.7-14.83,6.6-14.85,3.98-.02,6.85,6.21,6.86,14.87,0,8.27-2.96,14.73-6.77,14.73s-6.69-6.19-6.69-14.75Zm1177.95-197.81c.01,8.86-2.78,15.07-6.75,15.02-3.86-.04-6.63-6.26-6.63-14.88,0-8.72,2.71-14.72,6.66-14.73,3.96,0,6.72,5.95,6.73,14.58Zm-22.31,0c.01,8.86-2.78,15.07-6.75,15.02-3.86-.04-6.63-6.26-6.63-14.88,0-8.72,2.71-14.72,6.66-14.73,3.96,0,6.72,5.95,6.73,14.58Zm-35.78.17c0-8.73,2.71-14.74,6.65-14.75,3.95-.01,6.84,6.33,6.82,14.97-.02,8.24-3.01,14.67-6.82,14.63-3.87-.03-6.65-6.24-6.65-14.85Zm-15.74-64.18c3.97-.01,6.72,5.95,6.73,14.57.01,8.86-2.78,15.08-6.75,15.03-3.86-.04-6.64-6.25-6.64-14.87,0-8.72,2.71-14.73,6.66-14.74Zm0,49.43c3.97,0,6.72,5.95,6.73,14.57.01,8.86-2.78,15.08-6.75,15.03-3.86-.04-6.64-6.25-6.64-14.87,0-8.72,2.71-14.73,6.66-14.74Zm-163.44,14.86c0-8.75,2.7-14.83,6.6-14.86,3.98-.02,6.85,6.21,6.86,14.87,0,8.27-2.96,14.74-6.77,14.74-3.88,0-6.69-6.18-6.69-14.75ZM103.08,392.89c0,8.54-2.83,14.72-6.71,14.7-3.94-.02-6.69-6.28-6.67-15.2.02-8.51,2.82-14.44,6.81-14.4,3.89.03,6.59,6.16,6.58,14.91Zm837.71-197.66c0-8.72,2.71-14.77,6.63-14.79,4.06-.02,6.76,5.96,6.75,14.93-.01,8.54-2.84,14.7-6.72,14.67-3.87-.02-6.66-6.23-6.66-14.82Zm-109.8,172.81c0,8.61-2.78,14.82-6.64,14.85-3.95.04-6.81-6.32-6.78-15.05.03-8.5,2.86-14.57,6.78-14.56,3.94.01,6.65,6.03,6.65,14.75Zm-29.17-14.75c3.94.01,6.65,6.03,6.65,14.75,0,8.61-2.77,14.82-6.64,14.86-3.95.04-6.81-6.32-6.78-15.05.03-8.5,2.85-14.57,6.78-14.56Zm-22.27,0c3.94.01,6.65,6.03,6.65,14.75,0,8.61-2.77,14.82-6.64,14.86-3.95.04-6.81-6.32-6.78-15.05.03-8.5,2.86-14.57,6.78-14.56Zm25.78-158.26c.01-8.63,2.76-14.59,6.73-14.58,3.91.01,6.81,6.52,6.75,15.14-.06,8.21-3.09,14.55-6.91,14.46-3.85-.09-6.58-6.34-6.57-15.02Zm-88.51.1c0-8.69,2.73-14.67,6.68-14.68,4.03,0,6.72,6.04,6.7,15.05-.02,8.49-2.87,14.62-6.78,14.56-3.86-.06-6.61-6.28-6.61-14.93ZM112.09,392.83c0-8.75,2.7-14.82,6.61-14.85,3.98-.02,6.85,6.22,6.86,14.88,0,8.26-2.97,14.73-6.78,14.72-3.88,0-6.68-6.19-6.69-14.76Zm559.89-197.61c0-8.73,2.71-14.76,6.64-14.78,3.96-.01,6.84,6.3,6.83,14.95-.01,8.25-3,14.68-6.81,14.65-3.87-.03-6.66-6.23-6.66-14.83Zm-22.35,0c0-8.73,2.71-14.76,6.64-14.78,3.96-.01,6.84,6.3,6.83,14.95-.01,8.25-3,14.68-6.81,14.65-3.87-.03-6.65-6.23-6.66-14.83Zm-22.4.08c0-8.75,2.7-14.83,6.6-14.86,4.07-.03,6.79,5.92,6.78,14.86,0,8.56-2.81,14.74-6.69,14.74-3.88,0-6.69-6.18-6.69-14.75Zm-15.6,14.75c-3.83.08-6.75-5.98-6.8-14.1-.05-9.13,2.59-15.45,6.49-15.51,4.04-.06,6.89,5.94,6.96,14.63.06,8.35-2.85,14.89-6.65,14.97Zm-477.14,84.02c0-8.75,2.7-14.83,6.6-14.86,4.08-.03,6.79,5.92,6.78,14.86,0,8.56-2.81,14.74-6.69,14.74-3.88,0-6.68-6.18-6.69-14.75ZM18.88,457.58c-3.92-.02-6.64-6.06-6.64-14.78,0-8.85,2.76-14.78,6.84-14.73,3.84.04,6.62,6.36,6.58,14.99-.03,8.49-2.87,14.54-6.79,14.52Zm-4.45,7.9c0,8.72-2.71,14.72-6.66,14.73-3.92.01-6.74-6.07-6.77-14.58-.03-8.77,2.79-14.95,6.79-14.93,3.92.01,6.64,6.06,6.63,14.78Zm0-48.02c0,8.72-2.71,14.72-6.66,14.73-3.92,0-6.74-6.07-6.77-14.58-.03-8.77,2.79-14.95,6.79-14.94,3.92.02,6.64,6.06,6.63,14.78Zm120.06-24.79c0-8.7,2.72-14.68,6.68-14.69,4.03,0,6.72,6.03,6.71,15.03-.02,8.5-2.87,14.63-6.77,14.57-3.86-.06-6.62-6.28-6.61-14.92Zm22.4-197.32c0-8.76,2.69-14.88,6.58-14.91,3.99-.03,6.86,6.15,6.88,14.82.02,8.29-2.94,14.77-6.74,14.79-3.89.02-6.71-6.15-6.72-14.69Zm0,296.7c0-8.64,2.76-14.61,6.72-14.61,3.91,0,6.81,6.5,6.76,15.12-.05,8.2-3.08,14.57-6.9,14.49-3.85-.08-6.59-6.32-6.58-15Zm6.64-34.48c-3.92-.02-6.64-6.06-6.64-14.78,0-8.85,2.76-14.78,6.84-14.73,3.85.04,6.62,6.36,6.58,14.99-.04,8.49-2.87,14.54-6.79,14.52Zm-6.64-163.8c.01-8.62,2.77-14.57,6.74-14.56,3.86.01,6.68,6.21,6.72,14.75.04,8.45-2.98,14.95-6.9,14.85-3.84-.1-6.57-6.36-6.56-15.04Zm44.79,198.4c0-8.72,2.72-14.71,6.67-14.72,3.94,0,6.83,6.36,6.81,15-.02,8.23-3.03,14.65-6.84,14.6-3.86-.05-6.63-6.26-6.63-14.89Zm6.69-34.59c-3.96,0-6.68-5.98-6.69-14.67,0-8.93,2.71-14.88,6.79-14.85,3.86.03,6.65,6.28,6.63,14.87-.02,8.52-2.83,14.64-6.74,14.64ZM1256.52,170.27c.04,8.57-2.79,15.03-6.58,15.07-4.01.04-6.89-6.12-6.89-14.79,0-8.41,2.76-14.72,6.48-14.79,4.07-.08,6.95,5.9,6.98,14.51Zm-22.37,0c.04,8.57-2.79,15.03-6.58,15.07-4.01.04-6.89-6.12-6.89-14.79,0-8.41,2.76-14.72,6.48-14.79,4.07-.08,6.95,5.9,6.99,14.51Zm-22.37,0c.04,8.57-2.79,15.03-6.58,15.07-4.01.04-6.89-6.12-6.89-14.79,0-8.41,2.76-14.72,6.48-14.79,4.07-.08,6.95,5.9,6.98,14.51Zm-201.62.24c0,8.61-2.78,14.82-6.64,14.85-3.95.04-6.81-6.32-6.78-15.05.03-8.5,2.85-14.57,6.78-14.56,3.94.01,6.65,6.03,6.65,14.75Zm-29.12,14.8c-3.98-.07-6.76-6.36-6.7-15.17.06-8.56,2.96-14.48,7.05-14.38,3.69.09,6.45,6.5,6.42,14.93-.03,8.48-2.9,14.69-6.77,14.62Zm-179.09.02c-4-.02-6.82-6.25-6.79-14.99.03-8.51,2.85-14.58,6.77-14.57,3.89.01,6.69,6.19,6.7,14.74,0,8.55-2.83,14.85-6.68,14.83Zm-82.93-14.97c0,8.85-2.79,15.06-6.76,15.01-3.84-.05-6.67-6.38-6.67-14.89,0-8.54,2.82-14.7,6.71-14.71,3.96,0,6.71,5.96,6.72,14.6Zm22.38,0c0,8.85-2.79,15.06-6.76,15.01-3.84-.05-6.67-6.38-6.67-14.89,0-8.54,2.82-14.7,6.71-14.71,3.96,0,6.71,5.96,6.72,14.6Zm-488.16,158.25c3.85.02,6.68,6.27,6.7,14.8.02,8.29-2.93,14.78-6.74,14.81-3.96.03-6.74-6.2-6.73-15.09.01-8.58,2.79-14.54,6.76-14.52Zm0-49.38c3.85.02,6.68,6.27,6.7,14.8.02,8.29-2.93,14.78-6.74,14.81-3.96.03-6.74-6.2-6.73-15.09.01-8.58,2.79-14.54,6.76-14.52Zm443.61-108.36c-.05,8.46-2.93,14.56-6.83,14.47-3.96-.09-6.71-6.44-6.63-15.3.08-8.54,2.99-14.37,7.1-14.24,3.66.12,6.41,6.63,6.36,15.07Zm-22.59-.03c-.05,8.46-2.93,14.56-6.83,14.47-3.96-.1-6.71-6.44-6.63-15.3.08-8.54,2.99-14.37,7.1-14.24,3.66.12,6.41,6.63,6.36,15.07Zm-22.44-.28c0,8.59-2.79,14.79-6.66,14.81-3.86.02-6.74-6.22-6.77-14.68-.03-8.76,2.79-14.95,6.8-14.93,3.92.02,6.63,6.07,6.63,14.79Zm-29.09,14.77c-3.99-.05-6.78-6.32-6.74-15.1.04-8.46,2.89-14.48,6.83-14.45,3.87.03,6.66,6.27,6.64,14.86-.02,8.51-2.88,14.75-6.73,14.7Zm-15.71-14.61c-.01,8.53-2.84,14.69-6.73,14.66-3.85-.03-6.69-6.32-6.69-14.83,0-8.72,2.83-14.81,6.87-14.77,3.88.04,6.57,6.18,6.56,14.95Zm-29.16-14.95c3.93-.02,6.76,6.01,6.8,14.51.04,8.57-2.78,15.04-6.57,15.08-4.01.04-6.89-6.12-6.9-14.78,0-8.57,2.79-14.78,6.67-14.8Zm-82.79,14.63c.02,8.54-2.82,14.93-6.63,14.94-4.01,0-6.85-6.18-6.84-14.89.01-8.39,2.79-14.62,6.54-14.68,4.05-.06,6.91,5.97,6.93,14.63Zm-134.42,0c0,8.65-2.74,14.89-6.59,14.97-3.96.08-6.85-6.23-6.83-14.93.01-8.53,2.83-14.67,6.73-14.67,3.96,0,6.69,5.98,6.7,14.64Zm-67.19,0c0,8.65-2.74,14.89-6.59,14.97-3.96.08-6.85-6.23-6.84-14.93.01-8.53,2.83-14.67,6.73-14.67,3.96,0,6.69,5.98,6.7,14.64Zm33.6,222.48c0,8.55-2.82,14.73-6.7,14.72-3.95,0-6.7-6.27-6.68-15.18.02-8.53,2.81-14.46,6.8-14.43,3.89.03,6.6,6.13,6.59,14.88Zm15.61-14.88c3.98-.03,6.85,6.2,6.86,14.86,0,8.27-2.96,14.74-6.77,14.74-3.88,0-6.69-6.18-6.7-14.74,0-8.75,2.7-14.84,6.6-14.86Zm918.31-217.41c-3.92-.02-6.63-6.07-6.63-14.79,0-8.85,2.76-14.77,6.85-14.73,3.86.04,6.55,6.21,6.54,14.99-.01,8.58-2.79,14.54-6.75,14.52Zm-262.01,34.42c.01,8.77-2.68,14.91-6.56,14.95-4.09.04-6.83-5.89-6.83-14.77,0-8.72,2.71-14.73,6.65-14.75,3.97-.01,6.72,5.95,6.73,14.56Zm-29.12-34.42c-3.95,0-6.66-6-6.67-14.71,0-8.9,2.73-14.84,6.81-14.8,3.85.03,6.64,6.31,6.61,14.92-.02,8.51-2.84,14.6-6.76,14.6Zm-15.68-14.7c0,8.71-2.72,14.69-6.67,14.7-4.04,0-6.73-6.02-6.71-15.02.02-8.55,2.8-14.51,6.76-14.49,3.92.02,6.62,6.08,6.62,14.81Zm-140.95,14.75c-3.97.02-6.75-5.94-6.77-14.49-.02-9,2.68-15.03,6.71-15.02,3.89,0,6.71,6.16,6.71,14.7,0,8.57-2.79,14.8-6.66,14.82Zm-112.22,98.56c-3.89-.03-6.59-6.15-6.58-14.9,0-8.77,2.79-14.68,6.9-14.62,3.74.06,6.52,6.3,6.53,14.69.01,8.74-2.81,14.85-6.84,14.82Zm-105.18-64.13c.01,8.77-2.68,14.92-6.56,14.95-4.09.04-6.83-5.89-6.83-14.76,0-8.72,2.71-14.74,6.65-14.75,3.97-.01,6.72,5.94,6.74,14.56Zm-29.09-34.48c-3.96,0-6.68-5.98-6.69-14.66,0-8.93,2.71-14.88,6.79-14.85,3.86.03,6.65,6.28,6.64,14.87-.02,8.52-2.83,14.64-6.74,14.64Zm-403.07,0c-3.97.02-6.75-5.94-6.77-14.49-.02-9,2.68-15.02,6.71-15.02,3.89,0,6.7,6.17,6.71,14.7,0,8.57-2.79,14.79-6.66,14.81Zm217.21,232.05c0-8.67,2.74-14.64,6.7-14.64,3.92,0,6.82,6.47,6.78,15.08-.04,8.22-3.06,14.59-6.88,14.52-3.85-.07-6.6-6.31-6.6-14.96Zm297.89-14.64c3.94.01,6.65,6.02,6.65,14.74,0,8.61-2.77,14.82-6.64,14.87-3.97.04-6.76-6.17-6.75-15.03,0-8.62,2.76-14.58,6.73-14.57Zm51.45,14.71c0,8.63-2.76,14.84-6.62,14.89-3.97.05-6.77-6.16-6.76-15.01,0-8.64,2.76-14.61,6.72-14.6,3.95,0,6.66,6,6.67,14.71Zm519.53-256.82c-3.88-.02-6.68-6.22-6.67-14.79,0-8.7,2.84-14.77,6.89-14.73,3.84.04,6.62,6.36,6.58,14.99-.04,8.49-2.87,14.54-6.79,14.52Zm-89.54,0c-3.88-.02-6.68-6.22-6.67-14.79,0-8.7,2.84-14.77,6.89-14.73,3.84.04,6.62,6.36,6.58,14.99-.04,8.49-2.87,14.54-6.79,14.52Zm-179.15-49.34c-3.89-.01-6.69-6.19-6.7-14.74,0-8.72,2.83-14.82,6.87-14.78,3.85.04,6.63,6.33,6.6,14.94-.03,8.51-2.85,14.58-6.77,14.57Zm-15.67,83.62c0,8.64-2.75,14.62-6.71,14.62-3.9,0-6.71-6.15-6.72-14.69-.01-8.73,2.81-14.86,6.84-14.82,3.89.03,6.59,6.14,6.58,14.89Z"/>
    </g>
  </g>
</svg>