<?xml version="1.0" encoding="UTF-8"?>
<svg id="Layer_2" data-name="Layer 2" xmlns="http://www.w3.org/2000/svg" xmlns:xlink="http://www.w3.org/1999/xlink" viewBox="0 0 1280 266.67">
  <defs>
    <style>
      .cls-1 {
        clip-path: url(#clippath);
      }

      .cls-2, .cls-3, .cls-4 {
        fill: none;
      }

      .cls-2, .cls-5 {
        stroke-width: 0px;
      }

      .cls-3 {
        stroke-width: 3.1px;
        stroke: #FF3600;

      }

      .cls-3, .cls-4 {
        stroke: #FF3600;
        stroke-miterlimit: 10;
      }

      .cls-6 {
        clip-path: url(#clippath-1);
      }

      .cls-7 {
        clip-path: url(#clippath-4);
      }

      .cls-8 {
        clip-path: url(#clippath-3);
      }

      .cls-9 {
        clip-path: url(#clippath-2);
      }

      .cls-10 {
        clip-path: url(#clippath-7);
      }

      .cls-11 {
        clip-path: url(#clippath-8);
      }

      .cls-12 {
        clip-path: url(#clippath-6);
      }

      .cls-13 {
        clip-path: url(#clippath-5);
      }

      .cls-14 {
        clip-path: url(#clippath-9);
      }

      .cls-15 {
        clip-path: url(#clippath-20);
      }

      .cls-16 {
        clip-path: url(#clippath-21);
      }

      .cls-17 {
        clip-path: url(#clippath-24);
      }

      .cls-18 {
        clip-path: url(#clippath-23);
      }

      .cls-19 {
        clip-path: url(#clippath-22);
      }

      .cls-20 {
        clip-path: url(#clippath-25);
      }

      .cls-21 {
        clip-path: url(#clippath-27);
      }

      .cls-22 {
        clip-path: url(#clippath-28);
      }

      .cls-23 {
        clip-path: url(#clippath-26);
      }

      .cls-24 {
        clip-path: url(#clippath-29);
      }

      .cls-25 {
        clip-path: url(#clippath-30);
      }

      .cls-26 {
        clip-path: url(#clippath-14);
      }

      .cls-27 {
        clip-path: url(#clippath-13);
      }

      .cls-28 {
        clip-path: url(#clippath-12);
      }

      .cls-29 {
        clip-path: url(#clippath-10);
      }

      .cls-30 {
        clip-path: url(#clippath-15);
      }

      .cls-31 {
        clip-path: url(#clippath-17);
      }

      .cls-32 {
        clip-path: url(#clippath-16);
      }

      .cls-33 {
        clip-path: url(#clippath-19);
      }

      .cls-34 {
        clip-path: url(#clippath-11);
      }

      .cls-35 {
        clip-path: url(#clippath-18);
      }

      .cls-4 {
        stroke-width: 1.55px;
      }

      .cls-5 {
        fill: #FF3600;
      }
    </style>
    <clipPath id="clippath">
      <rect class="cls-2" y="0" width="1280" height="266.67"/>
    </clipPath>
    <clipPath id="clippath-1">
      <rect class="cls-2" y="0" width="1280" height="266.67"/>
    </clipPath>
    <clipPath id="clippath-2">
      <rect class="cls-2" y="0" width="1280" height="266.67"/>
    </clipPath>
    <clipPath id="clippath-3">
      <rect class="cls-2" y="0" width="1280" height="266.67"/>
    </clipPath>
    <clipPath id="clippath-4">
      <rect class="cls-2" y="0" width="1280" height="266.67"/>
    </clipPath>
    <clipPath id="clippath-5">
      <rect class="cls-2" y="0" width="1280" height="266.67"/>
    </clipPath>
    <clipPath id="clippath-6">
      <rect class="cls-2" y="0" width="1280" height="266.67"/>
    </clipPath>
    <clipPath id="clippath-7">
      <rect class="cls-2" y="0" width="1280" height="266.67"/>
    </clipPath>
    <clipPath id="clippath-8">
      <rect class="cls-2" y="0" width="1280" height="266.67"/>
    </clipPath>
    <clipPath id="clippath-9">
      <rect class="cls-2" y="0" width="1280" height="266.67"/>
    </clipPath>
    <clipPath id="clippath-10">
      <rect class="cls-2" y="0" width="1280" height="266.67"/>
    </clipPath>
    <clipPath id="clippath-11">
      <rect class="cls-2" y="0" width="1280" height="266.67"/>
    </clipPath>
    <clipPath id="clippath-12">
      <rect class="cls-2" y="0" width="1280" height="266.67"/>
    </clipPath>
    <clipPath id="clippath-13">
      <rect class="cls-2" y="0" width="1280" height="266.67"/>
    </clipPath>
    <clipPath id="clippath-14">
      <rect class="cls-2" y="0" width="1280" height="266.67"/>
    </clipPath>
    <clipPath id="clippath-15">
      <rect class="cls-2" y="0" width="1280" height="266.67"/>
    </clipPath>
    <clipPath id="clippath-16">
      <rect class="cls-2" y="0" width="1280" height="266.67"/>
    </clipPath>
    <clipPath id="clippath-17">
      <rect class="cls-2" y="0" width="1280" height="266.67"/>
    </clipPath>
    <clipPath id="clippath-18">
      <rect class="cls-2" y="0" width="1280" height="266.67"/>
    </clipPath>
    <clipPath id="clippath-19">
      <rect class="cls-2" y="0" width="1280" height="266.67"/>
    </clipPath>
    <clipPath id="clippath-20">
      <rect class="cls-2" y="0" width="1280" height="266.67"/>
    </clipPath>
    <clipPath id="clippath-21">
      <rect class="cls-2" y="0" width="1280" height="266.67"/>
    </clipPath>
    <clipPath id="clippath-22">
      <rect class="cls-2" y="0" width="1280" height="266.67"/>
    </clipPath>
    <clipPath id="clippath-23">
      <rect class="cls-2" y="0" width="1280" height="266.67"/>
    </clipPath>
    <clipPath id="clippath-24">
      <rect class="cls-2" y="0" width="1280" height="266.67"/>
    </clipPath>
    <clipPath id="clippath-25">
      <rect class="cls-2" y="0" width="1280" height="266.67"/>
    </clipPath>
    <clipPath id="clippath-26">
      <rect class="cls-2" y="0" width="1280" height="266.67"/>
    </clipPath>
    <clipPath id="clippath-27">
      <rect class="cls-2" y="0" width="1280" height="266.67"/>
    </clipPath>
    <clipPath id="clippath-28">
      <rect class="cls-2" y="0" width="1280" height="266.67"/>
    </clipPath>
    <clipPath id="clippath-29">
      <rect class="cls-2" y="0" width="1280" height="266.67"/>
    </clipPath>
    <clipPath id="clippath-30">
      <rect class="cls-2" y="0" width="1280" height="266.67"/>
    </clipPath>
  </defs>
  <g id="Layer_1-2" data-name="Layer 1">
    <g>
      <g class="cls-1">
        <path class="cls-5" d="m163.09,72.38c-2.49-5.16-4.92-10.71-6.81-16.9-5.28-17.21-4.57-37.31,1.39-53.5,5.74-15.61,13.27-25.88,21.68-32.92,2.93-2.45,5.91-4.68,8.91-6.72"/>
        <path class="cls-3" d="m163.09,72.38c-2.49-5.16-4.92-10.71-6.81-16.9-5.28-17.21-4.57-37.31,1.39-53.5,5.74-15.61,13.27-25.88,21.68-32.92,2.93-2.45,5.91-4.68,8.91-6.72"/>
        <path class="cls-5" d="m162.76,195.17c3.39-6.51,3.35-14.12.06-20.89-2.45-5.05-4.8-10.59-6.64-16.7-5.13-17.07-4.53-36.95,1.38-52.81,1.17-3.13,2.44-6.11,3.78-8.93"/>
        <path class="cls-3" d="m162.76,195.17c3.39-6.51,3.35-14.12.06-20.89-2.45-5.05-4.8-10.59-6.64-16.7-5.13-17.07-4.53-36.95,1.38-52.81,1.17-3.13,2.44-6.11,3.78-8.93"/>
      </g>
      <polygon class="cls-5" points="163.6 102.51 163.09 72.38 156.57 99.03 163.6 102.51"/>
      <polygon class="cls-4" points="163.6 102.51 163.09 72.38 156.57 99.03 163.6 102.51"/>
      <g class="cls-6">
        <path class="cls-5" d="m153.62,249.69c-1.76-14.05-.77-25.93,2.01-36.37"/>
        <path class="cls-3" d="m153.62,249.69c-1.76-14.05-.77-25.93,2.01-36.37"/>
      </g>
      <polygon class="cls-5" points="157.1 222.72 162.76 195.17 151.49 212.91 157.1 222.72"/>
      <polygon class="cls-4" points="157.1 222.72 162.76 195.17 151.49 212.91 157.1 222.72"/>
      <g class="cls-9">
        <path class="cls-5" d="m95.83,359.53c4.06.33,7-4.75,6.54-13.35-1.18-22.06,3.73-37.71,11.11-50.63,9.28-16.24,20.23-24.69,31.59-30.95"/>
        <path class="cls-3" d="m95.83,359.53c4.06.33,7-4.75,6.54-13.35-1.18-22.06,3.73-37.71,11.11-50.63,9.28-16.24,20.23-24.69,31.59-30.95"/>
      </g>
      <polygon class="cls-5" points="140.68 260.86 142.69 266.67 147.44 266.67 153.63 249.69 140.68 260.86"/>
      <g class="cls-8">
        <polygon class="cls-4" points="145 273.37 153.63 249.69 140.68 260.86 145 273.37"/>
        <path class="cls-5" d="m503.64,174.81c-3.04,5.67-2.99,14.08.06,19.81,3.11,5.84,5.84,12.37,7.78,20.37,3.72,15.36,3.22,29.85-.46,43.54"/>
        <path class="cls-3" d="m503.64,174.81c-3.04,5.67-2.99,14.08.06,19.81,3.11,5.84,5.84,12.37,7.78,20.37,3.72,15.36,3.22,29.85-.46,43.54"/>
      </g>
      <polygon class="cls-5" points="505.96 266.67 510.28 266.67 515.18 258.98 509.58 249.14 505.96 266.67"/>
      <g class="cls-7">
        <polygon class="cls-4" points="509.58 249.14 503.9 276.67 515.18 258.98 509.58 249.14"/>
        <path class="cls-5" d="m517.11,107.25c-2.88,1.67-4.6,7.21-3.88,13.36,1.61,13.55.59,25.49-2.36,36.23"/>
        <path class="cls-3" d="m517.11,107.25c-2.88,1.67-4.6,7.21-3.88,13.36,1.61,13.55.59,25.49-2.36,36.23"/>
      </g>
      <polygon class="cls-5" points="509.48 147.43 503.64 174.8 515.02 157.42 509.48 147.43"/>
      <polygon class="cls-4" points="509.48 147.43 503.64 174.8 515.02 157.42 509.48 147.43"/>
      <g class="cls-13">
        <path class="cls-5" d="m556.45,121.85c.74-7.7-.82-12.92-4.34-14.93-4.79-2.74-9.57-5.63-14.32-8.71-1.86-1.2-3.58-1.27-5.45-.08-1.54.97-3.08,1.93-4.62,2.86"/>
        <path class="cls-3" d="m556.45,121.85c.74-7.7-.82-12.92-4.34-14.93-4.79-2.74-9.57-5.63-14.32-8.71-1.86-1.2-3.58-1.27-5.45-.08-1.54.97-3.08,1.93-4.62,2.86"/>
      </g>
      <polygon class="cls-5" points="529.11 91.95 517.11 107.25 531.04 107 529.11 91.95"/>
      <polygon class="cls-4" points="529.11 91.95 517.11 107.25 531.04 107 529.11 91.95"/>
      <g class="cls-12">
        <path class="cls-5" d="m712.44,168.27c-1.39-.77-3.58.21-4.63,2.28-10.72,21.01-23.7,31.69-37.48,38-23.44,10.73-46.97,10.49-70.39-.57-10.91-5.16-21.31-13.59-30.54-27.64-4.19-6.37-7.79-14.02-10.51-23.6-1.03-3.62-1.77-7.31-2.26-11.08"/>
        <path class="cls-3" d="m712.44,168.27c-1.39-.77-3.58.21-4.63,2.28-10.72,21.01-23.7,31.69-37.48,38-23.44,10.73-46.97,10.49-70.39-.57-10.91-5.16-21.31-13.59-30.54-27.64-4.19-6.37-7.79-14.02-10.51-23.6-1.03-3.62-1.77-7.31-2.26-11.08"/>
      </g>
      <polygon class="cls-5" points="560.66 150.6 556.45 121.85 553.45 151.3 560.66 150.6"/>
      <polygon class="cls-4" points="560.66 150.6 556.45 121.85 553.45 151.3 560.66 150.6"/>
      <g class="cls-10">
        <path class="cls-5" d="m707.59,246.93c-1.56-15.99.3-30.05,5.21-42.27,1.42-3.53,3-6.77,4.58-9.97,1.28-2.59,2.04-5.45,2.26-8.34"/>
        <path class="cls-3" d="m707.59,246.93c-1.56-15.99.3-30.05,5.21-42.27,1.42-3.53,3-6.77,4.58-9.97,1.28-2.59,2.04-5.45,2.26-8.34"/>
      </g>
      <polygon class="cls-5" points="722.69 188.7 712.44 168.27 716.59 197.05 722.69 188.7"/>
      <polygon class="cls-4" points="722.69 188.7 712.44 168.27 716.59 197.05 722.69 188.7"/>
      <g class="cls-11">
        <path class="cls-5" d="m666.56,400.5c3.52-7.02,3.5-14.73-.17-21.55-3.34-6.2-6.11-13.41-7.89-22.13-3.69-18.06-1.84-34.39,3.74-49.11,6.73-17.75,15.84-27.76,25.57-35.27,4.05-3.12,8.21-5.54,12.38-7.92"/>
        <path class="cls-3" d="m666.56,400.5c3.52-7.02,3.5-14.73-.17-21.55-3.34-6.2-6.11-13.41-7.89-22.13-3.69-18.06-1.84-34.39,3.74-49.11,6.73-17.75,15.84-27.76,25.57-35.27,4.05-3.12,8.21-5.54,12.38-7.92"/>
      </g>
      <polygon class="cls-5" points="695.45 261.72 697.68 266.67 702.19 266.67 707.59 246.94 695.45 261.72"/>
      <g class="cls-14">
        <polygon class="cls-4" points="700.49 272.88 707.59 246.94 695.45 261.72 700.49 272.88"/>
        <path class="cls-5" d="m1177.34,227.54c1.31,23.06-3.85,39.12-11.69,52.35-9.09,15.34-19.7,23.52-30.69,29.75-.2.11-.39.22-.59.32"/>
        <path class="cls-3" d="m1177.34,227.54c1.31,23.06-3.85,39.12-11.69,52.35-9.09,15.34-19.7,23.52-30.69,29.75-.2.11-.39.22-.59.32"/>
        <path class="cls-5" d="m1171.77,54c3.86.92,7.87-1.22,11.82-1.83,21.09-3.25,41.92-.88,62.14,13.99,7.38,5.43,14.38,12.55,20.61,22.85,3.62,5.99,6.72,13.01,9.11,21.55,4.9,17.51,3.59,37.79-2.42,53.46-6.87,17.91-16.08,27.83-25.88,35.76-11.61,9.39-23.72,13.62-36.02,15.36-4.26.6-8.56.09-12.83.09,0,.41,0,.82,0,1.23-3.85-.41-7.7-.77-11.55-1.22"/>
        <path class="cls-3" d="m1171.77,54c3.86.92,7.87-1.22,11.82-1.83,21.09-3.25,41.92-.88,62.14,13.99,7.38,5.43,14.38,12.55,20.61,22.85,3.62,5.99,6.72,13.01,9.11,21.55,4.9,17.51,3.59,37.79-2.42,53.46-6.87,17.91-16.08,27.83-25.88,35.76-11.61,9.39-23.72,13.62-36.02,15.36-4.26.6-8.56.09-12.83.09,0,.41,0,.82,0,1.23-3.85-.41-7.7-.77-11.55-1.22"/>
      </g>
      <polygon class="cls-5" points="1187.58 207.09 1177.34 227.54 1190.93 220.91 1187.58 207.09"/>
      <polygon class="cls-4" points="1187.58 207.09 1177.34 227.54 1190.93 220.91 1187.58 207.09"/>
      <g class="cls-29">
        <path class="cls-5" d="m1121.67,54.12c3.25.81,6.64-.96,9.97-1.63,9.74-1.96,19.45-1.96,29.17-.59"/>
        <path class="cls-3" d="m1121.67,54.12c3.25.81,6.64-.96,9.97-1.63,9.74-1.96,19.45-1.96,29.17-.59"/>
      </g>
      <polygon class="cls-5" points="1158.06 59.37 1171.77 54.01 1158.65 43.82 1158.06 59.37"/>
      <polygon class="cls-4" points="1158.06 59.37 1171.77 54.01 1158.65 43.82 1158.06 59.37"/>
      <g class="cls-34">
        <path class="cls-5" d="m1071.21,54.13c3.37.88,6.89-1.02,10.34-1.7,9.74-1.93,19.46-1.93,29.17-.5"/>
        <path class="cls-3" d="m1071.21,54.13c3.37.88,6.89-1.02,10.34-1.7,9.74-1.93,19.46-1.93,29.17-.5"/>
      </g>
      <polygon class="cls-5" points="1107.95 59.38 1121.67 54.13 1108.58 43.83 1107.95 59.38"/>
      <polygon class="cls-4" points="1107.95 59.38 1121.67 54.13 1108.58 43.83 1107.95 59.38"/>
      <g class="cls-28">
        <path class="cls-5" d="m965.28,91.95c4.66,9.62,7.1,10.28,12.3.53,10.67-20.01,23.74-29.21,37.3-35.06,15.05-6.49,30.19-7.87,45.38-5.57"/>
        <path class="cls-3" d="m965.28,91.95c4.66,9.62,7.1,10.28,12.3.53,10.67-20.01,23.74-29.21,37.3-35.06,15.05-6.49,30.19-7.87,45.38-5.57"/>
      </g>
      <polygon class="cls-5" points="1057.48 59.34 1071.21 54.13 1058.12 43.79 1057.48 59.34"/>
      <polygon class="cls-4" points="1057.48 59.34 1071.21 54.13 1058.12 43.79 1057.48 59.34"/>
      <g class="cls-27">
        <path class="cls-5" d="m974.97,14.96c-.16,2.65.3,5.49.52,8.23,1.33,16.66-1.59,30.23-6.62,42.18-.48,1.14-.99,2.22-1.51,3.27"/>
        <path class="cls-3" d="m974.97,14.96c-.16,2.65.3,5.49.52,8.23,1.33,16.66-1.59,30.23-6.62,42.18-.48,1.14-.99,2.22-1.51,3.27"/>
      </g>
      <polygon class="cls-5" points="965.12 61.79 965.27 91.95 972.11 65.67 965.12 61.79"/>
      <polygon class="cls-4" points="965.12 61.79 965.27 91.95 972.11 65.67 965.12 61.79"/>
      <g class="cls-26">
        <path class="cls-5" d="m1026.14-79.49c1.3,22.9-3.82,38.98-11.59,52.07-9.02,15.21-19.43,23.72-30.33,29.6"/>
        <path class="cls-3" d="m1026.14-79.49c1.3,22.9-3.82,38.98-11.59,52.07-9.02,15.21-19.43,23.72-30.33,29.6"/>
      </g>
      <polygon class="cls-5" points="981.6 0 974.97 14.96 988.35 6.57 986.52 0 981.6 0"/>
      <g class="cls-30">
        <polygon class="cls-4" points="984.62 -6.79 974.97 14.96 988.35 6.57 984.62 -6.79"/>
        <path class="cls-5" d="m401.01,57.62c3.43-1.63,4.95-7.23,4.24-14.65-1.11-11.65-.78-22.88,2.05-33.49,1.98-7.42,4.51-13.72,7.49-19.32,3.36-6.3,3.3-13.83.06-20.36-1.67-3.37-3.36-6.79-4.8-10.62-1.54-4.1-2.85-8.42-3.79-12.95"/>
        <path class="cls-3" d="m401.01,57.62c3.43-1.63,4.95-7.23,4.24-14.65-1.11-11.65-.78-22.88,2.05-33.49,1.98-7.42,4.51-13.72,7.49-19.32,3.36-6.3,3.3-13.83.06-20.36-1.67-3.37-3.36-6.79-4.8-10.62-1.54-4.1-2.85-8.42-3.79-12.95"/>
        <path class="cls-5" d="m364.4,174.53c-1.89-3.65-3.64-7.7-5.24-11.96-6.02-16.03-6.58-35.76-1.56-53.19,3.85-13.38,9.42-22.63,15.67-30.16,5.47-6.58,11.19-11.61,17.1-15.57"/>
        <path class="cls-3" d="m364.4,174.53c-1.89-3.65-3.64-7.7-5.24-11.96-6.02-16.03-6.58-35.76-1.56-53.19,3.85-13.38,9.42-22.63,15.67-30.16,5.47-6.58,11.19-11.61,17.1-15.57"/>
      </g>
      <polygon class="cls-5" points="388.97 72.79 401.01 57.62 387.08 57.73 388.97 72.79"/>
      <polygon class="cls-4" points="388.97 72.79 401.01 57.62 387.08 57.73 388.97 72.79"/>
      <g class="cls-32">
        <path class="cls-5" d="m364.86,277.65c-2.05-4.07-4.05-8.33-5.8-12.99-5.93-15.8-6.54-35.69-1.4-52.79,1.5-4.98,3.35-9.55,5.32-13.81"/>
        <path class="cls-3" d="m364.86,277.65c-2.05-4.07-4.05-8.33-5.8-12.99-5.93-15.8-6.54-35.69-1.4-52.79,1.5-4.98,3.35-9.55,5.32-13.81"/>
      </g>
      <polygon class="cls-5" points="365.33 204.62 364.4 174.53 358.25 201.6 365.33 204.62"/>
      <polygon class="cls-4" points="365.33 204.62 364.4 174.53 358.25 201.6 365.33 204.62"/>
      <g class="cls-31">
        <path class="cls-5" d="m302.09,194.41c1.26,2.37,2.47,4.9,3.62,7.52,8.58,19.49,9.08,43.6,1.36,64.4-4.53,12.19-10.38,20.62-16.77,27.46-6.57,7.03-13.45,12.11-20.52,15.95"/>
        <path class="cls-3" d="m302.09,194.41c1.26,2.37,2.47,4.9,3.62,7.52,8.58,19.49,9.08,43.6,1.36,64.4-4.53,12.19-10.38,20.62-16.77,27.46-6.57,7.03-13.45,12.11-20.52,15.95"/>
        <path class="cls-5" d="m302.06,92.06c2.05,4.07,4.1,8.3,5.74,13.11,5.41,15.86,6.63,32.97,1.8,50.34-1.56,5.6-3.61,10.67-5.74,15.46"/>
        <path class="cls-3" d="m302.06,92.06c2.05,4.07,4.1,8.3,5.74,13.11,5.41,15.86,6.63,32.97,1.8,50.34-1.56,5.6-3.61,10.67-5.74,15.46"/>
      </g>
      <polygon class="cls-5" points="301.51 164.28 302.09 194.41 308.55 167.69 301.51 164.28"/>
      <polygon class="cls-4" points="301.51 164.28 302.09 194.41 308.55 167.69 301.51 164.28"/>
      <g class="cls-35">
        <path class="cls-5" d="m317.03,3.96c-3.75,1.68-6.24,6.96-5.07,17.08,1.15,9.89.62,19.63-1.49,28.97-1.62,7.16-3.81,13.25-6.39,18.68"/>
        <path class="cls-3" d="m317.03,3.96c-3.75,1.68-6.24,6.96-5.07,17.08,1.15,9.89.62,19.63-1.49,28.97-1.62,7.16-3.81,13.25-6.39,18.68"/>
      </g>
      <polygon class="cls-5" points="301.84 61.9 302.06 92.05 308.84 65.7 301.84 61.9"/>
      <polygon class="cls-4" points="301.84 61.9 302.06 92.05 308.84 65.7 301.84 61.9"/>
      <g class="cls-33">
        <polygon class="cls-4" points="329.07 -11.2 317.03 3.96 330.96 3.87 329.07 -11.2"/>
      </g>
      <polygon class="cls-5" points="862.87 266.67 865.17 266.67 863.7 257.39 862.87 266.67"/>
      <g class="cls-15">
        <polygon class="cls-4" points="868.24 285.9 863.7 257.39 861.04 287 868.24 285.9"/>
        <path class="cls-5" d="m859.86-38.02c-2.86,8.88-5.82,17.6-8.71,26.45-2.31,7.09-4.69,14.11-6.83,21.45-1.74,5.97-3.2,12.34-4.7,18.61-1.79,7.46-4.11,14.65-5.11,22.6-1.79,14.27-4.98,27.57-5.62,42.72-.48,11.36-2.14,22.48-3.28,33.7-.56,5.47-1.31,10.89-1.62,16.43-.44,7.88-.32,15.94-.89,23.76-.64,8.89-.29,17.7-.28,26.55,0,9.4.19,18.82-.05,28.19-.29,11.53.77,22.59,2.05,33.57.2,1.75.42,3.49.65,5.23"/>
        <path class="cls-3" d="m859.86-38.02c-2.86,8.88-5.82,17.6-8.71,26.45-2.31,7.09-4.69,14.11-6.83,21.45-1.74,5.97-3.2,12.34-4.7,18.61-1.79,7.46-4.11,14.65-5.11,22.6-1.79,14.27-4.98,27.57-5.62,42.72-.48,11.36-2.14,22.48-3.28,33.7-.56,5.47-1.31,10.89-1.62,16.43-.44,7.88-.32,15.94-.89,23.76-.64,8.89-.29,17.7-.28,26.55,0,9.4.19,18.82-.05,28.19-.29,11.53.77,22.59,2.05,33.57.2,1.75.42,3.49.65,5.23"/>
      </g>
      <polygon class="cls-5" points="821.38 258.33 823.75 266.67 828.46 266.67 828.3 253.87 821.38 258.33"/>
      <g class="cls-16">
        <polygon class="cls-4" points="821.38 258.33 828.68 284.02 828.3 253.87 821.38 258.33"/>
        <path class="cls-5" d="m890.51,10.21c5.8-8.37,8.64-19.88,9.23-36.4-.45-3.78-.76-9.68-1.85-14.8-4.13-19.3-13.46-28.51-22.89-21.32-2.45,1.87-4.57,5.75-6.92,8.33l-.03.03"/>
        <path class="cls-3" d="m890.51,10.21c5.8-8.37,8.64-19.88,9.23-36.4-.45-3.78-.76-9.68-1.85-14.8-4.13-19.3-13.46-28.51-22.89-21.32-2.45,1.87-4.57,5.75-6.92,8.33l-.03.03"/>
        <path class="cls-5" d="m863.7,257.39c-.74-4.11-1.49-8.25-1.99-12.51-.74-6.33-1.67-12.75-1.79-19.19-.27-14.33.07-28.71-.14-43.05-.23-15.98,1.36-31.33,2.87-46.75.78-7.96,1.9-15.81,2.36-23.85.8-14.04,2.89-27.05,5.81-39.54,1.14-4.88,2.3-9.76,3.56-14.51,1.41-5.3,2.88-10.53,4.45-15.61,1.47-4.76,2.95-9.51,4.5-14.14"/>
        <path class="cls-3" d="m863.7,257.39c-.74-4.11-1.49-8.25-1.99-12.51-.74-6.33-1.67-12.75-1.79-19.19-.27-14.33.07-28.71-.14-43.05-.23-15.98,1.36-31.33,2.87-46.75.78-7.96,1.9-15.81,2.36-23.85.8-14.04,2.89-27.05,5.81-39.54,1.14-4.88,2.3-9.76,3.56-14.51,1.41-5.3,2.88-10.53,4.45-15.61,1.47-4.76,2.95-9.51,4.5-14.14"/>
      </g>
      <polygon class="cls-5" points="884.64 37.57 890.51 10.22 879.1 27.55 884.64 37.57"/>
      <polygon class="cls-4" points="884.64 37.57 890.51 10.22 879.1 27.55 884.64 37.57"/>
      <g class="cls-19">
        <path class="cls-5" d="m1184.44,82.25c-7.63,7.46-11.24,20.59-11.17,38.67.06,16.24,5.82,32.64,13.15,36.34,2.47,1.25,5.09,1.22,7.65,1.61,1.84.28,3.69.39,5.54.39,1.98,0,3.98-.31,5.96-.29"/>
        <path class="cls-3" d="m1184.44,82.25c-7.63,7.46-11.24,20.59-11.17,38.67.06,16.24,5.82,32.64,13.15,36.34,2.47,1.25,5.09,1.22,7.65,1.61,1.84.28,3.69.39,5.54.39,1.98,0,3.98-.31,5.96-.29"/>
      </g>
      <polygon class="cls-5" points="1202.65 166.44 1216.46 162.32 1203.55 150.95 1202.65 166.44"/>
      <polygon class="cls-4" points="1202.65 166.44 1216.46 162.32 1203.55 150.95 1202.65 166.44"/>
      <g class="cls-18">
        <path class="cls-5" d="m1224.39,84.64c-5.92-3.49-11.92-5.4-18.05-5.49-3.66-.06-7.33-.17-10.99-.1"/>
        <path class="cls-3" d="m1224.39,84.64c-5.92-3.49-11.92-5.4-18.05-5.49-3.66-.06-7.33-.17-10.99-.1"/>
      </g>
      <polygon class="cls-5" points="1197.39 71.13 1184.44 82.24 1198.22 86.64 1197.39 71.13"/>
      <polygon class="cls-4" points="1197.39 71.13 1184.44 82.24 1198.22 86.64 1197.39 71.13"/>
      <g class="cls-17">
        <path class="cls-5" d="m1256.83,162.8c3.91-14.04,3.68-31.57-.94-44.58-1.79-5.04-4.1-9.23-6.17-13.79-2.41-5.3-5.29-8.77-8.62-10.58-2.02-1.1-4.04-2.18-6.06-3.27"/>
        <path class="cls-3" d="m1256.83,162.8c3.91-14.04,3.68-31.57-.94-44.58-1.79-5.04-4.1-9.23-6.17-13.79-2.41-5.3-5.29-8.77-8.62-10.58-2.02-1.1-4.04-2.18-6.06-3.27"/>
      </g>
      <polygon class="cls-5" points="1238.32 84.26 1224.39 84.63 1236.54 99.39 1238.32 84.26"/>
      <polygon class="cls-4" points="1238.32 84.26 1224.39 84.63 1236.54 99.39 1238.32 84.26"/>
      <g class="cls-20">
        <path class="cls-5" d="m1216.46,162.32c1.49.78,3.36.55,4.11,5.01,2.79,16.5,9.31,26.26,17.39,26.32,5.17-.1,9.48-3.71,12.88-10.88"/>
        <path class="cls-3" d="m1216.46,162.32c1.49.78,3.36.55,4.11,5.01,2.79,16.5,9.31,26.26,17.39,26.32,5.17-.1,9.48-3.71,12.88-10.88"/>
      </g>
      <polygon class="cls-5" points="1252.17 191.22 1256.83 162.8 1246.23 182.37 1252.17 191.22"/>
      <polygon class="cls-4" points="1252.17 191.22 1256.83 162.8 1246.23 182.37 1252.17 191.22"/>
      <g class="cls-23">
        <path class="cls-5" d="m965.28,194.28c1.3,2.48,2.6,5,3.76,7.79,3.95,9.54,6.7,20.26,6.77,33.5.16.1.31.19.47.29-.8,6.13-1.37,12.46-2.47,18.33-.34,1.84-.74,3.6-1.18,5.29"/>
        <path class="cls-3" d="m965.28,194.28c1.3,2.48,2.6,5,3.76,7.79,3.95,9.54,6.7,20.26,6.77,33.5.16.1.31.19.47.29-.8,6.13-1.37,12.46-2.47,18.33-.34,1.84-.74,3.6-1.18,5.29"/>
      </g>
      <polygon class="cls-5" points="967.67 266.67 972.43 266.67 976.78 260.08 971.26 250.05 967.67 266.67"/>
      <g class="cls-21">
        <polygon class="cls-4" points="971.26 250.05 965.36 277.37 976.78 260.08 971.26 250.05"/>
        <path class="cls-5" d="m977.5,174.45c-4.13-7.81-6.68-8.96-10.01-3.55"/>
        <path class="cls-3" d="m977.5,174.45c-4.13-7.81-6.68-8.96-10.01-3.55"/>
      </g>
      <polygon class="cls-5" points="965.71 164.14 965.28 194.28 972.62 168.64 965.71 164.14"/>
      <polygon class="cls-4" points="965.71 164.14 965.28 194.28 972.62 168.64 965.71 164.14"/>
      <g class="cls-22">
        <path class="cls-5" d="m1012.97,208.69c-9.31-4.33-18.38-10.27-26.51-20.43"/>
        <path class="cls-3" d="m1012.97,208.69c-9.31-4.33-18.38-10.27-26.51-20.43"/>
      </g>
      <polygon class="cls-5" points="990.62 184.6 977.5 174.45 986.51 197.44 990.62 184.6"/>
      <polygon class="cls-4" points="990.62 184.6 977.5 174.45 986.51 197.44 990.62 184.6"/>
      <g class="cls-24">
        <path class="cls-5" d="m1013.94,262.62c3.53-1.68,4.83-7.22,4.39-14.97-.33-5.86-.55-11.96-.32-17.84"/>
        <path class="cls-3" d="m1013.94,262.62c3.53-1.68,4.83-7.22,4.39-14.97-.33-5.86-.55-11.96-.32-17.84"/>
      </g>
      <polygon class="cls-5" points="1021.8 232.03 1012.97 208.69 1015.22 238.45 1021.8 232.03"/>
      <polygon class="cls-4" points="1021.8 232.03 1012.97 208.69 1015.22 238.45 1021.8 232.03"/>
      <g class="cls-25">
        <polygon class="cls-4" points="1001.89 277.78 1013.94 262.63 1000 262.71 1001.89 277.78"/>
      </g>
    </g>
  </g>
</svg>