<?xml version="1.0" encoding="UTF-8"?>
<svg id="Layer_2" data-name="Layer 2" xmlns="http://www.w3.org/2000/svg" xmlns:xlink="http://www.w3.org/1999/xlink" viewBox="0 0 1280 266.67">
  <defs>
    <style>
      .cls-1 {
        clip-path: url(#clippath);
      }

      .cls-2, .cls-3, .cls-4, .cls-5 {
        fill: none;
      }

      .cls-2, .cls-6, .cls-7, .cls-8 {
        stroke-width: 0px;
      }

      .cls-9 {
        clip-path: url(#clippath-1);
      }

      .cls-10 {
        clip-path: url(#clippath-4);
      }

      .cls-11 {
        clip-path: url(#clippath-3);
      }

      .cls-12 {
        clip-path: url(#clippath-2);
      }

      .cls-13 {
        clip-path: url(#clippath-7);
      }

      .cls-14 {
        clip-path: url(#clippath-8);
      }

      .cls-15 {
        clip-path: url(#clippath-6);
      }

      .cls-16 {
        clip-path: url(#clippath-5);
      }

      .cls-17 {
        clip-path: url(#clippath-9);
      }

      .cls-18 {
        clip-path: url(#clippath-20);
      }

      .cls-19 {
        clip-path: url(#clippath-21);
      }

      .cls-20 {
        clip-path: url(#clippath-24);
      }

      .cls-21 {
        clip-path: url(#clippath-23);
      }

      .cls-22 {
        clip-path: url(#clippath-22);
      }

      .cls-23 {
        clip-path: url(#clippath-25);
      }

      .cls-24 {
        clip-path: url(#clippath-27);
      }

      .cls-25 {
        clip-path: url(#clippath-28);
      }

      .cls-26 {
        clip-path: url(#clippath-26);
      }

      .cls-27 {
        clip-path: url(#clippath-29);
      }

      .cls-28 {
        clip-path: url(#clippath-14);
      }

      .cls-29 {
        clip-path: url(#clippath-13);
      }

      .cls-30 {
        clip-path: url(#clippath-12);
      }

      .cls-31 {
        clip-path: url(#clippath-10);
      }

      .cls-32 {
        clip-path: url(#clippath-15);
      }

      .cls-33 {
        clip-path: url(#clippath-17);
      }

      .cls-34 {
        clip-path: url(#clippath-16);
      }

      .cls-35 {
        clip-path: url(#clippath-19);
      }

      .cls-36 {
        clip-path: url(#clippath-11);
      }

      .cls-37 {
        clip-path: url(#clippath-18);
      }

      .cls-3 {
        stroke: #000;
      }

      .cls-3, .cls-4, .cls-5 {
        stroke-miterlimit: 10;
        stroke-width: 2px;
      }

      .cls-4 {
        stroke: #298882;
      }

      .cls-5 {
        stroke: #399;
      }

      .cls-7 {
        fill: #399;
      }

      .cls-8 {
        fill: #298882;
      }
    </style>
    <clipPath id="clippath">
      <rect class="cls-2" y="0" width="1280" height="266.67"/>
    </clipPath>
    <clipPath id="clippath-1">
      <rect class="cls-2" y="0" width="1280" height="266.67"/>
    </clipPath>
    <clipPath id="clippath-2">
      <rect class="cls-2" y="0" width="1280" height="266.67"/>
    </clipPath>
    <clipPath id="clippath-3">
      <rect class="cls-2" y="0" width="1280" height="266.67"/>
    </clipPath>
    <clipPath id="clippath-4">
      <rect class="cls-2" y="0" width="1280" height="266.67"/>
    </clipPath>
    <clipPath id="clippath-5">
      <rect class="cls-2" y="0" width="1280" height="266.67"/>
    </clipPath>
    <clipPath id="clippath-6">
      <rect class="cls-2" y="0" width="1280" height="266.67"/>
    </clipPath>
    <clipPath id="clippath-7">
      <rect class="cls-2" y="0" width="1280" height="266.67"/>
    </clipPath>
    <clipPath id="clippath-8">
      <rect class="cls-2" y="0" width="1280" height="266.67"/>
    </clipPath>
    <clipPath id="clippath-9">
      <rect class="cls-2" y="0" width="1280" height="266.67"/>
    </clipPath>
    <clipPath id="clippath-10">
      <rect class="cls-2" y="0" width="1280" height="266.67"/>
    </clipPath>
    <clipPath id="clippath-11">
      <rect class="cls-2" y="0" width="1280" height="266.67"/>
    </clipPath>
    <clipPath id="clippath-12">
      <rect class="cls-2" y="0" width="1280" height="266.67"/>
    </clipPath>
    <clipPath id="clippath-13">
      <rect class="cls-2" y="0" width="1280" height="266.67"/>
    </clipPath>
    <clipPath id="clippath-14">
      <rect class="cls-2" y="0" width="1280" height="266.67"/>
    </clipPath>
    <clipPath id="clippath-15">
      <rect class="cls-2" y="0" width="1280" height="266.67"/>
    </clipPath>
    <clipPath id="clippath-16">
      <rect class="cls-2" y="0" width="1280" height="266.67"/>
    </clipPath>
    <clipPath id="clippath-17">
      <rect class="cls-2" y="0" width="1280" height="266.67"/>
    </clipPath>
    <clipPath id="clippath-18">
      <rect class="cls-2" y="0" width="1280" height="266.67"/>
    </clipPath>
    <clipPath id="clippath-19">
      <rect class="cls-2" y="0" width="1280" height="266.67"/>
    </clipPath>
    <clipPath id="clippath-20">
      <rect class="cls-2" y="0" width="1280" height="266.67"/>
    </clipPath>
    <clipPath id="clippath-21">
      <rect class="cls-2" y="0" width="1280" height="266.67"/>
    </clipPath>
    <clipPath id="clippath-22">
      <rect class="cls-2" y="0" width="1280" height="266.67"/>
    </clipPath>
    <clipPath id="clippath-23">
      <rect class="cls-2" y="0" width="1280" height="266.67"/>
    </clipPath>
    <clipPath id="clippath-24">
      <rect class="cls-2" y="0" width="1280" height="266.67"/>
    </clipPath>
    <clipPath id="clippath-25">
      <rect class="cls-2" y="0" width="1280" height="266.67"/>
    </clipPath>
    <clipPath id="clippath-26">
      <rect class="cls-2" y="0" width="1280" height="266.67"/>
    </clipPath>
    <clipPath id="clippath-27">
      <rect class="cls-2" y="0" width="1280" height="266.67"/>
    </clipPath>
    <clipPath id="clippath-28">
      <rect class="cls-2" y="0" width="1280" height="266.67"/>
    </clipPath>
    <clipPath id="clippath-29">
      <rect class="cls-2" y="0" width="1280" height="266.67"/>
    </clipPath>
  </defs>
  <g id="Layer_1-2" data-name="Layer 1">
    <g class="cls-1">
      <path class="cls-4" d="m162.67,74.12c-2.52-5.4-4.98-11.2-6.9-17.67-5.34-17.99-4.63-39.02,1.4-55.96,5.82-16.33,13.44-27.06,21.95-34.43,2.96-2.57,5.98-4.89,9.02-7.03"/>
      <path class="cls-4" d="m163.09,197.64c3.69-6.81,3.64-14.77.06-21.85-2.66-5.28-5.22-11.08-7.22-17.48-5.58-17.86-4.93-38.66,1.51-55.25,1.27-3.28,2.66-6.39,4.11-9.35"/>
    </g>
    <polygon class="cls-7" points="163.6 102.41 163.09 72.1 156.57 98.9 163.6 102.41"/>
    <g class="cls-9">
      <path class="cls-4" d="m153.36,251.16c-2.34-14.95-1.02-27.57,2.67-38.68"/>
    </g>
    <polygon class="cls-8" points="157.1 223.31 162.76 195.6 151.49 213.43 157.1 223.31"/>
    <g class="cls-12">
      <path class="cls-4" d="m95.86,363.27c4.05.35,6.98-5.02,6.52-14.1-1.18-23.3,3.72-39.83,11.08-53.47,9.26-17.15,20.17-26.08,31.5-32.68"/>
    </g>
    <polygon class="cls-8" points="140.68 261.66 142.4 266.67 147.74 266.67 153.63 250.43 140.68 261.66"/>
    <g class="cls-11">
      <path class="cls-4" d="m503.29,173.04c-3.3,5.93-3.25,14.74.07,20.75,3.38,6.12,6.35,12.96,8.46,21.34,4.04,16.09,3.5,31.26-.5,45.61"/>
    </g>
    <polygon class="cls-8" points="506.13 266.67 510.81 266.67 515.18 259.77 509.58 249.88 506.13 266.67"/>
    <g class="cls-10">
      <path class="cls-4" d="m516.99,104.77c-3,1.81-4.79,7.81-4.03,14.49,1.67,14.69.62,27.62-2.46,39.27"/>
    </g>
    <polygon class="cls-8" points="509.48 147.58 503.64 175.11 515.02 157.63 509.48 147.58"/>
    <g class="cls-16">
      <path class="cls-4" d="m557,122.45c.75-8.68-.83-14.56-4.4-16.83-4.86-3.09-9.71-6.35-14.53-9.82-1.88-1.36-3.64-1.42-5.53-.09-1.56,1.1-3.12,2.17-4.68,3.23"/>
    </g>
    <polygon class="cls-8" points="529.11 91.79 517.11 107.17 531.04 106.92 529.11 91.79"/>
    <g class="cls-15">
      <path class="cls-4" d="m712.32,168.76c-1.4-.81-3.59.23-4.64,2.39-10.74,22.07-23.75,33.29-37.57,39.92-23.5,11.27-47.09,11.03-70.56-.6-10.94-5.42-21.36-14.28-30.61-29.04-4.2-6.69-7.81-14.73-10.53-24.79-1.03-3.8-1.77-7.68-2.27-11.64"/>
    </g>
    <polygon class="cls-8" points="560.66 150.77 556.45 121.86 553.45 151.47 560.66 150.77"/>
    <g class="cls-13">
      <path class="cls-4" d="m707.08,248.25c-1.69-16.36.33-30.75,5.65-43.25,1.54-3.61,3.26-6.92,4.97-10.2,1.39-2.65,2.21-5.58,2.45-8.53"/>
    </g>
    <polygon class="cls-8" points="722.69 189.09 712.44 168.54 716.59 197.49 722.69 189.09"/>
    <g class="cls-14">
      <path class="cls-4" d="m666.11,404.14c3.55-7.29,3.54-15.3-.17-22.38-3.38-6.44-6.17-13.92-7.97-22.98-3.73-18.75-1.86-35.71,3.77-50.99,6.79-18.43,16-28.82,25.83-36.63,4.09-3.24,8.3-5.75,12.51-8.22"/>
    </g>
    <polygon class="cls-8" points="695.45 262.52 697.31 266.67 702.42 266.67 707.59 247.66 695.45 262.52"/>
    <g class="cls-17">
      <path class="cls-4" d="m1177.89,227.79c1.32,23.97-3.89,40.65-11.81,54.4-9.18,15.94-19.9,24.45-31,30.91-.2.12-.4.23-.6.34"/>
      <path class="cls-4" d="m1171.84,51.33c3.88.95,7.91-1.26,11.88-1.89,21.19-3.36,42.11-.91,62.42,14.48,7.41,5.62,14.45,12.99,20.7,23.65,3.64,6.2,6.75,13.46,9.15,22.3,4.92,18.11,3.61,39.11-2.43,55.32-6.9,18.53-16.16,28.8-25.99,37-11.66,9.72-23.82,14.1-36.18,15.89-4.28.62-8.59.1-12.89.1,0,.42,0,.85,0,1.27-3.87-.43-7.73-.79-11.6-1.26"/>
    </g>
    <polygon class="cls-8" points="1187.58 207.58 1177.34 228.15 1190.93 221.48 1187.58 207.58"/>
    <g class="cls-31">
      <path class="cls-4" d="m1122.02,55.83c3.2,1.96,6.55-2.31,9.82-3.92,9.6-4.72,19.17-4.72,28.75-1.42"/>
    </g>
    <polygon class="cls-8" points="1158.06 59.03 1171.77 53.63 1158.65 43.38 1158.06 59.03"/>
    <g class="cls-36">
      <path class="cls-4" d="m1071.56,55.81c3.32,2.11,6.79-2.42,10.19-4.06,9.6-4.61,19.17-4.6,28.74-1.18"/>
    </g>
    <polygon class="cls-8" points="1107.95 59.03 1121.67 53.75 1108.58 43.39 1107.95 59.03"/>
    <g class="cls-30">
      <path class="cls-4" d="m965.12,93.43c4.67,10.62,7.11,11.34,12.31.59,10.68-22.08,23.76-32.23,37.34-38.69,15.07-7.16,30.22-8.68,45.43-6.14"/>
    </g>
    <polygon class="cls-8" points="1057.48 58.99 1071.21 53.75 1058.12 43.35 1057.48 58.99"/>
    <g class="cls-29">
      <path class="cls-4" d="m975.45,13.97c-.18,2.78.32,5.77.56,8.64,1.44,17.5-1.73,31.75-7.19,44.31-.52,1.2-1.07,2.33-1.64,3.44"/>
    </g>
    <polygon class="cls-8" points="965.12 61.46 965.27 91.78 972.11 65.36 965.12 61.46"/>
    <g class="cls-28">
      <path class="cls-4" d="m1026.69-80.99c1.32,23.81-3.86,40.52-11.71,54.13-9.12,15.81-19.63,24.66-30.65,30.77"/>
    </g>
    <polygon class="cls-8" points="981.3 0 974.97 14.36 988.35 5.92 986.71 0 981.3 0"/>
    <g class="cls-32">
      <path class="cls-5" d="m401.11,59.65c3.52-1.69,5.08-7.51,4.36-15.21-1.14-12.09-.8-23.75,2.11-34.76,2.04-7.7,4.63-14.24,7.7-20.05,3.45-6.54,3.4-14.36.06-21.13-1.72-3.5-3.46-7.05-4.93-11.02-1.58-4.26-2.92-8.73-3.9-13.44"/>
      <path class="cls-4" d="m363.97,176.91c-1.91-3.82-3.69-8.06-5.3-12.51-6.1-16.77-6.66-37.4-1.58-55.65,3.9-13.99,9.53-23.68,15.86-31.55,5.53-6.88,11.33-12.14,17.3-16.29"/>
    </g>
    <polygon class="cls-8" points="388.97 72.52 401.01 57.26 387.08 57.37 388.97 72.52"/>
    <g class="cls-34">
      <path class="cls-4" d="m365.02,280.57c-2.18-4.3-4.32-8.8-6.19-13.71-6.33-16.68-6.98-37.69-1.49-55.74,1.6-5.26,3.57-10.09,5.67-14.58"/>
    </g>
    <polygon class="cls-8" points="365.33 205.1 364.4 174.84 358.25 202.06 365.33 205.1"/>
    <g class="cls-33">
      <path class="cls-4" d="m302.54,192.74c1.27,2.48,2.49,5.12,3.66,7.86,8.67,20.36,9.17,45.55,1.37,67.28-4.58,12.74-10.48,21.54-16.95,28.69-6.64,7.35-13.59,12.65-20.73,16.66"/>
      <path class="cls-4" d="m301.9,89.86c2.19,4.29,4.38,8.76,6.13,13.84,5.78,16.75,7.07,34.82,1.92,53.17-1.66,5.92-3.85,11.27-6.13,16.33"/>
    </g>
    <polygon class="cls-8" points="301.51 164.53 302.09 194.83 308.55 167.96 301.51 164.53"/>
    <g class="cls-37">
      <path class="cls-4" d="m316.91.89c-3.77,1.8-6.27,7.48-5.08,18.34,1.16,10.62.63,21.08-1.49,31.12-1.62,7.69-3.83,14.23-6.41,20.06"/>
    </g>
    <polygon class="cls-7" points="301.84 61.57 302.06 91.89 308.84 65.39 301.84 61.57"/>
    <g class="cls-35">
      <path class="cls-3" d="m363.13-77.1c.24,5.96-.01,12.42-.8,18.12-2.21,15.97-7.34,27.14-13.36,36.3-6.58,10.02-13.71,17.2-21.18,22.42"/>
    </g>
    <polygon class="cls-6" points="862.94 266.67 865.04 266.67 863.7 258.17 862.94 266.67"/>
    <g class="cls-18">
      <path class="cls-4" d="m860.19-40.55c-2.93,9-5.96,17.85-8.91,26.81-2.37,7.19-4.8,14.3-6.99,21.75-1.78,6.06-3.27,12.51-4.82,18.87-1.83,7.56-4.21,14.85-5.23,22.91-1.83,14.47-5.09,27.95-5.75,43.31-.49,11.51-2.2,22.79-3.36,34.17-.57,5.55-1.34,11.04-1.66,16.65-.45,7.99-.33,16.16-.91,24.09-.66,9.01-.29,17.95-.29,26.92,0,9.53.2,19.08-.05,28.58-.3,11.69.79,22.91,2.1,34.03.21,1.77.43,3.54.67,5.3"/>
    </g>
    <polygon class="cls-8" points="821.38 259.12 823.52 266.67 828.45 266.67 828.3 254.63 821.38 259.12"/>
    <g class="cls-19">
      <path class="cls-4" d="m890.92,11.84c5.9-8.93,8.78-21.22,9.38-38.86-.46-4.03-.77-10.34-1.88-15.8-4.19-20.6-13.68-30.44-23.26-22.76-2.49,2-4.64,6.14-7.04,8.89-.01.01-.02.02-.03.03"/>
      <path class="cls-4" d="m863.29,259.22c-.77-4.18-1.55-8.39-2.07-12.73-.77-6.44-1.73-12.97-1.86-19.53-.28-14.58.07-29.21-.14-43.81-.24-16.26,1.41-31.88,2.98-47.57.81-8.1,1.97-16.09,2.45-24.26.83-14.28,2.99-27.52,6.02-40.23,1.18-4.97,2.38-9.93,3.69-14.76,1.46-5.39,2.99-10.71,4.61-15.89,1.52-4.85,3.05-9.68,4.66-14.39"/>
    </g>
    <polygon class="cls-8" points="884.64 37.09 890.51 9.59 879.1 27.02 884.64 37.09"/>
    <g class="cls-22">
      <path class="cls-4" d="m1184.08,79.65c-7.76,7.97-11.43,21.98-11.36,41.28.06,17.34,5.92,34.84,13.38,38.79,2.52,1.33,5.18,1.31,7.78,1.72,1.87.3,3.75.41,5.63.42,2.02,0,4.04-.33,6.06-.31"/>
    </g>
    <polygon class="cls-8" points="1202.65 166.71 1216.46 162.56 1203.55 151.13 1202.65 166.71"/>
    <g class="cls-21">
      <path class="cls-4" d="m1224.04,87.03c-5.84-6.61-11.78-10.21-17.82-10.39-3.62-.11-7.24-.32-10.85-.2"/>
    </g>
    <polygon class="cls-8" points="1197.39 70.85 1184.44 82.02 1198.22 86.45 1197.39 70.85"/>
    <g class="cls-20">
      <path class="cls-4" d="m1257.33,164.53c3.98-14.88,3.75-33.45-.96-47.23-1.82-5.34-4.17-9.78-6.28-14.62-2.45-5.61-5.38-9.29-8.77-11.21-2.05-1.16-4.11-2.31-6.17-3.46"/>
    </g>
    <polygon class="cls-8" points="1238.32 84.05 1224.39 84.43 1236.54 99.27 1238.32 84.05"/>
    <g class="cls-23">
      <path class="cls-4" d="m1216.61,160.13c1.49.91,3.36.64,4.11,5.81,2.79,19.13,9.31,30.43,17.39,30.51,5.17-.11,9.48-4.3,12.88-12.61"/>
    </g>
    <polygon class="cls-8" points="1252.17 191.62 1256.83 163.04 1246.23 182.72 1252.17 191.62"/>
    <g class="cls-26">
      <path class="cls-4" d="m965.14,192.64c1.42,2.63,2.84,5.3,4.09,8.25,4.3,10.1,7.3,21.46,7.37,35.48.17.1.34.2.51.3-.88,6.49-1.49,13.2-2.69,19.41-.37,1.95-.81,3.81-1.29,5.6"/>
    </g>
    <polygon class="cls-8" points="967.85 266.67 972.98 266.67 976.78 260.88 971.26 250.78 967.85 266.67"/>
    <g class="cls-24">
      <path class="cls-4" d="m977.57,177c-4.15-13.09-6.72-15.02-10.07-5.95"/>
    </g>
    <polygon class="cls-8" points="965.71 164.39 965.28 194.7 972.62 168.91 965.71 164.39"/>
    <g class="cls-25">
      <path class="cls-4" d="m1012.79,211.63c-9.22-5.38-18.21-12.76-26.26-25.37"/>
    </g>
    <polygon class="cls-8" points="990.62 184.97 977.5 174.75 986.51 197.88 990.62 184.97"/>
    <g class="cls-27">
      <path class="cls-4" d="m1014.03,265.83c3.9-1.83,5.33-7.84,4.84-16.26-.36-6.37-.61-13-.35-19.38"/>
    </g>
    <polygon class="cls-8" points="1021.8 232.66 1012.97 209.19 1015.22 239.12 1021.8 232.66"/>
  </g>
</svg>