<?xml version="1.0" encoding="UTF-8"?>
<svg id="Layer_2" data-name="Layer 2" preserveAspectRatio="none" xmlns="http://www.w3.org/2000/svg" viewBox="0 0 1294 267">
  <defs>
    <style>
      .cls-1 {
        fill: none;
      }

      .cls-1, .cls-2 {
        stroke-width: 0px;
      }

      .cls-2 {
        fill: #f0f;
      }
    </style>
  </defs>
  <g id="Layer_1-2" data-name="Layer 1">
    <g>
      <path class="cls-1" d="m1188.13,233.03c-.46-8.2,2.56-13.5,6.52-12.97,4.88.66,9.76,1.09,14.64,1.62,0-.42,0-.84,0-1.26,4.32,0,8.66.52,12.96-.1,12.43-1.78,24.66-6.11,36.39-15.73,9.89-8.11,19.2-18.28,26.14-36.62,6.07-16.05,7.39-36.83,2.44-54.77-2.41-8.75-5.54-15.94-9.2-22.07-6.29-10.55-13.37-17.85-20.82-23.41-20.42-15.23-41.47-17.66-62.77-14.33-3.99.62-8.04,2.82-11.94,1.87-13.51-3.27-27-4.31-40.53-1.55-3.36.68-6.79,2.5-10.07,1.67-13.5-3.42-26.99-4.46-40.53-1.74-3.48.7-7.04,2.65-10.44,1.74-19.06-5.07-38.04-4.87-56.9,3.37-13.71,5.99-26.91,15.42-37.68,35.91-5.25,9.98-7.71,9.31-12.42-.55-2.69-5.63-2.83-14.1-.07-19.58,1.25-2.49,2.55-4.91,3.69-7.64,5.08-12.24,8.03-26.14,6.69-43.21-.22-2.8-.69-5.72-.52-8.43.44-7.2,1.7-9.24,5.53-11.12,2.54-1.25,5.06-2.62,7.55-4.15h-93.28c-1.36,3.93-3.05,7.37-5.12,10.41-2.24,3.27-3.88,8.67-5.57,13.49-2.2,6.28-4.23,12.86-6.24,19.47-1.58,5.21-3.07,10.57-4.49,16-1.27,4.86-2.44,9.85-3.6,14.86-2.95,12.8-5.06,26.12-5.87,40.5-.46,8.23-1.6,16.28-2.38,24.43-1.52,15.79-3.14,31.52-2.9,47.89.21,14.69-.13,29.42.14,44.1.12,6.6,1.06,13.18,1.81,19.66.5,4.36,1.27,8.6,2.02,12.81.2,1.13.37,2.27.53,3.4h109.16c.59-2.11,1.1-4.33,1.54-6.67,1.11-6.01,1.68-12.5,2.49-18.78-.16-.1-.31-.2-.47-.29-.06-13.56-2.85-24.55-6.84-34.32-1.17-2.86-2.48-5.44-3.8-7.98-2.79-5.4-2.84-14.09-.07-19.53.05-.09.11-.15.15-.25,4.53-9.9,7.25-10.14,12.26-.53,10.22,19.6,22.8,28.93,35.83,35.08,4.19,1.97,6.08,8.18,5.34,17.47-.58,7.26-.34,15.04.07,22.44.33,5.99-.33,10.69-2.21,13.37h159.5c2.74-9.55,4.09-20.61,3.34-33.97Zm7.17-148.83c1.83-1.82,3.96-2.9,5.97-3.05,5.38-.41,10.76-.21,16.15-.12,6.19.1,12.25,2.04,18.23,5.62,5.6,3.35,11.25,6.33,16.88,9.43,3.36,1.85,6.27,5.41,8.7,10.84,2.1,4.68,4.43,8.97,6.23,14.13,4.67,13.33,4.9,31.28.95,45.66-1.13,4.1-1.95,8.63-3.14,12.63-3.74,12.54-9.09,18.85-15.92,18.98-8.16-.07-14.75-10.06-17.56-26.96-.76-4.57-2.65-4.33-4.15-5.13-2.9-1.54-5.87-2.7-8.84-3.24-2.7-.49-5.45.12-8.17.11-1.86,0-3.73-.12-5.59-.4-2.58-.4-5.23-.37-7.73-1.65-7.4-3.79-13.22-20.58-13.29-37.22-.07-18.52,3.57-31.97,11.28-39.62Z"/>
      <path class="cls-1" d="m307.65,206.8c-1.17-2.68-2.39-5.27-3.66-7.71-2.97-5.66-2.78-13.98.02-20.1,2.77-6.06,5.56-12.46,7.56-19.75,4.88-17.8,3.65-35.32-1.81-51.57-1.66-4.93-3.73-9.26-5.8-13.43-2.89-5.82-2.9-14.34.11-20.04,3.44-6.52,6.36-13.93,8.39-23.03,2.13-9.57,2.67-19.55,1.5-29.68-1.19-10.36,1.33-15.77,5.12-17.49,2.54-1.16,5.06-2.49,7.55-4h-167.79c-.25.65-.5,1.3-.75,1.97-6.02,16.59-6.73,37.18-1.4,54.8,1.92,6.33,4.37,12.02,6.88,17.31,2.92,6.15,3.01,14.45,0,20.4-1.99,3.94-3.9,8.2-5.58,12.78-5.98,16.24-6.58,36.61-1.4,54.09,1.86,6.26,4.23,11.94,6.71,17.11,3.32,6.93,3.37,14.72-.06,21.4-7.66,14.9-12.12,32.42-9.23,55.85.51,4.09-.58,8.84-2.23,11.29h159.09c5.76-19.9,4.67-42.01-3.23-60.2Z"/>
      <path class="cls-1" d="m829.98,227.8c.24-9.6.06-19.25.05-28.88,0-9.07-.37-18.09.28-27.2.57-8.02.45-16.27.9-24.34.31-5.67,1.07-11.22,1.63-16.83,1.15-11.5,2.83-22.89,3.31-34.52.65-15.52,3.87-29.14,5.68-43.76,1.01-8.14,3.35-15.51,5.16-23.15,1.52-6.43,3-12.94,4.75-19.06.98-3.41,2.01-6.75,3.06-10.07h-441.47c-1.12,3.01-2.15,6.21-3.05,9.65-2.86,10.87-3.2,22.37-2.07,34.31.72,7.6-.82,13.34-4.28,15.01-9.78,4.71-19.23,11.41-28.02,22.13-6.32,7.71-11.94,17.19-15.83,30.89-5.07,17.86-4.51,38.07,1.57,54.49,1.61,4.36,3.39,8.51,5.29,12.25,3.23,6.33,3.16,14.46.05,20.91-2.53,5.25-4.98,10.97-6.86,17.33-4.77,16.09-4.63,34.58.07,50.03h154.22c4.27-14.69,5.05-30.27,1.1-46.84-1.96-8.19-4.72-14.88-7.86-20.86-3.08-5.87-3.13-14.49-.06-20.29,1.23-2.33,2.43-4.78,3.53-7.41,5.73-13.74,8.34-29.42,6.16-48.1-.74-6.31,1-11.98,3.91-13.69,5.14-3.02,10.28-6.08,15.38-9.36,1.88-1.21,3.63-1.15,5.5.09,4.8,3.16,9.63,6.12,14.47,8.92,3.56,2.06,5.13,7.4,4.38,15.3-1.18,12.56-.67,24.5,2.47,35.73,2.74,9.81,6.38,17.65,10.61,24.18,9.33,14.39,19.82,23.03,30.85,28.31,23.66,11.34,47.42,11.58,71.1.59,13.92-6.47,27.03-17.4,37.86-38.92,1.06-2.12,3.27-3.13,4.68-2.34,1.81,1.02,3.49,4.01,4.97,6.8,3.19,6,3.09,13.93.01,20.27-1.6,3.28-3.19,6.6-4.62,10.21-4.95,12.51-6.83,26.91-5.26,43.29.66,6.84-.02,11.31-2.11,14.11h121.15c-.21-1.6-.42-3.2-.61-4.82-1.29-11.24-2.37-22.57-2.07-34.38Z"/>
      <path class="cls-2" d="m360.12,216.97c1.89-6.36,4.34-12.09,6.86-17.33,3.11-6.46,3.18-14.58-.05-20.91-1.91-3.74-3.68-7.89-5.29-12.25-6.08-16.42-6.64-36.63-1.57-54.49,3.89-13.7,9.51-23.18,15.83-30.89,8.79-10.72,18.24-17.42,28.02-22.13,3.46-1.67,5-7.41,4.28-15.01-1.12-11.93-.79-23.44,2.07-34.31.91-3.44,1.93-6.64,3.05-9.65h-86.7c-2.49,1.52-5,2.85-7.55,4-3.79,1.72-6.31,7.13-5.12,17.49,1.16,10.13.63,20.1-1.5,29.68-2.02,9.1-4.95,16.5-8.39,23.03-3.01,5.7-3,14.22-.11,20.04,2.07,4.16,4.14,8.5,5.8,13.43,5.47,16.25,6.69,33.77,1.81,51.57-2,7.29-4.79,13.69-7.56,19.75-2.8,6.12-2.99,14.44-.02,20.1,1.27,2.43,2.49,5.02,3.66,7.71,7.9,18.19,8.99,40.3,3.23,60.2h49.31c-4.7-15.45-4.84-33.94-.07-50.03Z"/>
      <path class="cls-2" d="m1027.5,253.63c-.41-7.4-.65-15.18-.07-22.44.74-9.29-1.15-15.49-5.34-17.47-13.03-6.15-25.61-15.47-35.83-35.08-5.01-9.61-7.72-9.37-12.26.53-.04.1-.1.16-.15.25-2.77,5.45-2.72,14.13.07,19.53,1.31,2.54,2.63,5.12,3.8,7.98,3.99,9.77,6.77,20.76,6.84,34.32.16.1.31.2.47.29-.81,6.28-1.38,12.77-2.49,18.78-.43,2.35-.95,4.56-1.54,6.67h44.3c1.88-2.69,2.54-7.38,2.21-13.37Z"/>
      <path class="cls-2" d="m989.23,4.15c-3.83,1.88-5.09,3.92-5.53,11.12-.17,2.71.3,5.62.52,8.43,1.34,17.07-1.61,30.96-6.69,43.21-1.13,2.73-2.43,5.15-3.69,7.64-2.76,5.49-2.62,13.95.07,19.58,4.71,9.86,7.18,10.53,12.42.55,10.78-20.5,23.98-29.92,37.68-35.91,18.86-8.25,37.84-8.44,56.9-3.37,3.4.9,6.96-1.04,10.44-1.74,13.54-2.73,27.03-1.69,40.53,1.74,3.28.83,6.71-.98,10.07-1.67,13.54-2.76,27.02-1.73,40.53,1.55,3.9.94,7.95-1.25,11.94-1.87,21.31-3.33,42.35-.9,62.77,14.33,7.45,5.56,14.53,12.86,20.82,23.41,3.66,6.13,6.79,13.33,9.2,22.07,4.95,17.93,3.63,38.71-2.44,54.77-6.94,18.34-16.25,28.51-26.14,36.62-11.73,9.62-23.96,13.96-36.39,15.73-4.3.62-8.64.1-12.96.1,0,.42,0,.84,0,1.26-4.88-.53-9.77-.97-14.64-1.62-3.96-.53-6.98,4.77-6.52,12.97.75,13.36-.6,24.43-3.34,33.97h109.21V0h-297.21c-2.49,1.53-5.01,2.91-7.55,4.15Z"/>
      <path class="cls-2" d="m154.02,255.71c-2.89-23.43,1.57-40.95,9.23-55.85,3.43-6.67,3.38-14.46.06-21.4-2.48-5.17-4.85-10.85-6.71-17.11-5.18-17.49-4.58-37.85,1.4-54.09,1.68-4.58,3.59-8.84,5.58-12.78,3.01-5.95,2.93-14.25,0-20.4-2.51-5.29-4.97-10.97-6.88-17.31-5.33-17.62-4.62-38.22,1.4-54.8.24-.67.5-1.32.75-1.97H0v267h151.79c1.65-2.45,2.74-7.19,2.23-11.29Z"/>
      <path class="cls-2" d="m713.61,252.89c-1.57-16.38.3-30.78,5.26-43.29,1.43-3.62,3.03-6.93,4.62-10.21,3.08-6.34,3.18-14.27-.01-20.27-1.48-2.79-3.16-5.78-4.97-6.8-1.41-.79-3.61.22-4.68,2.34-10.83,21.52-23.94,32.46-37.86,38.92-23.68,10.99-47.45,10.75-71.1-.59-11.03-5.28-21.52-13.93-30.85-28.31-4.23-6.53-7.87-14.36-10.61-24.18-3.14-11.23-3.66-23.17-2.47-35.73.74-7.89-.83-13.24-4.38-15.3-4.84-2.81-9.67-5.77-14.47-8.92-1.88-1.23-3.62-1.3-5.5-.09-5.11,3.28-10.24,6.34-15.38,9.36-2.91,1.71-4.65,7.38-3.91,13.69,2.19,18.68-.43,34.36-6.16,48.1-1.1,2.63-2.3,5.08-3.53,7.41-3.07,5.8-3.02,14.42.06,20.29,3.14,5.98,5.9,12.67,7.86,20.86,3.96,16.57,3.18,32.15-1.1,46.84h197.09c2.09-2.8,2.77-7.28,2.11-14.11Z"/>
      <path class="cls-2" d="m1197.31,161.03c2.5,1.28,5.15,1.25,7.73,1.65,1.86.29,3.73.4,5.59.4,2.73,0,5.47-.6,8.17-.11,2.97.54,5.94,1.69,8.84,3.24,1.5.8,3.39.56,4.15,5.13,2.81,16.91,9.41,26.9,17.56,26.96,6.84-.13,12.18-6.44,15.92-18.98,1.19-4,2.01-8.52,3.14-12.63,3.95-14.38,3.72-32.33-.95-45.66-1.81-5.16-4.14-9.45-6.23-14.13-2.43-5.43-5.34-8.98-8.7-10.84-5.63-3.11-11.28-6.08-16.88-9.43-5.98-3.58-12.05-5.53-18.23-5.62-5.38-.08-10.77-.29-16.15.12-2.01.15-4.14,1.23-5.97,3.05-7.71,7.65-11.35,21.09-11.28,39.62.06,16.64,5.88,33.43,13.29,37.22Z"/>
      <path class="cls-2" d="m869.29,250.79c-.75-6.49-1.69-13.06-1.81-19.66-.28-14.68.07-29.41-.14-44.1-.24-16.37,1.38-32.09,2.9-47.89.79-8.15,1.92-16.19,2.38-24.43.81-14.38,2.92-27.7,5.87-40.5,1.15-5,2.32-10,3.6-14.86,1.42-5.43,2.91-10.79,4.49-16,2-6.6,4.04-13.18,6.24-19.47,1.69-4.81,3.34-10.22,5.57-13.49,2.08-3.03,3.77-6.48,5.12-10.41h-48.71c-1.05,3.31-2.08,6.65-3.06,10.07-1.75,6.12-3.23,12.64-4.75,19.06-1.81,7.64-4.15,15-5.16,23.15-1.81,14.62-5.03,28.24-5.68,43.76-.49,11.63-2.17,23.02-3.31,34.52-.56,5.6-1.32,11.16-1.63,16.83-.45,8.08-.33,16.32-.9,24.34-.65,9.11-.29,18.13-.28,27.2,0,9.63.19,19.28-.05,28.88-.3,11.81.78,23.14,2.07,34.38.18,1.62.4,3.21.61,4.82h39.18c-.16-1.13-.33-2.27-.53-3.4-.75-4.21-1.51-8.45-2.02-12.81Z"/>
    </g>
  </g>
</svg>