<?xml version="1.0" encoding="UTF-8"?>
<svg id="Layer_2" data-name="Layer 2" preserveAspectRatio="none" xmlns="http://www.w3.org/2000/svg" xmlns:xlink="http://www.w3.org/1999/xlink" viewBox="0 0 1280 266.67">
  <defs>
    <style>
      .cls-1 {
        stroke-dasharray: 0 0 20.35 20.35;
      }

      .cls-1, .cls-2, .cls-3, .cls-4, .cls-5, .cls-6, .cls-7 {
        fill: none;
      }

      .cls-1, .cls-2, .cls-4, .cls-5, .cls-6, .cls-7 {
        stroke: #399;
        stroke-miterlimit: 10;
        stroke-width: 2px;
      }

      .cls-2 {
        stroke-dasharray: 0 0 20.74 20.74;
      }

      .cls-8 {
        clip-path: url(#clippath);
      }

      .cls-3 {
        stroke-width: 0px;
      }

      .cls-4 {
        stroke-dasharray: 0 0 19.96 19.96;
      }

      .cls-6 {
        stroke-dasharray: 0 0 20.72 20.72;
      }

      .cls-7 {
        stroke-dasharray: 0 0 20.4 20.4;
      }
    </style>
    <clipPath id="clippath">
      <rect class="cls-3" width="1280" height="266.67"/>
    </clipPath>
  </defs>
  <g id="Layer_1-2" data-name="Layer 1">
    <g class="cls-8">
      <g>
        <g>
          <path class="cls-5" d="m976.07,227.85c.35,3.17.54,6.49.56,9.98.16.1.31.2.47.29-.42,3.28-.78,6.63-1.18,9.93"/>
          <path class="cls-6" d="m971.63,268.3c-1.58,4.54-3.46,8.58-5.47,12.35-1.86,3.49-3.04,8.06-2.01,13.01.87,4.14,2.49,7.7,4.04,10.9,2.73,5.62,5.46,5.2,8.33.09,3.04-5.4,6.08-10.96,9.42-15.39,8.94-11.89,18.76-18.78,28.9-23.71,3.54-1.72,4.84-7.39,4.4-15.34-.41-7.4-.65-15.18-.07-22.44.74-9.29-1.15-15.49-5.3-17.47-12.94-6.15-25.41-15.47-35.56-35.08-4.97-9.61-7.67-9.37-12.16.53-.04.1-.1.16-.15.25-2.75,5.45-2.7,14.13.07,19.53,1.3,2.54,2.61,5.12,3.77,7.98,1.79,4.42,3.33,9.09,4.5,14.13"/>
        </g>
        <path class="cls-2" d="m1239.41,194.89c6.78-.13,12.09-6.44,15.8-18.98,1.18-4,2-8.52,3.12-12.63,3.92-14.38,3.69-32.33-.95-45.66-1.8-5.16-4.11-9.45-6.19-14.13-2.41-5.42-5.3-8.98-8.64-10.84-5.59-3.11-11.19-6.08-16.75-9.43-5.93-3.58-11.95-5.53-18.09-5.62-5.34-.08-10.69-.29-16.03.12-1.99.15-4.1,1.23-5.92,3.05-7.65,7.65-11.27,21.09-11.2,39.62.06,16.64,5.84,33.43,13.18,37.22,2.48,1.28,5.11,1.25,7.67,1.65,1.84.29,3.7.4,5.55.4,2.7,0,5.43-.6,8.11-.11,2.95.54,5.9,1.69,8.78,3.24,1.49.8,3.36.56,4.12,5.13,2.79,16.91,9.33,26.9,17.43,26.96Z"/>
        <path class="cls-7" d="m900.37-30.31c-.46-3.87-.76-9.92-1.86-15.16-4.14-19.77-13.49-29.21-22.95-21.84-2.46,1.92-4.58,5.89-6.94,8.53-3.43,3.83-6.05,9.47-8.22,16.35-2.87,9.09-5.84,18.03-8.73,27.09-2.32,7.27-4.7,14.45-6.84,21.97-1.74,6.12-3.21,12.64-4.72,19.06-1.79,7.64-4.12,15-5.12,23.15-1.79,14.62-4.99,28.24-5.63,43.76-.48,11.63-2.15,23.02-3.29,34.52-.56,5.6-1.31,11.16-1.62,16.83-.44,8.08-.32,16.32-.89,24.34-.65,9.11-.29,18.13-.28,27.2,0,9.63.19,19.28-.05,28.88-.3,11.81.78,23.14,2.05,34.38,1.1,9.67,2.7,19.05,3.86,28.69,2.79,23.15,14.3,36.41,24.82,26.9,9.99-9.03,14.19-31.91,10.27-54.18-.74-4.21-1.5-8.45-2-12.81-.74-6.49-1.68-13.06-1.8-19.66-.27-14.68.07-29.41-.14-44.1-.23-16.37,1.37-32.09,2.88-47.89.78-8.15,1.91-16.19,2.37-24.42.8-14.38,2.89-27.7,5.82-40.5,1.15-5,2.3-10,3.57-14.86,1.41-5.43,2.89-10.79,4.46-15.99,1.99-6.6,4.01-13.18,6.19-19.47,1.68-4.81,3.31-10.22,5.53-13.49,5.82-8.57,8.66-20.36,9.25-37.29Z"/>
        <path class="cls-1" d="m404.11-76.88c.05-2.55.08-4.2.12-5.85.27-11.12-2.22-16.29-7.22-15.33-9.25,1.78-18.52,1.76-27.77-.02-5.42-1.04-7.84,4.93-7.34,17.03.24,5.86-.01,12.21-.8,17.82-2.19,15.7-7.27,26.68-13.22,35.68-9.59,14.51-20.36,22.95-31.64,28.12-3.76,1.72-6.26,7.13-5.08,17.49,1.16,10.13.62,20.1-1.49,29.68-2.01,9.1-4.91,16.5-8.32,23.03-2.99,5.7-2.98,14.22-.11,20.04,2.05,4.16,4.11,8.5,5.76,13.43,5.42,16.25,6.64,33.77,1.8,51.57-1.98,7.29-4.76,13.69-7.51,19.75-2.78,6.12-2.97,14.44-.02,20.1,1.27,2.43,2.47,5.02,3.63,7.71,8.6,19.96,9.1,44.66,1.36,65.97-4.54,12.49-10.4,21.12-16.81,28.13-7.97,8.71-16.38,14.49-25.04,18.64-2.7,1.29-4.38,7.03-4.14,12.87.31,7.62.54,15.26.66,22.9.11,6.72,1.59,11.65,4.61,12.37,2.62.62,5.32-.15,7.98-.39,19.03-1.7,37.79,1.55,55.95,15.34,2.17,1.65,4.19,1.47,6.36-.02,4.51-3.08,9.06-5.87,13.64-8.48,4.04-2.31,5.52-7.26,4.62-16.27-1.22-12.21-.67-24.02,2.52-34.41,2.07-6.74,4.6-12.89,7.21-18.7,3.03-6.74,3.26-14.53.37-20.4-2.05-4.17-4.06-8.53-5.82-13.3-5.95-16.18-6.56-36.56-1.4-54.07,1.87-6.36,4.3-12.09,6.81-17.33,3.09-6.46,3.15-14.58-.05-20.91-1.89-3.74-3.65-7.89-5.25-12.25-6.04-16.42-6.59-36.63-1.56-54.49,3.86-13.7,9.44-23.18,15.71-30.89,8.72-10.72,18.1-17.42,27.81-22.13,3.44-1.67,4.96-7.41,4.25-15.01-1.11-11.93-.78-23.44,2.06-34.3,1.99-7.6,4.52-14.06,7.51-19.79,3.37-6.46,3.31-14.17.06-20.86-1.68-3.45-3.37-6.96-4.81-10.88-3.45-9.42-5.76-19.9-5.38-31.58Z"/>
        <g>
          <path class="cls-5" d="m1209.65,217.16c-3.33.15-6.67-.16-10-.16,0,.42,0,.84,0,1.26-3.31-.36-6.63-.68-9.94-1.06"/>
          <path class="cls-4" d="m1178.61,228.7c0,.3.02.6.04.9,1.32,23.62-3.86,40.07-11.72,53.62-9.11,15.71-19.74,24.1-30.76,30.47-1.56.91-3.15,1.57-4.72,2.44-3.05,1.7-4.74,7.66-3.99,14.36,2.44,21.97-1.43,39.06-8.58,53.29-10.07,20.04-22.46,29.37-35.29,36.41-.72.4-1.45.83-2.18,1.05-2.8.84-5.18,6.88-4.29,15.01,2.37,21.68-1.61,38.5-8.67,52.42-10.95,21.61-24.38,31.53-38.41,37.74-18.77,8.3-37.68,8.8-56.64,3.17-1.62-.48-3.33.39-4.99.79-23.5,5.64-46.71,3.69-69.3-13.43-7.45-5.65-14.57-12.97-20.65-24.21-2.7-4.98-5.18-10.77-7.31-16.96-4.04-11.73-4.93-25.23-3.56-39.54.74-7.69-.83-13.23-4.32-14.92-8.72-4.23-17.18-10.13-25.17-19.08-6.56-7.35-12.44-16.56-16.99-29.61-2.02-5.79-6.38-5.65-8.6-.25-1.88,4.58-3.78,9.12-5.76,13.48-2.88,6.36-2.92,13.83.07,20.1,2.94,6.17,5.74,12.51,7.7,20.53,4.6,18.74,2.75,38.82-3.28,54.32-7.05,18.14-16.37,28.32-26.31,36.19-15.3,12.12-31.22,16.04-47.34,16.16-16.7.13-33.16-3.78-49.01-16.37-8.42-6.7-16.43-15.17-23.02-28.98-4.45-9.34-7.89-20.02-8.71-34.07-.82-14.1,1.37-25.96,5.22-36.64,1.35-3.74,2.95-7.07,4.54-10.32,3.52-7.19,3.51-15.09-.17-22.07-3.35-6.35-6.12-13.74-7.91-22.67-3.7-18.5-1.85-35.23,3.74-50.3,6.74-18.18,15.88-28.43,25.63-36.13,4.97-3.92,10.11-6.75,15.21-9.75,4.01-2.36,5.49-7.27,4.62-16.38-1.56-16.38.3-30.78,5.22-43.29,1.42-3.62,3.01-6.93,4.59-10.21,3.06-6.34,3.16-14.27-.01-20.28-1.47-2.79-3.14-5.78-4.93-6.79-1.39-.79-3.58.22-4.64,2.34-10.74,21.52-23.76,32.46-37.57,38.92-23.5,10.99-47.08,10.75-70.56-.59-10.94-5.28-21.36-13.93-30.61-28.31-4.2-6.53-7.81-14.36-10.53-24.18-3.12-11.23-3.63-23.17-2.45-35.73.74-7.89-.82-13.24-4.35-15.3-4.81-2.8-9.6-5.77-14.36-8.92-1.86-1.23-3.59-1.3-5.46-.09-5.07,3.28-10.16,6.34-15.26,9.36-2.89,1.71-4.62,7.38-3.89,13.69,2.17,18.68-.42,34.36-6.11,48.1-1.09,2.63-2.28,5.08-3.5,7.41-3.04,5.8-3,14.42.06,20.29,3.12,5.98,5.85,12.67,7.8,20.86,4.27,17.99,2.99,34.82-2.25,50.61-1.53,4.61-3.41,8.79-5.35,12.59-3.41,6.64-3.47,14.04-.27,21.16,2.57,5.71,5.21,11.57,7.12,18.32,5.19,18.24,4.06,39.25-2.28,55.75-6.89,17.92-15.9,28.4-25.65,36.11-5.02,3.97-10.21,7.01-15.4,9.77-2.96,1.57-5.4,7.14-4.46,15.59,1.86,16.53-.25,30.93-5.07,43.72-6.77,17.96-15.85,27.95-25.49,35.92-13.26,10.95-27.09,15.27-41.13,16.51-18.84,1.66-37.42-1.79-55.38-15.55-1.97-1.51-3.85-1.49-5.83,0-20.26,15.23-41.11,18.14-62.27,14.58-3.28-.55-6.55-1.72-9.83-2.26-1.4-.23-2.84.3-4.26.69-15.15,4.25-30.27,3.83-45.41-.39-1.81-.5-3.71.05-5.54.54-15.09,4.04-30.16,3.68-45.23-.62-1.63-.47-3.34.01-4.99.47-15.15,4.23-30.28,3.81-45.41-.39-1.81-.5-3.7.14-5.54.58-23.76,5.64-47.22,3.62-70-14.16-8.09-6.31-15.71-14.71-22.06-27.76-4.55-9.32-8.09-20.04-8.99-34.2-.92-14.54,1.32-26.8,5.38-37.73,6.75-18.18,15.91-28.24,25.61-36.25,13.32-11,27.21-15.45,41.32-16.44,7.32-.52,14.67.3,22,.91,4.07.34,7.02-4.87,6.55-13.68-1.19-22.6,3.73-38.63,11.14-51.86,9.76-17.44,21.34-26.11,33.32-32.61,1.15-.62,2.32-1.02,3.45-1.75,2.29-1.47,4.09-7.54,3.47-12.61-2.87-23.43,1.56-40.95,9.16-55.85,3.4-6.67,3.35-14.46.06-21.4-2.46-5.17-4.82-10.85-6.66-17.11-5.14-17.49-4.54-37.85,1.39-54.09,1.67-4.58,3.56-8.84,5.54-12.78,2.98-5.95,2.91-14.25,0-20.4-2.49-5.29-4.93-10.97-6.83-17.31-5.29-17.62-4.58-38.22,1.39-54.8,5.76-15.99,13.3-26.51,21.74-33.72,6.36-5.44,12.94-9.78,19.55-13.51,3.73-2.11,5.75-7.94,4.82-16.97-.51-4.99-.64-10.4-.41-15.49.55-12.04-1.97-17.74-7.42-16.91-22.05,3.35-43.78.27-64.66-17.44-8.67-7.35-16.62-17.22-22.99-32.74-8.12-19.8-8.14-47.02-.05-66.81,7.61-18.63,17.39-29.05,27.87-36.77,17.41-12.83,35.4-15.96,53.6-14.37,5.71.5,11.39,2.32,17.09,3.3,1.4.24,2.84-.35,4.26-.74,15.21-4.28,30.4-3.87,45.59.44,1.57.44,3.21-.01,4.8-.46,15.21-4.24,30.4-3.84,45.59.45,1.69.48,3.46-.06,5.17-.52,15.15-4.12,30.28-3.77,45.41.51,1.75.49,3.58-.13,5.35-.56,23.31-5.67,46.33-3.69,68.78,12.93,2.1,1.56,4.08,1.58,6.18-.01,17.8-13.52,36.19-16.9,54.84-15.38,11.9.97,23.68,4.24,35.13,11.87,9.4,6.27,18.42,14.42,26.17,28.18,3.45,6.13,6.46,13.19,8.7,21.86,2.91,11.3,3.29,23.12,2.01,35.48-.72,6.92.96,13.01,4.14,14.56,8.1,3.94,16,9.23,23.52,17.12,7.09,7.45,13.6,16.63,18.51,30.54,4.37,12.4,6.15,26.14,4.46,41.74-.92,8.48.66,13.64,4.43,15.82,4.75,2.74,9.48,5.7,14.18,8.82,1.92,1.27,3.72,1.42,5.65.15,4.94-3.25,9.91-6.31,14.9-9.27,3.1-1.85,4.75-7.37,4-14.24-2.49-22.77,1.8-40.02,9.26-54.29,9.87-18.87,21.84-27.99,34.23-34.87,1.02-.57,2.06-1.01,3.09-1.56,2.99-1.63,4.69-7.75,3.96-14.47-1.95-17.92.2-33.31,5.7-46.84,7.01-17.23,16.05-27.01,25.66-34.73,13.36-10.73,27.27-14.79,41.37-15.93,16.62-1.35,33.08,1.53,49.12,11.92,9.42,6.11,18.44,14.32,26.18,28.08,3.5,6.22,6.57,13.35,8.81,22.16,4.81,18.91,2.91,39.45-3.19,55.01-1.46,3.73-3.15,7.03-4.73,10.53-2.93,6.49-2.75,13.8.3,20.04,2,4.09,3.87,8.53,5.66,13.07,2.28,5.79,6.6,6.3,8.68.32,5.6-16.11,13.13-26.23,21.35-34.27,6.85-6.7,14.01-11.29,21.31-14.88,3.33-1.64,4.91-7.49,4.19-14.79-.21-2.14-.32-4.33-.47-6.5-1.01-14.51,1.29-26.79,5.33-37.75,6.35-17.18,14.91-27.05,24.02-34.99,11.21-9.76,22.94-14.41,34.88-16.76,13.44-2.64,26.84-1.85,40.21,2.21,1.32.4,2.72-.37,4.07-.75,15.21-4.26,30.4-3.85,45.59.45,1.69.48,3.46-.09,5.17-.55,15.15-4.11,30.28-3.76,45.41.55,1.63.46,3.34-.02,4.99-.47,15.21-4.23,30.4-3.82,45.6.46,1.75.49,3.58-.19,5.36-.61,23.5-5.61,46.73-3.77,69.3,13.42,9.91,7.55,19.06,18.03,26.22,35.74,7.93,19.61,7.86,46.68-.12,66.18-7.12,17.4-16.18,27.55-25.92,35.35-14.44,11.57-29.49,15.36-44.73,16.25-9.34.55-18.65-.88-27.91-3.63-1.44-.43-2.96.33-4.44.74-15.08,4.18-30.15,3.8-45.22-.41-1.81-.51-3.71,0-5.54.5-15.03,4.05-30.03,3.59-45.05-.42-2.72-.72-5.56.43-8.32,1.08-11.04,2.59-22.1,2.96-33.16.85-3.98-.76-7,4.84-6.53,13.26,1.3,23.46-3.83,39.93-11.62,53.34-10.08,17.37-21.89,26.22-34.19,32.3-3.8,1.88-5.05,3.92-5.49,11.12-.17,2.71.3,5.62.52,8.43,1.33,17.07-1.6,30.96-6.64,43.21-1.13,2.73-2.42,5.15-3.66,7.64-2.74,5.49-2.6,13.95.07,19.58,4.68,9.86,7.12,10.53,12.33.55,10.7-20.5,23.79-29.92,37.4-35.92,18.71-8.24,37.55-8.44,56.47-3.37,3.37.9,6.91-1.04,10.36-1.74,13.44-2.73,26.82-1.69,40.22,1.73,3.26.83,6.66-.98,9.99-1.67,13.44-2.76,26.82-1.73,40.22,1.55,3.87.94,7.89-1.25,11.85-1.87,21.14-3.33,42.03-.9,62.29,14.33,7.4,5.56,14.42,12.86,20.66,23.41,3.63,6.14,6.73,13.33,9.13,22.07,4.91,17.93,3.6,38.71-2.42,54.76-6.88,18.34-16.12,28.51-25.94,36.62-9.44,7.8-19.2,12.12-29.13,14.43"/>
        </g>
      </g>
    </g>
  </g>
</svg>