<?xml version="1.0" encoding="UTF-8"?>
<svg id="Layer_2" data-name="Layer 2" xmlns="http://www.w3.org/2000/svg" xmlns:xlink="http://www.w3.org/1999/xlink" viewBox="0 0 1280 278.62">
  <defs>
    <style>
      .cls-1 {
        clip-path: url(#clippath);
      }

      .cls-2 {
        fill: none;
      }

      .cls-2, .cls-3 {
        stroke-width: 0px;
      }

      .cls-4 {
        stroke: #000;
        stroke-miterlimit: 10;
        stroke-width: 2px;
      }

      .cls-4, .cls-3 {
        fill: #298882;
      }
    </style>
    <clipPath id="clippath">
      <rect class="cls-2" y="11.95" width="1280" height="266.67"/>
    </clipPath>
  </defs>
  <g id="Layer_1-2" data-name="Layer 1">
    <g>
      <polygon class="cls-3" points="981.3 11.95 986.71 11.95 984.62 4.43 981.3 11.95"/>
      <polygon class="cls-3" points="319.63 11.95 330.56 11.95 329.07 0 319.63 11.95"/>
      <polygon class="cls-3" points="163.6 114.36 163.09 84.06 156.57 110.86 163.6 114.36"/>
      <polygon class="cls-3" points="157.1 235.26 162.76 207.55 151.49 225.39 157.1 235.26"/>
      <polygon class="cls-3" points="140.68 273.61 142.4 278.62 147.74 278.62 153.63 262.38 140.68 273.61"/>
      <polygon class="cls-3" points="506.13 278.62 510.81 278.62 515.18 271.73 509.58 261.83 506.13 278.62"/>
      <polygon class="cls-3" points="509.48 159.53 503.64 187.07 515.02 169.58 509.48 159.53"/>
      <polygon class="cls-3" points="529.11 103.74 517.11 119.13 531.04 118.87 529.11 103.74"/>
      <polygon class="cls-3" points="560.66 162.72 556.45 133.81 553.45 163.43 560.66 162.72"/>
      <polygon class="cls-3" points="722.69 201.04 712.44 180.49 716.59 209.44 722.69 201.04"/>
      <polygon class="cls-3" points="695.45 274.48 697.31 278.62 702.42 278.62 707.59 259.61 695.45 274.48"/>
      <polygon class="cls-3" points="1187.58 219.54 1177.34 240.1 1190.93 233.44 1187.58 219.54"/>
      <polygon class="cls-3" points="1158.06 70.98 1171.77 65.58 1158.65 55.33 1158.06 70.98"/>
      <polygon class="cls-3" points="1107.95 70.99 1121.67 65.7 1108.58 55.35 1107.95 70.99"/>
      <polygon class="cls-3" points="1057.48 70.94 1071.21 65.71 1058.12 55.3 1057.48 70.94"/>
      <polygon class="cls-3" points="965.12 73.41 965.27 103.74 972.11 77.31 965.12 73.41"/>
      <g class="cls-1">
        <path class="cls-4" d="m1026.69-69.04c1.32,23.81-3.86,40.52-11.71,54.13-9.12,15.81-19.63,24.66-30.65,30.77"/>
      </g>
      <polygon class="cls-3" points="981.3 11.95 974.97 26.31 988.35 17.87 986.71 11.95 981.3 11.95"/>
      <polygon class="cls-3" points="388.97 84.47 401.01 69.22 387.08 69.32 388.97 84.47"/>
      <polygon class="cls-3" points="365.33 217.05 364.4 186.79 358.25 214.01 365.33 217.05"/>
      <polygon class="cls-3" points="301.51 176.49 302.09 206.79 308.55 179.91 301.51 176.49"/>
      <polygon class="cls-3" points="301.84 73.52 302.06 103.85 308.84 77.34 301.84 73.52"/>
      <polygon class="cls-3" points="319.63 11.95 317.03 15.24 330.96 15.15 330.56 11.95 319.63 11.95"/>
      <polygon class="cls-3" points="862.94 278.62 865.04 278.62 863.7 270.12 862.94 278.62"/>
      <polygon class="cls-3" points="821.38 271.07 823.52 278.62 828.45 278.62 828.3 266.58 821.38 271.07"/>
      <polygon class="cls-3" points="884.64 49.05 890.51 21.54 879.1 38.97 884.64 49.05"/>
      <polygon class="cls-3" points="1202.65 178.66 1216.46 174.52 1203.55 163.08 1202.65 178.66"/>
      <polygon class="cls-3" points="1197.39 82.8 1184.44 93.98 1198.22 98.4 1197.39 82.8"/>
      <polygon class="cls-3" points="1238.32 96.01 1224.39 96.38 1236.54 111.22 1238.32 96.01"/>
      <polygon class="cls-3" points="1252.17 203.58 1256.83 175 1246.23 194.67 1252.17 203.58"/>
      <polygon class="cls-3" points="967.85 278.62 972.98 278.62 976.78 272.83 971.26 262.74 967.85 278.62"/>
      <polygon class="cls-3" points="965.71 176.34 965.28 206.65 972.62 180.87 965.71 176.34"/>
      <polygon class="cls-3" points="990.62 196.92 977.5 186.71 986.51 209.83 990.62 196.92"/>
      <polygon class="cls-3" points="1021.8 244.61 1012.97 221.15 1015.22 251.08 1021.8 244.61"/>
      <polygon class="cls-3" points="1000 275.48 1000.39 278.62 1011.39 278.62 1013.94 275.39 1000 275.48"/>
    </g>
  </g>
</svg>