<?xml version="1.0" encoding="UTF-8"?>
<svg id="Layer_2" data-name="Layer 2" xmlns="http://www.w3.org/2000/svg" xmlns:xlink="http://www.w3.org/1999/xlink" viewBox="0 0 1280 266.67">
  <defs>
    <style>
      .cls-1 {
        clip-path: url(#clippath);
      }

      .cls-2 {
        fill: none;
      }

      .cls-2, .cls-3 {
        stroke-width: 0px;
      }

      .cls-3 {
        fill: #f60;
      }
    </style>
    <clipPath id="clippath">
      <rect class="cls-2" width="1280" height="266.67"/>
    </clipPath>
  </defs>
  <g id="Layer_1-2" data-name="Layer 1">
    <g class="cls-1">
      <path class="cls-3" d="m1272.98,136.23c-3.89-.02-6.69-6.23-6.69-14.81,0-8.71,2.85-14.79,6.9-14.75,3.85.04,6.63,6.37,6.59,15.01-.04,8.5-2.87,14.56-6.8,14.55"/>
      <path class="cls-3" d="m398.38,7.71c3.9,0,6.72,6.17,6.73,14.71.01,8.55-2.83,14.91-6.67,14.9-4.01-.01-6.84-6.23-6.82-14.98.02-8.53,2.84-14.65,6.76-14.64"/>
      <path class="cls-3" d="m319.96,11.83c-3.83.08-6.76-5.99-6.81-14.11-.05-9.15,2.6-15.48,6.5-15.54,4.01-.06,6.87,5.84,6.91,14.23.04,8.99-2.68,15.34-6.59,15.42"/>
      <path class="cls-3" d="m1004.16,255.11c3.92.02,6.62,6.1,6.62,14.87,0,8.83-2.78,14.75-6.88,14.69-3.84-.05-6.61-6.4-6.57-15.07.04-8.48,2.88-14.51,6.83-14.49"/>
      <path class="cls-3" d="m375.98,57.21c3.94.01,6.66,6.04,6.66,14.78s-2.78,14.83-6.66,14.87c-3.95.04-6.82-6.34-6.79-15.08.03-8.51,2.86-14.59,6.79-14.57"/>
      <path class="cls-3" d="m1037.96,32.7c3.76.07,6.62,6.7,6.55,15.21-.07,8.23-3.1,14.55-6.93,14.45-3.9-.11-6.6-6.5-6.56-15.5.04-8.36,2.92-14.23,6.95-14.15"/>
      <path class="cls-3" d="m1066.85,47.49c0,8.62-2.78,14.83-6.66,14.87-3.97.03-6.76-6.2-6.75-15.08.01-8.62,2.78-14.59,6.75-14.57,3.94.01,6.65,6.05,6.65,14.79"/>
      <path class="cls-3" d="m1075.88,47.69c-.01-8.79,2.69-14.94,6.57-14.98,4.01-.04,6.88,6.11,6.91,14.79.03,8.3-2.92,14.82-6.73,14.86-3.9.03-6.74-6.13-6.75-14.67"/>
      <path class="cls-3" d="m1165.6,47.32c0-8.65,2.77-14.62,6.74-14.61,3.91.01,6.82,6.52,6.76,15.16-.05,8.22-3.09,14.58-6.91,14.49-3.85-.09-6.59-6.35-6.58-15.04"/>
      <path class="cls-3" d="m1201.53,47.6c0,8.57-2.82,14.76-6.71,14.76-3.95,0-6.72-6.27-6.7-15.2.02-8.55,2.81-14.49,6.8-14.46,3.91.03,6.61,6.13,6.6,14.9"/>
      <path class="cls-3" d="m1210.56,47.32c.01-8.65,2.77-14.62,6.74-14.61,3.91.01,6.82,6.52,6.76,15.16-.05,8.22-3.09,14.58-6.92,14.49-3.85-.09-6.59-6.35-6.58-15.04"/>
      <path class="cls-3" d="m1105.04,32.75c3.96,0,6.7,5.99,6.71,14.67,0,8.96-2.71,14.92-6.79,14.89-3.91-.02-6.62-6.11-6.61-14.87,0-8.7,2.74-14.69,6.7-14.69"/>
      <path class="cls-3" d="m970.39-16.94c3.9,0,6.72,6.16,6.73,14.7.01,8.75-2.82,14.89-6.85,14.86-3.9-.03-6.61-6.14-6.6-14.91,0-8.66,2.75-14.66,6.71-14.65"/>
      <path class="cls-3" d="m970.39,32.28c3.9,0,6.72,6.16,6.73,14.7.01,8.75-2.82,14.89-6.85,14.86-3.9-.03-6.61-6.14-6.6-14.91,0-8.66,2.75-14.66,6.71-14.65"/>
      <path class="cls-3" d="m156.13-2.07c0-8.77,2.7-14.89,6.6-14.92,4-.03,6.87,6.16,6.89,14.86.02,8.29-2.95,14.78-6.77,14.8-3.89.01-6.71-6.17-6.72-14.74"/>
      <path class="cls-3" d="m191.96-2.33c0,8.67-2.74,14.92-6.6,14.99-3.98.08-6.81-6.13-6.8-14.96,0-8.7,2.73-14.69,6.7-14.69,3.96,0,6.7,5.98,6.71,14.66"/>
      <path class="cls-3" d="m297.46-16.99c3.88.01,6.7,6.18,6.74,14.75.04,8.32-2.9,14.86-6.71,14.9-3.98.05-6.78-6.17-6.77-15.04,0-8.65,2.76-14.62,6.74-14.61"/>
      <path class="cls-3" d="m297.46,32.43c3.88.01,6.7,6.18,6.74,14.76.04,8.32-2.9,14.85-6.71,14.9-3.98.05-6.78-6.17-6.77-15.04,0-8.65,2.76-14.62,6.74-14.61"/>
      <path class="cls-3" d="m559.9-2.12c0-8.76,2.7-14.84,6.62-14.87,3.98-.02,6.86,6.23,6.87,14.91,0,8.28-2.98,14.75-6.79,14.75-3.89,0-6.69-6.2-6.7-14.79"/>
      <path class="cls-3" d="m640.6-2.25c0,8.64-2.77,14.87-6.63,14.92-3.98.05-6.78-6.17-6.77-15.03,0-8.65,2.76-14.63,6.73-14.62,3.96,0,6.67,6.01,6.68,14.73"/>
      <path class="cls-3" d="m842.09-2.31c0,8.66-2.75,14.91-6.61,14.98-3.99.08-6.8-6.13-6.8-14.97,0-8.69,2.74-14.68,6.7-14.68s6.7,5.99,6.7,14.68"/>
      <path class="cls-3" d="m903.16-16.99c3.92.02,6.63,6.09,6.63,14.84,0,8.59-2.81,14.79-6.68,14.81-3.97.02-6.74-6.23-6.72-15.14.02-8.56,2.8-14.53,6.78-14.51"/>
      <path class="cls-3" d="m151.59,7.74c3.97,0,6.72,5.98,6.72,14.63,0,8.97-2.71,14.95-6.78,14.93-3.88-.02-6.68-6.25-6.67-14.84,0-8.55,2.83-14.72,6.72-14.72"/>
      <path class="cls-3" d="m286.18,7.74c3.97,0,6.72,5.98,6.72,14.63,0,8.97-2.71,14.95-6.78,14.93-3.88-.02-6.68-6.25-6.67-14.84,0-8.55,2.83-14.72,6.72-14.72"/>
      <path class="cls-3" d="m286.18,57.25c3.97,0,6.72,5.98,6.72,14.63,0,8.97-2.71,14.95-6.78,14.93-3.88-.02-6.68-6.25-6.67-14.83,0-8.55,2.83-14.72,6.72-14.72"/>
      <path class="cls-3" d="m824.66,37.3c-4.03.03-6.85-6.13-6.84-14.89.02-8.54,2.84-14.67,6.75-14.67s6.7,5.99,6.7,14.68c0,8.77-2.7,14.85-6.61,14.88"/>
      <path class="cls-3" d="m891.96,37.3c-4.03.03-6.85-6.13-6.84-14.89.02-8.54,2.84-14.67,6.75-14.67s6.73,6.14,6.74,14.68c.02,8.6-2.78,14.85-6.65,14.88"/>
      <path class="cls-3" d="m959.14,7.74c3.97,0,6.72,5.97,6.73,14.63,0,8.97-2.71,14.95-6.78,14.93-3.88-.02-6.68-6.25-6.67-14.83,0-8.55,2.83-14.72,6.72-14.72"/>
      <path class="cls-3" d="m169.57,47.13c.02,8.6-2.78,14.88-6.64,14.91-3.99.03-6.79-5.91-6.81-14.45-.02-8.82,2.66-15.06,6.51-15.11,4.06-.06,6.92,5.98,6.94,14.66"/>
      <path class="cls-3" d="m416.28,47.33c0,8.71-2.73,14.7-6.69,14.71-4.04,0-6.73-6.04-6.72-15.06.02-8.56,2.8-14.52,6.78-14.5,3.92.02,6.63,6.09,6.62,14.85"/>
      <path class="cls-3" d="m521.84,111.4c-3.98.02-6.76-5.95-6.77-14.53-.02-9.01,2.68-15.04,6.73-15.03,3.89,0,6.71,6.18,6.72,14.73,0,8.59-2.79,14.81-6.67,14.83"/>
      <path class="cls-3" d="m550.86,96.5c0,8.76-2.7,14.87-6.6,14.9-4.08.03-6.81-5.92-6.8-14.87,0-8.7,2.74-14.69,6.7-14.69,3.96,0,6.7,5.99,6.71,14.66"/>
      <path class="cls-3" d="m813.28,62.04c-3.92-.02-6.63-6.09-6.63-14.85,0-8.84,2.77-14.77,6.87-14.71,3.86.05,6.55,6.25,6.53,15.05-.02,8.56-2.8,14.53-6.78,14.51"/>
      <path class="cls-3" d="m880.59,62.04c-3.93-.02-6.65-6.07-6.64-14.81,0-8.86,2.76-14.8,6.86-14.75,3.85.04,6.63,6.37,6.59,15.01-.04,8.5-2.87,14.56-6.8,14.55"/>
      <path class="cls-3" d="m405.11,72.3c-.05,8.47-2.93,14.58-6.84,14.49-3.97-.1-6.72-6.45-6.64-15.33.08-8.55,2.99-14.39,7.12-14.26,3.67.12,6.41,6.64,6.37,15.1"/>
      <path class="cls-3" d="m488.13,57.21c3.89.01,6.7,6.2,6.71,14.76,0,8.56-2.84,14.87-6.69,14.86-4-.02-6.83-6.26-6.8-15.02.03-8.52,2.86-14.61,6.78-14.6"/>
      <path class="cls-3" d="m510.47,57.21c3.98-.02,6.74,5.95,6.76,14.57.01,8.89-2.77,15.12-6.75,15.09-3.86-.03-6.7-6.34-6.7-14.86,0-8.58,2.8-14.78,6.69-14.79"/>
      <path class="cls-3" d="m532.96,86.81c-3.99-.05-6.79-6.34-6.74-15.14.05-8.47,2.9-14.49,6.84-14.47,3.87.03,6.67,6.29,6.65,14.89-.02,8.52-2.88,14.77-6.75,14.71"/>
      <path class="cls-3" d="m808.89,72.22c-.03,8.49-2.91,14.66-6.8,14.58-3.98-.08-6.75-6.41-6.68-15.25.07-8.57,2.97-14.46,7.08-14.34,3.69.11,6.44,6.56,6.41,15.01"/>
      <path class="cls-3" d="m869.8,57.21c3.89.01,6.7,6.22,6.69,14.79,0,8.56-2.85,14.85-6.7,14.82-4-.03-6.82-6.28-6.79-15.04.03-8.51,2.87-14.58,6.8-14.57"/>
      <path class="cls-3" d="m1004.01,57.21c3.96,0,6.71,5.98,6.72,14.65,0,8.85-2.8,15.07-6.78,15.01-3.84-.06-6.67-6.42-6.66-14.94.01-8.55,2.83-14.71,6.73-14.71"/>
      <path class="cls-3" d="m1026.44,86.81c-3.99-.06-6.78-6.37-6.72-15.17.05-8.58,2.96-14.53,7.05-14.43,3.7.09,6.47,6.5,6.44,14.93-.02,8.5-2.9,14.73-6.77,14.67"/>
      <path class="cls-3" d="m1055.6,71.84c0,8.68-2.73,14.93-6.59,15.02-3.97.09-6.87-6.22-6.86-14.93,0-8.55,2.83-14.72,6.72-14.72,3.96,0,6.72,5.98,6.72,14.64"/>
      <path class="cls-3" d="m1071.17,86.79c-3.88-.12-6.63-6.39-6.6-15.03.04-8.76,2.98-14.72,7.18-14.55,3.64.15,6.38,6.75,6.31,15.22-.07,8.44-2.96,14.48-6.89,14.36"/>
      <path class="cls-3" d="m1093.71,57.21c3.98-.01,6.74,5.95,6.75,14.57.01,8.88-2.78,15.12-6.75,15.08-3.86-.03-6.7-6.34-6.7-14.87,0-8.57,2.81-14.77,6.7-14.78"/>
      <path class="cls-3" d="m1116.19,86.81c-3.99-.05-6.79-6.34-6.74-15.14.05-8.47,2.9-14.49,6.84-14.46,3.87.03,6.67,6.29,6.65,14.9-.02,8.51-2.88,14.76-6.75,14.71"/>
      <path class="cls-3" d="m1138.66,57.21c3.95.01,6.66,6.03,6.67,14.76,0,8.63-2.78,14.85-6.65,14.89-3.95.04-6.83-6.32-6.8-15.06.03-8.52,2.86-14.6,6.78-14.59"/>
      <path class="cls-3" d="m1167.8,72.06c-.01,8.54-2.87,14.79-6.73,14.75-3.99-.04-6.8-6.32-6.76-15.11.04-8.49,2.88-14.53,6.83-14.5,3.88.02,6.68,6.26,6.66,14.86"/>
      <path class="cls-3" d="m1212.66,72.06c-.01,8.54-2.87,14.79-6.73,14.75-3.99-.04-6.8-6.32-6.76-15.11.04-8.49,2.88-14.53,6.83-14.5,3.88.02,6.68,6.26,6.66,14.86"/>
      <path class="cls-3" d="m1190.22,72.06c-.01,8.54-2.87,14.79-6.73,14.75-3.99-.04-6.8-6.32-6.76-15.11.04-8.49,2.88-14.53,6.83-14.5,3.88.02,6.68,6.26,6.66,14.86"/>
      <path class="cls-3" d="m162.82,81.94c3.93,0,6.84,6.44,6.8,15.07-.03,8.24-3.05,14.64-6.87,14.58-3.87-.06-6.63-6.29-6.62-14.95,0-8.71,2.73-14.7,6.7-14.7"/>
      <path class="cls-3" d="m304.16,96.92c-.01,8.53-2.85,14.7-6.75,14.67-3.94-.03-6.68-6.34-6.66-15.28.02-8.49,2.85-14.41,6.84-14.37,3.88.04,6.58,6.19,6.56,14.99"/>
      <path class="cls-3" d="m304.16,146.36c-.01,8.54-2.85,14.7-6.75,14.67-3.94-.03-6.68-6.34-6.66-15.28.02-8.49,2.85-14.42,6.84-14.37,3.88.04,6.58,6.19,6.56,14.98"/>
      <path class="cls-3" d="m304.16,245.32c-.01,8.54-2.85,14.7-6.75,14.67-3.94-.03-6.68-6.34-6.66-15.28.02-8.49,2.85-14.41,6.84-14.37,3.88.04,6.58,6.19,6.56,14.99"/>
      <path class="cls-3" d="m364.63,81.94c3.99-.03,6.78,5.92,6.79,14.48.02,8.92-2.75,15.18-6.7,15.18-3.88,0-6.7-6.2-6.7-14.77,0-8.76,2.7-14.86,6.61-14.88"/>
      <path class="cls-3" d="m499.25,81.94c3.98-.01,6.74,5.95,6.76,14.56.01,8.89-2.77,15.12-6.74,15.1-3.87-.03-6.66-6.25-6.66-14.86,0-8.74,2.72-14.78,6.65-14.8"/>
      <path class="cls-3" d="m499.29,131.4c3.98-.02,6.74,5.95,6.76,14.56.01,8.89-2.77,15.13-6.74,15.1-3.87-.03-6.66-6.25-6.66-14.86,0-8.74,2.72-14.78,6.65-14.8"/>
      <path class="cls-3" d="m851.67,244.98c0-8.7,2.74-14.69,6.7-14.69s6.84,6.45,6.8,15.08c-.04,8.23-3.06,14.64-6.88,14.57-3.86-.06-6.62-6.3-6.62-14.96"/>
      <path class="cls-3" d="m851.67,195.51c0-8.7,2.74-14.69,6.7-14.69s6.84,6.45,6.8,15.08c-.04,8.23-3.06,14.64-6.88,14.57-3.86-.06-6.62-6.3-6.62-14.96"/>
      <path class="cls-3" d="m851.67,145.92c0-8.7,2.74-14.69,6.7-14.69s6.84,6.45,6.8,15.08c-.04,8.23-3.06,14.64-6.88,14.57-3.86-.06-6.62-6.3-6.62-14.96"/>
      <path class="cls-3" d="m813.6,81.94c3.81.07,6.49,6.37,6.46,15.22-.03,8.46-2.92,14.55-6.85,14.44-3.89-.11-6.6-6.51-6.55-15.51.04-8.35,2.93-14.22,6.95-14.14"/>
      <path class="cls-3" d="m873.95,96.68c0-8.73,2.72-14.73,6.68-14.75,3.95,0,6.84,6.38,6.82,15.03-.02,8.25-3.03,14.67-6.85,14.62-3.87-.04-6.64-6.27-6.64-14.91"/>
      <path class="cls-3" d="m999.52,96.78c0,8.59-2.8,14.8-6.68,14.82-3.97.02-6.74-6.23-6.72-15.13.02-8.57,2.8-14.54,6.77-14.52,3.92.02,6.63,6.09,6.63,14.84"/>
      <path class="cls-3" d="m1008.54,96.72c0-8.74,2.72-14.77,6.66-14.78,3.96-.01,6.85,6.33,6.83,14.99-.02,8.26-3.01,14.7-6.83,14.66-3.88-.03-6.66-6.25-6.66-14.87"/>
      <path class="cls-3" d="m1120.7,96.51c.01-8.62,2.78-14.59,6.75-14.57,4,.01,6.68,6.14,6.66,15.2-.02,8.28-2.85,14.42-6.66,14.46-3.97.04-6.76-6.19-6.75-15.08"/>
      <path class="cls-3" d="m1143.13,96.54c0-8.65,2.77-14.61,6.74-14.6,3.91.01,6.82,6.52,6.76,15.16-.06,8.22-3.09,14.58-6.92,14.49-3.85-.09-6.59-6.35-6.58-15.05"/>
      <path class="cls-3" d="m1165.16,96.54c.01-8.65,2.77-14.61,6.74-14.6,3.91.01,6.82,6.52,6.76,15.16-.06,8.22-3.09,14.58-6.92,14.49-3.85-.09-6.59-6.35-6.58-15.05"/>
      <path class="cls-3" d="m1232.73,96.54c0-8.65,2.77-14.61,6.74-14.6,3.91.01,6.82,6.52,6.76,15.16-.06,8.22-3.09,14.58-6.92,14.49-3.85-.09-6.59-6.35-6.58-15.05"/>
      <path class="cls-3" d="m1255.28,96.54c.01-8.65,2.77-14.61,6.74-14.6,3.91.01,6.82,6.52,6.76,15.16-.06,8.22-3.09,14.58-6.92,14.49-3.85-.09-6.59-6.35-6.58-15.05"/>
      <path class="cls-3" d="m158.32,121.35c0,8.76-2.7,14.86-6.61,14.89-4.03.02-6.85-6.12-6.84-14.88.02-8.54,2.84-14.68,6.74-14.68s6.7,5.99,6.7,14.68"/>
      <path class="cls-3" d="m292.91,121.45c0,8.74-2.72,14.77-6.65,14.79-4.01.01-6.82-6.19-6.79-14.98.03-8.52,2.86-14.59,6.79-14.58,3.94.01,6.66,6.04,6.66,14.78"/>
      <path class="cls-3" d="m488.17,136.23c-4.02.02-6.85-6.14-6.82-14.91.02-8.53,2.84-14.65,6.76-14.65,3.9,0,6.72,6.16,6.73,14.71.01,8.59-2.79,14.83-6.67,14.85"/>
      <path class="cls-3" d="m802.1,136.23c-3.89-.01-6.7-6.21-6.7-14.78,0-8.73,2.84-14.82,6.88-14.78,3.86.04,6.64,6.35,6.61,14.98-.03,8.52-2.86,14.59-6.79,14.58"/>
      <path class="cls-3" d="m869.42,106.67c3.97,0,6.72,5.98,6.72,14.63,0,8.97-2.71,14.95-6.78,14.93-3.88-.02-6.68-6.25-6.67-14.83,0-8.55,2.83-14.72,6.72-14.72"/>
      <path class="cls-3" d="m965.87,170.57c0,8.66-2.76,14.65-6.72,14.64-3.9,0-6.72-6.16-6.73-14.71-.01-8.75,2.82-14.88,6.85-14.85,3.9.03,6.6,6.15,6.59,14.92"/>
      <path class="cls-3" d="m981.56,86.81c-3.89-.01-6.7-6.2-6.71-14.76,0-8.73,2.83-14.84,6.88-14.8,3.86.03,6.64,6.34,6.61,14.97-.03,8.52-2.86,14.6-6.78,14.59"/>
      <path class="cls-3" d="m1160.99,136.23c-3.89-.02-6.69-6.23-6.69-14.81,0-8.71,2.85-14.79,6.9-14.75,3.85.04,6.63,6.37,6.59,15.01-.04,8.5-2.87,14.56-6.8,14.55"/>
      <path class="cls-3" d="m1250.67,136.23c-3.89-.02-6.69-6.23-6.69-14.81,0-8.71,2.85-14.79,6.9-14.75,3.85.04,6.63,6.37,6.59,15.01-.04,8.5-2.87,14.56-6.8,14.55"/>
      <path class="cls-3" d="m162.9,160.96c-3.98.02-6.76-5.95-6.78-14.52-.02-9.01,2.68-15.05,6.72-15.04,3.9,0,6.71,6.17,6.72,14.72,0,8.59-2.79,14.82-6.67,14.84"/>
      <path class="cls-3" d="m566.6,160.96c-3.96,0-6.69-5.99-6.7-14.69,0-8.95,2.72-14.9,6.8-14.87,3.87.03,6.67,6.29,6.65,14.89-.02,8.54-2.84,14.67-6.75,14.67"/>
      <path class="cls-3" d="m595.74,195.5c.01,8.79-2.69,14.94-6.57,14.98-4.09.04-6.84-5.9-6.84-14.79,0-8.73,2.72-14.76,6.66-14.77,3.98-.01,6.74,5.95,6.75,14.58"/>
      <path class="cls-3" d="m701.09,259.73c-3.89-.03-6.6-6.16-6.59-14.92,0-8.79,2.8-14.7,6.91-14.64,3.75.06,6.53,6.31,6.54,14.71.01,8.75-2.82,14.88-6.86,14.84"/>
      <path class="cls-3" d="m813.49,161.01c-3.98.02-6.76-5.95-6.78-14.51-.02-9.02,2.68-15.05,6.72-15.05,3.9,0,6.72,6.17,6.72,14.72,0,8.59-2.79,14.82-6.67,14.84"/>
      <path class="cls-3" d="m954.65,146.24c0,8.72-2.72,14.72-6.68,14.72-4.04,0-6.74-6.03-6.72-15.04.02-8.57,2.8-14.54,6.78-14.52,3.92.02,6.63,6.09,6.63,14.84"/>
      <path class="cls-3" d="m970.36,160.96c-3.96,0-6.67-6.01-6.68-14.73,0-8.92,2.73-14.86,6.82-14.82,3.86.03,6.65,6.32,6.62,14.94-.02,8.53-2.85,14.62-6.77,14.62"/>
      <path class="cls-3" d="m999.52,195.44c.01,8.78-2.69,14.94-6.57,14.98-4.09.04-6.84-5.9-6.84-14.79s2.72-14.76,6.66-14.77c3.97-.01,6.73,5.96,6.74,14.58"/>
      <path class="cls-3" d="m1261.94,160.96c-3.93-.02-6.64-6.08-6.64-14.81,0-8.86,2.76-14.8,6.86-14.75,3.87.04,6.56,6.21,6.55,15.02-.01,8.59-2.79,14.56-6.76,14.54"/>
      <path class="cls-3" d="m292.91,170.8c0,8.66-2.75,14.92-6.6,14.99-3.97.08-6.86-6.25-6.85-14.96.01-8.55,2.83-14.69,6.74-14.7,3.96,0,6.7,5.99,6.71,14.66"/>
      <path class="cls-3" d="m360.2,170.8c0,8.66-2.75,14.92-6.6,14.99-3.97.08-6.86-6.25-6.85-14.96.01-8.55,2.83-14.69,6.74-14.7,3.96,0,6.7,5.99,6.71,14.66"/>
      <path class="cls-3" d="m494.84,170.79c.02,8.55-2.82,14.96-6.64,14.97-4.02,0-6.86-6.19-6.85-14.92.01-8.41,2.79-14.65,6.55-14.7,4.06-.06,6.92,5.98,6.94,14.66"/>
      <path class="cls-3" d="m577.75,156.14c3.94-.02,6.77,6.03,6.81,14.53.04,8.58-2.79,15.06-6.58,15.1-4.02.04-6.9-6.13-6.91-14.8,0-8.59,2.8-14.81,6.68-14.83"/>
      <path class="cls-3" d="m606.96,171.11c-.01,8.54-2.85,14.71-6.74,14.68-3.86-.03-6.7-6.34-6.7-14.86,0-8.73,2.84-14.83,6.88-14.8,3.88.04,6.58,6.19,6.57,14.98"/>
      <path class="cls-3" d="m622.69,185.74c-3.99-.05-6.79-6.33-6.75-15.13.05-8.47,2.89-14.5,6.84-14.47,3.87.03,6.67,6.28,6.65,14.88-.02,8.52-2.88,14.77-6.74,14.72"/>
      <path class="cls-3" d="m651.82,170.95c0,8.6-2.8,14.81-6.67,14.84-3.86.02-6.75-6.23-6.78-14.7-.03-8.78,2.79-14.97,6.81-14.95,3.93.02,6.64,6.08,6.64,14.81"/>
      <path class="cls-3" d="m674.29,171.23c-.05,8.47-2.93,14.58-6.84,14.49-3.97-.1-6.72-6.45-6.64-15.33.08-8.55,2.99-14.39,7.12-14.26,3.67.12,6.41,6.64,6.37,15.1"/>
      <path class="cls-3" d="m696.92,171.27c-.05,8.47-2.93,14.59-6.84,14.49-3.97-.09-6.72-6.45-6.64-15.33.08-8.55,2.99-14.39,7.12-14.26,3.67.12,6.41,6.64,6.37,15.1"/>
      <path class="cls-3" d="m741.55,170.76c0,8.86-2.79,15.09-6.77,15.03-3.84-.05-6.68-6.39-6.68-14.91,0-8.55,2.82-14.73,6.72-14.74,3.97,0,6.72,5.97,6.73,14.62"/>
      <path class="cls-3" d="m719.14,170.76c0,8.86-2.79,15.09-6.77,15.03-3.85-.05-6.68-6.39-6.68-14.91,0-8.55,2.82-14.73,6.72-14.74,3.97,0,6.72,5.97,6.73,14.62"/>
      <path class="cls-3" d="m802.2,185.75c-4-.02-6.83-6.26-6.8-15.02.03-8.52,2.86-14.61,6.78-14.6,3.89.01,6.71,6.2,6.71,14.76,0,8.56-2.84,14.87-6.69,14.86"/>
      <path class="cls-3" d="m981.57,185.74c-3.99-.07-6.77-6.38-6.71-15.2.06-8.57,2.97-14.5,7.06-14.4,3.7.1,6.46,6.51,6.43,14.95-.03,8.49-2.9,14.71-6.78,14.65"/>
      <path class="cls-3" d="m1010.73,170.91c0,8.62-2.78,14.84-6.65,14.88-3.95.04-6.83-6.33-6.79-15.07.03-8.52,2.86-14.59,6.79-14.58,3.94.01,6.66,6.04,6.66,14.78"/>
      <path class="cls-3" d="m1212.67,170.67c.04,8.58-2.79,15.06-6.59,15.09-4.02.04-6.9-6.13-6.9-14.81,0-8.43,2.76-14.75,6.49-14.82,4.08-.08,6.96,5.91,7,14.54"/>
      <path class="cls-3" d="m1235.07,170.67c.04,8.58-2.79,15.06-6.59,15.09-4.02.04-6.9-6.13-6.9-14.81,0-8.43,2.76-14.75,6.49-14.82,4.08-.08,6.96,5.91,7,14.54"/>
      <path class="cls-3" d="m1257.48,170.67c.04,8.58-2.79,15.06-6.59,15.09-4.02.04-6.9-6.13-6.9-14.81,0-8.43,2.76-14.75,6.49-14.82,4.08-.08,6.96,5.91,7,14.54"/>
      <path class="cls-3" d="m156.13,195.8c0-8.77,2.7-14.9,6.59-14.93,3.99-.03,6.87,6.16,6.89,14.84.02,8.3-2.94,14.79-6.76,14.81-3.89.02-6.72-6.16-6.73-14.72"/>
      <path class="cls-3" d="m611.58,210.52c-3.83.08-6.76-5.99-6.81-14.12-.05-9.15,2.59-15.48,6.51-15.54,4.05-.06,6.91,5.95,6.97,14.66.06,8.37-2.85,14.92-6.66,15"/>
      <path class="cls-3" d="m627.2,195.75c0-8.76,2.7-14.86,6.61-14.88,4.08-.03,6.8,5.93,6.79,14.89,0,8.58-2.82,14.77-6.7,14.77-3.89,0-6.7-6.19-6.7-14.77"/>
      <path class="cls-3" d="m649.63,195.67c0-8.74,2.72-14.78,6.65-14.8,3.96-.01,6.85,6.31,6.84,14.98-.01,8.27-3.01,14.71-6.82,14.68-3.88-.03-6.67-6.24-6.67-14.86"/>
      <path class="cls-3" d="m672.02,195.67c0-8.74,2.72-14.78,6.65-14.8,3.96-.01,6.85,6.31,6.84,14.98-.01,8.27-3.01,14.71-6.82,14.68-3.88-.03-6.67-6.24-6.67-14.86"/>
      <path class="cls-3" d="m716.93,195.57c0-8.71,2.73-14.7,6.69-14.7,4.04,0,6.73,6.04,6.71,15.07-.02,8.51-2.87,14.65-6.79,14.58-3.86-.06-6.62-6.29-6.62-14.95"/>
      <path class="cls-3" d="m805.57,195.48c.01-8.65,2.76-14.62,6.74-14.61,3.91.01,6.82,6.53,6.76,15.17-.06,8.22-3.09,14.58-6.92,14.49-3.85-.09-6.59-6.35-6.58-15.05"/>
      <path class="cls-3" d="m941.25,195.68c0-8.74,2.72-14.8,6.64-14.81,4.06-.02,6.77,5.97,6.76,14.96-.01,8.55-2.84,14.72-6.74,14.7-3.88-.03-6.67-6.24-6.67-14.84"/>
      <path class="cls-3" d="m1008.54,195.75c0-8.77,2.7-14.86,6.61-14.88,3.98-.02,6.86,6.22,6.87,14.9,0,8.28-2.97,14.76-6.78,14.76s-6.7-6.19-6.7-14.77"/>
      <path class="cls-3" d="m1172.23,180.87c3.97-.01,6.73,5.96,6.74,14.6.01,8.88-2.78,15.1-6.76,15.06-3.87-.04-6.65-6.26-6.65-14.89,0-8.73,2.72-14.75,6.67-14.76"/>
      <path class="cls-3" d="m1172.23,131.36c3.97-.01,6.73,5.96,6.74,14.6.01,8.88-2.78,15.1-6.76,15.06-3.87-.04-6.65-6.26-6.65-14.89,0-8.73,2.72-14.75,6.67-14.76"/>
      <path class="cls-3" d="m1188,195.65c0-8.74,2.72-14.76,6.66-14.78,3.96-.01,6.85,6.34,6.83,15-.02,8.26-3.02,14.69-6.83,14.66-3.88-.03-6.66-6.25-6.66-14.88"/>
      <path class="cls-3" d="m1223.84,195.47c.01,8.87-2.79,15.09-6.76,15.05-3.87-.04-6.65-6.27-6.64-14.9,0-8.73,2.72-14.75,6.67-14.75,3.97-.01,6.73,5.96,6.74,14.6"/>
      <path class="cls-3" d="m1246.18,195.47c.01,8.87-2.79,15.09-6.76,15.05-3.87-.04-6.65-6.27-6.64-14.9,0-8.73,2.72-14.75,6.67-14.75,3.97-.01,6.73,5.96,6.74,14.6"/>
      <path class="cls-3" d="m292.91,220.29c0,8.76-2.7,14.84-6.62,14.87-4.03.02-6.85-6.13-6.83-14.9.02-8.54,2.84-14.66,6.75-14.66,3.96,0,6.69,5.99,6.7,14.69"/>
      <path class="cls-3" d="m1145.32,269.94c0,8.58-2.81,14.78-6.7,14.78-3.86,0-6.73-6.26-6.75-14.76-.02-8.77,2.81-14.92,6.83-14.9,3.91.02,6.62,6.11,6.61,14.88"/>
      <path class="cls-3" d="m1167.61,269.94c0,8.58-2.81,14.78-6.7,14.78-3.86,0-6.73-6.26-6.75-14.76-.02-8.77,2.81-14.92,6.83-14.9,3.91.02,6.62,6.11,6.61,14.88"/>
      <path class="cls-3" d="m353.28,235.16c-3.81-.07-6.57-6.52-6.5-15.21.07-8.56,2.97-14.46,7.08-14.35,3.75.1,6.41,6.55,6.37,15.42-.04,8.35-2.93,14.22-6.95,14.14"/>
      <path class="cls-3" d="m488.14,235.16c-3.93.01-6.76-6.07-6.79-14.58-.03-8.78,2.79-14.99,6.8-14.98,3.89.01,6.7,6.22,6.69,14.79,0,8.56-2.81,14.76-6.7,14.77"/>
      <path class="cls-3" d="m712.39,235.16c-3.9,0-6.72-6.18-6.72-14.72,0-8.75,2.82-14.87,6.86-14.83,3.86.03,6.65,6.31,6.63,14.93-.02,8.53-2.85,14.64-6.77,14.63"/>
      <path class="cls-3" d="m734.9,235.16c-3.93.01-6.77-6.05-6.8-14.56-.03-8.78,2.78-15.01,6.78-15,3.95.01,6.66,6.03,6.66,14.76,0,8.74-2.72,14.78-6.65,14.8"/>
      <path class="cls-3" d="m802.19,235.16c-3.93.01-6.77-6.06-6.8-14.56-.03-8.79,2.78-15.01,6.79-15,3.89.01,6.7,6.2,6.7,14.77,0,8.57-2.81,14.78-6.69,14.79"/>
      <path class="cls-3" d="m959.25,205.6c3.91.02,6.62,6.11,6.61,14.87,0,8.82-2.78,14.74-6.89,14.69-3.84-.05-6.61-6.41-6.56-15.08.05-8.48,2.89-14.51,6.83-14.48"/>
      <path class="cls-3" d="m1026.37,235.16c-3.87-.02-6.67-6.28-6.66-14.88.02-8.68,2.87-14.74,6.93-14.68,3.84.05,6.61,6.41,6.56,15.08-.04,8.48-2.89,14.5-6.83,14.48"/>
      <path class="cls-3" d="m1161.01,235.16c-3.89-.01-6.7-6.21-6.7-14.78,0-8.73,2.84-14.82,6.88-14.78,3.86.04,6.64,6.34,6.61,14.98-.03,8.52-2.86,14.59-6.79,14.58"/>
      <path class="cls-3" d="m162.9,259.89c-3.98.02-6.76-5.95-6.77-14.53-.02-9.01,2.68-15.04,6.73-15.03,3.9,0,6.71,6.18,6.72,14.73,0,8.59-2.79,14.81-6.68,14.83"/>
      <path class="cls-3" d="m959.26,255.07c3.89.01,6.7,6.21,6.7,14.78,0,8.56-2.84,14.86-6.7,14.83-4-.02-6.83-6.26-6.79-15.03.03-8.52,2.86-14.59,6.79-14.58"/>
      <path class="cls-3" d="m813.43,259.89c-3.96,0-6.71-5.99-6.72-14.64,0-8.97,2.71-14.94,6.78-14.92,3.88.02,6.68,6.26,6.67,14.85-.01,8.54-2.83,14.71-6.73,14.71"/>
      <path class="cls-3" d="m947.94,230.33c3.96,0,6.7,5.99,6.71,14.67,0,8.96-2.71,14.92-6.79,14.89-3.91-.02-6.62-6.11-6.61-14.87,0-8.7,2.74-14.69,6.7-14.69"/>
      <path class="cls-3" d="m1015.19,230.33c3.97-.02,6.74,5.95,6.76,14.56.01,9-2.69,15.01-6.74,15-3.95-.01-6.66-6.03-6.66-14.76,0-8.74,2.72-14.78,6.65-14.8"/>
      <path class="cls-3" d="m1171.81,259.89c-3.92-.02-6.63-6.09-6.63-14.85,0-8.84,2.77-14.77,6.88-14.71,3.84.05,6.62,6.4,6.57,15.05-.04,8.49-2.88,14.53-6.82,14.5"/>
      <path class="cls-3" d="m158.32,269.82c0,8.63-2.77,14.86-6.65,14.9-3.96.04-6.83-6.32-6.8-15.05.03-8.53,2.85-14.61,6.78-14.6,3.95.01,6.67,6.02,6.67,14.76"/>
      <path class="cls-3" d="m174.04,284.67c-3.99-.05-6.79-6.34-6.74-15.14.05-8.47,2.9-14.49,6.84-14.46,3.87.03,6.67,6.29,6.65,14.9-.02,8.51-2.88,14.76-6.75,14.71"/>
      <path class="cls-3" d="m292.91,269.84c0,8.62-2.78,14.84-6.65,14.88-3.95.04-6.82-6.33-6.79-15.07.03-8.52,2.86-14.59,6.79-14.58,3.94.01,6.66,6.04,6.66,14.78"/>
      <path class="cls-3" d="m360.23,269.92c0,8.6-2.8,14.81-6.67,14.83-3.86.02-6.75-6.24-6.77-14.7-.03-8.78,2.79-14.97,6.81-14.95,3.93.02,6.64,6.08,6.64,14.82"/>
      <path class="cls-3" d="m488.09,255.07c3.91,0,6.73,6.13,6.75,14.67.02,8.55-2.83,14.95-6.65,14.95-4.01,0-6.86-6.2-6.84-14.93.01-8.55,2.83-14.69,6.74-14.69"/>
      <path class="cls-3" d="m689.89,255.07c3.94-.02,6.77,6.02,6.81,14.53.04,8.58-2.79,15.06-6.58,15.1-4.02.04-6.9-6.13-6.91-14.8,0-8.59,2.79-14.81,6.68-14.83"/>
      <path class="cls-3" d="m802.13,284.67c-3.99-.06-6.78-6.36-6.73-15.16.05-8.58,2.96-14.54,7.04-14.44,3.7.09,6.47,6.48,6.45,14.92-.02,8.5-2.89,14.74-6.76,14.68"/>
      <path class="cls-3" d="m1190.19,170.86c0,8.64-2.76,14.87-6.62,14.93-3.96.06-6.84-6.28-6.82-15,.02-7.9,2.86-14.64,6.19-14.66,4.46-.03,7.26,5.65,7.26,14.72"/>
      <path class="cls-3" d="m353.54,136.23c-3.91.01-6.78-6.16-6.78-14.58,0-8.54,2.84-14.95,6.64-14.98,4.03-.03,6.86,6.09,6.85,14.83,0,8.54-2.82,14.72-6.71,14.73"/>
      <path class="cls-3" d="m499.37,230.33c3.72.01,6.64,6.14,6.65,13.94,0,9.32-2.7,15.62-6.7,15.62s-6.72-6.05-6.7-15.05c.02-8.56,2.8-14.53,6.76-14.51"/>
      <path class="cls-3" d="m555.41,106.67c3.95,0,6.68,6,6.68,14.69,0,8.93-2.72,14.89-6.79,14.87-3.36-.02-6.78-6.43-6.59-12.77.32-10.84,1.96-16.47,6.69-16.79"/>
      <path class="cls-3" d="m1235.05,71.95c0,7.71-2.81,14.79-5.87,14.81-4.59.03-7.56-5.71-7.58-14.65-.02-8.75,2.8-14.93,6.8-14.91,3.93.01,6.65,6.04,6.65,14.74"/>
      <path class="cls-3" d="m1257.55,71.95c0,7.71-2.81,14.79-5.87,14.81-4.59.03-7.56-5.71-7.58-14.65-.02-8.75,2.8-14.93,6.8-14.91,3.93.01,6.65,6.04,6.65,14.74"/>
      <path class="cls-3" d="m402.88-2.39c0-6.71,3.66-14.61,6.75-14.6,3.94.02,6.65,6.05,6.65,14.78s-2.78,14.83-6.65,14.87c-3.97.04-6.77-6.18-6.76-15.05"/>
      <path class="cls-3" d="m151.63,235.14c-2.29.46-4.07-1.89-5.44-5.73-1.26-3.55-1.79-7.48-.64-11.79.41-1.53.7-3.21,1.1-4.76,1.95-7.61,5.62-9.7,8.72-5.01,3.17,4.79,4.02,15.01,1.74,21.39-1.37,3.83-3.1,6.3-5.48,5.91"/>
    </g>
  </g>
</svg>