<?xml version="1.0" encoding="UTF-8"?>
<svg id="Layer_2" data-name="Layer 2" preserveAspectRatio="none" xmlns="http://www.w3.org/2000/svg" xmlns:xlink="http://www.w3.org/1999/xlink" viewBox="0 0 1280 266.67">
  <defs>
    <style>
      .cls-1 {
        clip-path: url(#clippath);
      }

      .cls-2 {
        fill: none;
      }

      .cls-2, .cls-3 {
        stroke-width: 0px;
      }

      .cls-3 {
        fill: #f60;
      }
    </style>
    <clipPath id="clippath">
      <rect class="cls-2" width="1280" height="266.67"/>
    </clipPath>
  </defs>
  <g id="Layer_1-2" data-name="Layer 1">
    <g class="cls-1">
      <path class="cls-3" d="m1026.51,235.82c3.89.01,6.7,6.22,6.7,14.79,0,8.56-2.85,14.85-6.7,14.82-4-.03-6.82-6.27-6.79-15.04.03-8.51,2.86-14.58,6.79-14.57"/>
      <path class="cls-3" d="m1004.03,235.82c3.96,0,6.7,5.99,6.7,14.68,0,8.84-2.81,15.04-6.8,14.97-3.83-.07-6.67-6.45-6.65-14.98.02-8.54,2.84-14.67,6.75-14.67"/>
      <path class="cls-3" d="m981.57,265.42c-3.99-.07-6.77-6.37-6.72-15.19.06-8.58,2.96-14.52,7.05-14.41,3.7.1,6.46,6.51,6.44,14.95-.02,8.5-2.9,14.72-6.77,14.65"/>
      <path class="cls-3" d="m965.87,250.4c.01,8.88-2.78,15.11-6.75,15.07-3.85-.04-6.7-6.35-6.7-14.88,0-8.57,2.81-14.77,6.7-14.78,3.98-.01,6.74,5.95,6.75,14.58"/>
      <path class="cls-3" d="m936.78,235.82c3.89.01,6.7,6.21,6.7,14.78,0,8.56-2.84,14.86-6.7,14.83-4-.03-6.83-6.27-6.79-15.03.03-8.52,2.86-14.59,6.79-14.58"/>
      <path class="cls-3" d="m921,250.79c-.01,8.54-2.85,14.71-6.74,14.68-3.86-.03-6.7-6.34-6.7-14.86,0-8.73,2.84-14.83,6.88-14.8,3.88.04,6.58,6.19,6.57,14.98"/>
      <path class="cls-3" d="m712.38,265.36c-3.98-.07-6.77-6.38-6.71-15.21.06-8.57,2.97-14.5,7.06-14.39,3.7.1,6.46,6.52,6.43,14.97-.03,8.49-2.91,14.7-6.78,14.63"/>
      <path class="cls-3" d="m734.79,265.36c-3.98-.07-6.77-6.38-6.71-15.21.06-8.57,2.97-14.5,7.06-14.39,3.7.1,6.46,6.52,6.43,14.97-.03,8.49-2.91,14.7-6.78,14.63"/>
      <path class="cls-3" d="m757.31,265.36c-3.98-.07-6.77-6.38-6.71-15.21.06-8.57,2.97-14.5,7.06-14.39,3.7.1,6.46,6.52,6.43,14.97-.03,8.49-2.91,14.7-6.78,14.63"/>
      <path class="cls-3" d="m779.82,264.65c-3.98-.07-6.77-6.38-6.71-15.21.06-8.57,2.97-14.49,7.06-14.39,3.7.1,6.46,6.52,6.43,14.97-.03,8.49-2.91,14.7-6.78,14.63"/>
      <path class="cls-3" d="m690.02,235.03c3.95.01,6.67,6.03,6.67,14.76,0,8.63-2.77,14.85-6.65,14.89-3.95.04-6.83-6.32-6.8-15.06.03-8.52,2.85-14.61,6.78-14.6"/>
      <path class="cls-3" d="m398.33,263.95c-3.99-.07-6.77-6.38-6.71-15.2.06-8.57,2.97-14.5,7.06-14.39,3.7.1,6.46,6.51,6.43,14.96-.03,8.49-2.9,14.71-6.78,14.64"/>
      <path class="cls-3" d="m420.81,263.95c-3.99-.07-6.77-6.38-6.71-15.2.06-8.57,2.97-14.5,7.06-14.39,3.7.1,6.46,6.51,6.43,14.96-.03,8.49-2.9,14.71-6.78,14.64"/>
      <path class="cls-3" d="m382.64,249.18c0,8.6-2.8,14.81-6.67,14.83-3.86.02-6.75-6.24-6.77-14.7-.03-8.78,2.79-14.97,6.81-14.95,3.93.02,6.64,6.08,6.64,14.82"/>
      <path class="cls-3" d="m353.53,234.35c3.89.01,6.71,6.19,6.71,14.75,0,8.56-2.84,14.88-6.68,14.86-4-.02-6.83-6.25-6.81-15.01.03-8.52,2.85-14.61,6.78-14.6"/>
      <path class="cls-3" d="m331.02,234.35c3.98-.01,6.74,5.95,6.75,14.57.01,8.89-2.78,15.12-6.75,15.08-3.86-.04-6.7-6.35-6.7-14.87,0-8.56,2.81-14.77,6.7-14.78"/>
      <path class="cls-3" d="m308.68,234.35c3.89.01,6.7,6.2,6.71,14.77,0,8.56-2.84,14.87-6.69,14.85-4-.02-6.83-6.26-6.8-15.02.03-8.52,2.86-14.6,6.78-14.59"/>
      <path class="cls-3" d="m286.29,234.35c3.92.02,6.62,6.1,6.62,14.87,0,8.58-2.81,14.78-6.69,14.79-3.94,0-6.8-6.4-6.75-15.16.04-8.49,2.88-14.52,6.83-14.49"/>
      <path class="cls-3" d="m263.76,263.96c-3.99-.06-6.79-6.36-6.73-15.16.05-8.45,2.91-14.47,6.85-14.45,3.87.03,6.66,6.31,6.64,14.91-.02,8.5-2.89,14.75-6.76,14.69"/>
      <path class="cls-3" d="m241.28,234.35c3.98-.02,6.75,5.95,6.77,14.54.02,8.9-2.76,15.14-6.73,15.11-3.86-.03-6.71-6.32-6.71-14.84,0-8.59,2.8-14.8,6.68-14.82"/>
      <path class="cls-3" d="m225.65,249.43c-.04,8.47-2.93,14.6-6.83,14.52-3.97-.09-6.73-6.44-6.66-15.31.08-8.56,2.99-14.42,7.1-14.28,3.67.11,6.42,6.62,6.38,15.07"/>
      <path class="cls-3" d="m7.44,266.67c-3.98.02-6.77-5.94-6.78-14.5-.02-9.02,2.68-15.06,6.72-15.06,3.96,0,6.68,5.99,6.69,14.71,0,8.75-2.71,14.83-6.62,14.85"/>
      <path class="cls-3" d="m196.51,236.42c3.95.01,6.67,6.02,6.67,14.76,0,8.9-2.74,14.84-6.83,14.8-3.86-.03-6.64-6.34-6.61-14.96.03-8.52,2.86-14.61,6.78-14.6"/>
      <path class="cls-3" d="m175.59,264.66c-3.99-.06-6.78-6.36-6.73-15.16.05-8.58,2.96-14.54,7.04-14.44,3.71.09,6.47,6.48,6.45,14.91-.02,8.5-2.89,14.75-6.76,14.69"/>
      <path class="cls-3" d="m156.76,247.79c0,8.73-2.72,14.75-6.67,14.76-3.93.01-6.75-6.08-6.78-14.6-.03-8.78,2.79-14.98,6.8-14.96,3.93.02,6.65,6.07,6.65,14.81"/>
      <path class="cls-3" d="m111.26,250.61c0-8.76,2.7-14.84,6.62-14.87,3.98-.02,6.86,6.23,6.87,14.9,0,8.28-2.98,14.75-6.79,14.75-3.88,0-6.7-6.2-6.7-14.78"/>
      <path class="cls-3" d="m102.24,250.67c0,8.56-2.83,14.74-6.72,14.72-3.95-.02-6.7-6.29-6.68-15.23.02-8.53,2.82-14.46,6.82-14.43,3.89.03,6.6,6.16,6.59,14.93"/>
      <path class="cls-3" d="m66.4,250.62c0-8.77,2.7-14.85,6.62-14.88,3.98-.02,6.86,6.22,6.87,14.9,0,8.29-2.97,14.76-6.78,14.76s-6.7-6.2-6.7-14.78"/>
      <path class="cls-3" d="m57.37,250.69c0,8.55-2.84,14.73-6.73,14.7-3.94-.02-6.7-6.31-6.67-15.25.02-8.51,2.83-14.44,6.83-14.41,3.88.03,6.59,6.18,6.58,14.95"/>
      <path class="cls-3" d="m35.56,250.69c0,8.55-2.84,14.73-6.73,14.7-3.94-.02-6.7-6.31-6.67-15.25.02-8.51,2.83-14.44,6.83-14.41,3.88.03,6.59,6.18,6.58,14.95"/>
      <path class="cls-3" d="m427.5,52.47c.01,8.77-2.69,14.92-6.58,14.95-4.04.03-6.87-6.08-6.87-14.81,0-8.55,2.82-14.74,6.71-14.75,3.97,0,6.73,5.97,6.74,14.61"/>
      <path class="cls-3" d="m218.9,116.93c-3.99-.06-6.79-6.36-6.73-15.16.05-8.45,2.91-14.47,6.85-14.44,3.87.03,6.66,6.3,6.64,14.91-.02,8.5-2.89,14.75-6.76,14.69"/>
      <path class="cls-3" d="m203.18,101.98c0,8.67-2.74,14.92-6.6,15-3.97.08-6.86-6.24-6.85-14.95.01-8.54,2.83-14.7,6.73-14.7,3.96,0,6.71,5.99,6.71,14.66"/>
      <path class="cls-3" d="m174.03,116.93c-3.99-.06-6.78-6.36-6.73-15.16.05-8.58,2.96-14.54,7.04-14.44,3.71.09,6.47,6.48,6.45,14.91-.02,8.5-2.89,14.75-6.76,14.69"/>
      <path class="cls-3" d="m174.03,165.03c-3.99-.06-6.78-6.36-6.73-15.16.05-8.58,2.96-14.54,7.04-14.44,3.71.09,6.47,6.48,6.45,14.91-.02,8.5-2.89,14.75-6.76,14.69"/>
      <path class="cls-3" d="m158.32,102.08c0,8.63-2.77,14.86-6.65,14.9-3.96.04-6.83-6.32-6.8-15.05.03-8.53,2.85-14.61,6.78-14.6,3.95.01,6.67,6.02,6.67,14.76"/>
      <path class="cls-3" d="m129.23,87.33c3.89.01,6.7,6.22,6.69,14.79,0,8.56-2.85,14.85-6.7,14.82-4-.03-6.82-6.28-6.79-15.04.03-8.51,2.87-14.58,6.8-14.57"/>
      <path class="cls-3" d="m106.71,87.33c3.97-.01,6.73,5.96,6.74,14.59.01,8.88-2.78,15.1-6.76,15.06-3.85-.04-6.69-6.37-6.69-14.89,0-8.56,2.81-14.75,6.71-14.76"/>
      <path class="cls-3" d="m84.9,87.33c3.97-.01,6.73,5.96,6.74,14.59.01,8.88-2.78,15.1-6.76,15.06-3.85-.04-6.69-6.37-6.69-14.89,0-8.56,2.81-14.75,6.71-14.76"/>
      <path class="cls-3" d="m61.54,87.33c3.97-.01,6.73,5.96,6.74,14.59.01,8.88-2.78,15.1-6.76,15.06-3.85-.04-6.69-6.37-6.69-14.89,0-8.56,2.81-14.75,6.71-14.76"/>
      <path class="cls-3" d="m39.73,87.33c3.97-.01,6.73,5.96,6.74,14.59.01,8.88-2.78,15.1-6.76,15.06-3.85-.04-6.69-6.37-6.69-14.89,0-8.56,2.81-14.75,6.71-14.76"/>
      <path class="cls-3" d="m129.23,211.01c3.89.01,6.7,6.22,6.69,14.79,0,8.56-2.85,14.85-6.7,14.82-4-.03-6.82-6.28-6.79-15.04.03-8.51,2.87-14.58,6.8-14.57"/>
      <path class="cls-3" d="m106.71,211.01c3.97-.01,6.73,5.96,6.74,14.59.01,8.88-2.78,15.1-6.76,15.06-3.85-.04-6.69-6.37-6.69-14.89,0-8.56,2.81-14.75,6.71-14.76"/>
      <path class="cls-3" d="m84.9,211.01c3.97-.01,6.73,5.96,6.74,14.59.01,8.88-2.78,15.1-6.76,15.06-3.85-.04-6.69-6.37-6.69-14.89,0-8.56,2.81-14.75,6.71-14.76"/>
      <path class="cls-3" d="m61.54,211.01c3.97-.01,6.73,5.96,6.74,14.59.01,8.88-2.78,15.1-6.76,15.06-3.85-.04-6.69-6.37-6.69-14.89,0-8.56,2.81-14.75,6.71-14.76"/>
      <path class="cls-3" d="m39.73,211.01c3.97-.01,6.73,5.96,6.74,14.59.01,8.88-2.78,15.1-6.76,15.06-3.85-.04-6.69-6.37-6.69-14.89,0-8.56,2.81-14.75,6.71-14.76"/>
      <path class="cls-3" d="m17.92,211.01c3.97-.01,6.73,5.96,6.74,14.59.01,8.88-2.78,15.1-6.76,15.06-3.85-.04-6.69-6.37-6.69-14.89,0-8.56,2.81-14.75,6.71-14.76"/>
      <path class="cls-3" d="m248.04,102.2c0,8.58-2.81,14.78-6.7,14.79-3.87,0-6.73-6.26-6.75-14.75-.02-8.77,2.8-14.93,6.83-14.9,3.91.02,6.62,6.11,6.62,14.87"/>
      <path class="cls-3" d="m353.53,87.33c3.89.01,6.71,6.19,6.71,14.75,0,8.56-2.84,14.88-6.68,14.87-4-.02-6.83-6.25-6.81-15.01.03-8.52,2.85-14.61,6.78-14.6"/>
      <path class="cls-3" d="m1104.9,92.16c-3.92-.02-6.63-6.09-6.63-14.84,0-8.85,2.77-14.77,6.87-14.72,3.85.04,6.62,6.39,6.58,15.04-.04,8.5-2.88,14.54-6.82,14.52"/>
      <path class="cls-3" d="m1089.24,77.25c0,8.76-2.7,14.88-6.6,14.9-4.08.03-6.81-5.92-6.81-14.86,0-8.71,2.73-14.7,6.69-14.7,3.96,0,6.7,5.99,6.71,14.66"/>
      <path class="cls-3" d="m1060.02,92.16c-3.92-.02-6.62-6.1-6.62-14.87,0-8.83,2.78-14.75,6.88-14.69,3.84.05,6.61,6.4,6.57,15.07-.04,8.49-2.88,14.52-6.83,14.49"/>
      <path class="cls-3" d="m1037.59,62.6c3.98-.02,6.77,5.93,6.79,14.49.02,9.02-2.68,15.07-6.71,15.06-3.96,0-6.69-5.99-6.69-14.7,0-8.76,2.7-14.84,6.62-14.86"/>
      <path class="cls-3" d="m1015.3,92.16c-3.97.02-6.75-5.95-6.76-14.55-.01-9.01,2.69-15.02,6.74-15.01,3.89.01,6.7,6.2,6.71,14.76,0,8.58-2.8,14.79-6.69,14.8"/>
      <path class="cls-3" d="m999.52,77.56c-.01,8.63-2.77,14.6-6.74,14.59-4-.01-6.69-6.13-6.67-15.17.02-8.5,2.84-14.43,6.83-14.39,3.88.04,6.58,6.19,6.57,14.97"/>
      <path class="cls-3" d="m970.45,92.16c-3.98.02-6.75-5.95-6.77-14.53-.02-9.01,2.68-15.04,6.73-15.03,3.89,0,6.71,6.19,6.72,14.74,0,8.58-2.8,14.8-6.68,14.82"/>
      <path class="cls-3" d="m954.65,77.18c.01,8.79-2.69,14.94-6.57,14.98-4.09.04-6.84-5.9-6.84-14.79s2.72-14.76,6.66-14.77c3.98-.01,6.74,5.95,6.75,14.58"/>
      <path class="cls-3" d="m925.57,92.16c-3.97.02-6.74-5.95-6.76-14.56-.01-9,2.69-15.01,6.75-15,3.89.01,6.7,6.2,6.7,14.77,0,8.57-2.8,14.78-6.69,14.79"/>
      <path class="cls-3" d="m909.79,77.56c-.01,8.63-2.77,14.6-6.74,14.59-4-.01-6.69-6.13-6.66-15.17.02-8.49,2.84-14.42,6.84-14.38,3.88.04,6.58,6.19,6.57,14.97"/>
      <path class="cls-3" d="m880.69,92.16c-3.97.01-6.73-5.96-6.74-14.6-.01-8.99,2.7-14.98,6.76-14.96,3.89.01,6.69,6.23,6.69,14.8,0,8.56-2.82,14.75-6.71,14.76"/>
      <path class="cls-3" d="m858.27,62.6c3.94.01,6.65,6.05,6.65,14.79s-2.75,14.81-6.85,14.77c-3.88-.04-6.57-6.2-6.56-14.99.01-8.61,2.78-14.58,6.75-14.57"/>
      <path class="cls-3" d="m835.78,92.16c-3.96,0-6.69-6-6.69-14.71,0-8.93,2.73-14.89,6.81-14.85,3.86.03,6.66,6.3,6.64,14.91-.02,8.53-2.84,14.65-6.76,14.65"/>
      <path class="cls-3" d="m820.06,77.2c.01,8.77-2.69,14.92-6.58,14.95-4.09.04-6.83-5.91-6.83-14.81,0-8.73,2.72-14.74,6.67-14.75,3.97-.01,6.72,5.96,6.74,14.6"/>
      <path class="cls-3" d="m791.09,62.6c3.85.04,6.62,6.38,6.58,15.03-.04,8.62-2.92,14.61-7,14.53-3.8-.08-6.48-6.39-6.45-15.24.03-8.46,2.86-14.37,6.86-14.32"/>
      <path class="cls-3" d="m775.2,77.18c.01,8.79-2.69,14.94-6.57,14.98-4.09.04-6.84-5.9-6.84-14.79s2.72-14.76,6.66-14.77c3.97-.01,6.73,5.96,6.74,14.58"/>
      <path class="cls-3" d="m746.08,92.16c-3.97,0-6.72-5.98-6.72-14.63,0-8.97,2.71-14.95,6.77-14.93,3.88.02,6.68,6.25,6.67,14.83,0,8.55-2.83,14.72-6.72,14.72"/>
      <path class="cls-3" d="m746.08,141.67c-3.97,0-6.72-5.97-6.72-14.63,0-8.97,2.71-14.95,6.77-14.93,3.88.02,6.68,6.25,6.67,14.83,0,8.55-2.83,14.72-6.72,14.72"/>
      <path class="cls-3" d="m768.46,141.67c-3.97,0-6.72-5.97-6.73-14.63,0-8.97,2.71-14.95,6.78-14.93,3.88.02,6.68,6.25,6.67,14.83,0,8.55-2.83,14.72-6.72,14.72"/>
      <path class="cls-3" d="m730.33,77.47c0,8.7-2.74,14.68-6.7,14.68s-6.72-6.06-6.71-15.08c.02-8.56,2.81-14.5,6.79-14.48,3.91.02,6.62,6.11,6.61,14.88"/>
      <path class="cls-3" d="m701.21,92.16c-3.96,0-6.71-5.99-6.72-14.64,0-8.97,2.71-14.94,6.78-14.92,3.88.02,6.68,6.26,6.67,14.85-.01,8.55-2.83,14.71-6.73,14.71"/>
      <path class="cls-3" d="m685.47,77.28c0,8.76-2.7,14.86-6.61,14.88-4.08.03-6.8-5.93-6.79-14.89,0-8.68,2.74-14.67,6.7-14.67s6.7,5.99,6.7,14.68"/>
      <path class="cls-3" d="m1037.75,210.99c3.92.02,6.64,6.08,6.63,14.83,0,8.59-2.8,14.8-6.68,14.82-3.97.02-6.74-6.22-6.73-15.12.01-8.58,2.8-14.55,6.77-14.53"/>
      <path class="cls-3" d="m1008.54,225.6c0-8.64,2.76-14.62,6.74-14.61,3.91.01,6.82,6.52,6.76,15.16-.06,8.22-3.09,14.58-6.92,14.49-3.85-.09-6.59-6.35-6.58-15.04"/>
      <path class="cls-3" d="m499.32,62.6c3.96,0,6.68,6,6.69,14.71,0,8.93-2.72,14.89-6.81,14.85-3.9-.03-6.6-6.15-6.6-14.91,0-8.66,2.76-14.65,6.72-14.65"/>
      <path class="cls-3" d="m992.83,210.99c3.96,0,6.68,6,6.69,14.71,0,8.65-2.76,14.89-6.62,14.94-3.98.06-6.79-6.16-6.78-15.01,0-8.66,2.76-14.65,6.72-14.65"/>
      <path class="cls-3" d="m476.83,92.16c-3.94-.01-6.66-6.04-6.66-14.78s2.75-14.82,6.84-14.78c3.86.04,6.64,6.35,6.61,14.98-.03,8.52-2.86,14.59-6.79,14.58"/>
      <path class="cls-3" d="m476.83,141.29c-3.94-.01-6.66-6.04-6.66-14.78s2.75-14.82,6.84-14.78c3.86.04,6.64,6.35,6.61,14.98-.03,8.52-2.86,14.59-6.79,14.58"/>
      <path class="cls-3" d="m461.15,77.26c0,8.76-2.7,14.87-6.6,14.9-4.08.03-6.81-5.93-6.8-14.87,0-8.7,2.74-14.69,6.7-14.69,3.96,0,6.7,5.99,6.71,14.66"/>
      <path class="cls-3" d="m461.15,126.39c0,8.76-2.7,14.87-6.6,14.9-4.08.03-6.81-5.92-6.8-14.87,0-8.7,2.74-14.69,6.7-14.69,3.96,0,6.7,5.98,6.71,14.66"/>
      <path class="cls-3" d="m375.95,87.33c3.96,0,6.69,5.99,6.69,14.71,0,8.66-2.76,14.89-6.62,14.94-3.96.06-6.84-6.28-6.82-15,.02-8.54,2.84-14.65,6.76-14.65"/>
      <path class="cls-3" d="m387.19,92.16c-3.97.01-6.74-5.96-6.75-14.58-.01-8.99,2.69-14.99,6.75-14.98,3.89.01,6.7,6.21,6.69,14.79,0,8.56-2.81,14.76-6.7,14.77"/>
      <path class="cls-3" d="m371.42,77.34c0,8.73-2.72,14.79-6.64,14.81-4.06.02-6.77-5.97-6.76-14.95.01-8.64,2.76-14.61,6.74-14.6,3.95,0,6.67,6.02,6.67,14.75"/>
      <path class="cls-3" d="m963.68,225.95c-.01-8.77,2.69-14.92,6.58-14.95,4-.04,6.88,6.14,6.9,14.82.03,8.3-2.93,14.81-6.74,14.83-3.9.03-6.73-6.14-6.74-14.7"/>
      <path class="cls-3" d="m954.65,225.89c0,8.57-2.82,14.76-6.71,14.76-3.96,0-6.72-6.27-6.7-15.19.02-8.55,2.81-14.49,6.8-14.46,3.91.03,6.61,6.13,6.6,14.9"/>
      <path class="cls-3" d="m918.81,225.91c0-8.77,2.7-14.89,6.6-14.92,3.99-.03,6.87,6.17,6.89,14.85.02,8.3-2.94,14.79-6.76,14.8-3.89.01-6.72-6.17-6.72-14.73"/>
      <path class="cls-3" d="m909.79,225.62c0,8.68-2.73,14.93-6.59,15.02-3.99.09-6.82-6.12-6.82-14.93,0-8.72,2.72-14.72,6.68-14.72,3.96,0,6.72,5.98,6.72,14.64"/>
      <path class="cls-3" d="m398.25,116.91c-3.88-.1-6.65-6.36-6.63-14.96.02-8.81,2.94-14.77,7.14-14.62,3.66.13,6.4,6.68,6.35,15.14-.06,8.46-2.95,14.54-6.86,14.44"/>
      <path class="cls-3" d="m236.83,77.45c0,8.71-2.73,14.7-6.69,14.71-4.04,0-6.73-6.04-6.72-15.06.02-8.56,2.8-14.52,6.78-14.5,3.92.02,6.63,6.1,6.62,14.86"/>
      <path class="cls-3" d="m207.69,92.16c-3.96,0-6.69-5.99-6.7-14.69,0-8.95,2.72-14.9,6.8-14.87,3.87.03,6.66,6.29,6.64,14.9-.02,8.54-2.84,14.66-6.75,14.66"/>
      <path class="cls-3" d="m730.33,225.78c0,8.61-2.79,14.83-6.66,14.86-3.97.03-6.76-6.2-6.74-15.09.01-8.61,2.78-14.58,6.75-14.57,3.94.02,6.65,6.06,6.65,14.79"/>
      <path class="cls-3" d="m752.79,225.78c0,8.61-2.79,14.83-6.66,14.86-3.97.03-6.76-6.2-6.74-15.09.01-8.61,2.78-14.58,6.75-14.57,3.94.02,6.65,6.06,6.65,14.79"/>
      <path class="cls-3" d="m775.29,225.78c0,8.61-2.79,14.83-6.66,14.86-3.97.03-6.76-6.2-6.74-15.09.01-8.61,2.78-14.58,6.75-14.57,3.94.02,6.65,6.06,6.65,14.79"/>
      <path class="cls-3" d="m797.8,225.78c0,8.61-2.79,14.83-6.66,14.86-3.97.03-6.76-6.2-6.74-15.09.01-8.61,2.78-14.58,6.75-14.57,3.94.02,6.65,6.06,6.65,14.79"/>
      <path class="cls-3" d="m185.5,62.6c3.81.07,6.49,6.37,6.46,15.21-.03,8.62-2.89,14.46-7.04,14.35-3.75-.11-6.41-6.55-6.37-15.42.04-8.34,2.93-14.22,6.95-14.14"/>
      <path class="cls-3" d="m701.23,210.99c3.88.01,6.7,6.18,6.74,14.75.04,8.32-2.9,14.85-6.71,14.9-3.98.05-6.78-6.17-6.77-15.04,0-8.64,2.77-14.62,6.74-14.61"/>
      <path class="cls-3" d="m685.47,225.96c-.01,8.54-2.84,14.71-6.74,14.69-3.94-.03-6.69-6.32-6.67-15.26.02-8.5,2.84-14.43,6.83-14.39,3.88.03,6.58,6.18,6.57,14.97"/>
      <path class="cls-3" d="m162.77,92.16c-3.93-.02-6.65-6.07-6.65-14.81,0-8.86,2.76-14.8,6.86-14.75,3.85.04,6.63,6.37,6.59,15.01-.04,8.5-2.87,14.57-6.8,14.55"/>
      <path class="cls-3" d="m147.1,77.25c0,8.76-2.7,14.87-6.6,14.9-4.08.03-6.81-5.92-6.81-14.87,0-8.7,2.73-14.69,6.69-14.7,3.96,0,6.7,5.99,6.71,14.66"/>
      <path class="cls-3" d="m409.65,210.99c3.92.02,6.64,6.08,6.63,14.83,0,8.59-2.8,14.8-6.68,14.82-3.97.02-6.74-6.22-6.73-15.12.01-8.58,2.8-14.55,6.77-14.53"/>
      <path class="cls-3" d="m432,210.99c3.92.02,6.64,6.08,6.63,14.83,0,8.59-2.8,14.8-6.68,14.82-3.97.02-6.74-6.22-6.73-15.13.02-8.58,2.8-14.55,6.77-14.53"/>
      <path class="cls-3" d="m380.45,225.87c0-8.77,2.7-14.86,6.61-14.88,3.98-.02,6.86,6.22,6.87,14.89,0,8.28-2.97,14.76-6.78,14.76-3.89,0-6.7-6.19-6.7-14.77"/>
      <path class="cls-3" d="m371.42,225.79c0,8.61-2.79,14.82-6.66,14.85-3.97.03-6.75-6.2-6.74-15.1.01-8.6,2.78-14.57,6.76-14.56,3.93.02,6.65,6.06,6.65,14.8"/>
      <path class="cls-3" d="m117.96,92.16c-3.96,0-6.7-5.99-6.7-14.68,0-8.95,2.72-14.91,6.8-14.88,3.87.03,6.66,6.29,6.65,14.89-.02,8.54-2.84,14.67-6.75,14.67"/>
      <path class="cls-3" d="m94.6,92.16c-3.96,0-6.7-5.99-6.7-14.68,0-8.95,2.72-14.91,6.8-14.88,3.87.03,6.66,6.29,6.65,14.89-.02,8.54-2.84,14.67-6.75,14.67"/>
      <path class="cls-3" d="m342.31,210.99c3.92,0,6.83,6.51,6.77,15.14-.05,8.07-3.01,14.46-6.72,14.52-3.98.06-6.79-6.16-6.78-15.02,0-8.66,2.76-14.64,6.73-14.64"/>
      <path class="cls-3" d="m472.36,101.99c0,8.67-2.75,14.92-6.6,14.99-3.97.08-6.86-6.24-6.84-14.96.01-8.54,2.83-14.69,6.74-14.69,3.96,0,6.7,5.99,6.71,14.66"/>
      <path class="cls-3" d="m472.36,151.55c0,8.66-2.75,14.92-6.6,14.99-3.97.08-6.86-6.25-6.84-14.96.01-8.55,2.83-14.69,6.74-14.69,3.96,0,6.7,5.98,6.71,14.66"/>
      <path class="cls-3" d="m326.56,225.75c0,8.63-2.77,14.85-6.65,14.89-3.98.04-6.77-6.18-6.76-15.06.01-8.63,2.77-14.61,6.74-14.6,3.95.01,6.66,6.03,6.67,14.76"/>
      <path class="cls-3" d="m290.72,225.65c0-8.68,2.75-14.67,6.71-14.66,3.92,0,6.83,6.48,6.79,15.11-.04,8.23-3.07,14.61-6.89,14.54-3.86-.07-6.61-6.32-6.6-14.99"/>
      <path class="cls-3" d="m281.69,225.9c0,8.57-2.82,14.75-6.71,14.75-3.95,0-6.71-6.28-6.69-15.2.02-8.54,2.81-14.48,6.81-14.45,3.9.03,6.61,6.14,6.6,14.91"/>
      <path class="cls-3" d="m1100.46,52.65c0,8.74-2.72,14.76-6.66,14.78-4.01.01-6.82-6.2-6.79-14.99.03-8.51,2.86-14.58,6.79-14.57,3.94.01,6.65,6.05,6.65,14.79"/>
      <path class="cls-3" d="m1122.91,52.65c0,8.74-2.72,14.76-6.66,14.78-4.01.01-6.82-6.2-6.79-14.99.03-8.51,2.86-14.58,6.79-14.57,3.94.01,6.65,6.05,6.65,14.79"/>
      <path class="cls-3" d="m252.54,210.99c3.95,0,6.84,6.39,6.81,15.05-.03,8.24-3.05,14.65-6.86,14.6-3.87-.05-6.63-6.28-6.63-14.93,0-8.72,2.73-14.71,6.69-14.72"/>
      <path class="cls-3" d="m236.83,225.65c0,8.67-2.75,14.92-6.6,14.99-3.98.08-6.81-6.13-6.8-14.96,0-8.7,2.74-14.69,6.7-14.7,3.96,0,6.7,5.99,6.71,14.66"/>
      <path class="cls-3" d="m1071.37,67.42c-3.93.01-6.76-6.06-6.79-14.57-.03-8.79,2.78-15,6.79-14.99,3.89.01,6.7,6.21,6.7,14.77,0,8.57-2.81,14.77-6.7,14.79"/>
      <path class="cls-3" d="m1048.89,67.42c-3.91,0-6.73-6.14-6.74-14.68-.02-8.76,2.81-14.9,6.84-14.88,3.91.02,6.62,6.12,6.61,14.89,0,8.68-2.74,14.67-6.71,14.67"/>
      <path class="cls-3" d="m1026.47,67.42c-3.91,0-6.73-6.13-6.75-14.67-.02-8.77,2.81-14.92,6.84-14.89,3.87.02,6.67,6.27,6.65,14.87-.01,8.54-2.83,14.69-6.74,14.69"/>
      <path class="cls-3" d="m1048.94,186.26c3.94.01,6.65,6.05,6.65,14.79,0,8.61-2.79,14.83-6.66,14.86-3.95.03-6.82-6.34-6.79-15.09.03-8.51,2.86-14.58,6.79-14.57"/>
      <path class="cls-3" d="m1058.98,210.99c3.92.02,6.64,6.08,6.63,14.83,0,8.59-2.8,14.8-6.68,14.82-3.97.02-6.74-6.22-6.73-15.12.01-8.58,2.8-14.55,6.77-14.53"/>
      <path class="cls-3" d="m1070.18,186.26c3.94.01,6.65,6.05,6.65,14.79,0,8.61-2.79,14.83-6.66,14.86-3.95.03-6.82-6.34-6.79-15.09.03-8.51,2.86-14.58,6.79-14.57"/>
      <path class="cls-3" d="m1004.11,37.86c3.92.02,6.62,6.1,6.62,14.87,0,8.83-2.78,14.75-6.88,14.69-3.84-.05-6.61-6.4-6.57-15.07.04-8.49,2.88-14.52,6.83-14.49"/>
      <path class="cls-3" d="m1004.16-11.55c3.92.02,6.62,6.1,6.62,14.87,0,8.83-2.78,14.75-6.88,14.69-3.84-.05-6.61-6.4-6.57-15.07.04-8.49,2.88-14.52,6.83-14.49"/>
      <path class="cls-3" d="m981.66,67.42c-3.94.02-6.77-6.03-6.81-14.53-.04-8.79,2.78-15.04,6.77-15.03,3.89,0,6.71,6.18,6.72,14.74,0,8.58-2.8,14.8-6.68,14.82"/>
      <path class="cls-3" d="m959.13,37.86c3.97-.01,6.73,5.96,6.74,14.59.01,8.99-2.69,14.99-6.76,14.97-3.89-.01-6.69-6.22-6.69-14.8,0-8.56,2.82-14.75,6.71-14.76"/>
      <path class="cls-3" d="m936.69,37.86c3.93-.01,6.76,6.07,6.78,14.59.03,8.78-2.79,14.98-6.8,14.97-3.89-.01-6.69-6.22-6.69-14.8,0-8.56,2.81-14.75,6.71-14.76"/>
      <path class="cls-3" d="m1026.51,186.26c3.89.01,6.7,6.22,6.7,14.79,0,8.55-2.85,14.85-6.7,14.82-4-.03-6.82-6.27-6.79-15.05.03-8.51,2.86-14.58,6.79-14.57"/>
      <path class="cls-3" d="m914.37,37.86c3.92.02,6.63,6.09,6.63,14.84,0,8.85-2.77,14.77-6.87,14.72-3.85-.04-6.62-6.39-6.58-15.04.04-8.5,2.88-14.54,6.82-14.52"/>
      <path class="cls-3" d="m891.94,67.42c-4.02.02-6.84-6.16-6.82-14.93.02-8.53,2.85-14.64,6.77-14.63,3.9,0,6.72,6.17,6.72,14.72,0,8.59-2.79,14.82-6.67,14.84"/>
      <path class="cls-3" d="m1004.03,186.26c3.96,0,6.7,5.99,6.7,14.68,0,8.84-2.81,15.04-6.8,14.97-3.83-.07-6.67-6.45-6.65-14.98.02-8.54,2.84-14.68,6.75-14.68"/>
      <path class="cls-3" d="m981.57,215.86c-3.99-.07-6.77-6.37-6.72-15.19.06-8.58,2.96-14.52,7.05-14.41,3.7.09,6.46,6.51,6.44,14.94-.02,8.5-2.9,14.72-6.77,14.65"/>
      <path class="cls-3" d="m965.87,200.84c.01,8.88-2.78,15.11-6.75,15.07-3.85-.04-6.7-6.35-6.7-14.88,0-8.57,2.81-14.77,6.7-14.78,3.98-.01,6.74,5.96,6.75,14.58"/>
      <path class="cls-3" d="m936.78,186.26c3.89.01,6.7,6.21,6.7,14.78,0,8.56-2.84,14.86-6.7,14.83-4-.02-6.83-6.27-6.79-15.03.03-8.52,2.86-14.59,6.79-14.58"/>
      <path class="cls-3" d="m921,201.23c-.01,8.54-2.85,14.71-6.74,14.68-3.86-.03-6.7-6.34-6.7-14.86,0-8.73,2.84-14.83,6.88-14.8,3.88.04,6.58,6.19,6.57,14.98"/>
      <path class="cls-3" d="m891.94,186.26c3.88.02,6.69,6.24,6.68,14.83,0,8.55-2.86,14.82-6.72,14.78-4-.04-6.81-6.3-6.77-15.08.04-8.5,2.87-14.55,6.81-14.53"/>
      <path class="cls-3" d="m887.19,225.62c0,8.68-2.73,14.93-6.59,15.02-3.99.09-6.82-6.12-6.82-14.93,0-8.72,2.72-14.72,6.68-14.72,3.96,0,6.71,5.98,6.72,14.64"/>
      <path class="cls-3" d="m869.34,186.26c3.88.02,6.69,6.24,6.68,14.83,0,8.55-2.86,14.82-6.72,14.78-4-.04-6.81-6.3-6.77-15.08.04-8.5,2.87-14.55,6.81-14.53"/>
      <path class="cls-3" d="m869.51,67.42c-4.02.02-6.84-6.16-6.82-14.93.02-8.53,2.84-14.64,6.76-14.63,3.96,0,6.68,6,6.68,14.72,0,8.75-2.71,14.82-6.63,14.84"/>
      <path class="cls-3" d="m824.59,37.86c3.96,0,6.69,5.99,6.69,14.71,0,8.93-2.72,14.89-6.81,14.85-3.86-.03-6.66-6.3-6.64-14.91.02-8.53,2.84-14.65,6.76-14.65"/>
      <path class="cls-3" d="m847.08,37.86c3.96,0,6.69,5.99,6.69,14.71,0,8.93-2.72,14.89-6.81,14.85-3.87-.03-6.66-6.3-6.64-14.91.02-8.53,2.84-14.65,6.76-14.65"/>
      <path class="cls-3" d="m802.2,37.86c3.88.02,6.69,6.23,6.69,14.81,0,8.71-2.85,14.8-6.9,14.75-3.85-.04-6.63-6.37-6.59-15.01.04-8.5,2.87-14.56,6.81-14.55"/>
      <path class="cls-3" d="m779.76,67.42c-3.93.01-6.77-6.05-6.8-14.56-.03-8.79,2.78-15.02,6.78-15,3.95.01,6.67,6.03,6.67,14.76,0,8.74-2.72,14.78-6.65,14.8"/>
      <path class="cls-3" d="m757.26,37.86c3.92,0,6.74,6.11,6.76,14.65.02,8.77-2.8,14.94-6.82,14.91-3.88-.02-6.68-6.26-6.67-14.85.01-8.55,2.83-14.7,6.73-14.71"/>
      <path class="cls-3" d="m712.38,215.86c-3.98-.07-6.77-6.38-6.71-15.21.06-8.57,2.97-14.49,7.06-14.39,3.7.1,6.46,6.52,6.43,14.97-.03,8.49-2.91,14.7-6.78,14.63"/>
      <path class="cls-3" d="m801.69,215.86c-3.98-.07-6.77-6.38-6.71-15.21.06-8.57,2.97-14.49,7.06-14.39,3.7.1,6.46,6.52,6.43,14.97-.03,8.49-2.91,14.7-6.78,14.63"/>
      <path class="cls-3" d="m690.02,186.26c3.95.01,6.67,6.03,6.67,14.76,0,8.63-2.77,14.85-6.65,14.89-3.95.04-6.83-6.32-6.8-15.06.03-8.52,2.85-14.61,6.78-14.6"/>
      <path class="cls-3" d="m741.55,52.5c0,8.76-2.7,14.89-6.59,14.92-4.04.03-6.87-6.09-6.86-14.84,0-8.54,2.83-14.71,6.72-14.72,3.96,0,6.72,5.98,6.72,14.64"/>
      <path class="cls-3" d="m667.51,186.26c3.93-.01,6.76,6.06,6.79,14.58.03,8.58-2.8,15.02-6.61,15.04-4.02.02-6.88-6.16-6.88-14.86,0-8.56,2.81-14.76,6.7-14.77"/>
      <path class="cls-3" d="m712.43,67.42c-3.92,0-6.74-6.11-6.76-14.65-.02-8.77,2.8-14.94,6.82-14.91,3.88.02,6.68,6.26,6.67,14.85-.01,8.55-2.83,14.71-6.73,14.71"/>
      <path class="cls-3" d="m689.98,37.86c3.96,0,6.7,5.99,6.71,14.67,0,8.96-2.71,14.92-6.79,14.89-3.87-.02-6.67-6.28-6.66-14.87.02-8.54,2.83-14.69,6.74-14.69"/>
      <path class="cls-3" d="m667.48,67.42c-3.88-.02-6.68-6.25-6.67-14.84,0-8.7,2.86-14.77,6.91-14.72,3.85.04,6.62,6.39,6.58,15.04-.04,8.5-2.88,14.54-6.82,14.52"/>
      <path class="cls-3" d="m398.33,215.86c-3.99-.07-6.77-6.38-6.71-15.2.06-8.57,2.97-14.5,7.06-14.39,3.7.1,6.46,6.51,6.43,14.96-.03,8.49-2.9,14.71-6.78,14.64"/>
      <path class="cls-3" d="m443.2,215.86c-3.99-.07-6.77-6.38-6.71-15.2.06-8.57,2.97-14.5,7.06-14.39,3.7.1,6.46,6.51,6.43,14.96-.03,8.49-2.9,14.71-6.78,14.64"/>
      <path class="cls-3" d="m382.64,201.08c0,8.6-2.8,14.81-6.67,14.83-3.86.02-6.75-6.24-6.77-14.7-.03-8.78,2.79-14.97,6.81-14.95,3.93.02,6.64,6.08,6.64,14.82"/>
      <path class="cls-3" d="m353.53,186.26c3.89.01,6.71,6.19,6.71,14.75,0,8.56-2.84,14.88-6.68,14.86-4-.02-6.83-6.25-6.81-15.01.03-8.52,2.85-14.61,6.78-14.6"/>
      <path class="cls-3" d="m331.02,186.26c3.98-.01,6.74,5.95,6.75,14.57.01,8.89-2.78,15.12-6.75,15.08-3.86-.04-6.7-6.35-6.7-14.87,0-8.56,2.81-14.77,6.7-14.78"/>
      <path class="cls-3" d="m308.68,186.26c3.89.01,6.7,6.2,6.71,14.77,0,8.56-2.84,14.87-6.69,14.85-4-.02-6.83-6.26-6.8-15.02.03-8.52,2.86-14.6,6.78-14.59"/>
      <path class="cls-3" d="m286.29,186.26c3.92.02,6.62,6.1,6.62,14.87,0,8.58-2.81,14.78-6.69,14.79-3.94,0-6.8-6.4-6.75-15.16.04-8.49,2.88-14.52,6.83-14.49"/>
      <path class="cls-3" d="m263.76,215.86c-3.99-.06-6.79-6.36-6.73-15.16.05-8.45,2.91-14.47,6.85-14.45,3.87.03,6.66,6.31,6.64,14.91-.02,8.5-2.89,14.75-6.76,14.69"/>
      <path class="cls-3" d="m241.28,186.26c3.98-.02,6.75,5.95,6.77,14.54.02,8.9-2.76,15.14-6.73,15.11-3.86-.03-6.71-6.32-6.71-14.84,0-8.59,2.8-14.8,6.68-14.82"/>
      <path class="cls-3" d="m225.65,201.33c-.04,8.47-2.93,14.61-6.83,14.52-3.97-.09-6.73-6.44-6.66-15.31.08-8.56,2.99-14.42,7.1-14.28,3.67.12,6.42,6.62,6.38,15.07"/>
      <path class="cls-3" d="m488.12,67.42c-3.92,0-6.75-6.09-6.77-14.61-.03-8.78,2.79-14.97,6.81-14.94,3.88.02,6.69,6.24,6.68,14.82,0,8.55-2.82,14.73-6.72,14.74"/>
      <path class="cls-3" d="m472.36,52.74c0,8.7-2.74,14.69-6.7,14.69s-6.73-6.13-6.75-14.67c-.02-8.76,2.81-14.92,6.83-14.89,3.91.02,6.62,6.11,6.61,14.87"/>
      <path class="cls-3" d="m443.32,67.42c-4.03.02-6.85-6.13-6.83-14.9.02-8.54,2.84-14.67,6.75-14.66,3.91,0,6.73,6.14,6.74,14.69.01,8.6-2.78,14.85-6.66,14.87"/>
      <path class="cls-3" d="m488.08,116.93c-3.99-.06-6.78-6.36-6.73-15.16.05-8.58,2.96-14.54,7.04-14.44,3.71.09,6.47,6.49,6.45,14.92-.02,8.5-2.89,14.74-6.76,14.69"/>
      <path class="cls-3" d="m1060.05,191.08c-3.93-.02-6.65-6.07-6.64-14.81,0-8.86,2.76-14.8,6.86-14.75,3.85.04,6.63,6.37,6.59,15.01-.04,8.5-2.87,14.56-6.8,14.55"/>
      <path class="cls-3" d="m1044.38,176.22c0,8.76-2.7,14.84-6.62,14.87-4.08.02-6.8-5.94-6.79-14.9,0-8.67,2.75-14.66,6.71-14.66,3.96,0,6.69,5.99,6.7,14.69"/>
      <path class="cls-3" d="m1015.26,191.08c-3.96,0-6.71-5.99-6.71-14.66,0-8.96,2.71-14.93,6.79-14.9,3.88.02,6.67,6.27,6.66,14.86-.01,8.54-2.83,14.69-6.74,14.7"/>
      <path class="cls-3" d="m999.52,176.3c0,8.74-2.72,14.78-6.65,14.79-4.06.01-6.77-5.98-6.75-14.98.01-8.63,2.77-14.6,6.74-14.58,3.94.01,6.66,6.04,6.66,14.77"/>
      <path class="cls-3" d="m970.44,161.52c3.88.02,6.69,6.23,6.68,14.81,0,8.71-2.85,14.79-6.9,14.75-3.87-.04-6.56-6.21-6.55-15.02.01-8.59,2.79-14.56,6.77-14.54"/>
      <path class="cls-3" d="m954.65,176.32c0,8.73-2.72,14.76-6.66,14.77-4.06.01-6.76-5.99-6.74-15,.01-8.61,2.78-14.58,6.75-14.56,3.93.01,6.65,6.05,6.65,14.79"/>
      <path class="cls-3" d="m925.47,161.52c3.93-.01,6.76,6.06,6.79,14.57.03,8.79-2.78,15-6.79,14.99-3.94-.01-6.66-6.04-6.66-14.78,0-8.74,2.72-14.77,6.66-14.78"/>
      <path class="cls-3" d="m903.08,161.52c3.96,0,6.7,5.99,6.71,14.67,0,8.95-2.71,14.92-6.79,14.89-3.91-.02-6.62-6.11-6.61-14.87,0-8.7,2.74-14.69,6.7-14.69"/>
      <path class="cls-3" d="m880.69,191.08c-3.97.01-6.73-5.96-6.74-14.59-.01-8.99,2.69-14.99,6.76-14.97,3.89.01,6.69,6.22,6.69,14.8,0,8.56-2.81,14.75-6.7,14.76"/>
      <path class="cls-3" d="m398.4,67.42c-3.93,0-6.75-6.08-6.78-14.61-.03-8.78,2.79-14.97,6.81-14.95,3.89.02,6.69,6.23,6.68,14.81,0,8.56-2.82,14.74-6.71,14.75"/>
      <path class="cls-3" d="m701.14,191.08c-3.93-.02-6.64-6.08-6.64-14.81,0-8.86,2.76-14.79,6.86-14.75,3.85.04,6.63,6.37,6.59,15.02-.04,8.5-2.87,14.56-6.81,14.54"/>
      <path class="cls-3" d="m723.61,191.08c-3.93-.02-6.64-6.08-6.64-14.81,0-8.86,2.76-14.79,6.86-14.75,3.85.04,6.63,6.37,6.59,15.02-.04,8.5-2.87,14.56-6.81,14.54"/>
      <path class="cls-3" d="m791.01,191.08c-3.93-.02-6.64-6.08-6.64-14.81,0-8.86,2.76-14.79,6.86-14.75,3.85.04,6.63,6.37,6.59,15.02-.04,8.5-2.87,14.56-6.81,14.54"/>
      <path class="cls-3" d="m382.64,52.73c0,8.7-2.73,14.69-6.7,14.7-3.91,0-6.73-6.12-6.75-14.66-.02-8.77,2.8-14.93,6.83-14.9,3.92.02,6.62,6.1,6.62,14.87"/>
      <path class="cls-3" d="m360.23,52.79c0,8.7-2.73,14.69-6.7,14.7-3.91,0-6.73-6.12-6.75-14.66-.02-8.77,2.8-14.93,6.83-14.9,3.92.02,6.62,6.1,6.62,14.87"/>
      <path class="cls-3" d="m678.76,191.08c-3.96,0-6.69-5.99-6.7-14.69,0-8.95,2.72-14.9,6.8-14.87,3.91.03,6.61,6.13,6.6,14.89,0,8.68-2.75,14.67-6.71,14.67"/>
      <path class="cls-3" d="m660.8,101.87c.04-8.63,2.92-14.62,7-14.54,3.81.07,6.56,6.53,6.49,15.23-.07,8.44-2.97,14.47-6.9,14.35-3.88-.12-6.63-6.4-6.59-15.04"/>
      <path class="cls-3" d="m387.19,191.08c-3.97.01-6.74-5.96-6.75-14.58-.01-9,2.69-14.99,6.75-14.98,3.89.01,6.7,6.22,6.69,14.79,0,8.56-2.81,14.76-6.7,14.77"/>
      <path class="cls-3" d="m454.39,191.08c-3.97.01-6.74-5.96-6.75-14.58-.01-9,2.69-14.99,6.75-14.98,3.89.01,6.7,6.22,6.69,14.79,0,8.56-2.81,14.76-6.7,14.77"/>
      <path class="cls-3" d="m371.42,176.51c-.01,8.62-2.77,14.59-6.75,14.58-4-.01-6.68-6.14-6.66-15.19.02-8.49,2.85-14.41,6.84-14.37,3.88.04,6.58,6.19,6.56,14.98"/>
      <path class="cls-3" d="m342.32,191.08c-3.97.01-6.73-5.96-6.74-14.6-.01-8.99,2.7-14.98,6.76-14.96,3.89.02,6.69,6.23,6.69,14.8,0,8.56-2.82,14.75-6.71,14.76"/>
      <path class="cls-3" d="m241.42,67.42c-4.02.02-6.84-6.14-6.82-14.91.02-8.53,2.84-14.65,6.76-14.65,3.96,0,6.68,5.99,6.69,14.71,0,8.75-2.7,14.83-6.62,14.85"/>
      <path class="cls-3" d="m218.89,67.42c-3.9,0-6.72-6.17-6.72-14.72,0-8.75,2.82-14.87,6.86-14.84,3.86.03,6.65,6.31,6.63,14.93-.02,8.53-2.85,14.64-6.77,14.63"/>
      <path class="cls-3" d="m326.56,176.32c0,8.73-2.72,14.75-6.67,14.76-4.05.01-6.75-6-6.74-15.01.01-8.6,2.79-14.57,6.76-14.55,3.93.02,6.65,6.07,6.65,14.8"/>
      <path class="cls-3" d="m297.36,191.08c-3.93-.02-6.65-6.07-6.64-14.81,0-8.86,2.76-14.8,6.86-14.75,3.85.04,6.63,6.37,6.59,15.01-.04,8.5-2.87,14.56-6.8,14.55"/>
      <path class="cls-3" d="m281.69,176.42c0,8.68-2.74,14.67-6.71,14.67-4.03,0-6.72-6.07-6.7-15.1.02-8.55,2.81-14.49,6.8-14.46,3.91.03,6.61,6.13,6.6,14.89"/>
      <path class="cls-3" d="m252.55,191.08c-3.96,0-6.69-5.99-6.69-14.7,0-8.94,2.72-14.89,6.81-14.86,3.87.03,6.66,6.3,6.64,14.9-.02,8.54-2.84,14.66-6.75,14.66"/>
      <path class="cls-3" d="m196.32,67.42c-3.85-.04-6.62-6.38-6.58-15.03.04-8.62,2.92-14.61,7-14.53,3.8.08,6.48,6.39,6.45,15.24-.03,8.46-2.86,14.37-6.86,14.32"/>
      <path class="cls-3" d="m230.1,161.52c3.96,0,6.72,5.98,6.72,14.63,0,8.97-2.71,14.95-6.77,14.93-3.92-.02-6.63-6.09-6.63-14.83,0-8.72,2.72-14.72,6.68-14.72"/>
      <path class="cls-3" d="m174.21,37.86c3.85.04,6.62,6.38,6.58,15.03-.04,8.62-2.92,14.61-7,14.53-3.73-.07-6.5-6.4-6.49-14.82,0-8.71,2.85-14.78,6.91-14.73"/>
      <path class="cls-3" d="m151.56,37.86c3.97-.01,6.74,5.95,6.75,14.57.01,9-2.69,15-6.75,14.99-3.89-.01-6.7-6.21-6.7-14.78,0-8.56,2.81-14.77,6.7-14.78"/>
      <path class="cls-3" d="m129.23,67.42c-3.93.01-6.76-6.06-6.79-14.58-.03-8.79,2.78-15,6.79-14.98,3.89.01,6.7,6.21,6.7,14.78s-2.81,14.77-6.7,14.78"/>
      <path class="cls-3" d="m1048.94,166.35c-3.93.01-6.76-6.06-6.79-14.57-.03-8.79,2.78-15.01,6.79-14.99,3.94.01,6.66,6.04,6.66,14.77s-2.72,14.77-6.65,14.79"/>
      <path class="cls-3" d="m1071.39,166.35c-3.93.01-6.76-6.06-6.79-14.57-.03-8.79,2.78-15.01,6.79-14.99,3.94.01,6.66,6.04,6.66,14.77s-2.72,14.77-6.65,14.79"/>
      <path class="cls-3" d="m1026.47,166.35c-3.91,0-6.73-6.12-6.75-14.66-.02-8.77,2.8-14.93,6.83-14.9,3.88.02,6.67,6.27,6.66,14.86-.01,8.55-2.83,14.7-6.74,14.7"/>
      <path class="cls-3" d="m113.45,52.45c.01,8.79-2.69,14.94-6.57,14.98-4.04.04-6.88-6.06-6.88-14.79,0-8.56,2.81-14.76,6.7-14.77,3.98-.01,6.74,5.95,6.75,14.58"/>
      <path class="cls-3" d="m1003.98,136.79c3.97-.01,6.74,5.96,6.75,14.58.01,9-2.69,14.99-6.75,14.98-3.89-.01-6.7-6.22-6.69-14.79,0-8.56,2.81-14.76,6.7-14.77"/>
      <path class="cls-3" d="m981.64,166.35c-3.93.01-6.76-6.06-6.79-14.58-.03-8.79,2.78-15,6.79-14.98,3.89.01,6.7,6.21,6.7,14.78,0,8.56-2.81,14.76-6.7,14.78"/>
      <path class="cls-3" d="m959.16,136.79c3.96,0,6.7,5.99,6.71,14.67,0,8.96-2.71,14.92-6.79,14.89-3.87-.02-6.67-6.27-6.66-14.87.01-8.54,2.83-14.69,6.74-14.69"/>
      <path class="cls-3" d="m696.68,102.14c0,8.61-2.79,14.82-6.67,14.84-3.86.03-6.75-6.23-6.78-14.69-.03-8.78,2.79-14.98,6.8-14.96,3.93.02,6.65,6.07,6.65,14.81"/>
      <path class="cls-3" d="m719.16,102.19c-.01,8.53-2.87,14.79-6.74,14.74-3.99-.05-6.8-6.33-6.75-15.12.04-8.48,2.89-14.52,6.83-14.49,3.87.02,6.67,6.27,6.66,14.87"/>
      <path class="cls-3" d="m741.55,102.13c0,8.61-2.79,14.82-6.66,14.86-3.95.03-6.82-6.35-6.78-15.1.03-8.5,2.87-14.57,6.8-14.56,3.93.02,6.65,6.06,6.65,14.8"/>
      <path class="cls-3" d="m936.71,166.35c-3.9,0-6.71-6.18-6.72-14.73,0-8.74,2.82-14.86,6.86-14.82,3.86.03,6.65,6.32,6.62,14.94-.02,8.53-2.85,14.63-6.77,14.62"/>
      <path class="cls-3" d="m914.33,136.79c3.95,0,6.67,6.01,6.67,14.75,0,8.91-2.74,14.85-6.83,14.81-3.86-.03-6.65-6.32-6.62-14.95.03-8.52,2.85-14.62,6.77-14.61"/>
      <path class="cls-3" d="m891.78,166.35c-3.87-.02-6.67-6.28-6.66-14.88.02-8.68,2.87-14.74,6.93-14.68,3.84.05,6.61,6.41,6.56,15.08-.04,8.48-2.89,14.5-6.83,14.48"/>
      <path class="cls-3" d="m876.14,151.4c.01,8.77-2.69,14.92-6.58,14.95-4.04.03-6.87-6.08-6.87-14.81,0-8.55,2.82-14.74,6.71-14.75,3.97-.01,6.72,5.96,6.74,14.6"/>
      <path class="cls-3" d="m764.02,102.44c-.05,8.46-2.94,14.57-6.85,14.48-3.97-.1-6.72-6.46-6.64-15.34.08-8.55,3-14.38,7.12-14.25,3.66.12,6.41,6.65,6.36,15.11"/>
      <path class="cls-3" d="m1120.7,27.73c.01-8.63,2.77-14.6,6.74-14.59,4,.01,6.69,6.13,6.66,15.17-.02,8.48-2.9,14.58-6.84,14.48-3.85-.1-6.58-6.36-6.57-15.06"/>
      <path class="cls-3" d="m1143.18,27.73c.01-8.63,2.77-14.6,6.74-14.59,4,.01,6.69,6.13,6.66,15.17-.02,8.48-2.9,14.58-6.84,14.48-3.85-.1-6.58-6.36-6.57-15.06"/>
      <path class="cls-3" d="m1098.27,28.09c-.01-8.77,2.69-14.92,6.58-14.96,4-.03,6.88,6.14,6.9,14.82.03,8.3-2.93,14.81-6.74,14.83-3.9.03-6.73-6.15-6.74-14.7"/>
      <path class="cls-3" d="m712.46,166.35c-3.93.01-6.76-6.06-6.79-14.57-.03-8.79,2.78-15.01,6.79-14.99,3.89.01,6.7,6.21,6.7,14.77,0,8.57-2.81,14.77-6.7,14.79"/>
      <path class="cls-3" d="m802.19,166.35c-3.93.01-6.76-6.06-6.8-14.57-.03-8.79,2.78-15.01,6.79-14.99,3.89.01,6.7,6.21,6.7,14.77,0,8.57-2.81,14.77-6.69,14.79"/>
      <path class="cls-3" d="m689.9,166.35c-3.88-.02-6.68-6.26-6.67-14.85.01-8.7,2.86-14.76,6.92-14.71,3.86.05,6.55,6.25,6.53,15.06-.02,8.56-2.8,14.53-6.78,14.5"/>
      <path class="cls-3" d="m667.64,166.35c-4.03.02-6.85-6.13-6.83-14.9.02-8.54,2.84-14.66,6.75-14.66s6.73,6.15,6.74,14.69c.01,8.6-2.78,14.84-6.66,14.87"/>
      <path class="cls-3" d="m375.91,166.35c-3.9,0-6.71-6.18-6.72-14.73,0-8.75,2.82-14.86,6.86-14.83,3.89.03,6.59,6.17,6.58,14.94,0,8.65-2.76,14.63-6.73,14.62"/>
      <path class="cls-3" d="m398.36,166.35c-3.9,0-6.71-6.18-6.72-14.73,0-8.75,2.82-14.86,6.86-14.83,3.89.03,6.59,6.17,6.58,14.94,0,8.65-2.76,14.63-6.73,14.62"/>
      <path class="cls-3" d="m1082.6,42.79c-3.9.04-6.75-6.12-6.76-14.64-.01-8.8,2.68-14.97,6.55-15.01,4-.04,6.83,5.87,6.85,14.35.03,8.95-2.71,15.26-6.65,15.31"/>
      <path class="cls-3" d="m353.44,166.35c-3.89-.02-6.69-6.23-6.69-14.8,0-8.72,2.85-14.8,6.9-14.76,3.85.04,6.63,6.37,6.59,15.01-.03,8.5-2.87,14.57-6.8,14.55"/>
      <path class="cls-3" d="m331.31,136.79c3.81.07,6.49,6.37,6.46,15.22-.03,8.62-2.89,14.46-7.04,14.34-3.69-.1-6.44-6.56-6.41-15.01.03-8.64,2.91-14.62,6.99-14.55"/>
      <path class="cls-3" d="m308.62,136.79c3.92,0,6.74,6.11,6.76,14.65.02,8.77-2.8,14.94-6.82,14.91-3.88-.02-6.68-6.26-6.67-14.85.01-8.55,2.83-14.7,6.73-14.71"/>
      <path class="cls-3" d="m308.62,87.38c3.92,0,6.74,6.11,6.76,14.65.02,8.77-2.8,14.94-6.82,14.91-3.88-.02-6.68-6.26-6.67-14.85.01-8.55,2.83-14.7,6.73-14.71"/>
      <path class="cls-3" d="m292.91,151.65c0,8.71-2.73,14.7-6.69,14.71-3.91,0-6.74-6.11-6.76-14.65-.02-8.77,2.8-14.94,6.82-14.91,3.92.02,6.63,6.1,6.62,14.85"/>
      <path class="cls-3" d="m292.91,102.23c0,8.71-2.73,14.7-6.69,14.71-3.91,0-6.74-6.11-6.76-14.65-.02-8.77,2.8-14.94,6.82-14.91,3.92.02,6.63,6.09,6.62,14.85"/>
      <path class="cls-3" d="m263.82,136.79c3.89.01,6.7,6.21,6.7,14.79,0,8.72-2.84,14.81-6.89,14.77-3.86-.04-6.64-6.35-6.6-14.99.03-8.51,2.86-14.58,6.79-14.57"/>
      <path class="cls-3" d="m241.41,136.79c3.93.02,6.64,6.08,6.64,14.82,0,8.86-2.76,14.78-6.86,14.73-3.85-.04-6.62-6.38-6.58-15.03.04-8.5,2.87-14.55,6.81-14.53"/>
      <path class="cls-3" d="m218.99,166.35c-4.03.02-6.85-6.14-6.83-14.9.02-8.54,2.84-14.66,6.75-14.66,3.91,0,6.72,6.15,6.74,14.7.01,8.6-2.79,14.84-6.66,14.86"/>
      <path class="cls-3" d="m196.51,136.79c3.95.01,6.67,6.03,6.67,14.76,0,8.9-2.74,14.84-6.83,14.8-3.86-.03-6.64-6.34-6.61-14.96.03-8.52,2.86-14.61,6.78-14.6"/>
      <path class="cls-3" d="m158.32,151.6c0,8.73-2.72,14.75-6.67,14.76-3.93.01-6.75-6.08-6.78-14.6-.03-8.78,2.79-14.98,6.8-14.96,3.93.02,6.65,6.07,6.65,14.81"/>
      <path class="cls-3" d="m158.32,199.7c0,8.73-2.72,14.75-6.67,14.76-3.93.01-6.75-6.08-6.78-14.6-.03-8.78,2.79-14.98,6.8-14.96,3.93.01,6.65,6.07,6.65,14.8"/>
      <path class="cls-3" d="m1053.41,27.95c0-8.74,2.71-14.81,6.64-14.82,3.97-.02,6.86,6.28,6.85,14.95,0,8.28-2.99,14.72-6.81,14.7-3.88-.02-6.67-6.23-6.68-14.83"/>
      <path class="cls-3" d="m1089.24,126.72c0,8.67-2.74,14.92-6.6,14.99-3.98.08-6.81-6.13-6.8-14.95,0-8.7,2.73-14.7,6.7-14.7s6.7,5.99,6.71,14.66"/>
      <path class="cls-3" d="m1060.15,112.06c3.87.01,6.7,6.2,6.74,14.76.04,8.32-2.91,14.84-6.72,14.89-3.98.05-6.77-6.17-6.76-15.05.01-8.64,2.77-14.61,6.74-14.6"/>
      <path class="cls-3" d="m1044.38,126.67c.01,8.87-2.79,15.09-6.76,15.05-3.87-.04-6.64-6.27-6.64-14.9,0-8.73,2.72-14.74,6.67-14.75,3.97-.01,6.72,5.96,6.74,14.6"/>
      <path class="cls-3" d="m1008.54,126.94c0-8.77,2.7-14.86,6.61-14.88,3.98-.03,6.86,6.22,6.87,14.89,0,8.29-2.97,14.76-6.78,14.76s-6.7-6.19-6.7-14.77"/>
      <path class="cls-3" d="m1044.38,27.87c0,8.64-2.77,14.87-6.64,14.92-3.98.05-6.78-6.17-6.77-15.03,0-8.65,2.76-14.63,6.73-14.62,3.96.01,6.67,6.01,6.68,14.74"/>
      <path class="cls-3" d="m999.52,126.85c0,8.61-2.79,14.83-6.66,14.86-3.97.03-6.76-6.2-6.74-15.09.01-8.61,2.78-14.58,6.75-14.56,3.94.01,6.65,6.05,6.65,14.79"/>
      <path class="cls-3" d="m1015.21,13.13c3.96-.01,6.85,6.34,6.83,15-.02,8.26-3.02,14.69-6.84,14.65-3.87-.03-6.65-6.25-6.65-14.88s2.72-14.76,6.66-14.77"/>
      <path class="cls-3" d="m970.4,112.06c3.92,0,6.83,6.5,6.78,15.13-.05,8.07-3.01,14.47-6.72,14.52-3.98.06-6.79-6.15-6.78-15.01,0-8.66,2.76-14.65,6.72-14.65"/>
      <path class="cls-3" d="m999.52,28.05c0,8.56-2.83,14.75-6.72,14.73-3.95-.01-6.71-6.28-6.69-15.21.02-8.53,2.82-14.47,6.81-14.44,3.9.03,6.6,6.15,6.6,14.92"/>
      <path class="cls-3" d="m948.06,13.13c3.89.03,6.6,6.16,6.59,14.92,0,8.56-2.83,14.75-6.72,14.73-3.95-.01-6.71-6.29-6.69-15.22.02-8.53,2.82-14.47,6.81-14.44"/>
      <path class="cls-3" d="m918.81,27.72c.01-8.63,2.77-14.6,6.75-14.59,3.91.01,6.81,6.54,6.75,15.18-.06,8.22-3.1,14.57-6.93,14.47-3.85-.1-6.58-6.36-6.57-15.06"/>
      <path class="cls-3" d="m909.79,27.77c0,8.68-2.73,14.93-6.59,15.02-3.99.09-6.82-6.12-6.82-14.93,0-8.72,2.72-14.71,6.68-14.72,3.96,0,6.72,5.98,6.72,14.64"/>
      <path class="cls-3" d="m954.65,126.85c0,8.62-2.78,14.83-6.66,14.87-3.97.03-6.76-6.2-6.75-15.08.01-8.62,2.78-14.59,6.75-14.57,3.94.01,6.65,6.05,6.65,14.79"/>
      <path class="cls-3" d="m918.81,126.97c0-8.77,2.7-14.88,6.6-14.9,3.99-.03,6.87,6.19,6.88,14.87.01,8.29-2.96,14.77-6.77,14.78-3.89.01-6.71-6.18-6.72-14.75"/>
      <path class="cls-3" d="m909.79,126.91c0,8.59-2.81,14.79-6.69,14.8-3.96.01-6.73-6.24-6.72-15.14.02-8.57,2.8-14.53,6.78-14.51,3.92.02,6.63,6.09,6.62,14.85"/>
      <path class="cls-3" d="m873.95,27.83c0-8.7,2.74-14.69,6.7-14.69s6.84,6.45,6.8,15.08c-.04,8.23-3.05,14.64-6.88,14.57-3.87-.06-6.62-6.3-6.62-14.96"/>
      <path class="cls-3" d="m851.67,27.83c0-8.7,2.74-14.69,6.7-14.69s6.84,6.45,6.8,15.08c-.04,8.23-3.06,14.64-6.88,14.57-3.87-.06-6.62-6.3-6.62-14.96"/>
      <path class="cls-3" d="m873.95,126.82c0-8.74,2.72-14.75,6.67-14.76,3.95-.01,6.85,6.36,6.82,15.01-.02,8.25-3.03,14.68-6.84,14.64-3.87-.04-6.65-6.26-6.65-14.89"/>
      <path class="cls-3" d="m858.46,112.06c3.81.07,6.49,6.37,6.46,15.22-.03,8.46-2.92,14.55-6.85,14.44-3.89-.11-6.6-6.51-6.55-15.51.04-8.35,2.93-14.22,6.95-14.14"/>
      <path class="cls-3" d="m813.34,13.13c3.96,0,6.71,5.99,6.72,14.65,0,8.85-2.8,15.06-6.78,15-3.87-.06-6.63-6.29-6.62-14.94,0-8.71,2.73-14.7,6.69-14.71"/>
      <path class="cls-3" d="m790.98,13.13c3.86.02,6.69,6.26,6.72,14.8.03,8.3-2.93,14.82-6.73,14.85-3.97.03-6.76-6.2-6.75-15.09.01-8.61,2.78-14.58,6.76-14.56"/>
      <path class="cls-3" d="m768.55,42.79c-3.9.04-6.75-6.12-6.76-14.64-.01-8.8,2.68-14.97,6.55-15.01,4-.04,6.83,5.87,6.85,14.35.03,8.95-2.71,15.26-6.65,15.31"/>
      <path class="cls-3" d="m784.22,126.73c0-8.68,2.75-14.67,6.71-14.67,3.92,0,6.83,6.48,6.79,15.11-.04,8.23-3.07,14.61-6.89,14.55-3.86-.07-6.61-6.32-6.61-14.99"/>
      <path class="cls-3" d="m829.04,126.73c0-8.68,2.75-14.67,6.71-14.67,3.92,0,6.83,6.48,6.79,15.11-.04,8.23-3.07,14.62-6.89,14.55-3.86-.07-6.61-6.32-6.61-14.99"/>
      <path class="cls-3" d="m739.36,27.99c0-8.76,2.7-14.84,6.62-14.86,3.98-.02,6.86,6.24,6.86,14.91,0,8.28-2.98,14.75-6.79,14.74-3.88,0-6.69-6.2-6.7-14.79"/>
      <path class="cls-3" d="m716.93,27.84c0-8.72,2.73-14.71,6.69-14.71,4.04,0,6.73,6.04,6.72,15.06-.02,8.51-2.87,14.65-6.78,14.59-3.87-.06-6.63-6.29-6.62-14.94"/>
      <path class="cls-3" d="m694.49,27.98c0-8.75,2.71-14.82,6.63-14.84,3.98-.02,6.86,6.26,6.86,14.93,0,8.28-2.98,14.73-6.8,14.72-3.88-.01-6.68-6.22-6.69-14.81"/>
      <path class="cls-3" d="m685.47,27.81c0,8.66-2.75,14.91-6.61,14.98-3.99.07-6.8-6.13-6.8-14.97,0-8.7,2.74-14.68,6.7-14.68s6.7,5.99,6.7,14.68"/>
      <path class="cls-3" d="m730.33,126.8c0,8.64-2.77,14.87-6.64,14.92-3.98.05-6.78-6.17-6.77-15.03,0-8.65,2.76-14.63,6.73-14.62,3.96.01,6.67,6.01,6.68,14.74"/>
      <path class="cls-3" d="m694.49,127.04c-.01-8.79,2.69-14.94,6.57-14.98,4-.04,6.88,6.11,6.91,14.79.03,8.3-2.92,14.82-6.73,14.86-3.9.04-6.74-6.13-6.75-14.67"/>
      <path class="cls-3" d="m678.8,112.06c3.95.01,6.66,6.03,6.66,14.76,0,8.63-2.78,14.85-6.65,14.89-3.98.04-6.77-6.18-6.76-15.06.01-8.63,2.77-14.6,6.74-14.59"/>
      <path class="cls-3" d="m470.17,28.09c-.01-8.78,2.69-14.93,6.58-14.96,4-.03,6.88,6.14,6.9,14.81.03,8.3-2.93,14.81-6.74,14.84-3.9.03-6.73-6.14-6.74-14.69"/>
      <path class="cls-3" d="m380.45,126.73c0-8.68,2.75-14.67,6.71-14.67,3.92,0,6.83,6.48,6.79,15.11-.04,8.23-3.07,14.61-6.89,14.55-3.86-.07-6.61-6.32-6.61-14.99"/>
      <path class="cls-3" d="m454.46,13.13c3.96,0,6.68,6,6.69,14.71,0,8.65-2.76,14.89-6.62,14.94-3.98.06-6.79-6.15-6.78-15.01,0-8.66,2.76-14.65,6.72-14.65"/>
      <path class="cls-3" d="m431.92,13.13c3.98-.03,6.87,6.21,6.88,14.89,0,8.29-2.97,14.77-6.78,14.77-3.89,0-6.7-6.19-6.71-14.77,0-8.77,2.7-14.86,6.61-14.89"/>
      <path class="cls-3" d="m402.88,27.84c0-8.72,2.73-14.71,6.69-14.71,4.04,0,6.74,6.04,6.72,15.06-.02,8.51-2.87,14.65-6.78,14.59-3.87-.06-6.63-6.29-6.62-14.94"/>
      <path class="cls-3" d="m387.11,13.13c3.95-.01,6.85,6.35,6.83,15.01-.02,8.25-3.03,14.68-6.84,14.64-3.87-.04-6.65-6.26-6.65-14.89,0-8.74,2.72-14.75,6.67-14.76"/>
      <path class="cls-3" d="m371.42,127.02c-.01,8.55-2.84,14.72-6.74,14.7-3.94-.02-6.69-6.31-6.67-15.25.02-8.51,2.84-14.44,6.83-14.4,3.88.04,6.59,6.18,6.58,14.96"/>
      <path class="cls-3" d="m342.19,112.06c3.98-.03,6.87,6.21,6.87,14.89,0,8.29-2.96,14.77-6.78,14.77-3.89,0-6.7-6.19-6.71-14.77,0-8.77,2.7-14.86,6.61-14.89"/>
      <path class="cls-3" d="m326.56,126.97c0,8.57-2.82,14.76-6.71,14.75-3.95,0-6.71-6.28-6.69-15.2.02-8.54,2.81-14.48,6.81-14.45,3.9.03,6.61,6.14,6.6,14.91"/>
      <path class="cls-3" d="m290.72,126.93c0-8.76,2.7-14.84,6.62-14.87,3.98-.02,6.86,6.23,6.87,14.9,0,8.28-2.97,14.75-6.79,14.75-3.88,0-6.7-6.2-6.7-14.78"/>
      <path class="cls-3" d="m274.94,112.06c3.97-.01,6.74,5.95,6.75,14.57.01,8.88-2.78,15.12-6.75,15.08-3.87-.03-6.66-6.25-6.66-14.87s2.72-14.77,6.66-14.78"/>
      <path class="cls-3" d="m245.85,126.72c0-8.67,2.75-14.67,6.71-14.66,3.92,0,6.83,6.48,6.78,15.11-.04,8.23-3.07,14.61-6.89,14.55-3.86-.07-6.61-6.32-6.6-14.99"/>
      <path class="cls-3" d="m236.83,126.98c0,8.56-2.83,14.75-6.72,14.74-3.95-.01-6.71-6.28-6.69-15.21.02-8.54,2.82-14.48,6.81-14.45,3.9.03,6.6,6.15,6.6,14.92"/>
      <path class="cls-3" d="m252.62,13.13c3.85.02,6.69,6.28,6.71,14.82.02,8.3-2.93,14.81-6.74,14.83-3.97.03-6.75-6.21-6.74-15.11.01-8.6,2.79-14.56,6.77-14.54"/>
      <path class="cls-3" d="m252.62,62.6c3.85.02,6.69,6.28,6.71,14.82.02,8.3-2.93,14.81-6.74,14.83-3.97.03-6.75-6.21-6.74-15.11.01-8.59,2.79-14.56,6.77-14.54"/>
      <path class="cls-3" d="m236.83,27.87c0,8.64-2.77,14.87-6.63,14.92-3.98.05-6.78-6.17-6.77-15.03,0-8.65,2.76-14.63,6.73-14.62,3.96,0,6.67,6.01,6.68,14.73"/>
      <path class="cls-3" d="m200.99,27.88c0-8.73,2.72-14.74,6.68-14.75,3.95,0,6.84,6.37,6.82,15.03-.02,8.25-3.03,14.67-6.85,14.62-3.87-.04-6.64-6.27-6.64-14.91"/>
      <path class="cls-3" d="m178.56,27.95c0-8.74,2.72-14.8,6.64-14.81,4.07-.02,6.77,5.97,6.77,14.95-.01,8.55-2.84,14.72-6.73,14.7-3.88-.02-6.67-6.24-6.67-14.84"/>
      <path class="cls-3" d="m200.99,126.81c0-8.73,2.72-14.74,6.68-14.75,3.95,0,6.84,6.38,6.82,15.03-.02,8.25-3.03,14.67-6.85,14.62-3.87-.05-6.64-6.27-6.64-14.91"/>
      <path class="cls-3" d="m207.69,191.79c-3.96,0-6.69-5.99-6.7-14.69,0-8.95,2.72-14.9,6.8-14.87,3.87.03,6.66,6.29,6.64,14.9-.02,8.54-2.84,14.66-6.75,14.66"/>
      <path class="cls-3" d="m200.99,226.44c0-8.73,2.72-14.74,6.68-14.75,3.95,0,6.84,6.38,6.82,15.03-.02,8.25-3.03,14.67-6.85,14.62-3.87-.05-6.64-6.27-6.64-14.91"/>
      <path class="cls-3" d="m178.56,126.68c0-8.65,2.76-14.63,6.73-14.62,4.01,0,6.7,6.1,6.68,15.15-.02,8.48-2.9,14.59-6.82,14.5-3.85-.09-6.59-6.34-6.58-15.03"/>
      <path class="cls-3" d="m156.13,27.72c.01-8.63,2.77-14.6,6.75-14.58,3.87.01,6.7,6.22,6.73,14.78.04,8.47-2.99,14.98-6.91,14.88-3.85-.1-6.58-6.37-6.57-15.07"/>
      <path class="cls-3" d="m156.13,126.69c0-8.66,2.76-14.64,6.73-14.63,3.92,0,6.82,6.51,6.77,15.14-.05,8.22-3.09,14.59-6.91,14.51-3.86-.08-6.6-6.33-6.59-15.02"/>
      <path class="cls-3" d="m162.77,191.79c-3.93-.02-6.65-6.07-6.65-14.81,0-8.86,2.76-14.8,6.86-14.75,3.85.04,6.63,6.37,6.59,15.01-.04,8.5-2.87,14.57-6.8,14.55"/>
      <path class="cls-3" d="m156.13,226.32c0-8.66,2.76-14.64,6.73-14.63,3.92,0,6.82,6.51,6.77,15.14-.05,8.22-3.09,14.59-6.91,14.51-3.86-.08-6.6-6.33-6.59-15.02"/>
      <path class="cls-3" d="m133.69,126.77c0-8.72,2.73-14.71,6.69-14.71,4.04,0,6.73,6.04,6.72,15.05-.02,8.51-2.87,14.66-6.78,14.6-3.87-.06-6.63-6.29-6.62-14.94"/>
      <path class="cls-3" d="m13.45,151.6c0,8.73-2.72,14.75-6.67,14.76C2.85,166.36.03,160.28,0,151.75c-.03-8.78,2.79-14.98,6.8-14.96,3.93.02,6.65,6.07,6.65,14.81"/>
      <path class="cls-3" d="m13.45,199.7c0,8.73-2.72,14.75-6.67,14.76C2.85,214.46.03,208.37,0,199.85c-.03-8.78,2.79-14.98,6.8-14.96,3.93.01,6.65,6.07,6.65,14.8"/>
      <path class="cls-3" d="m17.9,191.79c-3.93-.02-6.65-6.07-6.65-14.81,0-8.86,2.76-14.8,6.86-14.75,3.85.04,6.63,6.37,6.59,15.01-.04,8.5-2.87,14.57-6.8,14.55"/>
      <path class="cls-3" d="m133.69,28.01c0-8.76,2.7-14.86,6.61-14.88,4.08-.03,6.8,5.93,6.79,14.89,0,8.58-2.82,14.77-6.7,14.77-3.89,0-6.7-6.19-6.7-14.77"/>
      <path class="cls-3" d="m111.26,126.93c0-8.76,2.7-14.84,6.62-14.87,3.98-.02,6.86,6.23,6.87,14.9,0,8.28-2.98,14.75-6.79,14.75-3.88,0-6.7-6.2-6.7-14.78"/>
      <path class="cls-3" d="m779.75,87.33c3.94.01,6.66,6.04,6.66,14.77s-2.78,14.84-6.65,14.88c-3.95.04-6.83-6.33-6.79-15.07.03-8.52,2.86-14.59,6.79-14.58"/>
      <path class="cls-3" d="m802.06,87.33c3.94.01,6.66,6.04,6.66,14.77s-2.78,14.84-6.65,14.88c-3.95.04-6.83-6.33-6.79-15.07.03-8.52,2.86-14.59,6.79-14.58"/>
      <path class="cls-3" d="m831.28,102.11c0,8.62-2.78,14.84-6.65,14.88-3.95.04-6.82-6.33-6.79-15.07.03-8.52,2.86-14.59,6.79-14.58,3.94.01,6.66,6.04,6.66,14.78"/>
      <path class="cls-3" d="m102.24,126.99c0,8.56-2.83,14.74-6.72,14.72-3.95-.02-6.7-6.29-6.68-15.23.02-8.53,2.82-14.46,6.82-14.43,3.89.03,6.6,6.16,6.59,14.93"/>
      <path class="cls-3" d="m66.4,126.94c0-8.77,2.7-14.85,6.62-14.88,3.98-.02,6.86,6.22,6.87,14.9,0,8.29-2.97,14.76-6.78,14.76s-6.7-6.2-6.7-14.78"/>
      <path class="cls-3" d="m57.37,127.01c0,8.55-2.84,14.73-6.73,14.7-3.94-.02-6.7-6.31-6.67-15.25.02-8.51,2.83-14.44,6.83-14.41,3.88.03,6.59,6.18,6.58,14.95"/>
      <path class="cls-3" d="m35.56,127.01c0,8.55-2.84,14.73-6.73,14.7-3.94-.02-6.7-6.31-6.67-15.25.02-8.51,2.83-14.44,6.83-14.41,3.88.03,6.59,6.18,6.58,14.95"/>
      <path class="cls-3" d="m847.1,87.33c3.87.02,6.67,6.28,6.65,14.88-.01,8.52-2.88,14.78-6.74,14.73-3.99-.05-6.8-6.33-6.75-15.12.05-8.48,2.89-14.51,6.84-14.48"/>
      <path class="cls-3" d="m869.42,87.33c3.97,0,6.72,5.98,6.72,14.63,0,8.86-2.8,15.08-6.78,15.02-3.84-.05-6.68-6.4-6.67-14.93,0-8.55,2.83-14.72,6.72-14.72"/>
      <path class="cls-3" d="m1145.32,3.27c0,8.58-2.81,14.78-6.7,14.78-3.87,0-6.73-6.26-6.75-14.76-.02-8.76,2.81-14.92,6.83-14.9,3.91.02,6.62,6.11,6.61,14.88"/>
      <path class="cls-3" d="m1167.61,3.27c0,8.58-2.81,14.78-6.7,14.78-3.86,0-6.73-6.26-6.75-14.76-.02-8.76,2.81-14.92,6.83-14.9,3.91.02,6.62,6.11,6.61,14.88"/>
      <path class="cls-3" d="m1116.26-11.6c3.88.02,6.69,6.24,6.68,14.83,0,8.55-2.86,14.82-6.72,14.78-4-.04-6.81-6.3-6.77-15.08.04-8.5,2.87-14.55,6.81-14.53"/>
      <path class="cls-3" d="m1093.82-11.6c3.93.02,6.65,6.07,6.64,14.81,0,8.6-2.79,14.81-6.67,14.84-3.95.02-6.81-6.36-6.78-15.11.04-8.5,2.87-14.56,6.81-14.55"/>
      <path class="cls-3" d="m1071.42-11.6c3.87.02,6.67,6.28,6.65,14.88-.02,8.52-2.88,14.78-6.74,14.72-3.99-.05-6.79-6.33-6.75-15.13.05-8.48,2.89-14.5,6.84-14.48"/>
      <path class="cls-3" d="m1048.84-11.6c3.97-.01,6.74,5.95,6.75,14.57.01,8.88-2.78,15.12-6.75,15.08-3.86-.04-6.7-6.35-6.7-14.87,0-8.57,2.81-14.77,6.7-14.78"/>
      <path class="cls-3" d="m1100.46,102.22c0,8.57-2.82,14.76-6.71,14.76-3.87,0-6.72-6.27-6.74-14.78-.02-8.76,2.81-14.9,6.84-14.88,3.91.03,6.61,6.13,6.6,14.9"/>
      <path class="cls-3" d="m1071.29,87.33c3.93-.01,6.75,6.08,6.78,14.6.03,8.58-2.8,15-6.62,15.02-4.02.02-6.88-6.17-6.87-14.87,0-8.56,2.82-14.74,6.71-14.75"/>
      <path class="cls-3" d="m1055.6,102.12c0,8.62-2.79,14.83-6.66,14.87-3.95.03-6.82-6.34-6.79-15.08.03-8.51,2.86-14.58,6.79-14.57,3.94.01,6.65,6.05,6.65,14.79"/>
      <path class="cls-3" d="m1026.46,87.33c3.91,0,6.73,6.14,6.74,14.68.02,8.55-2.83,14.94-6.65,14.94-4.01,0-6.85-6.21-6.84-14.94.02-8.54,2.84-14.67,6.75-14.67"/>
      <path class="cls-3" d="m275.1,13.18c3.89.03,6.6,6.16,6.59,14.92,0,8.79-2.8,14.7-6.91,14.64-3.84-.06-6.52-6.3-6.5-15.12.02-8.53,2.82-14.47,6.81-14.44"/>
      <path class="cls-3" d="m1026.45,18c-3.99-.05-6.79-6.35-6.74-15.15.05-8.46,2.9-14.48,6.85-14.45,3.87.03,6.66,6.3,6.64,14.91-.02,8.51-2.89,14.75-6.75,14.7"/>
      <path class="cls-3" d="m936.78-11.6c3.89.01,6.7,6.21,6.7,14.78,0,8.56-2.84,14.86-6.7,14.83-4-.02-6.83-6.26-6.79-15.03.03-8.52,2.86-14.59,6.79-14.58"/>
      <path class="cls-3" d="m959.26-11.6c3.89.01,6.7,6.21,6.7,14.78,0,8.56-2.84,14.86-6.7,14.83-4-.02-6.82-6.26-6.79-15.03.03-8.52,2.86-14.59,6.79-14.58"/>
      <path class="cls-3" d="m1004.27,87.33c3.81.07,6.49,6.37,6.46,15.22-.03,8.46-2.92,14.55-6.85,14.44-3.83-.11-6.63-6.52-6.59-15.1.03-8.64,2.91-14.63,6.99-14.55"/>
      <path class="cls-3" d="m914.26-11.6c3.97-.01,6.73,5.96,6.74,14.6.01,8.87-2.78,15.1-6.76,15.06-3.85-.04-6.69-6.37-6.69-14.89,0-8.56,2.81-14.75,6.71-14.76"/>
      <path class="cls-3" d="m891.83-11.6c3.93-.01,6.75,6.07,6.78,14.6.03,8.58-2.8,15.01-6.62,15.03-4.02.02-6.88-6.17-6.87-14.87,0-8.56,2.82-14.75,6.71-14.76"/>
      <path class="cls-3" d="m981.55,87.33c3.93-.01,6.76,6.06,6.79,14.57.03,8.58-2.79,15.03-6.6,15.06-4.02.03-6.89-6.15-6.89-14.84,0-8.57,2.81-14.77,6.7-14.79"/>
      <path class="cls-3" d="m876.14,3.24c0,8.59-2.8,14.8-6.68,14.81-3.86.02-6.74-6.25-6.77-14.72-.02-8.77,2.8-14.95,6.82-14.93,3.92.02,6.63,6.09,6.63,14.84"/>
      <path class="cls-3" d="m965.87,102.08c0,8.63-2.77,14.86-6.64,14.9-3.96.04-6.83-6.32-6.8-15.05.03-8.52,2.85-14.61,6.78-14.6,3.95.01,6.67,6.02,6.67,14.76"/>
      <path class="cls-3" d="m936.73,116.93c-3.99-.06-6.79-6.35-6.74-15.15.05-8.46,2.9-14.48,6.85-14.45,3.87.03,6.66,6.3,6.64,14.9-.02,8.51-2.89,14.76-6.75,14.7"/>
      <path class="cls-3" d="m914.21,87.33c3.99-.03,6.78,5.92,6.79,14.48.02,8.92-2.75,15.17-6.71,15.17-3.87,0-6.72-6.27-6.74-14.78-.02-8.6,2.78-14.85,6.65-14.88"/>
      <path class="cls-3" d="m158.32,3.16c0,8.63-2.77,14.85-6.65,14.9-3.96.04-6.83-6.32-6.8-15.05.03-8.52,2.85-14.61,6.78-14.6,3.95.01,6.67,6.03,6.67,14.76"/>
      <path class="cls-3" d="m174.04,18c-3.99-.05-6.79-6.34-6.74-15.14.05-8.47,2.9-14.49,6.84-14.46,3.87.03,6.67,6.29,6.65,14.89-.02,8.51-2.88,14.76-6.75,14.71"/>
      <path class="cls-3" d="m203.18,3.22c0,8.6-2.8,14.81-6.68,14.83-3.86.02-6.75-6.24-6.77-14.71-.02-8.78,2.79-14.96,6.81-14.94,3.93.02,6.64,6.08,6.64,14.82"/>
      <path class="cls-3" d="m225.65,3.5c-.05,8.47-2.94,14.58-6.84,14.48-3.97-.1-6.72-6.45-6.64-15.33.08-8.55,3-14.39,7.12-14.25,3.66.12,6.41,6.65,6.36,15.1"/>
      <path class="cls-3" d="m248.04,3.24c0,8.59-2.8,14.8-6.68,14.81-3.86.02-6.74-6.24-6.77-14.72-.02-8.77,2.8-14.95,6.82-14.93,3.92.02,6.63,6.09,6.63,14.84"/>
      <path class="cls-3" d="m263.82-11.6c3.89.01,6.7,6.21,6.7,14.78,0,8.56-2.84,14.86-6.7,14.83-4-.02-6.82-6.27-6.79-15.04.03-8.51,2.86-14.58,6.79-14.57"/>
      <path class="cls-3" d="m263.82,87.35c3.89.01,6.7,6.21,6.7,14.78,0,8.56-2.84,14.85-6.7,14.83-4-.02-6.82-6.27-6.79-15.04.03-8.51,2.86-14.58,6.79-14.57"/>
      <path class="cls-3" d="m292.91,3.18c0,8.62-2.78,14.84-6.65,14.88-3.95.04-6.82-6.33-6.79-15.07.03-8.52,2.86-14.59,6.79-14.58,3.94.01,6.66,6.04,6.66,14.78"/>
      <path class="cls-3" d="m891.81,87.33c3.93-.02,6.77,6.05,6.8,14.56.03,8.59-2.79,15.04-6.6,15.07-4.02.03-6.89-6.14-6.89-14.83,0-8.58,2.8-14.79,6.69-14.8"/>
      <path class="cls-3" d="m382.64,3.22c0,8.6-2.8,14.81-6.67,14.83-3.86.02-6.75-6.24-6.77-14.7-.03-8.78,2.79-14.97,6.81-14.95,3.93.02,6.64,6.08,6.64,14.82"/>
      <path class="cls-3" d="m360.23,3.25c0,8.6-2.8,14.81-6.67,14.83-3.87.02-6.75-6.24-6.77-14.7-.03-8.78,2.79-14.97,6.81-14.95,3.93.02,6.64,6.08,6.64,14.82"/>
      <path class="cls-3" d="m398.34-11.6c3.92,0,6.75,6.09,6.77,14.62.02,8.58-2.81,14.99-6.62,15.01-4.02.02-6.87-6.17-6.86-14.89,0-8.55,2.82-14.73,6.72-14.74"/>
      <path class="cls-3" d="m420.78-11.6c3.96,0,6.71,5.98,6.72,14.65,0,8.85-2.8,15.07-6.78,15.01-3.84-.06-6.68-6.42-6.67-14.94.01-8.55,2.83-14.71,6.73-14.71"/>
      <path class="cls-3" d="m449.97,3.25c-.01,8.54-2.87,14.79-6.73,14.75-3.99-.04-6.8-6.32-6.76-15.11.04-8.49,2.88-14.52,6.83-14.5,3.88.02,6.68,6.26,6.66,14.86"/>
      <path class="cls-3" d="m472.36,3.37c-.01,8.54-2.85,14.71-6.74,14.68-3.86-.03-6.7-6.34-6.7-14.86,0-8.73,2.84-14.83,6.88-14.8,3.88.04,6.58,6.19,6.57,14.98"/>
      <path class="cls-3" d="m488.09-11.6c3.91,0,6.73,6.13,6.75,14.67.02,8.55-2.83,14.95-6.65,14.95-4.01,0-6.86-6.2-6.84-14.93.01-8.54,2.83-14.69,6.74-14.69"/>
      <path class="cls-3" d="m712.35-11.6c3.94-.02,6.77,6.02,6.81,14.53.04,8.58-2.79,15.06-6.58,15.1-4.02.04-6.9-6.13-6.91-14.8,0-8.59,2.8-14.81,6.68-14.83"/>
      <path class="cls-3" d="m689.89-11.6c3.94-.02,6.77,6.02,6.81,14.53.04,8.58-2.79,15.06-6.58,15.1-4.02.04-6.9-6.13-6.91-14.8,0-8.59,2.8-14.81,6.68-14.83"/>
      <path class="cls-3" d="m734.92-11.6c3.92.02,6.63,6.09,6.63,14.84,0,8.59-2.81,14.8-6.68,14.81-3.95.01-6.8-6.38-6.76-15.14.04-8.5,2.88-14.54,6.82-14.52"/>
      <path class="cls-3" d="m757.35-11.6c3.88.02,6.68,6.25,6.67,14.84-.01,8.54-2.86,14.81-6.73,14.77-4-.04-6.81-6.31-6.77-15.09.04-8.5,2.88-14.54,6.82-14.52"/>
      <path class="cls-3" d="m779.64-11.6c3.98-.02,6.76,5.95,6.77,14.53.02,8.9-2.76,15.14-6.73,15.13-3.86-.02-6.71-6.31-6.72-14.82,0-8.59,2.79-14.81,6.68-14.83"/>
      <path class="cls-3" d="m802.13,18c-3.99-.06-6.78-6.36-6.73-15.16.05-8.58,2.96-14.54,7.04-14.44,3.71.09,6.47,6.48,6.45,14.92-.02,8.5-2.89,14.74-6.76,14.68"/>
      <path class="cls-3" d="m656.35,92.16c-4.04,0-6.71-5.98-6.72-15.07-.01-8.48,2.81-14.52,6.78-14.49,3.88.02,6.67,6.26,6.66,14.84,0,8.54-2.83,14.71-6.72,14.71"/>
      <path class="cls-3" d="m409.55,92.16c-3.95,0-6.67-6.01-6.67-14.73,0-8.92,2.73-14.87,6.81-14.83,3.89.03,6.6,6.15,6.59,14.91,0,8.54-2.82,14.66-6.73,14.65"/>
      <path class="cls-3" d="m656.33,191.08c-3.75,0-6.68-6.06-6.7-13.84-.03-9.68,2.6-15.75,6.81-15.72,3.86.03,6.66,6.3,6.64,14.89-.02,8.54-2.84,14.67-6.74,14.67"/>
      <path class="cls-3" d="m111.26,28.03c-.42-8.88,3.37-14.51,6.87-14.82,3.75-.34,6.64,6.42,6.62,14.91-.02,8.24-3,14.68-6.81,14.67-3.87-.01-6.68-6.21-6.69-14.76"/>
      <path class="cls-3" d="m364.65,13.13c3.97-.02,6.76,5.95,6.77,14.5.02,8.9-2.75,15.15-6.71,15.15-3.58,0-6.9-6.31-6.64-13.51.34-9.36,1.66-15.82,6.58-16.14"/>
    </g>
  </g>
</svg>