<?xml version="1.0" encoding="UTF-8"?>
<svg id="Layer_2" data-name="Layer 2" xmlns="http://www.w3.org/2000/svg" viewBox="0 0 1280 266.67">
  <defs>
    <style>
      .cls-1 {
        fill: #f60;
        stroke-width: 0px;
      }
    </style>
  </defs>
  <g id="Layer_1-2" data-name="Layer 1">
    <g>
      <polygon class="cls-1" points="142.4 0 145 7.57 147.74 0 142.4 0"/>
      <polygon class="cls-1" points="82.26 101.11 95.83 94.23 82.5 85.42 82.26 101.11"/>
      <polygon class="cls-1" points="116.12 249.9 102.56 256.83 115.9 265.59 116.12 249.9"/>
      <polygon class="cls-1" points="153.39 256.65 166.69 265.69 166.98 250 153.39 256.65"/>
      <polygon class="cls-1" points="217.05 249.9 203.48 256.79 216.81 265.59 217.05 249.9"/>
      <polygon class="cls-1" points="258.55 255.95 271.61 266.56 272.29 250.93 258.55 255.95"/>
      <polygon class="cls-1" points="350.22 244.41 336.29 243.87 348.23 259.5 350.22 244.41"/>
      <polygon class="cls-1" points="479.51 134.04 467.5 149.43 481.44 149.17 479.51 134.04"/>
      <polygon class="cls-1" points="506.13 0 503.9 10.9 510.81 0 506.13 0"/>
      <polygon class="cls-1" points="697.31 0 700.49 7.08 702.42 0 697.31 0"/>
      <polygon class="cls-1" points="660.9 163.15 666.56 135.43 655.29 153.28 660.9 163.15"/>
      <polygon class="cls-1" points="805.73 104.33 806.41 134.62 812.78 107.64 805.73 104.33"/>
      <polygon class="cls-1" points="826.01 102.73 812.09 101.65 823.9 117.75 826.01 102.73"/>
      <polygon class="cls-1" points="870.28 175.18 862.72 149.71 863.42 180 870.28 175.18"/>
      <polygon class="cls-1" points="972.58 256.02 985.63 266.67 986.33 251.04 972.58 256.02"/>
      <polygon class="cls-1" points="1083.79 139.18 1076.04 164.39 1088.54 151 1083.79 139.18"/>
      <polygon class="cls-1" points="1134.3 35.76 1126.27 60.54 1138.92 47.82 1134.3 35.76"/>
      <polygon class="cls-1" points="365.27 42.19 364.86 11.88 358.25 38.57 365.27 42.19"/>
      <polygon class="cls-1" points="347.69 110.15 354.79 84.06 342.65 98.93 347.69 110.15"/>
      <polygon class="cls-1" points="316.29 107.92 330.22 108.38 318.26 92.81 316.29 107.92"/>
      <polygon class="cls-1" points="260.5 95.11 274.41 93.31 261.95 79.73 260.5 95.11"/>
      <polygon class="cls-1" points="269.91 35.4 261.19 59.06 274.17 48.06 269.91 35.4"/>
      <polygon class="cls-1" points="862.94 0 861.04 21.28 868.24 20.17 865.04 0 862.94 0"/>
      <polygon class="cls-1" points="823.52 0 828.68 18.28 828.45 0 823.52 0"/>
      <polygon class="cls-1" points="140.97 139.42 127.97 150.33 141.74 155.03 140.97 139.42"/>
      <polygon class="cls-1" points="116.57 239 130.01 231.01 116.53 223.3 116.57 239"/>
      <polygon class="cls-1" points="43.37 222.52 57.28 221.05 44.89 207.18 43.37 222.52"/>
      <polygon class="cls-1" points="69.04 135.24 55.1 135.11 67.14 150.39 69.04 135.24"/>
      <polygon class="cls-1" points="757.29 237.67 769.6 223.45 755.67 222.36 757.29 237.67"/>
      <polygon class="cls-1" points="760.51 126.54 747.65 138.22 761.47 142.1 760.51 126.54"/>
      <polygon class="cls-1" points="787.42 125.69 774.14 134.85 787.75 141.37 787.42 125.69"/>
      <polygon class="cls-1" points="967.85 0 965.36 11.6 972.98 0 967.85 0"/>
      <polygon class="cls-1" points="1000.39 0 1001.89 12.01 1011.39 0 1000.39 0"/>
      <polygon class="cls-1" points="961.79 33.95 975.71 35.16 963.94 18.96 961.79 33.95"/>
      <polygon class="cls-1" points="453.89 193.93 452.19 163.83 446.75 191.76 453.89 193.93"/>
      <polygon class="cls-1" points="447.49 68.38 433.93 75.3 447.27 84.07 447.49 68.38"/>
      <polygon class="cls-1" points="222.54 193.94 211.86 174.47 216.63 202.96 222.54 193.94"/>
      <polygon class="cls-1" points="164.71 208.01 176.75 223.27 169.83 196.95 164.71 208.01"/>
      <polygon class="cls-1" points="211.21 164.3 197.61 157.77 207.89 178.24 211.21 164.3"/>
    </g>
  </g>
</svg>