<?xml version="1.0" encoding="UTF-8"?>
<svg id="Layer_2" data-name="Layer 2" xmlns="http://www.w3.org/2000/svg" viewBox="0 0 1296 270">
  <defs>
    <style>
      .cls-1 {
        fill: none;
      }

      .cls-1, .cls-2 {
        stroke-width: 0px;
      }

      .cls-2 {
        fill: #f60;
      }
    </style>
  </defs>
  <g id="Layer_1-2" data-name="Layer 1">
    <g>
      <path class="cls-1" d="m152.53,1.23c-1.14.73-2.32,1.13-3.48,1.75-12.07,6.5-23.75,15.17-33.58,32.61-7.46,13.23-12.42,29.26-11.22,51.86.47,8.81-2.5,14.02-6.6,13.68-7.39-.61-14.79-1.43-22.17-.91-14.22.99-28.22,5.44-41.64,16.44-9.78,8.01-19,18.07-25.81,36.25-4.09,10.93-6.35,23.19-5.42,37.73.91,14.16,4.48,24.88,9.05,34.2,6.41,13.04,14.08,21.45,22.23,27.76,22.96,17.77,46.59,19.8,70.54,14.16,1.85-.44,3.76-1.08,5.58-.58,15.25,4.2,30.5,4.62,45.76.39,1.66-.46,3.39-.94,5.03-.47,15.19,4.3,30.37,4.65,45.57.62,1.85-.49,3.76-1.05,5.58-.54,15.25,4.21,30.5,4.64,45.76.39,1.42-.4,2.87-.92,4.29-.69,3.31.54,6.6,1.71,9.91,2.26,21.32,3.56,42.34.66,62.75-14.58,1.99-1.49,3.89-1.5,5.87,0,18.1,13.76,36.82,17.21,55.81,15.55,14.15-1.24,28.09-5.56,41.45-16.51,9.71-7.97,18.87-17.96,25.69-35.92,4.86-12.79,6.98-27.19,5.11-43.71-.96-8.45,1.5-14.02,4.49-15.59,5.23-2.76,10.46-5.79,15.52-9.77,9.82-7.72,18.9-18.19,25.85-36.11,6.39-16.49,7.52-37.51,2.3-55.75-1.93-6.75-4.6-12.61-7.18-18.32-3.22-7.12-3.16-14.51.27-21.16,1.96-3.8,3.85-7.97,5.4-12.59.41-1.22.78-2.44,1.14-3.67h-154.17c.41,1.34.84,2.66,1.32,3.95,1.77,4.77,3.8,9.13,5.86,13.3,2.91,5.88,2.68,13.66-.37,20.41-2.63,5.8-5.18,11.95-7.27,18.7-3.21,10.4-3.76,22.21-2.53,34.42.91,9.01-.59,13.96-4.66,16.27-4.61,2.61-9.2,5.4-13.74,8.48-2.19,1.49-4.23,1.67-6.41.02-18.3-13.8-37.2-17.04-56.38-15.34-2.68.24-5.4,1.01-8.04.38-3.04-.72-4.54-5.65-4.65-12.37-.12-7.64-.35-15.29-.67-22.9-.24-5.84,1.45-11.58,4.17-12.87,8.73-4.15,17.21-9.93,25.24-18.64,6.46-7.01,12.37-15.64,16.94-28.13.68-1.86,1.28-3.76,1.83-5.67h-159.13c-.37.54-.78.96-1.2,1.23Zm259.89,142.36c.6-4.75.92-9.67,1.6-14.36.56-3.87,1.17-8.02,2.28-11.13,2.73-7.6,5.31-16.07,8.81-21.6,4.17-6.59,8.63-13.29,14.07-14.65.99-.25,2.01-.63,2.99-.36,4.36,1.22,8.82-.45,13.12,3.18,5.99,5.05,11.08,19.97,11.66,33.8.63,15.16-1.94,27.29-6.97,36.72-2.66,4.99-2.95,10.68-2.36,16.83,2.35,24.14-5.84,45.67-16.03,48.76-.8.24-1.63.03-2.44.03-5.9-.16-10.78-5.02-14.56-15.14-.86-2.29-1.93-4.29-3.03-6.04-3.69-5.89-6.18-13.44-7.25-23.29-.46-4.25-1.27-8.31-1.86-12.49-.95-6.74-.89-13.48-.04-20.28Zm-232.95,15.43c6.72-7.47,15.24-4.63,20.98,6.85.8,1.59,1.85,2.63,2.82,3.73,3.87,4.39,8.04,7.82,11.57,13.26,5.77,8.9,8.31,22.22,7.32,37.4-1.15,17.59-5.74,29.83-13.79,34.77-1.61.99-3.3,1.26-4.96,1.87-3.73-.26-7.02-2.9-10.16-6.96-2.04-2.63-4.35-4.34-6.27-7.29-2.45-3.76-4.86-7.25-7.61-10.09-6.02-6.21-9.44-17.33-10.2-31.9-1.04-19.96,4.06-34.71,10.29-41.64Zm-34.7,78.28c-4.18,1.32-8.39,2.62-12.6,3.15-4.24.54-8.51.12-12.76.12,0-.22,0-.43,0-.65-6.19,0-12.38.44-18.56-.13-5.6-.51-11.18-2.02-16.76-3.26-5.57-1.24-11.14-2.65-16.7-4.05-2.9-.73-5.81-2.53-8.67-2.17-2.92.36-5.57-.77-8.24-2.67-6.9-4.94-13.36-11.72-18.46-23.4-6.35-14.53-6.44-40.02-.04-55.07,3.85-9.07,8.57-13.54,13.98-13.72,3.73-.12,7.53,1.93,10.55,7.35,2.66,4.77,5.48,6.82,8.96,6.58,2.64-.19,5.29,1.65,7.95,2.39,3.19.89,6.39,1.52,9.59,2.35,3.46.9,6.91,2.13,10.39,2.78,3,.56,6.03.49,9.05.76.87.08,1.73.54,2.59.56,3.65.1,7.3.02,10.94.16,2.97.12,5.96.92,8.92.58,4.52-.52,9.09-1.01,13.53-2.84,9.19-3.79,18.79,7.83,21.65,27.03,3.79,25.38-3.59,50.47-15.3,54.16Z"/>
      <path class="cls-1" d="m710.96,2.17c-5.14,3.01-10.33,5.84-15.33,9.75-9.83,7.7-19.03,17.95-25.83,36.13-5.64,15.08-7.5,31.8-3.77,50.3,1.8,8.93,4.6,16.32,7.97,22.67,3.71,6.98,3.72,14.88.17,22.07-1.61,3.25-3.22,6.58-4.57,10.32-3.88,10.68-6.09,22.54-5.26,36.64.83,14.05,4.29,24.73,8.77,34.07,6.63,13.81,14.7,22.28,23.19,28.98,15.96,12.59,32.56,16.5,49.38,16.37,16.25-.13,32.29-4.04,47.71-16.16,10.01-7.87,19.4-18.05,26.51-36.19,6.07-15.5,7.94-35.57,3.3-54.31-1.98-8.02-4.79-14.37-7.76-20.53-3.02-6.27-2.98-13.74-.07-20.1,1.99-4.36,3.91-8.9,5.8-13.48,2.23-5.4,6.63-5.53,8.66.25,4.59,13.05,10.51,22.26,17.12,29.61,8.05,8.95,16.57,14.86,25.36,19.08,3.52,1.69,5.1,7.23,4.35,14.92-1.38,14.32-.48,27.81,3.59,39.54,2.14,6.18,4.65,11.98,7.36,16.96,6.13,11.24,13.31,18.57,20.81,24.21,22.77,17.13,46.15,19.07,69.84,13.43,1.67-.4,3.4-1.27,5.03-.79,19.11,5.64,38.16,5.14,57.07-3.17,14.14-6.21,27.67-16.13,38.7-37.74,7.11-13.92,11.12-30.74,8.73-52.42-.9-8.13,1.5-14.17,4.32-15.01.74-.22,1.47-.66,2.2-1.05,12.94-7.05,25.42-16.37,35.57-36.42,7.21-14.24,11.11-31.33,8.65-53.29-.75-6.7.95-12.67,4.02-14.36,1.58-.87,3.18-1.54,4.76-2.44,11.1-6.38,21.82-14.76,31-30.47,3.42-5.86,6.34-12.26,8.44-19.55h-159.54c-.6.83-1.31,1.46-2.15,1.87-10.21,4.93-20.12,11.82-29.12,23.71-3.36,4.43-6.42,9.99-9.49,15.4-2.9,5.11-5.65,5.54-8.4-.09-1.56-3.2-3.2-6.76-4.07-10.9-1.05-4.95.14-9.51,2.02-13.01,2.69-5,5.15-10.48,6.97-16.98h-109.12c2.94,21.13-1.36,42.12-10.9,50.68-10.6,9.51-22.2-3.76-25.02-26.9-.97-7.99-2.23-15.82-3.27-23.78h-121.24c-.68.88-1.5,1.6-2.47,2.17Zm41.01,147.64c1.43-.87,2.73-2.66,4.12-3.86,2.7-2.32,5.48-3.61,8.4-2.67.06.02.13.06.19.03,5.46-2.81,10.91,1.3,16.37.05.61-.14,1.25-.34,1.81-.83,4.63-4.09,9.26-3.67,13.92-.26,1.24.91,2.5,1.72,3.77,2.44,7.58,4.26,13,17.44,13.95,34.44,1.39,25.08-7.21,44.85-17.09,46.04-2.06.25-4.07,1.18-6.12,2.49-4.23,2.7-8.7,5.43-13.02,5.08-4.26-.34-7.84,3.3-11.51,5.78-9.72,6.57-20.07-1.36-24.33-22.61-1.27-6.34-3.35-11.91-3.78-19.08-.15-2.57-.27-5.15-.4-7.73.11-18.5,5.68-34.41,13.73-39.3Z"/>
      <polygon class="cls-1" points="1.09 269.66 1.09 0 0 0 0 270 1296 270 1296 269.66 1.09 269.66"/>
      <path class="cls-2" d="m294.08,33.8c-8.03,8.71-16.5,14.49-25.24,18.64-2.72,1.29-4.41,7.03-4.17,12.87.32,7.62.55,15.26.67,22.9.11,6.72,1.6,11.65,4.65,12.37,2.64.62,5.36-.15,8.04-.38,19.18-1.7,38.08,1.55,56.38,15.34,2.19,1.65,4.22,1.47,6.41-.02,4.54-3.08,9.13-5.87,13.74-8.48,4.07-2.31,5.57-7.26,4.66-16.27-1.23-12.21-.68-24.02,2.53-34.42,2.08-6.74,4.64-12.89,7.27-18.7,3.05-6.75,3.28-14.53.37-20.41-2.07-4.17-4.1-8.53-5.86-13.3-.48-1.29-.91-2.61-1.32-3.95h-49.36c-.56,1.91-1.15,3.8-1.83,5.67-4.58,12.49-10.48,21.12-16.94,28.13Z"/>
      <path class="cls-2" d="m414.31,176.36c1.07,9.85,3.56,17.4,7.25,23.29,1.1,1.75,2.17,3.75,3.03,6.04,3.78,10.11,8.66,14.98,14.56,15.14.81,0,1.64.21,2.44-.03,10.19-3.09,18.38-24.62,16.03-48.76-.6-6.15-.3-11.84,2.36-16.83,5.03-9.43,7.61-21.55,6.97-36.72-.58-13.83-5.68-28.75-11.66-33.8-4.3-3.63-8.76-1.96-13.12-3.18-.97-.27-2,.11-2.99.36-5.44,1.36-9.9,8.06-14.07,14.65-3.49,5.52-6.07,13.99-8.81,21.6-1.12,3.11-1.72,7.26-2.28,11.13-.68,4.68-1,9.61-1.6,14.36-.85,6.8-.91,13.54.04,20.28.59,4.19,1.4,8.25,1.86,12.49Z"/>
      <path class="cls-2" d="m138.41,156.1c-4.44,1.83-9,2.32-13.53,2.84-2.96.34-5.94-.47-8.92-.58-3.65-.14-7.3-.06-10.94-.16-.86-.02-1.73-.48-2.59-.56-3.02-.27-6.05-.2-9.05-.76-3.47-.65-6.92-1.88-10.39-2.78-3.19-.83-6.4-1.46-9.59-2.35-2.66-.74-5.32-2.57-7.95-2.39-3.47.24-6.29-1.8-8.96-6.58-3.02-5.41-6.82-7.47-10.55-7.35-5.41.18-10.12,4.66-13.98,13.72-6.4,15.05-6.31,40.54.04,55.07,5.1,11.67,11.56,18.46,18.46,23.4,2.67,1.91,5.32,3.04,8.24,2.67,2.86-.36,5.78,1.44,8.67,2.17,5.56,1.41,11.13,2.82,16.7,4.05,5.58,1.24,11.16,2.75,16.76,3.26,6.18.56,12.37.13,18.56.13,0,.22,0,.43,0,.65,4.26,0,8.52.42,12.76-.12,4.21-.54,8.42-1.83,12.6-3.15,11.71-3.69,19.08-28.79,15.3-54.16-2.86-19.2-12.46-30.82-21.65-27.03Z"/>
      <path class="cls-2" d="m179.39,232.56c2.75,2.84,5.17,6.33,7.61,10.09,1.92,2.96,4.23,4.66,6.27,7.29,3.14,4.06,6.43,6.7,10.16,6.96,1.66-.6,3.35-.88,4.96-1.87,8.04-4.94,12.64-17.19,13.79-34.77.99-15.18-1.55-28.5-7.32-37.4-3.53-5.44-7.7-8.87-11.57-13.26-.98-1.11-2.03-2.14-2.82-3.73-5.75-11.48-14.27-14.31-20.98-6.85-6.23,6.93-11.33,21.68-10.29,41.64.76,14.58,4.19,25.69,10.2,31.9Z"/>
      <path class="cls-2" d="m973.99,29.98c.88,4.14,2.51,7.7,4.07,10.9,2.75,5.62,5.5,5.2,8.4.09,3.07-5.41,6.13-10.97,9.49-15.4,9.01-11.89,18.91-18.78,29.12-23.71.84-.41,1.56-1.04,2.15-1.87h-44.25c-1.81,6.5-4.28,11.97-6.97,16.98-1.88,3.5-3.07,8.06-2.02,13.01Z"/>
      <path class="cls-2" d="m1296,269.66V0h-109.23c-2.1,7.29-5.02,13.69-8.44,19.55-9.18,15.71-19.9,24.1-31,30.47-1.58.9-3.18,1.57-4.76,2.44-3.07,1.7-4.77,7.66-4.02,14.36,2.46,21.97-1.44,39.06-8.65,53.29-10.14,20.04-22.63,29.37-35.57,36.42-.73.4-1.46.83-2.2,1.05-2.82.84-5.22,6.88-4.32,15.01,2.39,21.68-1.63,38.5-8.73,52.42-11.03,21.61-24.57,31.53-38.7,37.74-18.91,8.3-37.96,8.8-57.07,3.17-1.63-.48-3.36.39-5.03.79-23.68,5.63-47.07,3.69-69.84-13.43-7.51-5.65-14.68-12.97-20.81-24.21-2.72-4.98-5.22-10.77-7.36-16.96-4.07-11.73-4.97-25.22-3.59-39.54.74-7.69-.83-13.22-4.35-14.92-8.79-4.23-17.31-10.13-25.36-19.08-6.61-7.35-12.53-16.56-17.12-29.61-2.03-5.79-6.43-5.65-8.66-.25-1.89,4.58-3.81,9.12-5.8,13.48-2.91,6.36-2.95,13.83.07,20.1,2.97,6.16,5.78,12.51,7.76,20.53,4.63,18.74,2.77,38.82-3.3,54.31-7.11,18.14-16.5,28.32-26.51,36.19-15.42,12.12-31.46,16.04-47.71,16.16-16.82.13-33.42-3.78-49.38-16.37-8.49-6.7-16.56-15.17-23.19-28.98-4.48-9.34-7.95-20.02-8.77-34.07-.83-14.1,1.38-25.96,5.26-36.64,1.36-3.74,2.97-7.07,4.57-10.32,3.55-7.19,3.54-15.09-.17-22.07-3.38-6.35-6.17-13.74-7.97-22.67-3.73-18.5-1.86-35.23,3.77-50.3,6.8-18.18,16-28.43,25.83-36.13,5-3.92,10.19-6.75,15.33-9.75.97-.57,1.79-1.29,2.47-2.17h-197.03c-.36,1.23-.73,2.46-1.14,3.67-1.54,4.61-3.43,8.79-5.4,12.59-3.43,6.64-3.49,14.04-.27,21.16,2.58,5.71,5.25,11.57,7.18,18.32,5.23,18.24,4.09,39.25-2.3,55.75-6.95,17.92-16.02,28.4-25.85,36.11-5.06,3.97-10.29,7.01-15.52,9.77-2.99,1.57-5.45,7.14-4.49,15.59,1.87,16.53-.25,30.93-5.11,43.71-6.82,17.96-15.98,27.95-25.69,35.92-13.36,10.96-27.3,15.27-41.45,16.51-18.99,1.66-37.71-1.79-55.81-15.55-1.98-1.51-3.88-1.49-5.87,0-20.41,15.23-41.43,18.14-62.75,14.58-3.31-.55-6.6-1.72-9.91-2.26-1.41-.23-2.87.3-4.29.69-15.26,4.25-30.51,3.83-45.76-.39-1.82-.5-3.74.05-5.58.54-15.21,4.03-30.39,3.68-45.57-.62-1.64-.46-3.36.01-5.03.47-15.26,4.23-30.51,3.81-45.76-.39-1.82-.5-3.73.14-5.58.58-23.95,5.64-47.58,3.62-70.54-14.16-8.15-6.31-15.83-14.71-22.23-27.76-4.58-9.32-8.15-20.04-9.05-34.2-.93-14.54,1.33-26.8,5.42-37.73,6.8-18.18,16.03-28.24,25.81-36.25,13.42-11,27.42-15.45,41.64-16.44,7.38-.52,14.78.3,22.17.91,4.1.34,7.07-4.87,6.6-13.68-1.2-22.6,3.76-38.63,11.22-51.86,9.83-17.44,21.5-26.11,33.58-32.61,1.16-.62,2.34-1.02,3.48-1.75.42-.27.82-.69,1.2-1.23H1.09v269.66h1294.91Z"/>
      <path class="cls-2" d="m742.41,215.92c4.26,21.25,14.61,29.18,24.33,22.61,3.67-2.48,7.26-6.12,11.51-5.78,4.32.35,8.79-2.38,13.02-5.08,2.05-1.31,4.06-2.24,6.12-2.49,9.87-1.19,18.48-20.96,17.09-46.04-.95-17-6.37-30.18-13.95-34.44-1.27-.71-2.53-1.53-3.77-2.44-4.66-3.41-9.29-3.83-13.92.26-.56.5-1.2.69-1.81.83-5.45,1.26-10.91-2.86-16.37-.05-.06.03-.12,0-.19-.03-2.92-.94-5.7.35-8.4,2.67-1.39,1.2-2.69,2.99-4.12,3.86-8.06,4.89-13.62,20.8-13.73,39.3.13,2.58.25,5.16.4,7.73.43,7.17,2.51,12.73,3.78,19.08Z"/>
      <path class="cls-2" d="m862.96,50.68c9.54-8.56,13.83-29.55,10.9-50.68h-39.19c1.04,7.95,2.3,15.78,3.27,23.78,2.82,23.15,14.41,36.41,25.02,26.9Z"/>
    </g>
  </g>
</svg>