<?xml version="1.0" encoding="UTF-8"?>
<svg id="Layer_2" data-name="Layer 2" xmlns="http://www.w3.org/2000/svg" xmlns:xlink="http://www.w3.org/1999/xlink" viewBox="0 0 1280 266.67">
  <defs>
    <style>
      .cls-1 {
        clip-path: url(#clippath);
      }

      .cls-2, .cls-3, .cls-4, .cls-5 {
        fill: none;
      }

      .cls-2, .cls-6 {
        stroke-width: 0px;
      }

      .cls-7 {
        clip-path: url(#clippath-1);
      }

      .cls-8 {
        clip-path: url(#clippath-4);
      }

      .cls-9 {
        clip-path: url(#clippath-3);
      }

      .cls-10 {
        clip-path: url(#clippath-2);
      }

      .cls-11 {
        clip-path: url(#clippath-7);
      }

      .cls-12 {
        clip-path: url(#clippath-8);
      }

      .cls-13 {
        clip-path: url(#clippath-6);
      }

      .cls-14 {
        clip-path: url(#clippath-5);
      }

      .cls-15 {
        clip-path: url(#clippath-9);
      }

      .cls-16 {
        clip-path: url(#clippath-20);
      }

      .cls-17 {
        clip-path: url(#clippath-21);
      }

      .cls-18 {
        clip-path: url(#clippath-24);
      }

      .cls-19 {
        clip-path: url(#clippath-23);
      }

      .cls-20 {
        clip-path: url(#clippath-22);
      }

      .cls-21 {
        clip-path: url(#clippath-25);
      }

      .cls-22 {
        clip-path: url(#clippath-27);
      }

      .cls-23 {
        clip-path: url(#clippath-28);
      }

      .cls-24 {
        clip-path: url(#clippath-26);
      }

      .cls-25 {
        clip-path: url(#clippath-29);
      }

      .cls-26 {
        clip-path: url(#clippath-34);
      }

      .cls-27 {
        clip-path: url(#clippath-35);
      }

      .cls-28 {
        clip-path: url(#clippath-33);
      }

      .cls-29 {
        clip-path: url(#clippath-32);
      }

      .cls-30 {
        clip-path: url(#clippath-30);
      }

      .cls-31 {
        clip-path: url(#clippath-31);
      }

      .cls-32 {
        clip-path: url(#clippath-14);
      }

      .cls-33 {
        clip-path: url(#clippath-13);
      }

      .cls-34 {
        clip-path: url(#clippath-12);
      }

      .cls-35 {
        clip-path: url(#clippath-10);
      }

      .cls-36 {
        clip-path: url(#clippath-15);
      }

      .cls-37 {
        clip-path: url(#clippath-17);
      }

      .cls-38 {
        clip-path: url(#clippath-16);
      }

      .cls-39 {
        clip-path: url(#clippath-19);
      }

      .cls-40 {
        clip-path: url(#clippath-11);
      }

      .cls-41 {
        clip-path: url(#clippath-18);
      }

      .cls-3 {
        stroke: #000;
      }

      .cls-3, .cls-4, .cls-5 {
        stroke-miterlimit: 10;
        stroke-width: 2px;
      }

      .cls-4 {
        stroke: #298882;
      }

      .cls-5 {
        stroke: #399;
      }

      .cls-6 {
        fill: #298882;
      }
    </style>
    <clipPath id="clippath">
      <rect class="cls-2" y="0" width="1280" height="266.67"/>
    </clipPath>
    <clipPath id="clippath-1">
      <rect class="cls-2" y="0" width="1280" height="266.67"/>
    </clipPath>
    <clipPath id="clippath-2">
      <rect class="cls-2" y="0" width="1280" height="266.67"/>
    </clipPath>
    <clipPath id="clippath-3">
      <rect class="cls-2" y="0" width="1280" height="266.67"/>
    </clipPath>
    <clipPath id="clippath-4">
      <rect class="cls-2" y="0" width="1280" height="266.67"/>
    </clipPath>
    <clipPath id="clippath-5">
      <rect class="cls-2" y="0" width="1280" height="266.67"/>
    </clipPath>
    <clipPath id="clippath-6">
      <rect class="cls-2" y="0" width="1280" height="266.67"/>
    </clipPath>
    <clipPath id="clippath-7">
      <rect class="cls-2" y="0" width="1280" height="266.67"/>
    </clipPath>
    <clipPath id="clippath-8">
      <rect class="cls-2" y="0" width="1280" height="266.67"/>
    </clipPath>
    <clipPath id="clippath-9">
      <rect class="cls-2" y="0" width="1280" height="266.67"/>
    </clipPath>
    <clipPath id="clippath-10">
      <rect class="cls-2" y="0" width="1280" height="266.67"/>
    </clipPath>
    <clipPath id="clippath-11">
      <rect class="cls-2" y="0" width="1280" height="266.67"/>
    </clipPath>
    <clipPath id="clippath-12">
      <rect class="cls-2" y="0" width="1280" height="266.67"/>
    </clipPath>
    <clipPath id="clippath-13">
      <rect class="cls-2" y="0" width="1280" height="266.67"/>
    </clipPath>
    <clipPath id="clippath-14">
      <rect class="cls-2" y="0" width="1280" height="266.67"/>
    </clipPath>
    <clipPath id="clippath-15">
      <rect class="cls-2" y="0" width="1280" height="266.67"/>
    </clipPath>
    <clipPath id="clippath-16">
      <rect class="cls-2" y="0" width="1280" height="266.67"/>
    </clipPath>
    <clipPath id="clippath-17">
      <rect class="cls-2" y="0" width="1280" height="266.67"/>
    </clipPath>
    <clipPath id="clippath-18">
      <rect class="cls-2" y="0" width="1280" height="266.67"/>
    </clipPath>
    <clipPath id="clippath-19">
      <rect class="cls-2" y="0" width="1280" height="266.67"/>
    </clipPath>
    <clipPath id="clippath-20">
      <rect class="cls-2" y="0" width="1280" height="266.67"/>
    </clipPath>
    <clipPath id="clippath-21">
      <rect class="cls-2" y="0" width="1280" height="266.67"/>
    </clipPath>
    <clipPath id="clippath-22">
      <rect class="cls-2" y="0" width="1280" height="266.67"/>
    </clipPath>
    <clipPath id="clippath-23">
      <rect class="cls-2" y="0" width="1280" height="266.67"/>
    </clipPath>
    <clipPath id="clippath-24">
      <rect class="cls-2" y="0" width="1280" height="266.67"/>
    </clipPath>
    <clipPath id="clippath-25">
      <rect class="cls-2" y="0" width="1280" height="266.67"/>
    </clipPath>
    <clipPath id="clippath-26">
      <rect class="cls-2" y="0" width="1280" height="266.67"/>
    </clipPath>
    <clipPath id="clippath-27">
      <rect class="cls-2" y="0" width="1280" height="266.67"/>
    </clipPath>
    <clipPath id="clippath-28">
      <rect class="cls-2" y="0" width="1280" height="266.67"/>
    </clipPath>
    <clipPath id="clippath-29">
      <rect class="cls-2" y="0" width="1280" height="266.67"/>
    </clipPath>
    <clipPath id="clippath-30">
      <rect class="cls-2" y="0" width="1280" height="266.67"/>
    </clipPath>
    <clipPath id="clippath-31">
      <rect class="cls-2" y="0" width="1280" height="266.67"/>
    </clipPath>
    <clipPath id="clippath-32">
      <rect class="cls-2" y="0" width="1280" height="266.67"/>
    </clipPath>
    <clipPath id="clippath-33">
      <rect class="cls-2" y="0" width="1280" height="266.67"/>
    </clipPath>
    <clipPath id="clippath-34">
      <rect class="cls-2" y="0" width="1280" height="266.67"/>
    </clipPath>
    <clipPath id="clippath-35">
      <rect class="cls-2" y="0" width="1280" height="266.67"/>
    </clipPath>
  </defs>
  <g id="Layer_1-2" data-name="Layer 1">
    <polygon class="cls-6" points="142.4 0 145 7.57 147.74 0 142.4 0"/>
    <polygon class="cls-6" points="697.31 0 700.49 7.08 702.42 0 697.31 0"/>
    <g class="cls-1">
      <path class="cls-4" d="m95.86,96.6c4.05.35,6.98-5.02,6.52-14.1-1.18-23.3,3.72-39.83,11.08-53.47,9.26-17.15,20.17-26.08,31.5-32.68"/>
    </g>
    <g class="cls-7">
      <path class="cls-4" d="m102.49,259.13c-23.82,5.7-47.33,3.65-70.17-14.3-8.11-6.37-15.74-14.86-22.11-28.03-4.56-9.41-8.11-20.24-9.01-34.53-.93-14.68,1.33-27.07,5.39-38.1,6.77-18.36,15.94-28.52,25.67-36.61,13.35-11.11,27.27-15.6,41.42-16.6,3.66-.26,7.33-.18,11,.03"/>
    </g>
    <polygon class="cls-6" points="82.26 101.11 95.83 94.23 82.5 85.42 82.26 101.11"/>
    <g class="cls-10">
      <path class="cls-4" d="m152.98,254.1c-13.04,9.82-26.06,10.15-39.08,2.54"/>
    </g>
    <polygon class="cls-6" points="116.12 249.9 102.56 256.83 115.9 265.59 116.12 249.9"/>
    <g class="cls-9">
      <path class="cls-4" d="m203.07,254.24c-12.79,9.53-25.56,10.08-38.33,2.43"/>
    </g>
    <polygon class="cls-6" points="153.39 256.65 166.69 265.69 166.98 250 153.39 256.65"/>
    <g class="cls-8">
      <path class="cls-4" d="m258.31,253.65c-1.38-.52-2.8.67-4.19,1.56-13.13,8.43-26.24,8.7-39.36,2.19"/>
    </g>
    <polygon class="cls-6" points="217.05 249.9 203.48 256.79 216.81 265.59 217.05 249.9"/>
    <g class="cls-14">
      <path class="cls-4" d="m336.1,241.81c-1.95-1.9-3.83-1.88-5.79,0-19.76,18.86-40.1,22.73-60.73,18.61"/>
    </g>
    <polygon class="cls-6" points="258.55 255.95 271.61 266.56 272.29 250.93 258.55 255.95"/>
    <g class="cls-13">
      <path class="cls-4" d="m467.39,147.03c-2.95,1.61-5.38,7.32-4.43,15.97,1.85,16.93-.25,31.69-5.05,44.78-6.74,18.4-15.79,28.64-25.38,36.8-13.2,11.22-26.97,15.65-40.95,16.92-15.1,1.37-30.03-.65-44.61-8.85"/>
    </g>
    <polygon class="cls-6" points="350.22 244.41 336.29 243.87 348.23 259.5 350.22 244.41"/>
    <g class="cls-11">
      <path class="cls-4" d="m504.32,8.82c-3.44,6.74-3.5,14.25-.27,21.48,2.59,5.79,5.26,11.74,7.2,18.6,5.24,18.52,4.1,39.84-2.3,56.59-6.96,18.19-16.06,28.83-25.9,36.66-1.58,1.26-3.18,2.42-4.79,3.52"/>
    </g>
    <polygon class="cls-6" points="479.51 134.04 467.5 149.43 481.44 149.17 479.51 134.04"/>
    <polygon class="cls-6" points="506.13 0 503.9 10.9 510.81 0 506.13 0"/>
    <g class="cls-12">
      <path class="cls-4" d="m666.11,137.47c3.55-7.29,3.54-15.3-.17-22.38-3.38-6.44-6.17-13.92-7.97-22.98-3.73-18.75-1.86-35.71,3.77-50.99,6.79-18.43,16-28.82,25.83-36.63,4.09-3.24,8.3-5.75,12.51-8.22"/>
    </g>
    <g class="cls-15">
      <path class="cls-4" d="m806.9,132.6c2.96,6.27,5.76,12.72,7.74,20.87,4.62,19.05,2.76,39.46-3.29,55.21-7.09,18.44-16.45,28.79-26.42,36.78-15.37,12.32-31.35,16.3-47.55,16.43-16.77.14-33.31-3.84-49.23-16.64-8.46-6.81-16.51-15.42-23.12-29.46-4.47-9.49-7.92-20.35-8.75-34.63-.62-10.72.46-20.16,2.66-28.79"/>
    </g>
    <polygon class="cls-6" points="660.9 163.15 666.56 135.43 655.29 153.28 660.9 163.15"/>
    <g class="cls-35">
      <path class="cls-3" d="m812.28,99.69c-1.44,4.5-2.89,8.97-4.37,13.35"/>
    </g>
    <polygon class="cls-6" points="805.73 104.33 806.41 134.62 812.78 107.64 805.73 104.33"/>
    <g class="cls-40">
      <path class="cls-4" d="m862.58,152.13c-8.72-4.57-17.17-10.97-25.16-20.65-5.58-6.78-10.68-15.02-14.87-26.05"/>
    </g>
    <polygon class="cls-6" points="826.01 102.73 812.09 101.65 823.9 117.75 826.01 102.73"/>
    <g class="cls-34">
      <path class="cls-4" d="m972.5,258.29c-1.62-.49-3.34.39-5,.8-23.55,5.7-46.81,3.73-69.44-13.58-7.46-5.71-14.6-13.12-20.7-24.48-2.7-5.04-5.19-10.89-7.32-17.14-3.29-9.64-4.49-20.45-4.1-31.94"/>
    </g>
    <polygon class="cls-6" points="870.28 175.18 862.72 149.71 863.42 180 870.28 175.18"/>
    <g class="cls-33">
      <path class="cls-4" d="m1076.59,163.7c2.38,21.97-1.62,39.02-8.69,53.12-10.98,21.9-24.45,31.95-38.52,38.25-15.19,6.79-30.48,8.43-45.81,5.81"/>
    </g>
    <polygon class="cls-6" points="972.58 256.02 985.63 266.67 986.33 251.04 972.58 256.02"/>
    <g class="cls-32">
      <path class="cls-4" d="m1126.82,59.85c2.46,22.33-1.44,39.71-8.65,54.18-9.76,19.61-21.68,29.12-34.1,36.2"/>
    </g>
    <polygon class="cls-6" points="1083.79 139.18 1076.04 164.39 1088.54 151 1083.79 139.18"/>
    <g class="cls-36">
      <path class="cls-4" d="m1177.89-38.87c1.32,23.97-3.89,40.65-11.81,54.4-9.18,15.94-19.9,24.45-31,30.91-.2.12-.4.23-.6.34"/>
    </g>
    <polygon class="cls-6" points="1134.3 35.76 1126.27 60.54 1138.92 47.82 1134.3 35.76"/>
    <g class="cls-38">
      <path class="cls-4" d="m365.02,13.91c-2.18-4.3-4.32-8.8-6.19-13.71-6.33-16.68-6.98-37.69-1.49-55.74,1.6-5.26,3.57-10.09,5.67-14.58"/>
      <path class="cls-4" d="m354.29,84.68c-1.32-12.61-.73-24.81,2.73-35.55,1.79-5.56,3.91-10.74,6.13-15.65"/>
    </g>
    <polygon class="cls-6" points="365.27 42.19 364.86 11.88 358.25 38.57 365.27 42.19"/>
    <g class="cls-37">
      <path class="cls-5" d="m330.5,110.03c2.09,2.63,4.04,2.34,6.14-.03,3.45-3.9,6.93-7.51,10.43-10.92"/>
    </g>
    <polygon class="cls-6" points="347.69 110.15 354.79 84.06 342.65 98.93 347.69 110.15"/>
    <g class="cls-41">
      <path class="cls-5" d="m274.49,91.16c15.2-2.1,30.23.73,44.91,13"/>
    </g>
    <polygon class="cls-6" points="316.29 107.92 330.22 108.38 318.26 92.81 316.29 107.92"/>
    <g class="cls-39">
      <path class="cls-4" d="m260.64,58.8c.42,7.99.72,16,.89,24.01.08,4.09.79,7.56,2.16,9.88"/>
    </g>
    <polygon class="cls-6" points="260.5 95.11 274.41 93.31 261.95 79.73 260.5 95.11"/>
    <g class="cls-16">
      <path class="cls-4" d="m302.54-73.92c1.27,2.48,2.49,5.12,3.66,7.86,8.67,20.36,9.17,45.55,1.37,67.28-4.58,12.74-10.48,21.54-16.95,28.69-6.64,7.35-13.59,12.65-20.73,16.66"/>
    </g>
    <polygon class="cls-6" points="269.91 35.4 261.19 59.06 274.17 48.06 269.91 35.4"/>
    <g class="cls-17">
      <path class="cls-4" d="m828.18,18c2.87,24.78,14.68,38.98,25.47,28.8,6.45-6.08,10.55-18.04,11.7-32.01"/>
    </g>
    <polygon class="cls-6" points="862.94 0 861.04 21.28 868.24 20.17 865.04 0 862.94 0"/>
    <polygon class="cls-6" points="823.52 0 828.68 18.28 828.45 0 823.52 0"/>
    <g class="cls-20">
      <path class="cls-4" d="m130.05,233.39c4.25-.56,8.48-1.9,12.7-3.27,11.8-3.83,19.23-29.87,15.42-56.21-2.6-17.95-10.71-29.52-19.06-28.76"/>
    </g>
    <polygon class="cls-6" points="140.97 139.42 127.97 150.33 141.74 155.03 140.97 139.42"/>
    <g class="cls-19">
      <path class="cls-4" d="m57.38,218.69c2.83-.52,5.71,2.08,8.57,3.13,5.5,2.03,11,4.06,16.51,5.85,5.51,1.79,11.03,3.97,16.56,4.71,6.1.81,12.23.18,18.34.18v.94c.54,0,1.09.01,1.63.03"/>
    </g>
    <polygon class="cls-6" points="116.57 239 130.01 231.01 116.53 223.3 116.57 239"/>
    <g class="cls-18">
      <path class="cls-4" d="m55.21,133.13c-3.06-5.6-6.9-7.73-10.69-7.6-5.47.19-10.25,4.82-14.15,14.2-6.48,15.57-6.39,41.95.04,56.98,4.49,10.51,10.02,17.18,15.98,22.11"/>
    </g>
    <polygon class="cls-6" points="43.37 222.52 57.28 221.05 44.89 207.18 43.37 222.52"/>
    <g class="cls-21">
      <path class="cls-4" d="m127.86,152.34c-1.72.4-3.44.69-5.15.98-2.92.5-5.86-.69-8.79-.86-3.6-.21-7.19-.09-10.79-.24-.85-.04-1.7-.72-2.55-.83-2.97-.4-5.96-.29-8.92-1.13-3.42-.97-6.82-2.79-10.24-4.13-3.15-1.23-6.31-2.17-9.45-3.48-2.05-.86-4.1-2.71-6.14-3.35"/>
    </g>
    <polygon class="cls-6" points="69.04 135.24 55.1 135.11 67.14 150.39 69.04 135.24"/>
    <g class="cls-24">
      <path class="cls-4" d="m747.37,135.83c-1.4,1.23-2.71,3.09-4.14,3.98-8.1,5.05-13.69,21.47-13.8,40.57.13,2.66.25,5.33.4,7.98.43,7.4,2.52,13.14,3.8,19.69,4.28,21.93,14.68,30.11,24.45,23.34.23-.16.45-.32.67-.48"/>
    </g>
    <polygon class="cls-6" points="757.29 237.67 769.6 223.45 755.67 222.36 757.29 237.67"/>
    <g class="cls-22">
      <path class="cls-4" d="m773.75,133.28c-.52,2.31-1.11,3.22-1.68,3.87-4.32,4.99-8.65-8.19-12.97-4.07"/>
    </g>
    <polygon class="cls-6" points="760.51 126.54 747.65 138.22 761.47 142.1 760.51 126.54"/>
    <g class="cls-23">
      <path class="cls-4" d="m769.62,225.82c4.34.36,8.83-2.46,13.08-5.25,2.06-1.36,4.08-2.32,6.15-2.58,9.92-1.23,18.56-21.66,17.16-47.59-.95-17.57-6.4-31.2-14.01-35.6-1.28-.74-2.54-1.58-3.79-2.52-.95-.72-1.9-1.31-2.85-1.75"/>
    </g>
    <polygon class="cls-6" points="787.42 125.69 774.14 134.85 787.75 141.37 787.42 125.69"/>
    <polygon class="cls-6" points="967.85 0 965.36 11.6 972.98 0 967.85 0"/>
    <g class="cls-25">
      <path class="cls-3" d="m1014.03-.84c3.9-1.83,5.33-7.84,4.84-16.26-.36-6.37-.61-13-.35-19.38"/>
      <path class="cls-4" d="m975.64,37.34c3.03-6.07,6.05-12.3,9.37-17.27,5.73-8.59,11.82-14.86,18.13-19.71"/>
    </g>
    <polygon class="cls-6" points="1000.39 0 1001.89 12.01 1011.39 0 1000.39 0"/>
    <g class="cls-30">
      <path class="cls-4" d="m965.5,9.53c-2.4,4.16-3.91,9.6-2.58,15.5.52,2.31,1.26,4.47,2.1,6.51"/>
    </g>
    <polygon class="cls-6" points="961.79 33.95 975.71 35.16 963.94 18.96 961.79 33.95"/>
    <g class="cls-31">
      <path class="cls-4" d="m433.98,72.92c-5.5,1.38-10.02,8.19-14.24,14.88-3.54,5.61-6.15,14.22-8.91,21.94-1.13,3.16-1.74,7.37-2.31,11.31-.69,4.76-1.02,9.76-1.62,14.59-.86,6.91-.92,13.76.04,20.61.6,4.25,1.41,8.38,1.88,12.69,1.08,10.01,3.6,17.68,7.33,23.66,1.11,1.78,2.2,3.81,3.06,6.14,3.83,10.28,8.76,15.22,14.73,15.38.82,0,1.66.21,2.47-.03,6.61-2.01,12.38-11.71,15.06-24.88"/>
    </g>
    <polygon class="cls-6" points="453.89 193.93 452.19 163.83 446.75 191.76 453.89 193.93"/>
    <g class="cls-29">
      <path class="cls-4" d="m452.46,164.44c-.61-6.24-.31-12.02,2.4-17.08,5.13-9.57,7.76-21.88,7.11-37.27-.59-14.04-5.79-29.18-11.9-34.31-1.68-1.41-3.39-2.04-5.1-2.33"/>
    </g>
    <polygon class="cls-6" points="447.49 68.38 433.93 75.3 447.27 84.07 447.49 68.38"/>
    <g class="cls-28">
      <path class="cls-4" d="m176.83,224.18c2.75,2.96,5.17,6.59,7.62,10.51,1.92,3.08,4.24,4.86,6.28,7.6,3.14,4.23,6.44,6.98,10.17,7.25,1.66-.63,3.36-.92,4.96-1.94,8.05-5.15,12.65-17.9,13.8-36.22.42-6.64.21-12.94-.6-18.7"/>
    </g>
    <polygon class="cls-6" points="222.54 193.94 211.86 174.47 216.63 202.96 222.54 193.94"/>
    <g class="cls-26">
      <path class="cls-4" d="m197.75,156.07c-5.82-11.97-14.44-14.93-21.24-7.14-6.3,7.22-11.46,22.61-10.41,43.43.3,5.88,1,11.22,2.1,15.93"/>
    </g>
    <polygon class="cls-6" points="164.71 208.01 176.75 223.27 169.83 196.95 164.71 208.01"/>
    <g class="cls-27">
      <path class="cls-5" d="m211.8,176.92c-1.32-4.07-2.75-7.54-4.21-10.75"/>
    </g>
    <polygon class="cls-6" points="211.21 164.3 197.61 157.77 207.89 178.24 211.21 164.3"/>
  </g>
</svg>